%TF.GenerationSoftware,KiCad,Pcbnew,9.0.0*%
%TF.CreationDate,2025-08-25T15:59:45-02:30*%
%TF.ProjectId,STM32_PCB_Test_Project,53544d33-325f-4504-9342-5f546573745f,rev?*%
%TF.SameCoordinates,Original*%
%TF.FileFunction,Copper,L2,Inr*%
%TF.FilePolarity,Positive*%
%FSLAX46Y46*%
G04 Gerber Fmt 4.6, Leading zero omitted, Abs format (unit mm)*
G04 Created by KiCad (PCBNEW 9.0.0) date 2025-08-25 15:59:45*
%MOMM*%
%LPD*%
G01*
G04 APERTURE LIST*
%TA.AperFunction,ComponentPad*%
%ADD10R,1.700000X1.700000*%
%TD*%
%TA.AperFunction,ComponentPad*%
%ADD11O,1.700000X1.700000*%
%TD*%
%TA.AperFunction,HeatsinkPad*%
%ADD12O,1.000000X2.100000*%
%TD*%
%TA.AperFunction,HeatsinkPad*%
%ADD13O,1.000000X1.800000*%
%TD*%
%TA.AperFunction,ViaPad*%
%ADD14C,0.600000*%
%TD*%
%TA.AperFunction,ViaPad*%
%ADD15C,0.700000*%
%TD*%
G04 APERTURE END LIST*
D10*
%TO.N,+3.3V*%
%TO.C,J2*%
X157025000Y-74675000D03*
D11*
%TO.N,/SWDIO*%
X159565000Y-74675000D03*
%TO.N,/SWCLK*%
X162105000Y-74675000D03*
%TO.N,GND*%
X164645000Y-74675000D03*
%TD*%
D10*
%TO.N,GND*%
%TO.C,J4*%
X168515000Y-74650000D03*
D11*
%TO.N,VBUS*%
X168515000Y-77190000D03*
%TO.N,/PA2*%
X168515000Y-79730000D03*
%TO.N,/PA1*%
X168515000Y-82270000D03*
%TO.N,/PA0*%
X168515000Y-84810000D03*
%TO.N,+3.3V*%
X168515000Y-87350000D03*
X168515000Y-89890000D03*
%TO.N,GND*%
X168515000Y-92430000D03*
X168515000Y-94970000D03*
%TO.N,/PC13*%
X168515000Y-97510000D03*
%TO.N,+3.3V*%
X168515000Y-100050000D03*
%TO.N,/PB9*%
X168515000Y-102590000D03*
%TO.N,/PB8*%
X168515000Y-105130000D03*
%TO.N,/PB7*%
X168515000Y-107670000D03*
%TO.N,/PB6*%
X168515000Y-110210000D03*
%TO.N,/PB5*%
X168515000Y-112750000D03*
%TO.N,/PB4*%
X168515000Y-115290000D03*
%TO.N,/PB3*%
X168515000Y-117830000D03*
%TO.N,/PA15*%
X168515000Y-120370000D03*
%TD*%
D10*
%TO.N,GND*%
%TO.C,J3*%
X153275000Y-74650000D03*
D11*
%TO.N,VBUS*%
X153275000Y-77190000D03*
%TO.N,/PA3*%
X153275000Y-79730000D03*
%TO.N,/PA4*%
X153275000Y-82270000D03*
%TO.N,/PA5*%
X153275000Y-84810000D03*
%TO.N,/PA6*%
X153275000Y-87350000D03*
%TO.N,/PA7*%
X153275000Y-89890000D03*
%TO.N,/PB0*%
X153275000Y-92430000D03*
%TO.N,/PB1*%
X153275000Y-94970000D03*
%TO.N,/PB2*%
X153275000Y-97510000D03*
%TO.N,/PB10*%
X153275000Y-100050000D03*
%TO.N,/PB11*%
X153275000Y-102590000D03*
%TO.N,/PB12*%
X153275000Y-105130000D03*
%TO.N,/PB13*%
X153275000Y-107670000D03*
%TO.N,/PB14*%
X153275000Y-110210000D03*
%TO.N,/PB15*%
X153275000Y-112750000D03*
%TO.N,/PA8*%
X153275000Y-115290000D03*
%TO.N,/PA9*%
X153275000Y-117830000D03*
%TO.N,/PA10*%
X153275000Y-120370000D03*
%TD*%
D12*
%TO.N,GND*%
%TO.C,J1*%
X156605000Y-115560000D03*
D13*
X156605000Y-119740000D03*
D12*
X165245000Y-115560000D03*
D13*
X165245000Y-119740000D03*
%TD*%
D14*
%TO.N,VBUS*%
X160950000Y-107525000D03*
D15*
%TO.N,GND*%
X158600000Y-83100000D03*
D14*
X166225000Y-88475000D03*
X163125000Y-97100000D03*
X157050000Y-113225000D03*
X158300000Y-96300000D03*
D15*
X159790000Y-87852910D03*
D14*
X167000000Y-74700000D03*
X162350000Y-80000000D03*
X165075000Y-105000000D03*
X164125000Y-113200000D03*
X163550000Y-109800000D03*
X162316154Y-95356484D03*
X166800000Y-99900000D03*
X162875000Y-109800000D03*
X164906963Y-86894132D03*
X154800000Y-74700000D03*
D15*
X160910245Y-112675000D03*
D14*
%TO.N,+3.3V*%
X163000000Y-106000000D03*
X164425000Y-98025000D03*
X160500000Y-102900000D03*
X156825000Y-97350000D03*
D15*
X163002000Y-108100000D03*
D14*
X165387500Y-109062500D03*
X157025000Y-76025000D03*
X159750000Y-80100000D03*
%TO.N,+3.3VA*%
X161825000Y-94725000D03*
%TO.N,Net-(U1-NRST)*%
X163125000Y-82250000D03*
X164000000Y-84500000D03*
%TO.N,/OSC_IN*%
X165700270Y-93003290D03*
%TO.N,/OSC32_IN*%
X166875000Y-93975000D03*
%TO.N,/OSC32_OUT*%
X166012821Y-94008523D03*
%TO.N,VBUS*%
X158605331Y-114180331D03*
X163325000Y-114100000D03*
%TO.N,/SWCLK*%
X161725000Y-76875000D03*
X157859620Y-97465380D03*
%TO.N,/SWDIO*%
X158200000Y-77150000D03*
X159980122Y-100889752D03*
D15*
%TO.N,/OSC_OUT*%
X164956963Y-92000000D03*
D14*
%TO.N,/USB_D+*%
X161976000Y-116459620D03*
X160675000Y-116425000D03*
%TO.N,/USB_D-*%
X160075000Y-117275000D03*
X161325000Y-117250000D03*
%TD*%
%TA.AperFunction,Conductor*%
%TO.N,+3.3V*%
G36*
X168765000Y-89456988D02*
G01*
X168707993Y-89424075D01*
X168580826Y-89390000D01*
X168449174Y-89390000D01*
X168322007Y-89424075D01*
X168265000Y-89456988D01*
X168265000Y-87783012D01*
X168322007Y-87815925D01*
X168449174Y-87850000D01*
X168580826Y-87850000D01*
X168707993Y-87815925D01*
X168765000Y-87783012D01*
X168765000Y-89456988D01*
G37*
%TD.AperFunction*%
%TA.AperFunction,Conductor*%
G36*
X170457539Y-72670185D02*
G01*
X170503294Y-72722989D01*
X170514500Y-72774500D01*
X170514500Y-122225500D01*
X170494815Y-122292539D01*
X170442011Y-122338294D01*
X170390500Y-122349500D01*
X151399500Y-122349500D01*
X151332461Y-122329815D01*
X151286706Y-122277011D01*
X151275500Y-122225500D01*
X151275500Y-73755131D01*
X152124500Y-73755131D01*
X152124500Y-75544856D01*
X152124502Y-75544882D01*
X152127413Y-75569987D01*
X152127415Y-75569991D01*
X152172793Y-75672764D01*
X152172794Y-75672765D01*
X152252235Y-75752206D01*
X152355009Y-75797585D01*
X152380135Y-75800500D01*
X153117873Y-75800499D01*
X153184910Y-75820183D01*
X153230665Y-75872987D01*
X153240609Y-75942146D01*
X153211584Y-76005702D01*
X153152806Y-76043476D01*
X153137270Y-76046972D01*
X153005589Y-76067829D01*
X152833363Y-76123787D01*
X152833360Y-76123788D01*
X152672002Y-76206006D01*
X152525505Y-76312441D01*
X152525500Y-76312445D01*
X152397445Y-76440500D01*
X152397441Y-76440505D01*
X152291006Y-76587002D01*
X152208788Y-76748360D01*
X152208787Y-76748363D01*
X152152829Y-76920589D01*
X152124500Y-77099448D01*
X152124500Y-77280551D01*
X152152829Y-77459410D01*
X152208787Y-77631636D01*
X152208788Y-77631639D01*
X152291006Y-77792997D01*
X152397441Y-77939494D01*
X152397445Y-77939499D01*
X152525500Y-78067554D01*
X152525505Y-78067558D01*
X152653287Y-78160396D01*
X152672006Y-78173996D01*
X152777484Y-78227740D01*
X152833360Y-78256211D01*
X152833363Y-78256212D01*
X152919476Y-78284191D01*
X153005591Y-78312171D01*
X153078639Y-78323740D01*
X153165678Y-78337527D01*
X153228813Y-78367456D01*
X153265744Y-78426768D01*
X153264746Y-78496631D01*
X153226136Y-78554863D01*
X153165678Y-78582473D01*
X153005589Y-78607829D01*
X152833363Y-78663787D01*
X152833360Y-78663788D01*
X152672002Y-78746006D01*
X152525505Y-78852441D01*
X152525500Y-78852445D01*
X152397445Y-78980500D01*
X152397441Y-78980505D01*
X152291006Y-79127002D01*
X152208788Y-79288360D01*
X152208787Y-79288363D01*
X152152829Y-79460589D01*
X152124500Y-79639448D01*
X152124500Y-79820551D01*
X152152829Y-79999410D01*
X152208787Y-80171636D01*
X152208788Y-80171639D01*
X152291006Y-80332997D01*
X152397441Y-80479494D01*
X152397445Y-80479499D01*
X152525500Y-80607554D01*
X152525505Y-80607558D01*
X152653287Y-80700396D01*
X152672006Y-80713996D01*
X152777484Y-80767740D01*
X152833360Y-80796211D01*
X152833363Y-80796212D01*
X152919476Y-80824191D01*
X153005591Y-80852171D01*
X153078639Y-80863740D01*
X153165678Y-80877527D01*
X153228813Y-80907456D01*
X153265744Y-80966768D01*
X153264746Y-81036631D01*
X153226136Y-81094863D01*
X153165678Y-81122473D01*
X153005589Y-81147829D01*
X152833363Y-81203787D01*
X152833360Y-81203788D01*
X152672002Y-81286006D01*
X152525505Y-81392441D01*
X152525500Y-81392445D01*
X152397445Y-81520500D01*
X152397441Y-81520505D01*
X152291006Y-81667002D01*
X152208788Y-81828360D01*
X152208787Y-81828363D01*
X152152829Y-82000589D01*
X152124500Y-82179448D01*
X152124500Y-82360551D01*
X152152829Y-82539410D01*
X152208787Y-82711636D01*
X152208788Y-82711639D01*
X152258689Y-82809573D01*
X152291003Y-82872993D01*
X152291006Y-82872997D01*
X152397441Y-83019494D01*
X152397445Y-83019499D01*
X152525500Y-83147554D01*
X152525505Y-83147558D01*
X152653287Y-83240396D01*
X152672006Y-83253996D01*
X152777484Y-83307740D01*
X152833360Y-83336211D01*
X152833363Y-83336212D01*
X152919476Y-83364191D01*
X153005591Y-83392171D01*
X153078639Y-83403740D01*
X153165678Y-83417527D01*
X153228813Y-83447456D01*
X153265744Y-83506768D01*
X153264746Y-83576631D01*
X153226136Y-83634863D01*
X153165678Y-83662473D01*
X153005589Y-83687829D01*
X152833363Y-83743787D01*
X152833360Y-83743788D01*
X152672002Y-83826006D01*
X152525505Y-83932441D01*
X152525500Y-83932445D01*
X152397445Y-84060500D01*
X152397441Y-84060505D01*
X152291006Y-84207002D01*
X152208788Y-84368360D01*
X152208787Y-84368363D01*
X152152829Y-84540589D01*
X152124500Y-84719448D01*
X152124500Y-84900551D01*
X152152829Y-85079410D01*
X152208787Y-85251636D01*
X152208788Y-85251639D01*
X152291006Y-85412997D01*
X152397441Y-85559494D01*
X152397445Y-85559499D01*
X152525500Y-85687554D01*
X152525505Y-85687558D01*
X152653287Y-85780396D01*
X152672006Y-85793996D01*
X152777484Y-85847740D01*
X152833360Y-85876211D01*
X152833363Y-85876212D01*
X152919476Y-85904191D01*
X153005591Y-85932171D01*
X153078639Y-85943740D01*
X153165678Y-85957527D01*
X153228813Y-85987456D01*
X153265744Y-86046768D01*
X153264746Y-86116631D01*
X153226136Y-86174863D01*
X153165678Y-86202473D01*
X153005589Y-86227829D01*
X152833363Y-86283787D01*
X152833360Y-86283788D01*
X152672002Y-86366006D01*
X152525505Y-86472441D01*
X152525500Y-86472445D01*
X152397445Y-86600500D01*
X152397441Y-86600505D01*
X152291006Y-86747002D01*
X152208788Y-86908360D01*
X152208787Y-86908363D01*
X152152829Y-87080589D01*
X152124500Y-87259448D01*
X152124500Y-87440551D01*
X152152829Y-87619410D01*
X152208787Y-87791636D01*
X152208788Y-87791639D01*
X152251009Y-87874500D01*
X152271860Y-87915423D01*
X152291006Y-87952997D01*
X152397441Y-88099494D01*
X152397445Y-88099499D01*
X152525500Y-88227554D01*
X152525505Y-88227558D01*
X152580590Y-88267579D01*
X152672006Y-88333996D01*
X152761750Y-88379723D01*
X152833360Y-88416211D01*
X152833363Y-88416212D01*
X152873876Y-88429375D01*
X153005591Y-88472171D01*
X153078639Y-88483740D01*
X153165678Y-88497527D01*
X153228813Y-88527456D01*
X153265744Y-88586768D01*
X153264746Y-88656631D01*
X153226136Y-88714863D01*
X153165678Y-88742473D01*
X153005589Y-88767829D01*
X152833363Y-88823787D01*
X152833360Y-88823788D01*
X152672002Y-88906006D01*
X152525505Y-89012441D01*
X152525500Y-89012445D01*
X152397445Y-89140500D01*
X152397441Y-89140505D01*
X152291006Y-89287002D01*
X152208788Y-89448360D01*
X152208787Y-89448363D01*
X152152829Y-89620589D01*
X152124500Y-89799448D01*
X152124500Y-89980551D01*
X152152829Y-90159410D01*
X152208787Y-90331636D01*
X152208788Y-90331639D01*
X152291006Y-90492997D01*
X152397441Y-90639494D01*
X152397445Y-90639499D01*
X152525500Y-90767554D01*
X152525505Y-90767558D01*
X152653287Y-90860396D01*
X152672006Y-90873996D01*
X152761750Y-90919723D01*
X152833360Y-90956211D01*
X152833363Y-90956212D01*
X152919476Y-90984191D01*
X153005591Y-91012171D01*
X153078639Y-91023740D01*
X153165678Y-91037527D01*
X153228813Y-91067456D01*
X153265744Y-91126768D01*
X153264746Y-91196631D01*
X153226136Y-91254863D01*
X153165678Y-91282473D01*
X153005589Y-91307829D01*
X152833363Y-91363787D01*
X152833360Y-91363788D01*
X152672002Y-91446006D01*
X152525505Y-91552441D01*
X152525500Y-91552445D01*
X152397445Y-91680500D01*
X152397441Y-91680505D01*
X152291006Y-91827002D01*
X152208788Y-91988360D01*
X152208787Y-91988363D01*
X152152829Y-92160589D01*
X152124500Y-92339448D01*
X152124500Y-92520551D01*
X152152829Y-92699410D01*
X152208787Y-92871636D01*
X152208788Y-92871639D01*
X152291006Y-93032997D01*
X152397441Y-93179494D01*
X152397445Y-93179499D01*
X152525500Y-93307554D01*
X152525505Y-93307558D01*
X152614202Y-93371999D01*
X152672006Y-93413996D01*
X152740599Y-93448946D01*
X152833360Y-93496211D01*
X152833363Y-93496212D01*
X152914610Y-93522610D01*
X153005591Y-93552171D01*
X153073123Y-93562867D01*
X153165678Y-93577527D01*
X153228813Y-93607456D01*
X153265744Y-93666768D01*
X153264746Y-93736631D01*
X153226136Y-93794863D01*
X153165678Y-93822473D01*
X153005589Y-93847829D01*
X152833363Y-93903787D01*
X152833360Y-93903788D01*
X152672002Y-93986006D01*
X152525505Y-94092441D01*
X152525500Y-94092445D01*
X152397445Y-94220500D01*
X152397441Y-94220505D01*
X152291006Y-94367002D01*
X152208788Y-94528360D01*
X152208787Y-94528363D01*
X152152829Y-94700589D01*
X152124500Y-94879448D01*
X152124500Y-95060551D01*
X152152829Y-95239410D01*
X152208787Y-95411636D01*
X152208788Y-95411639D01*
X152291006Y-95572997D01*
X152397441Y-95719494D01*
X152397445Y-95719499D01*
X152525500Y-95847554D01*
X152525505Y-95847558D01*
X152640743Y-95931282D01*
X152672006Y-95953996D01*
X152777484Y-96007740D01*
X152833360Y-96036211D01*
X152833363Y-96036212D01*
X152919476Y-96064191D01*
X153005591Y-96092171D01*
X153078639Y-96103740D01*
X153165678Y-96117527D01*
X153228813Y-96147456D01*
X153265744Y-96206768D01*
X153264746Y-96276631D01*
X153226136Y-96334863D01*
X153165678Y-96362473D01*
X153005589Y-96387829D01*
X152833363Y-96443787D01*
X152833360Y-96443788D01*
X152672002Y-96526006D01*
X152525505Y-96632441D01*
X152525500Y-96632445D01*
X152397445Y-96760500D01*
X152397441Y-96760505D01*
X152291006Y-96907002D01*
X152208788Y-97068360D01*
X152208787Y-97068363D01*
X152152829Y-97240589D01*
X152124500Y-97419448D01*
X152124500Y-97600551D01*
X152152829Y-97779410D01*
X152208787Y-97951636D01*
X152208788Y-97951639D01*
X152291006Y-98112997D01*
X152397441Y-98259494D01*
X152397445Y-98259499D01*
X152525500Y-98387554D01*
X152525505Y-98387558D01*
X152653287Y-98480396D01*
X152672006Y-98493996D01*
X152777484Y-98547740D01*
X152833360Y-98576211D01*
X152833363Y-98576212D01*
X152919476Y-98604191D01*
X153005591Y-98632171D01*
X153078639Y-98643740D01*
X153165678Y-98657527D01*
X153228813Y-98687456D01*
X153265744Y-98746768D01*
X153264746Y-98816631D01*
X153226136Y-98874863D01*
X153165678Y-98902473D01*
X153005589Y-98927829D01*
X152833363Y-98983787D01*
X152833360Y-98983788D01*
X152672002Y-99066006D01*
X152525505Y-99172441D01*
X152525500Y-99172445D01*
X152397445Y-99300500D01*
X152397441Y-99300505D01*
X152291006Y-99447002D01*
X152208788Y-99608360D01*
X152208787Y-99608363D01*
X152152829Y-99780589D01*
X152124500Y-99959448D01*
X152124500Y-100140551D01*
X152152829Y-100319410D01*
X152208787Y-100491636D01*
X152208788Y-100491639D01*
X152291006Y-100652997D01*
X152397441Y-100799494D01*
X152397445Y-100799499D01*
X152525500Y-100927554D01*
X152525505Y-100927558D01*
X152582283Y-100968809D01*
X152672006Y-101033996D01*
X152761750Y-101079723D01*
X152833360Y-101116211D01*
X152833363Y-101116212D01*
X152849768Y-101121542D01*
X153005591Y-101172171D01*
X153078639Y-101183740D01*
X153165678Y-101197527D01*
X153228813Y-101227456D01*
X153265744Y-101286768D01*
X153264746Y-101356631D01*
X153226136Y-101414863D01*
X153165678Y-101442473D01*
X153005589Y-101467829D01*
X152833363Y-101523787D01*
X152833360Y-101523788D01*
X152672002Y-101606006D01*
X152525505Y-101712441D01*
X152525500Y-101712445D01*
X152397445Y-101840500D01*
X152397441Y-101840505D01*
X152291006Y-101987002D01*
X152208788Y-102148360D01*
X152208787Y-102148363D01*
X152152829Y-102320589D01*
X152124500Y-102499448D01*
X152124500Y-102680551D01*
X152152829Y-102859410D01*
X152208787Y-103031636D01*
X152208788Y-103031639D01*
X152291006Y-103192997D01*
X152397441Y-103339494D01*
X152397445Y-103339499D01*
X152525500Y-103467554D01*
X152525505Y-103467558D01*
X152653287Y-103560396D01*
X152672006Y-103573996D01*
X152777484Y-103627740D01*
X152833360Y-103656211D01*
X152833363Y-103656212D01*
X152919476Y-103684191D01*
X153005591Y-103712171D01*
X153078639Y-103723740D01*
X153165678Y-103737527D01*
X153228813Y-103767456D01*
X153265744Y-103826768D01*
X153264746Y-103896631D01*
X153226136Y-103954863D01*
X153165678Y-103982473D01*
X153005589Y-104007829D01*
X152833363Y-104063787D01*
X152833360Y-104063788D01*
X152672002Y-104146006D01*
X152525505Y-104252441D01*
X152525500Y-104252445D01*
X152397445Y-104380500D01*
X152397441Y-104380505D01*
X152291006Y-104527002D01*
X152208788Y-104688360D01*
X152208787Y-104688363D01*
X152152829Y-104860589D01*
X152124500Y-105039448D01*
X152124500Y-105220551D01*
X152152829Y-105399410D01*
X152208787Y-105571636D01*
X152208788Y-105571639D01*
X152291006Y-105732997D01*
X152397441Y-105879494D01*
X152397445Y-105879499D01*
X152525500Y-106007554D01*
X152525505Y-106007558D01*
X152653287Y-106100396D01*
X152672006Y-106113996D01*
X152777484Y-106167740D01*
X152833360Y-106196211D01*
X152833363Y-106196212D01*
X152919476Y-106224191D01*
X153005591Y-106252171D01*
X153078639Y-106263740D01*
X153165678Y-106277527D01*
X153228813Y-106307456D01*
X153265744Y-106366768D01*
X153264746Y-106436631D01*
X153226136Y-106494863D01*
X153165678Y-106522473D01*
X153005589Y-106547829D01*
X152833363Y-106603787D01*
X152833360Y-106603788D01*
X152672002Y-106686006D01*
X152525505Y-106792441D01*
X152525500Y-106792445D01*
X152397445Y-106920500D01*
X152397441Y-106920505D01*
X152291006Y-107067002D01*
X152208788Y-107228360D01*
X152208787Y-107228363D01*
X152152829Y-107400589D01*
X152124500Y-107579448D01*
X152124500Y-107760551D01*
X152152829Y-107939410D01*
X152208787Y-108111636D01*
X152208788Y-108111639D01*
X152291006Y-108272997D01*
X152397441Y-108419494D01*
X152397445Y-108419499D01*
X152525500Y-108547554D01*
X152525505Y-108547558D01*
X152653287Y-108640396D01*
X152672006Y-108653996D01*
X152777484Y-108707740D01*
X152833360Y-108736211D01*
X152833363Y-108736212D01*
X152919476Y-108764191D01*
X153005591Y-108792171D01*
X153078639Y-108803740D01*
X153165678Y-108817527D01*
X153228813Y-108847456D01*
X153265744Y-108906768D01*
X153264746Y-108976631D01*
X153226136Y-109034863D01*
X153165678Y-109062473D01*
X153005589Y-109087829D01*
X152833363Y-109143787D01*
X152833360Y-109143788D01*
X152672002Y-109226006D01*
X152525505Y-109332441D01*
X152525500Y-109332445D01*
X152397445Y-109460500D01*
X152397441Y-109460505D01*
X152291006Y-109607002D01*
X152208788Y-109768360D01*
X152208787Y-109768363D01*
X152152829Y-109940589D01*
X152124500Y-110119448D01*
X152124500Y-110300551D01*
X152152829Y-110479410D01*
X152208787Y-110651636D01*
X152208788Y-110651639D01*
X152291006Y-110812997D01*
X152397441Y-110959494D01*
X152397445Y-110959499D01*
X152525500Y-111087554D01*
X152525505Y-111087558D01*
X152653287Y-111180396D01*
X152672006Y-111193996D01*
X152777484Y-111247740D01*
X152833360Y-111276211D01*
X152833363Y-111276212D01*
X152919476Y-111304191D01*
X153005591Y-111332171D01*
X153078639Y-111343740D01*
X153165678Y-111357527D01*
X153228813Y-111387456D01*
X153265744Y-111446768D01*
X153264746Y-111516631D01*
X153226136Y-111574863D01*
X153165678Y-111602473D01*
X153005589Y-111627829D01*
X152833363Y-111683787D01*
X152833360Y-111683788D01*
X152672002Y-111766006D01*
X152525505Y-111872441D01*
X152525500Y-111872445D01*
X152397445Y-112000500D01*
X152397441Y-112000505D01*
X152291006Y-112147002D01*
X152208788Y-112308360D01*
X152208787Y-112308363D01*
X152152829Y-112480589D01*
X152124500Y-112659448D01*
X152124500Y-112840551D01*
X152152829Y-113019410D01*
X152208787Y-113191636D01*
X152208788Y-113191639D01*
X152253330Y-113279055D01*
X152286799Y-113344742D01*
X152291006Y-113352997D01*
X152397441Y-113499494D01*
X152397445Y-113499499D01*
X152525500Y-113627554D01*
X152525505Y-113627558D01*
X152632809Y-113705518D01*
X152672006Y-113733996D01*
X152771268Y-113784573D01*
X152833360Y-113816211D01*
X152833363Y-113816212D01*
X152919476Y-113844191D01*
X153005591Y-113872171D01*
X153078639Y-113883740D01*
X153165678Y-113897527D01*
X153228813Y-113927456D01*
X153265744Y-113986768D01*
X153264746Y-114056631D01*
X153226136Y-114114863D01*
X153165678Y-114142473D01*
X153005589Y-114167829D01*
X152833363Y-114223787D01*
X152833360Y-114223788D01*
X152672002Y-114306006D01*
X152525505Y-114412441D01*
X152525500Y-114412445D01*
X152397445Y-114540500D01*
X152397441Y-114540505D01*
X152291006Y-114687002D01*
X152208788Y-114848360D01*
X152208787Y-114848363D01*
X152152829Y-115020589D01*
X152124500Y-115199448D01*
X152124500Y-115380551D01*
X152152829Y-115559410D01*
X152208787Y-115731636D01*
X152208788Y-115731639D01*
X152242882Y-115798550D01*
X152282581Y-115876464D01*
X152291006Y-115892997D01*
X152397441Y-116039494D01*
X152397445Y-116039499D01*
X152525500Y-116167554D01*
X152525505Y-116167558D01*
X152594218Y-116217480D01*
X152672006Y-116273996D01*
X152777484Y-116327740D01*
X152833360Y-116356211D01*
X152833363Y-116356212D01*
X152908310Y-116380563D01*
X153005591Y-116412171D01*
X153078639Y-116423740D01*
X153165678Y-116437527D01*
X153228813Y-116467456D01*
X153265744Y-116526768D01*
X153264746Y-116596631D01*
X153226136Y-116654863D01*
X153165678Y-116682473D01*
X153005589Y-116707829D01*
X152833363Y-116763787D01*
X152833360Y-116763788D01*
X152672002Y-116846006D01*
X152525505Y-116952441D01*
X152525500Y-116952445D01*
X152397445Y-117080500D01*
X152397441Y-117080505D01*
X152291006Y-117227002D01*
X152208788Y-117388360D01*
X152208787Y-117388363D01*
X152152829Y-117560589D01*
X152124500Y-117739448D01*
X152124500Y-117920551D01*
X152152829Y-118099410D01*
X152208787Y-118271636D01*
X152208788Y-118271639D01*
X152291006Y-118432997D01*
X152397441Y-118579494D01*
X152397445Y-118579499D01*
X152525500Y-118707554D01*
X152525505Y-118707558D01*
X152540171Y-118718213D01*
X152672006Y-118813996D01*
X152777484Y-118867740D01*
X152833360Y-118896211D01*
X152833363Y-118896212D01*
X152919476Y-118924191D01*
X153005591Y-118952171D01*
X153078639Y-118963740D01*
X153165678Y-118977527D01*
X153228813Y-119007456D01*
X153265744Y-119066768D01*
X153264746Y-119136631D01*
X153226136Y-119194863D01*
X153165678Y-119222473D01*
X153005589Y-119247829D01*
X152833363Y-119303787D01*
X152833360Y-119303788D01*
X152672002Y-119386006D01*
X152525505Y-119492441D01*
X152525500Y-119492445D01*
X152397445Y-119620500D01*
X152397441Y-119620505D01*
X152291006Y-119767002D01*
X152208788Y-119928360D01*
X152208787Y-119928363D01*
X152152829Y-120100589D01*
X152124500Y-120279448D01*
X152124500Y-120460551D01*
X152152829Y-120639410D01*
X152208787Y-120811636D01*
X152208788Y-120811639D01*
X152258772Y-120909735D01*
X152274447Y-120940500D01*
X152291006Y-120972997D01*
X152397441Y-121119494D01*
X152397445Y-121119499D01*
X152525500Y-121247554D01*
X152525505Y-121247558D01*
X152653287Y-121340396D01*
X152672006Y-121353996D01*
X152777484Y-121407740D01*
X152833360Y-121436211D01*
X152833363Y-121436212D01*
X152919476Y-121464191D01*
X153005591Y-121492171D01*
X153088429Y-121505291D01*
X153184449Y-121520500D01*
X153184454Y-121520500D01*
X153365551Y-121520500D01*
X153452259Y-121506765D01*
X153544409Y-121492171D01*
X153716639Y-121436211D01*
X153877994Y-121353996D01*
X154024501Y-121247553D01*
X154152553Y-121119501D01*
X154258996Y-120972994D01*
X154341211Y-120811639D01*
X154397171Y-120639409D01*
X154416213Y-120519185D01*
X154425500Y-120460551D01*
X154425500Y-120279448D01*
X154409019Y-120175397D01*
X154397171Y-120100591D01*
X154341211Y-119928361D01*
X154341211Y-119928360D01*
X154312740Y-119872484D01*
X154258996Y-119767006D01*
X154245396Y-119748287D01*
X154152558Y-119620505D01*
X154152554Y-119620500D01*
X154024499Y-119492445D01*
X154024494Y-119492441D01*
X153877997Y-119386006D01*
X153877996Y-119386005D01*
X153877994Y-119386004D01*
X153837853Y-119365551D01*
X153716639Y-119303788D01*
X153716636Y-119303787D01*
X153585418Y-119261153D01*
X155804500Y-119261153D01*
X155804500Y-120218846D01*
X155835261Y-120373489D01*
X155835264Y-120373501D01*
X155895602Y-120519172D01*
X155895609Y-120519185D01*
X155983210Y-120650288D01*
X155983213Y-120650292D01*
X156094707Y-120761786D01*
X156094711Y-120761789D01*
X156225814Y-120849390D01*
X156225827Y-120849397D01*
X156371498Y-120909735D01*
X156371503Y-120909737D01*
X156526153Y-120940499D01*
X156526156Y-120940500D01*
X156526158Y-120940500D01*
X156683844Y-120940500D01*
X156683845Y-120940499D01*
X156838497Y-120909737D01*
X156984179Y-120849394D01*
X157115289Y-120761789D01*
X157226789Y-120650289D01*
X157314394Y-120519179D01*
X157374737Y-120373497D01*
X157405500Y-120218842D01*
X157405500Y-119261158D01*
X157405500Y-119261155D01*
X157405499Y-119261153D01*
X164444500Y-119261153D01*
X164444500Y-120218846D01*
X164475261Y-120373489D01*
X164475264Y-120373501D01*
X164535602Y-120519172D01*
X164535609Y-120519185D01*
X164623210Y-120650288D01*
X164623213Y-120650292D01*
X164734707Y-120761786D01*
X164734711Y-120761789D01*
X164865814Y-120849390D01*
X164865827Y-120849397D01*
X165011498Y-120909735D01*
X165011503Y-120909737D01*
X165166153Y-120940499D01*
X165166156Y-120940500D01*
X165166158Y-120940500D01*
X165323844Y-120940500D01*
X165323845Y-120940499D01*
X165478497Y-120909737D01*
X165624179Y-120849394D01*
X165755289Y-120761789D01*
X165866789Y-120650289D01*
X165954394Y-120519179D01*
X166014737Y-120373497D01*
X166045500Y-120218842D01*
X166045500Y-119261158D01*
X166045500Y-119261155D01*
X166045499Y-119261153D01*
X166020730Y-119136631D01*
X166014737Y-119106503D01*
X166014735Y-119106498D01*
X165954397Y-118960827D01*
X165954390Y-118960814D01*
X165866789Y-118829711D01*
X165866786Y-118829707D01*
X165755292Y-118718213D01*
X165755288Y-118718210D01*
X165624185Y-118630609D01*
X165624172Y-118630602D01*
X165478501Y-118570264D01*
X165478489Y-118570261D01*
X165323845Y-118539500D01*
X165323842Y-118539500D01*
X165166158Y-118539500D01*
X165166155Y-118539500D01*
X165011510Y-118570261D01*
X165011498Y-118570264D01*
X164865827Y-118630602D01*
X164865814Y-118630609D01*
X164734711Y-118718210D01*
X164734707Y-118718213D01*
X164623213Y-118829707D01*
X164623210Y-118829711D01*
X164535609Y-118960814D01*
X164535602Y-118960827D01*
X164475264Y-119106498D01*
X164475261Y-119106510D01*
X164444500Y-119261153D01*
X157405499Y-119261153D01*
X157380730Y-119136631D01*
X157374737Y-119106503D01*
X157374735Y-119106498D01*
X157314397Y-118960827D01*
X157314390Y-118960814D01*
X157226789Y-118829711D01*
X157226786Y-118829707D01*
X157115292Y-118718213D01*
X157115288Y-118718210D01*
X156984185Y-118630609D01*
X156984172Y-118630602D01*
X156838501Y-118570264D01*
X156838489Y-118570261D01*
X156683845Y-118539500D01*
X156683842Y-118539500D01*
X156526158Y-118539500D01*
X156526155Y-118539500D01*
X156371510Y-118570261D01*
X156371498Y-118570264D01*
X156225827Y-118630602D01*
X156225814Y-118630609D01*
X156094711Y-118718210D01*
X156094707Y-118718213D01*
X155983213Y-118829707D01*
X155983210Y-118829711D01*
X155895609Y-118960814D01*
X155895602Y-118960827D01*
X155835264Y-119106498D01*
X155835261Y-119106510D01*
X155804500Y-119261153D01*
X153585418Y-119261153D01*
X153544410Y-119247829D01*
X153384321Y-119222473D01*
X153321186Y-119192544D01*
X153284255Y-119133232D01*
X153285253Y-119063370D01*
X153323863Y-119005137D01*
X153384321Y-118977527D01*
X153454425Y-118966422D01*
X153544409Y-118952171D01*
X153716639Y-118896211D01*
X153877994Y-118813996D01*
X154024501Y-118707553D01*
X154152553Y-118579501D01*
X154258996Y-118432994D01*
X154341211Y-118271639D01*
X154397171Y-118099409D01*
X154411765Y-118007259D01*
X154425500Y-117920551D01*
X154425500Y-117739448D01*
X154398181Y-117566970D01*
X154397171Y-117560591D01*
X154341211Y-117388361D01*
X154341206Y-117388350D01*
X154267712Y-117244111D01*
X154267711Y-117244110D01*
X154258995Y-117227004D01*
X154236428Y-117195943D01*
X159474500Y-117195943D01*
X159474500Y-117354057D01*
X159508725Y-117481784D01*
X159515423Y-117506783D01*
X159515426Y-117506790D01*
X159594475Y-117643709D01*
X159594479Y-117643714D01*
X159594480Y-117643716D01*
X159706284Y-117755520D01*
X159706286Y-117755521D01*
X159706290Y-117755524D01*
X159799914Y-117809577D01*
X159843216Y-117834577D01*
X159995943Y-117875500D01*
X159995945Y-117875500D01*
X160154055Y-117875500D01*
X160154057Y-117875500D01*
X160306784Y-117834577D01*
X160443716Y-117755520D01*
X160555520Y-117643716D01*
X160599830Y-117566968D01*
X160650394Y-117518753D01*
X160719001Y-117505529D01*
X160783866Y-117531496D01*
X160814603Y-117566968D01*
X160844477Y-117618712D01*
X160844479Y-117618715D01*
X160844480Y-117618716D01*
X160956284Y-117730520D01*
X160956286Y-117730521D01*
X160956290Y-117730524D01*
X161093209Y-117809573D01*
X161093216Y-117809577D01*
X161245943Y-117850500D01*
X161245945Y-117850500D01*
X161404055Y-117850500D01*
X161404057Y-117850500D01*
X161556784Y-117809577D01*
X161693716Y-117730520D01*
X161805520Y-117618716D01*
X161884577Y-117481784D01*
X161925500Y-117329057D01*
X161925500Y-117184120D01*
X161945185Y-117117081D01*
X161997989Y-117071326D01*
X162049500Y-117060120D01*
X162055055Y-117060120D01*
X162055057Y-117060120D01*
X162207784Y-117019197D01*
X162344716Y-116940140D01*
X162456520Y-116828336D01*
X162535577Y-116691404D01*
X162576500Y-116538677D01*
X162576500Y-116380563D01*
X162535577Y-116227836D01*
X162515585Y-116193209D01*
X162456524Y-116090910D01*
X162456518Y-116090902D01*
X162363015Y-115997399D01*
X163339500Y-115997399D01*
X163339500Y-116122601D01*
X163371905Y-116243536D01*
X163434505Y-116351964D01*
X163523036Y-116440495D01*
X163631464Y-116503095D01*
X163752399Y-116535500D01*
X163752401Y-116535500D01*
X163877599Y-116535500D01*
X163877601Y-116535500D01*
X163998536Y-116503095D01*
X164106964Y-116440495D01*
X164195495Y-116351964D01*
X164240096Y-116274710D01*
X164290661Y-116226495D01*
X164359268Y-116213271D01*
X164424133Y-116239238D01*
X164464662Y-116296151D01*
X164469100Y-116312517D01*
X164475261Y-116343492D01*
X164475264Y-116343501D01*
X164535602Y-116489172D01*
X164535609Y-116489185D01*
X164623210Y-116620288D01*
X164623213Y-116620292D01*
X164734707Y-116731786D01*
X164734711Y-116731789D01*
X164865814Y-116819390D01*
X164865827Y-116819397D01*
X165011498Y-116879735D01*
X165011503Y-116879737D01*
X165144953Y-116906282D01*
X165166153Y-116910499D01*
X165166156Y-116910500D01*
X165166158Y-116910500D01*
X165323844Y-116910500D01*
X165323845Y-116910499D01*
X165478497Y-116879737D01*
X165624179Y-116819394D01*
X165755289Y-116731789D01*
X165866789Y-116620289D01*
X165954394Y-116489179D01*
X166014737Y-116343497D01*
X166045500Y-116188842D01*
X166045500Y-114931158D01*
X166045500Y-114931155D01*
X166045499Y-114931153D01*
X166029031Y-114848363D01*
X166014737Y-114776503D01*
X165983256Y-114700500D01*
X165954397Y-114630827D01*
X165954390Y-114630814D01*
X165866789Y-114499711D01*
X165866786Y-114499707D01*
X165755292Y-114388213D01*
X165755288Y-114388210D01*
X165624185Y-114300609D01*
X165624172Y-114300602D01*
X165478501Y-114240264D01*
X165478489Y-114240261D01*
X165323845Y-114209500D01*
X165323842Y-114209500D01*
X165166158Y-114209500D01*
X165166155Y-114209500D01*
X165011510Y-114240261D01*
X165011498Y-114240264D01*
X164865827Y-114300602D01*
X164865814Y-114300609D01*
X164734711Y-114388210D01*
X164734707Y-114388213D01*
X164623213Y-114499707D01*
X164623210Y-114499711D01*
X164535609Y-114630814D01*
X164535602Y-114630827D01*
X164475264Y-114776498D01*
X164475261Y-114776510D01*
X164444500Y-114931153D01*
X164444500Y-115736551D01*
X164424815Y-115803590D01*
X164372011Y-115849345D01*
X164302853Y-115859289D01*
X164239297Y-115830264D01*
X164213113Y-115798550D01*
X164195499Y-115768042D01*
X164195496Y-115768038D01*
X164195495Y-115768036D01*
X164106964Y-115679505D01*
X163998536Y-115616905D01*
X163998537Y-115616905D01*
X163958224Y-115606103D01*
X163877601Y-115584500D01*
X163752399Y-115584500D01*
X163671775Y-115606103D01*
X163631463Y-115616905D01*
X163523037Y-115679504D01*
X163523034Y-115679506D01*
X163434506Y-115768034D01*
X163434504Y-115768037D01*
X163371905Y-115876463D01*
X163371905Y-115876464D01*
X163339500Y-115997399D01*
X162363015Y-115997399D01*
X162344717Y-115979101D01*
X162344709Y-115979095D01*
X162207790Y-115900046D01*
X162207786Y-115900044D01*
X162207784Y-115900043D01*
X162055057Y-115859120D01*
X161896943Y-115859120D01*
X161744216Y-115900043D01*
X161744209Y-115900046D01*
X161607290Y-115979095D01*
X161607282Y-115979101D01*
X161495481Y-116090902D01*
X161495477Y-116090907D01*
X161442880Y-116182009D01*
X161392313Y-116230225D01*
X161323706Y-116243448D01*
X161258841Y-116217480D01*
X161228108Y-116182011D01*
X161155520Y-116056284D01*
X161043716Y-115944480D01*
X161043714Y-115944479D01*
X161043709Y-115944475D01*
X160906790Y-115865426D01*
X160906786Y-115865424D01*
X160906784Y-115865423D01*
X160754057Y-115824500D01*
X160595943Y-115824500D01*
X160443216Y-115865423D01*
X160443209Y-115865426D01*
X160306290Y-115944475D01*
X160306282Y-115944481D01*
X160194481Y-116056282D01*
X160194475Y-116056290D01*
X160115426Y-116193209D01*
X160115423Y-116193216D01*
X160074500Y-116345943D01*
X160074500Y-116504058D01*
X160079755Y-116523670D01*
X160078092Y-116593520D01*
X160038928Y-116651382D01*
X159992075Y-116675536D01*
X159937911Y-116690049D01*
X159843214Y-116715423D01*
X159843209Y-116715426D01*
X159706290Y-116794475D01*
X159706282Y-116794481D01*
X159594481Y-116906282D01*
X159594475Y-116906290D01*
X159515426Y-117043209D01*
X159515423Y-117043216D01*
X159474500Y-117195943D01*
X154236428Y-117195943D01*
X154152558Y-117080505D01*
X154152554Y-117080500D01*
X154024499Y-116952445D01*
X154024494Y-116952441D01*
X153877997Y-116846006D01*
X153877996Y-116846005D01*
X153877994Y-116846004D01*
X153825761Y-116819390D01*
X153716639Y-116763788D01*
X153716636Y-116763787D01*
X153544410Y-116707829D01*
X153384321Y-116682473D01*
X153321186Y-116652544D01*
X153284255Y-116593232D01*
X153285253Y-116523370D01*
X153323863Y-116465137D01*
X153384321Y-116437527D01*
X153454425Y-116426422D01*
X153544409Y-116412171D01*
X153716639Y-116356211D01*
X153877994Y-116273996D01*
X154024501Y-116167553D01*
X154152553Y-116039501D01*
X154258996Y-115892994D01*
X154341211Y-115731639D01*
X154397171Y-115559409D01*
X154411765Y-115467259D01*
X154425500Y-115380551D01*
X154425500Y-115199448D01*
X154397170Y-115020587D01*
X154378584Y-114963383D01*
X154368112Y-114931153D01*
X155804500Y-114931153D01*
X155804500Y-116188846D01*
X155835261Y-116343489D01*
X155835264Y-116343501D01*
X155895602Y-116489172D01*
X155895609Y-116489185D01*
X155983210Y-116620288D01*
X155983213Y-116620292D01*
X156094707Y-116731786D01*
X156094711Y-116731789D01*
X156225814Y-116819390D01*
X156225827Y-116819397D01*
X156371498Y-116879735D01*
X156371503Y-116879737D01*
X156504953Y-116906282D01*
X156526153Y-116910499D01*
X156526156Y-116910500D01*
X156526158Y-116910500D01*
X156683844Y-116910500D01*
X156683845Y-116910499D01*
X156838497Y-116879737D01*
X156984179Y-116819394D01*
X157115289Y-116731789D01*
X157226789Y-116620289D01*
X157314394Y-116489179D01*
X157374737Y-116343497D01*
X157380899Y-116312517D01*
X157413283Y-116250609D01*
X157473998Y-116216034D01*
X157543768Y-116219773D01*
X157600440Y-116260639D01*
X157609901Y-116274707D01*
X157622282Y-116296151D01*
X157654503Y-116351962D01*
X157654505Y-116351964D01*
X157743036Y-116440495D01*
X157851464Y-116503095D01*
X157972399Y-116535500D01*
X157972401Y-116535500D01*
X158097599Y-116535500D01*
X158097601Y-116535500D01*
X158218536Y-116503095D01*
X158326964Y-116440495D01*
X158415495Y-116351964D01*
X158478095Y-116243536D01*
X158510500Y-116122601D01*
X158510500Y-115997399D01*
X158478095Y-115876464D01*
X158415495Y-115768036D01*
X158326964Y-115679505D01*
X158218536Y-115616905D01*
X158218537Y-115616905D01*
X158178224Y-115606103D01*
X158097601Y-115584500D01*
X157972399Y-115584500D01*
X157891775Y-115606103D01*
X157851463Y-115616905D01*
X157743037Y-115679504D01*
X157743034Y-115679506D01*
X157654506Y-115768034D01*
X157654500Y-115768042D01*
X157636887Y-115798550D01*
X157586321Y-115846766D01*
X157517714Y-115859990D01*
X157452849Y-115834022D01*
X157412320Y-115777108D01*
X157405500Y-115736551D01*
X157405500Y-114931155D01*
X157405499Y-114931153D01*
X157389031Y-114848363D01*
X157374737Y-114776503D01*
X157343256Y-114700500D01*
X157314397Y-114630827D01*
X157314390Y-114630814D01*
X157226789Y-114499711D01*
X157226786Y-114499707D01*
X157115292Y-114388213D01*
X157115288Y-114388210D01*
X156984185Y-114300609D01*
X156984172Y-114300602D01*
X156838501Y-114240264D01*
X156838489Y-114240261D01*
X156710309Y-114214764D01*
X156710308Y-114214764D01*
X156683844Y-114209500D01*
X156683842Y-114209500D01*
X156526158Y-114209500D01*
X156526155Y-114209500D01*
X156371510Y-114240261D01*
X156371498Y-114240264D01*
X156225827Y-114300602D01*
X156225814Y-114300609D01*
X156094711Y-114388210D01*
X156094707Y-114388213D01*
X155983213Y-114499707D01*
X155983210Y-114499711D01*
X155895609Y-114630814D01*
X155895602Y-114630827D01*
X155835264Y-114776498D01*
X155835261Y-114776510D01*
X155804500Y-114931153D01*
X154368112Y-114931153D01*
X154341212Y-114848363D01*
X154341211Y-114848360D01*
X154312740Y-114792484D01*
X154258996Y-114687006D01*
X154218180Y-114630827D01*
X154152558Y-114540505D01*
X154152554Y-114540500D01*
X154024499Y-114412445D01*
X154024494Y-114412441D01*
X153877997Y-114306006D01*
X153877996Y-114306005D01*
X153877994Y-114306004D01*
X153786502Y-114259386D01*
X153716639Y-114223788D01*
X153716636Y-114223787D01*
X153544410Y-114167829D01*
X153384321Y-114142473D01*
X153321186Y-114112544D01*
X153314169Y-114101274D01*
X158004831Y-114101274D01*
X158004831Y-114259388D01*
X158039350Y-114388213D01*
X158045754Y-114412114D01*
X158045757Y-114412121D01*
X158124806Y-114549040D01*
X158124810Y-114549045D01*
X158124811Y-114549047D01*
X158236615Y-114660851D01*
X158236617Y-114660852D01*
X158236621Y-114660855D01*
X158373540Y-114739904D01*
X158373547Y-114739908D01*
X158526274Y-114780831D01*
X158526276Y-114780831D01*
X158684386Y-114780831D01*
X158684388Y-114780831D01*
X158837115Y-114739908D01*
X158974047Y-114660851D01*
X159085851Y-114549047D01*
X159164908Y-114412115D01*
X159205831Y-114259388D01*
X159205831Y-114101274D01*
X159184306Y-114020943D01*
X162724500Y-114020943D01*
X162724500Y-114179057D01*
X162758516Y-114306004D01*
X162765423Y-114331783D01*
X162765426Y-114331790D01*
X162844475Y-114468709D01*
X162844479Y-114468714D01*
X162844480Y-114468716D01*
X162956284Y-114580520D01*
X162956286Y-114580521D01*
X162956290Y-114580524D01*
X163043419Y-114630827D01*
X163093216Y-114659577D01*
X163245943Y-114700500D01*
X163245945Y-114700500D01*
X163404055Y-114700500D01*
X163404057Y-114700500D01*
X163556784Y-114659577D01*
X163693716Y-114580520D01*
X163805520Y-114468716D01*
X163884577Y-114331784D01*
X163925500Y-114179057D01*
X163925500Y-114020943D01*
X163907899Y-113955255D01*
X163909562Y-113885408D01*
X163948724Y-113827545D01*
X164012953Y-113800041D01*
X164043869Y-113800226D01*
X164045937Y-113800498D01*
X164045943Y-113800500D01*
X164045949Y-113800500D01*
X164204055Y-113800500D01*
X164204057Y-113800500D01*
X164356784Y-113759577D01*
X164493716Y-113680520D01*
X164605520Y-113568716D01*
X164684577Y-113431784D01*
X164725500Y-113279057D01*
X164725500Y-113120943D01*
X164684577Y-112968216D01*
X164624838Y-112864744D01*
X164605524Y-112831290D01*
X164605518Y-112831282D01*
X164493717Y-112719481D01*
X164493709Y-112719475D01*
X164356790Y-112640426D01*
X164356786Y-112640424D01*
X164356784Y-112640423D01*
X164204057Y-112599500D01*
X164045943Y-112599500D01*
X163893216Y-112640423D01*
X163893209Y-112640426D01*
X163756290Y-112719475D01*
X163756282Y-112719481D01*
X163644481Y-112831282D01*
X163644475Y-112831290D01*
X163565426Y-112968209D01*
X163565423Y-112968216D01*
X163524500Y-113120943D01*
X163524500Y-113279057D01*
X163531199Y-113304057D01*
X163542100Y-113344742D01*
X163540437Y-113414592D01*
X163501274Y-113472454D01*
X163437045Y-113499958D01*
X163406141Y-113499774D01*
X163404060Y-113499500D01*
X163404057Y-113499500D01*
X163245943Y-113499500D01*
X163093216Y-113540423D01*
X163093209Y-113540426D01*
X162956290Y-113619475D01*
X162956282Y-113619481D01*
X162844481Y-113731282D01*
X162844475Y-113731290D01*
X162765426Y-113868209D01*
X162765423Y-113868216D01*
X162724500Y-114020943D01*
X159184306Y-114020943D01*
X159164908Y-113948547D01*
X159151392Y-113925137D01*
X159085855Y-113811621D01*
X159085849Y-113811613D01*
X158974048Y-113699812D01*
X158974040Y-113699806D01*
X158837121Y-113620757D01*
X158837117Y-113620755D01*
X158837115Y-113620754D01*
X158684388Y-113579831D01*
X158526274Y-113579831D01*
X158373547Y-113620754D01*
X158373540Y-113620757D01*
X158236621Y-113699806D01*
X158236613Y-113699812D01*
X158124812Y-113811613D01*
X158124806Y-113811621D01*
X158045757Y-113948540D01*
X158045755Y-113948545D01*
X158045754Y-113948547D01*
X158004831Y-114101274D01*
X153314169Y-114101274D01*
X153284255Y-114053232D01*
X153285253Y-113983370D01*
X153323863Y-113925137D01*
X153384321Y-113897527D01*
X153454425Y-113886422D01*
X153544409Y-113872171D01*
X153716639Y-113816211D01*
X153877994Y-113733996D01*
X154024501Y-113627553D01*
X154152553Y-113499501D01*
X154258996Y-113352994D01*
X154341211Y-113191639D01*
X154356058Y-113145945D01*
X154356059Y-113145943D01*
X156449500Y-113145943D01*
X156449500Y-113304057D01*
X156483725Y-113431784D01*
X156490423Y-113456783D01*
X156490426Y-113456790D01*
X156569475Y-113593709D01*
X156569479Y-113593714D01*
X156569480Y-113593716D01*
X156681284Y-113705520D01*
X156681286Y-113705521D01*
X156681290Y-113705524D01*
X156774914Y-113759577D01*
X156818216Y-113784577D01*
X156970943Y-113825500D01*
X156970945Y-113825500D01*
X157129055Y-113825500D01*
X157129057Y-113825500D01*
X157281784Y-113784577D01*
X157418716Y-113705520D01*
X157530520Y-113593716D01*
X157609577Y-113456784D01*
X157650500Y-113304057D01*
X157650500Y-113145943D01*
X157609577Y-112993216D01*
X157603752Y-112983127D01*
X157530524Y-112856290D01*
X157530518Y-112856282D01*
X157418717Y-112744481D01*
X157418716Y-112744480D01*
X157409347Y-112739071D01*
X160259744Y-112739071D01*
X160284742Y-112864738D01*
X160284744Y-112864744D01*
X160333778Y-112983124D01*
X160333783Y-112983133D01*
X160404968Y-113089668D01*
X160404971Y-113089672D01*
X160495572Y-113180273D01*
X160495576Y-113180276D01*
X160602111Y-113251461D01*
X160602117Y-113251464D01*
X160602118Y-113251465D01*
X160720501Y-113300501D01*
X160720505Y-113300501D01*
X160720506Y-113300502D01*
X160846173Y-113325500D01*
X160846176Y-113325500D01*
X160974316Y-113325500D01*
X161082122Y-113304055D01*
X161099989Y-113300501D01*
X161218372Y-113251465D01*
X161324914Y-113180276D01*
X161415521Y-113089669D01*
X161486710Y-112983127D01*
X161535746Y-112864744D01*
X161543927Y-112823615D01*
X161560745Y-112739071D01*
X161560745Y-112610928D01*
X161535747Y-112485261D01*
X161535746Y-112485260D01*
X161535746Y-112485256D01*
X161486710Y-112366873D01*
X161486709Y-112366872D01*
X161486706Y-112366866D01*
X161415521Y-112260331D01*
X161415518Y-112260327D01*
X161324917Y-112169726D01*
X161324913Y-112169723D01*
X161218378Y-112098538D01*
X161218369Y-112098533D01*
X161099989Y-112049499D01*
X161099983Y-112049497D01*
X160974316Y-112024500D01*
X160974314Y-112024500D01*
X160846176Y-112024500D01*
X160846174Y-112024500D01*
X160720506Y-112049497D01*
X160720500Y-112049499D01*
X160602120Y-112098533D01*
X160602111Y-112098538D01*
X160495576Y-112169723D01*
X160495572Y-112169726D01*
X160404971Y-112260327D01*
X160404968Y-112260331D01*
X160333783Y-112366866D01*
X160333778Y-112366875D01*
X160284744Y-112485255D01*
X160284742Y-112485261D01*
X160259745Y-112610928D01*
X160259745Y-112610931D01*
X160259745Y-112739069D01*
X160259745Y-112739071D01*
X160259744Y-112739071D01*
X157409347Y-112739071D01*
X157281784Y-112665423D01*
X157129057Y-112624500D01*
X156970943Y-112624500D01*
X156818216Y-112665423D01*
X156818209Y-112665426D01*
X156681290Y-112744475D01*
X156681282Y-112744481D01*
X156569481Y-112856282D01*
X156569475Y-112856290D01*
X156490426Y-112993209D01*
X156490423Y-112993216D01*
X156449500Y-113145943D01*
X154356059Y-113145943D01*
X154371149Y-113099499D01*
X154371149Y-113099498D01*
X154374342Y-113089672D01*
X154397171Y-113019409D01*
X154411765Y-112927259D01*
X154425500Y-112840551D01*
X154425500Y-112659448D01*
X154409019Y-112555397D01*
X154397171Y-112480591D01*
X154360223Y-112366875D01*
X154341212Y-112308363D01*
X154341211Y-112308360D01*
X154270571Y-112169724D01*
X154258996Y-112147006D01*
X154223780Y-112098535D01*
X154152558Y-112000505D01*
X154152554Y-112000500D01*
X154024499Y-111872445D01*
X154024494Y-111872441D01*
X153877997Y-111766006D01*
X153877996Y-111766005D01*
X153877994Y-111766004D01*
X153826300Y-111739664D01*
X153716639Y-111683788D01*
X153716636Y-111683787D01*
X153544410Y-111627829D01*
X153384321Y-111602473D01*
X153321186Y-111572544D01*
X153284255Y-111513232D01*
X153285253Y-111443370D01*
X153323863Y-111385137D01*
X153384321Y-111357527D01*
X153454425Y-111346422D01*
X153544409Y-111332171D01*
X153716639Y-111276211D01*
X153877994Y-111193996D01*
X154024501Y-111087553D01*
X154152553Y-110959501D01*
X154258996Y-110812994D01*
X154341211Y-110651639D01*
X154397171Y-110479409D01*
X154411765Y-110387259D01*
X154425500Y-110300551D01*
X154425500Y-110119448D01*
X154409019Y-110015397D01*
X154397171Y-109940591D01*
X154341211Y-109768361D01*
X154317050Y-109720943D01*
X162274500Y-109720943D01*
X162274500Y-109879057D01*
X162290988Y-109940589D01*
X162315423Y-110031783D01*
X162315426Y-110031790D01*
X162394475Y-110168709D01*
X162394479Y-110168714D01*
X162394480Y-110168716D01*
X162506284Y-110280520D01*
X162506286Y-110280521D01*
X162506290Y-110280524D01*
X162643209Y-110359573D01*
X162643216Y-110359577D01*
X162795943Y-110400500D01*
X162795945Y-110400500D01*
X162954055Y-110400500D01*
X162954057Y-110400500D01*
X163106784Y-110359577D01*
X163150502Y-110334336D01*
X163218399Y-110317864D01*
X163274496Y-110334335D01*
X163318216Y-110359577D01*
X163470943Y-110400500D01*
X163470945Y-110400500D01*
X163629055Y-110400500D01*
X163629057Y-110400500D01*
X163781784Y-110359577D01*
X163918716Y-110280520D01*
X164030520Y-110168716D01*
X164109577Y-110031784D01*
X164150500Y-109879057D01*
X164150500Y-109720943D01*
X164109577Y-109568216D01*
X164047388Y-109460500D01*
X164030524Y-109431290D01*
X164030518Y-109431282D01*
X163918717Y-109319481D01*
X163918709Y-109319475D01*
X163781790Y-109240426D01*
X163781786Y-109240424D01*
X163781784Y-109240423D01*
X163629057Y-109199500D01*
X163470943Y-109199500D01*
X163318216Y-109240423D01*
X163318211Y-109240425D01*
X163274498Y-109265662D01*
X163206597Y-109282133D01*
X163150502Y-109265662D01*
X163106788Y-109240425D01*
X163106786Y-109240424D01*
X163106784Y-109240423D01*
X162954057Y-109199500D01*
X162795943Y-109199500D01*
X162643216Y-109240423D01*
X162643209Y-109240426D01*
X162506290Y-109319475D01*
X162506282Y-109319481D01*
X162394481Y-109431282D01*
X162394475Y-109431290D01*
X162315426Y-109568209D01*
X162315423Y-109568216D01*
X162274500Y-109720943D01*
X154317050Y-109720943D01*
X154258996Y-109607006D01*
X154230814Y-109568216D01*
X154152558Y-109460505D01*
X154152554Y-109460500D01*
X154024499Y-109332445D01*
X154024494Y-109332441D01*
X153877997Y-109226006D01*
X153877996Y-109226005D01*
X153877994Y-109226004D01*
X153825977Y-109199500D01*
X153716639Y-109143788D01*
X153716636Y-109143787D01*
X153544410Y-109087829D01*
X153384321Y-109062473D01*
X153321186Y-109032544D01*
X153284255Y-108973232D01*
X153285253Y-108903370D01*
X153323863Y-108845137D01*
X153384321Y-108817527D01*
X153454425Y-108806422D01*
X153544409Y-108792171D01*
X153716639Y-108736211D01*
X153877994Y-108653996D01*
X154024501Y-108547553D01*
X154152553Y-108419501D01*
X154258996Y-108272994D01*
X154341211Y-108111639D01*
X154397171Y-107939409D01*
X154411765Y-107847259D01*
X154425500Y-107760551D01*
X154425500Y-107579448D01*
X154406140Y-107457214D01*
X154404354Y-107445943D01*
X160349500Y-107445943D01*
X160349500Y-107604056D01*
X160390423Y-107756783D01*
X160390426Y-107756790D01*
X160469475Y-107893709D01*
X160469479Y-107893714D01*
X160469480Y-107893716D01*
X160581284Y-108005520D01*
X160581286Y-108005521D01*
X160581290Y-108005524D01*
X160718209Y-108084573D01*
X160718216Y-108084577D01*
X160870943Y-108125500D01*
X160870945Y-108125500D01*
X161029055Y-108125500D01*
X161029057Y-108125500D01*
X161181784Y-108084577D01*
X161318716Y-108005520D01*
X161430520Y-107893716D01*
X161509577Y-107756784D01*
X161550500Y-107604057D01*
X161550500Y-107445943D01*
X161509577Y-107293216D01*
X161509573Y-107293209D01*
X161430524Y-107156290D01*
X161430518Y-107156282D01*
X161318717Y-107044481D01*
X161318709Y-107044475D01*
X161181790Y-106965426D01*
X161181786Y-106965424D01*
X161181784Y-106965423D01*
X161029057Y-106924500D01*
X160870943Y-106924500D01*
X160718216Y-106965423D01*
X160718209Y-106965426D01*
X160581290Y-107044475D01*
X160581282Y-107044481D01*
X160469481Y-107156282D01*
X160469475Y-107156290D01*
X160390426Y-107293209D01*
X160390423Y-107293216D01*
X160349500Y-107445943D01*
X154404354Y-107445943D01*
X154401207Y-107426077D01*
X154397171Y-107400591D01*
X154341211Y-107228361D01*
X154341211Y-107228360D01*
X154304485Y-107156282D01*
X154258996Y-107067006D01*
X154242626Y-107044475D01*
X154152558Y-106920505D01*
X154152554Y-106920500D01*
X154024499Y-106792445D01*
X154024494Y-106792441D01*
X153877997Y-106686006D01*
X153877996Y-106686005D01*
X153877994Y-106686004D01*
X153826300Y-106659664D01*
X153716639Y-106603788D01*
X153716636Y-106603787D01*
X153544410Y-106547829D01*
X153384321Y-106522473D01*
X153321186Y-106492544D01*
X153284255Y-106433232D01*
X153285253Y-106363370D01*
X153323863Y-106305137D01*
X153384321Y-106277527D01*
X153454425Y-106266422D01*
X153544409Y-106252171D01*
X153716639Y-106196211D01*
X153877994Y-106113996D01*
X154024501Y-106007553D01*
X154152553Y-105879501D01*
X154258996Y-105732994D01*
X154341211Y-105571639D01*
X154397171Y-105399409D01*
X154411765Y-105307259D01*
X154425500Y-105220551D01*
X154425500Y-105039449D01*
X154408515Y-104932215D01*
X154408515Y-104932214D01*
X154406730Y-104920943D01*
X164474500Y-104920943D01*
X164474500Y-105079056D01*
X164515423Y-105231783D01*
X164515426Y-105231790D01*
X164594475Y-105368709D01*
X164594479Y-105368714D01*
X164594480Y-105368716D01*
X164706284Y-105480520D01*
X164706286Y-105480521D01*
X164706290Y-105480524D01*
X164843209Y-105559573D01*
X164843216Y-105559577D01*
X164995943Y-105600500D01*
X164995945Y-105600500D01*
X165154055Y-105600500D01*
X165154057Y-105600500D01*
X165306784Y-105559577D01*
X165443716Y-105480520D01*
X165555520Y-105368716D01*
X165634577Y-105231784D01*
X165675500Y-105079057D01*
X165675500Y-104920943D01*
X165634577Y-104768216D01*
X165634573Y-104768209D01*
X165555524Y-104631290D01*
X165555518Y-104631282D01*
X165443717Y-104519481D01*
X165443709Y-104519475D01*
X165306790Y-104440426D01*
X165306786Y-104440424D01*
X165306784Y-104440423D01*
X165154057Y-104399500D01*
X164995943Y-104399500D01*
X164843216Y-104440423D01*
X164843209Y-104440426D01*
X164706290Y-104519475D01*
X164706282Y-104519481D01*
X164594481Y-104631282D01*
X164594475Y-104631290D01*
X164515426Y-104768209D01*
X164515423Y-104768216D01*
X164474500Y-104920943D01*
X154406730Y-104920943D01*
X154397171Y-104860591D01*
X154341211Y-104688361D01*
X154341211Y-104688360D01*
X154312128Y-104631282D01*
X154258996Y-104527006D01*
X154245396Y-104508287D01*
X154152558Y-104380505D01*
X154152554Y-104380500D01*
X154024499Y-104252445D01*
X154024494Y-104252441D01*
X153877997Y-104146006D01*
X153877996Y-104146005D01*
X153877994Y-104146004D01*
X153826300Y-104119664D01*
X153716639Y-104063788D01*
X153716636Y-104063787D01*
X153544410Y-104007829D01*
X153384321Y-103982473D01*
X153321186Y-103952544D01*
X153284255Y-103893232D01*
X153285253Y-103823370D01*
X153323863Y-103765137D01*
X153384321Y-103737527D01*
X153454425Y-103726422D01*
X153544409Y-103712171D01*
X153716639Y-103656211D01*
X153877994Y-103573996D01*
X154024501Y-103467553D01*
X154152553Y-103339501D01*
X154258996Y-103192994D01*
X154341211Y-103031639D01*
X154397171Y-102859409D01*
X154411765Y-102767259D01*
X154425500Y-102680551D01*
X154425500Y-102499448D01*
X154409019Y-102395397D01*
X154397171Y-102320591D01*
X154341211Y-102148361D01*
X154341211Y-102148360D01*
X154312740Y-102092484D01*
X154258996Y-101987006D01*
X154245396Y-101968287D01*
X154152558Y-101840505D01*
X154152554Y-101840500D01*
X154024499Y-101712445D01*
X154024494Y-101712441D01*
X153877997Y-101606006D01*
X153877996Y-101606005D01*
X153877994Y-101606004D01*
X153826300Y-101579664D01*
X153716639Y-101523788D01*
X153716636Y-101523787D01*
X153544410Y-101467829D01*
X153384321Y-101442473D01*
X153321186Y-101412544D01*
X153284255Y-101353232D01*
X153285253Y-101283370D01*
X153323863Y-101225137D01*
X153384321Y-101197527D01*
X153454425Y-101186422D01*
X153544409Y-101172171D01*
X153716639Y-101116211D01*
X153877994Y-101033996D01*
X154024501Y-100927553D01*
X154141359Y-100810695D01*
X159379622Y-100810695D01*
X159379622Y-100968809D01*
X159419119Y-101116212D01*
X159420545Y-101121535D01*
X159420548Y-101121542D01*
X159499597Y-101258461D01*
X159499601Y-101258466D01*
X159499602Y-101258468D01*
X159611406Y-101370272D01*
X159611408Y-101370273D01*
X159611412Y-101370276D01*
X159736463Y-101442473D01*
X159748338Y-101449329D01*
X159901065Y-101490252D01*
X159901067Y-101490252D01*
X160059177Y-101490252D01*
X160059179Y-101490252D01*
X160211906Y-101449329D01*
X160348838Y-101370272D01*
X160460642Y-101258468D01*
X160539699Y-101121536D01*
X160580622Y-100968809D01*
X160580622Y-100810695D01*
X160539699Y-100657968D01*
X160487882Y-100568217D01*
X160460646Y-100521042D01*
X160460640Y-100521034D01*
X160348839Y-100409233D01*
X160348831Y-100409227D01*
X160211912Y-100330178D01*
X160211908Y-100330176D01*
X160211906Y-100330175D01*
X160059179Y-100289252D01*
X159901065Y-100289252D01*
X159748338Y-100330175D01*
X159748331Y-100330178D01*
X159611412Y-100409227D01*
X159611404Y-100409233D01*
X159499603Y-100521034D01*
X159499597Y-100521042D01*
X159420548Y-100657961D01*
X159420545Y-100657968D01*
X159379622Y-100810695D01*
X154141359Y-100810695D01*
X154152553Y-100799501D01*
X154258996Y-100652994D01*
X154341211Y-100491639D01*
X154397171Y-100319409D01*
X154419885Y-100176000D01*
X154425500Y-100140551D01*
X154425500Y-99959448D01*
X154400245Y-99800000D01*
X154397171Y-99780591D01*
X154360659Y-99668216D01*
X154341212Y-99608363D01*
X154341211Y-99608360D01*
X154301937Y-99531282D01*
X154258996Y-99447006D01*
X154183028Y-99342444D01*
X154152558Y-99300505D01*
X154152554Y-99300500D01*
X154024499Y-99172445D01*
X154024494Y-99172441D01*
X153877997Y-99066006D01*
X153877996Y-99066005D01*
X153877994Y-99066004D01*
X153826300Y-99039664D01*
X153716639Y-98983788D01*
X153716636Y-98983787D01*
X153544410Y-98927829D01*
X153384321Y-98902473D01*
X153321186Y-98872544D01*
X153284255Y-98813232D01*
X153285253Y-98743370D01*
X153323863Y-98685137D01*
X153384321Y-98657527D01*
X153454425Y-98646422D01*
X153544409Y-98632171D01*
X153716639Y-98576211D01*
X153877994Y-98493996D01*
X154024501Y-98387553D01*
X154152553Y-98259501D01*
X154258996Y-98112994D01*
X154341211Y-97951639D01*
X154397171Y-97779409D01*
X154411765Y-97687259D01*
X154425500Y-97600551D01*
X154425500Y-97419451D01*
X154422038Y-97397596D01*
X154422038Y-97397594D01*
X154420253Y-97386323D01*
X157259120Y-97386323D01*
X157259120Y-97544437D01*
X157289972Y-97659576D01*
X157300043Y-97697163D01*
X157300046Y-97697170D01*
X157379095Y-97834089D01*
X157379099Y-97834094D01*
X157379100Y-97834096D01*
X157490904Y-97945900D01*
X157490906Y-97945901D01*
X157490910Y-97945904D01*
X157627829Y-98024953D01*
X157627836Y-98024957D01*
X157780563Y-98065880D01*
X157780565Y-98065880D01*
X157938675Y-98065880D01*
X157938677Y-98065880D01*
X158091404Y-98024957D01*
X158228336Y-97945900D01*
X158340140Y-97834096D01*
X158419197Y-97697164D01*
X158460120Y-97544437D01*
X158460120Y-97386323D01*
X158419197Y-97233596D01*
X158387708Y-97179055D01*
X158340144Y-97096670D01*
X158340141Y-97096667D01*
X158340140Y-97096664D01*
X158340137Y-97096661D01*
X158335194Y-97090219D01*
X158335995Y-97089604D01*
X158326062Y-97066408D01*
X158312037Y-97040723D01*
X158312470Y-97034667D01*
X158310080Y-97029086D01*
X158311449Y-97020943D01*
X162524500Y-97020943D01*
X162524500Y-97179057D01*
X162540988Y-97240589D01*
X162565423Y-97331783D01*
X162565426Y-97331790D01*
X162644475Y-97468709D01*
X162644479Y-97468714D01*
X162644480Y-97468716D01*
X162756284Y-97580520D01*
X162756286Y-97580521D01*
X162756290Y-97580524D01*
X162893209Y-97659573D01*
X162893216Y-97659577D01*
X163045943Y-97700500D01*
X163045945Y-97700500D01*
X163204055Y-97700500D01*
X163204057Y-97700500D01*
X163356784Y-97659577D01*
X163493716Y-97580520D01*
X163605520Y-97468716D01*
X163684577Y-97331784D01*
X163725500Y-97179057D01*
X163725500Y-97020943D01*
X163684577Y-96868216D01*
X163641930Y-96794348D01*
X163605524Y-96731290D01*
X163605518Y-96731282D01*
X163493717Y-96619481D01*
X163493709Y-96619475D01*
X163356790Y-96540426D01*
X163356786Y-96540424D01*
X163356784Y-96540423D01*
X163204057Y-96499500D01*
X163045943Y-96499500D01*
X162893216Y-96540423D01*
X162893209Y-96540426D01*
X162756290Y-96619475D01*
X162756282Y-96619481D01*
X162644481Y-96731282D01*
X162644475Y-96731290D01*
X162565426Y-96868209D01*
X162565423Y-96868216D01*
X162524500Y-97020943D01*
X158311449Y-97020943D01*
X158314933Y-97000227D01*
X158317021Y-96971031D01*
X158320660Y-96966169D01*
X158321667Y-96960184D01*
X158341351Y-96938530D01*
X158343301Y-96935924D01*
X158345271Y-96931613D01*
X158347696Y-96930054D01*
X158358893Y-96915098D01*
X158365625Y-96911827D01*
X158368665Y-96908484D01*
X158401104Y-96894592D01*
X158531784Y-96859577D01*
X158668716Y-96780520D01*
X158780520Y-96668716D01*
X158859577Y-96531784D01*
X158900500Y-96379057D01*
X158900500Y-96220943D01*
X158859577Y-96068216D01*
X158795358Y-95956984D01*
X158780524Y-95931290D01*
X158780518Y-95931282D01*
X158668717Y-95819481D01*
X158668709Y-95819475D01*
X158531790Y-95740426D01*
X158531786Y-95740424D01*
X158531784Y-95740423D01*
X158379057Y-95699500D01*
X158220943Y-95699500D01*
X158068216Y-95740423D01*
X158068209Y-95740426D01*
X157931290Y-95819475D01*
X157931282Y-95819481D01*
X157819481Y-95931282D01*
X157819475Y-95931290D01*
X157740426Y-96068209D01*
X157740423Y-96068216D01*
X157699500Y-96220943D01*
X157699500Y-96379057D01*
X157738875Y-96526004D01*
X157740423Y-96531783D01*
X157740426Y-96531790D01*
X157819475Y-96668709D01*
X157824426Y-96675161D01*
X157821698Y-96677254D01*
X157847582Y-96724656D01*
X157842598Y-96794348D01*
X157800726Y-96850281D01*
X157758510Y-96870789D01*
X157627834Y-96905803D01*
X157627829Y-96905806D01*
X157490910Y-96984855D01*
X157490902Y-96984861D01*
X157379101Y-97096662D01*
X157379095Y-97096670D01*
X157300046Y-97233589D01*
X157300043Y-97233596D01*
X157259120Y-97386323D01*
X154420253Y-97386323D01*
X154411614Y-97331783D01*
X154397171Y-97240591D01*
X154350407Y-97096664D01*
X154341212Y-97068363D01*
X154341211Y-97068360D01*
X154298662Y-96984855D01*
X154258996Y-96907006D01*
X154230814Y-96868216D01*
X154152558Y-96760505D01*
X154152554Y-96760500D01*
X154024499Y-96632445D01*
X154024494Y-96632441D01*
X153877997Y-96526006D01*
X153877996Y-96526005D01*
X153877994Y-96526004D01*
X153825977Y-96499500D01*
X153716639Y-96443788D01*
X153716636Y-96443787D01*
X153544410Y-96387829D01*
X153384321Y-96362473D01*
X153321186Y-96332544D01*
X153284255Y-96273232D01*
X153285253Y-96203370D01*
X153323863Y-96145137D01*
X153384321Y-96117527D01*
X153454425Y-96106422D01*
X153544409Y-96092171D01*
X153716639Y-96036211D01*
X153877994Y-95953996D01*
X154024501Y-95847553D01*
X154152553Y-95719501D01*
X154258996Y-95572994D01*
X154341211Y-95411639D01*
X154397171Y-95239409D01*
X154415340Y-95124693D01*
X154425500Y-95060551D01*
X154425500Y-94879448D01*
X154397170Y-94700587D01*
X154389225Y-94676133D01*
X154379416Y-94645943D01*
X161224500Y-94645943D01*
X161224500Y-94804057D01*
X161243768Y-94875964D01*
X161265423Y-94956783D01*
X161265426Y-94956790D01*
X161344475Y-95093709D01*
X161344479Y-95093714D01*
X161344480Y-95093716D01*
X161456284Y-95205520D01*
X161456286Y-95205521D01*
X161456290Y-95205524D01*
X161580832Y-95277427D01*
X161593216Y-95284577D01*
X161623747Y-95292757D01*
X161683407Y-95329121D01*
X161713937Y-95391968D01*
X161715654Y-95412532D01*
X161715654Y-95435541D01*
X161752485Y-95572994D01*
X161756577Y-95588267D01*
X161756580Y-95588274D01*
X161835629Y-95725193D01*
X161835633Y-95725198D01*
X161835634Y-95725200D01*
X161947438Y-95837004D01*
X161947440Y-95837005D01*
X161947444Y-95837008D01*
X162084363Y-95916057D01*
X162084370Y-95916061D01*
X162237097Y-95956984D01*
X162237099Y-95956984D01*
X162395209Y-95956984D01*
X162395211Y-95956984D01*
X162547938Y-95916061D01*
X162684870Y-95837004D01*
X162796674Y-95725200D01*
X162875731Y-95588268D01*
X162916654Y-95435541D01*
X162916654Y-95277427D01*
X162875731Y-95124700D01*
X162838692Y-95060546D01*
X162796678Y-94987774D01*
X162796672Y-94987766D01*
X162684871Y-94875965D01*
X162684863Y-94875959D01*
X162547944Y-94796910D01*
X162547940Y-94796908D01*
X162547938Y-94796907D01*
X162547936Y-94796906D01*
X162547933Y-94796905D01*
X162517405Y-94788725D01*
X162457745Y-94752360D01*
X162427217Y-94689512D01*
X162425500Y-94668951D01*
X162425500Y-94645945D01*
X162425500Y-94645943D01*
X162384577Y-94493216D01*
X162363048Y-94455926D01*
X162305524Y-94356290D01*
X162305518Y-94356282D01*
X162193717Y-94244481D01*
X162193709Y-94244475D01*
X162056790Y-94165426D01*
X162056786Y-94165424D01*
X162056784Y-94165423D01*
X161904057Y-94124500D01*
X161745943Y-94124500D01*
X161593216Y-94165423D01*
X161593209Y-94165426D01*
X161456290Y-94244475D01*
X161456282Y-94244481D01*
X161344481Y-94356282D01*
X161344475Y-94356290D01*
X161265426Y-94493209D01*
X161265423Y-94493216D01*
X161224500Y-94645943D01*
X154379416Y-94645943D01*
X154341212Y-94528363D01*
X154341211Y-94528360D01*
X154303565Y-94454477D01*
X154258996Y-94367006D01*
X154169977Y-94244481D01*
X154152558Y-94220505D01*
X154152554Y-94220500D01*
X154024499Y-94092445D01*
X154024494Y-94092441D01*
X153877997Y-93986006D01*
X153877996Y-93986005D01*
X153877994Y-93986004D01*
X153826300Y-93959664D01*
X153716639Y-93903788D01*
X153716636Y-93903787D01*
X153544410Y-93847829D01*
X153384321Y-93822473D01*
X153321186Y-93792544D01*
X153284255Y-93733232D01*
X153285253Y-93663370D01*
X153323863Y-93605137D01*
X153384321Y-93577527D01*
X153454425Y-93566422D01*
X153544409Y-93552171D01*
X153716639Y-93496211D01*
X153877994Y-93413996D01*
X154024501Y-93307553D01*
X154152553Y-93179501D01*
X154258996Y-93032994D01*
X154341211Y-92871639D01*
X154397171Y-92699409D01*
X154416643Y-92576466D01*
X154425500Y-92520551D01*
X154425500Y-92339448D01*
X154401788Y-92189744D01*
X154397171Y-92160591D01*
X154365810Y-92064071D01*
X164306462Y-92064071D01*
X164331460Y-92189738D01*
X164331462Y-92189744D01*
X164380496Y-92308124D01*
X164380501Y-92308133D01*
X164451686Y-92414668D01*
X164451689Y-92414672D01*
X164542290Y-92505273D01*
X164542294Y-92505276D01*
X164648829Y-92576461D01*
X164648835Y-92576464D01*
X164648836Y-92576465D01*
X164767219Y-92625501D01*
X164767223Y-92625501D01*
X164767224Y-92625502D01*
X164892891Y-92650500D01*
X165011517Y-92650500D01*
X165078556Y-92670185D01*
X165124311Y-92722989D01*
X165134255Y-92792147D01*
X165131294Y-92806581D01*
X165099770Y-92924233D01*
X165099770Y-93082347D01*
X165125803Y-93179501D01*
X165140693Y-93235073D01*
X165140696Y-93235080D01*
X165219745Y-93371999D01*
X165219749Y-93372004D01*
X165219750Y-93372006D01*
X165331554Y-93483810D01*
X165331556Y-93483811D01*
X165331560Y-93483814D01*
X165442275Y-93547735D01*
X165490491Y-93598301D01*
X165503715Y-93666908D01*
X165487664Y-93717121D01*
X165453244Y-93776738D01*
X165453244Y-93776739D01*
X165412321Y-93929466D01*
X165412321Y-94087580D01*
X165447937Y-94220499D01*
X165453244Y-94240306D01*
X165453247Y-94240313D01*
X165532296Y-94377232D01*
X165532300Y-94377237D01*
X165532301Y-94377239D01*
X165644105Y-94489043D01*
X165644107Y-94489044D01*
X165644111Y-94489047D01*
X165781030Y-94568096D01*
X165781037Y-94568100D01*
X165933764Y-94609023D01*
X165933766Y-94609023D01*
X166091876Y-94609023D01*
X166091878Y-94609023D01*
X166244605Y-94568100D01*
X166381537Y-94489043D01*
X166381542Y-94489037D01*
X166387982Y-94484097D01*
X166388844Y-94485221D01*
X166442482Y-94455926D01*
X166512174Y-94460904D01*
X166530845Y-94469700D01*
X166643216Y-94534577D01*
X166795943Y-94575500D01*
X166795945Y-94575500D01*
X166954055Y-94575500D01*
X166954057Y-94575500D01*
X167106784Y-94534577D01*
X167243716Y-94455520D01*
X167243718Y-94455517D01*
X167245521Y-94454477D01*
X167313421Y-94438004D01*
X167379448Y-94460857D01*
X167422639Y-94515778D01*
X167429280Y-94585331D01*
X167425453Y-94600181D01*
X167392828Y-94700593D01*
X167364500Y-94879448D01*
X167364500Y-95060551D01*
X167392829Y-95239410D01*
X167448787Y-95411636D01*
X167448788Y-95411639D01*
X167531006Y-95572997D01*
X167637441Y-95719494D01*
X167637445Y-95719499D01*
X167765500Y-95847554D01*
X167765505Y-95847558D01*
X167880743Y-95931282D01*
X167912006Y-95953996D01*
X168017484Y-96007740D01*
X168073360Y-96036211D01*
X168073363Y-96036212D01*
X168159476Y-96064191D01*
X168245591Y-96092171D01*
X168318639Y-96103740D01*
X168405678Y-96117527D01*
X168468813Y-96147456D01*
X168505744Y-96206768D01*
X168504746Y-96276631D01*
X168466136Y-96334863D01*
X168405678Y-96362473D01*
X168245589Y-96387829D01*
X168073363Y-96443787D01*
X168073360Y-96443788D01*
X167912002Y-96526006D01*
X167765505Y-96632441D01*
X167765500Y-96632445D01*
X167637445Y-96760500D01*
X167637441Y-96760505D01*
X167531006Y-96907002D01*
X167448788Y-97068360D01*
X167448787Y-97068363D01*
X167392829Y-97240589D01*
X167364500Y-97419448D01*
X167364500Y-97600551D01*
X167392829Y-97779410D01*
X167448787Y-97951636D01*
X167448788Y-97951639D01*
X167531006Y-98112997D01*
X167637441Y-98259494D01*
X167637445Y-98259499D01*
X167765500Y-98387554D01*
X167765505Y-98387558D01*
X167893287Y-98480396D01*
X167912006Y-98493996D01*
X168013780Y-98545853D01*
X168043684Y-98561090D01*
X168094480Y-98609065D01*
X168111275Y-98676886D01*
X168088737Y-98743021D01*
X168034022Y-98786472D01*
X168025708Y-98789506D01*
X167996781Y-98798905D01*
X167807442Y-98895379D01*
X167635540Y-99020272D01*
X167635535Y-99020276D01*
X167485276Y-99170535D01*
X167485272Y-99170540D01*
X167360377Y-99342444D01*
X167345802Y-99371048D01*
X167297826Y-99421843D01*
X167230005Y-99438636D01*
X167173320Y-99422138D01*
X167031784Y-99340423D01*
X166879057Y-99299500D01*
X166720943Y-99299500D01*
X166568216Y-99340423D01*
X166568209Y-99340426D01*
X166431290Y-99419475D01*
X166431282Y-99419481D01*
X166319481Y-99531282D01*
X166319475Y-99531290D01*
X166240426Y-99668209D01*
X166240423Y-99668216D01*
X166199500Y-99820943D01*
X166199500Y-99979056D01*
X166240423Y-100131783D01*
X166240426Y-100131790D01*
X166319475Y-100268709D01*
X166319479Y-100268714D01*
X166319480Y-100268716D01*
X166431284Y-100380520D01*
X166431286Y-100380521D01*
X166431290Y-100380524D01*
X166506563Y-100423982D01*
X166568216Y-100459577D01*
X166720943Y-100500500D01*
X166720945Y-100500500D01*
X166879055Y-100500500D01*
X166879057Y-100500500D01*
X167031784Y-100459577D01*
X167064904Y-100440455D01*
X167132801Y-100423982D01*
X167198829Y-100446834D01*
X167242020Y-100501754D01*
X167244834Y-100509524D01*
X167263904Y-100568217D01*
X167360379Y-100757557D01*
X167485272Y-100929459D01*
X167485276Y-100929464D01*
X167635535Y-101079723D01*
X167635540Y-101079727D01*
X167807442Y-101204620D01*
X167996780Y-101301094D01*
X168025705Y-101310492D01*
X168083381Y-101349929D01*
X168110580Y-101414287D01*
X168098667Y-101483134D01*
X168051424Y-101534610D01*
X168043685Y-101538908D01*
X167912004Y-101606004D01*
X167765505Y-101712441D01*
X167765500Y-101712445D01*
X167637445Y-101840500D01*
X167637441Y-101840505D01*
X167531006Y-101987002D01*
X167448788Y-102148360D01*
X167448787Y-102148363D01*
X167392829Y-102320589D01*
X167364500Y-102499448D01*
X167364500Y-102680551D01*
X167392829Y-102859410D01*
X167448787Y-103031636D01*
X167448788Y-103031639D01*
X167531006Y-103192997D01*
X167637441Y-103339494D01*
X167637445Y-103339499D01*
X167765500Y-103467554D01*
X167765505Y-103467558D01*
X167893287Y-103560396D01*
X167912006Y-103573996D01*
X168017484Y-103627740D01*
X168073360Y-103656211D01*
X168073363Y-103656212D01*
X168159476Y-103684191D01*
X168245591Y-103712171D01*
X168318639Y-103723740D01*
X168405678Y-103737527D01*
X168468813Y-103767456D01*
X168505744Y-103826768D01*
X168504746Y-103896631D01*
X168466136Y-103954863D01*
X168405678Y-103982473D01*
X168245589Y-104007829D01*
X168073363Y-104063787D01*
X168073360Y-104063788D01*
X167912002Y-104146006D01*
X167765505Y-104252441D01*
X167765500Y-104252445D01*
X167637445Y-104380500D01*
X167637441Y-104380505D01*
X167531006Y-104527002D01*
X167448788Y-104688360D01*
X167448787Y-104688363D01*
X167392829Y-104860589D01*
X167364500Y-105039448D01*
X167364500Y-105220551D01*
X167392829Y-105399410D01*
X167448787Y-105571636D01*
X167448788Y-105571639D01*
X167531006Y-105732997D01*
X167637441Y-105879494D01*
X167637445Y-105879499D01*
X167765500Y-106007554D01*
X167765505Y-106007558D01*
X167893287Y-106100396D01*
X167912006Y-106113996D01*
X168017484Y-106167740D01*
X168073360Y-106196211D01*
X168073363Y-106196212D01*
X168159476Y-106224191D01*
X168245591Y-106252171D01*
X168318639Y-106263740D01*
X168405678Y-106277527D01*
X168468813Y-106307456D01*
X168505744Y-106366768D01*
X168504746Y-106436631D01*
X168466136Y-106494863D01*
X168405678Y-106522473D01*
X168245589Y-106547829D01*
X168073363Y-106603787D01*
X168073360Y-106603788D01*
X167912002Y-106686006D01*
X167765505Y-106792441D01*
X167765500Y-106792445D01*
X167637445Y-106920500D01*
X167637441Y-106920505D01*
X167531006Y-107067002D01*
X167448788Y-107228360D01*
X167448787Y-107228363D01*
X167392829Y-107400589D01*
X167364500Y-107579448D01*
X167364500Y-107760551D01*
X167392829Y-107939410D01*
X167448787Y-108111636D01*
X167448788Y-108111639D01*
X167531006Y-108272997D01*
X167637441Y-108419494D01*
X167637445Y-108419499D01*
X167765500Y-108547554D01*
X167765505Y-108547558D01*
X167893287Y-108640396D01*
X167912006Y-108653996D01*
X168017484Y-108707740D01*
X168073360Y-108736211D01*
X168073363Y-108736212D01*
X168159476Y-108764191D01*
X168245591Y-108792171D01*
X168318639Y-108803740D01*
X168405678Y-108817527D01*
X168468813Y-108847456D01*
X168505744Y-108906768D01*
X168504746Y-108976631D01*
X168466136Y-109034863D01*
X168405678Y-109062473D01*
X168245589Y-109087829D01*
X168073363Y-109143787D01*
X168073360Y-109143788D01*
X167912002Y-109226006D01*
X167765505Y-109332441D01*
X167765500Y-109332445D01*
X167637445Y-109460500D01*
X167637441Y-109460505D01*
X167531006Y-109607002D01*
X167448788Y-109768360D01*
X167448787Y-109768363D01*
X167392829Y-109940589D01*
X167364500Y-110119448D01*
X167364500Y-110300551D01*
X167392829Y-110479410D01*
X167448787Y-110651636D01*
X167448788Y-110651639D01*
X167531006Y-110812997D01*
X167637441Y-110959494D01*
X167637445Y-110959499D01*
X167765500Y-111087554D01*
X167765505Y-111087558D01*
X167893287Y-111180396D01*
X167912006Y-111193996D01*
X168017484Y-111247740D01*
X168073360Y-111276211D01*
X168073363Y-111276212D01*
X168159476Y-111304191D01*
X168245591Y-111332171D01*
X168318639Y-111343740D01*
X168405678Y-111357527D01*
X168468813Y-111387456D01*
X168505744Y-111446768D01*
X168504746Y-111516631D01*
X168466136Y-111574863D01*
X168405678Y-111602473D01*
X168245589Y-111627829D01*
X168073363Y-111683787D01*
X168073360Y-111683788D01*
X167912002Y-111766006D01*
X167765505Y-111872441D01*
X167765500Y-111872445D01*
X167637445Y-112000500D01*
X167637441Y-112000505D01*
X167531006Y-112147002D01*
X167448788Y-112308360D01*
X167448787Y-112308363D01*
X167392829Y-112480589D01*
X167364500Y-112659448D01*
X167364500Y-112840551D01*
X167392829Y-113019410D01*
X167448787Y-113191636D01*
X167448788Y-113191639D01*
X167493330Y-113279055D01*
X167526799Y-113344742D01*
X167531006Y-113352997D01*
X167637441Y-113499494D01*
X167637445Y-113499499D01*
X167765500Y-113627554D01*
X167765505Y-113627558D01*
X167872809Y-113705518D01*
X167912006Y-113733996D01*
X168011268Y-113784573D01*
X168073360Y-113816211D01*
X168073363Y-113816212D01*
X168159476Y-113844191D01*
X168245591Y-113872171D01*
X168318639Y-113883740D01*
X168405678Y-113897527D01*
X168468813Y-113927456D01*
X168505744Y-113986768D01*
X168504746Y-114056631D01*
X168466136Y-114114863D01*
X168405678Y-114142473D01*
X168245589Y-114167829D01*
X168073363Y-114223787D01*
X168073360Y-114223788D01*
X167912002Y-114306006D01*
X167765505Y-114412441D01*
X167765500Y-114412445D01*
X167637445Y-114540500D01*
X167637441Y-114540505D01*
X167531006Y-114687002D01*
X167448788Y-114848360D01*
X167448787Y-114848363D01*
X167392829Y-115020589D01*
X167364500Y-115199448D01*
X167364500Y-115380551D01*
X167392829Y-115559410D01*
X167448787Y-115731636D01*
X167448788Y-115731639D01*
X167482882Y-115798550D01*
X167522581Y-115876464D01*
X167531006Y-115892997D01*
X167637441Y-116039494D01*
X167637445Y-116039499D01*
X167765500Y-116167554D01*
X167765505Y-116167558D01*
X167834218Y-116217480D01*
X167912006Y-116273996D01*
X168017484Y-116327740D01*
X168073360Y-116356211D01*
X168073363Y-116356212D01*
X168148310Y-116380563D01*
X168245591Y-116412171D01*
X168318639Y-116423740D01*
X168405678Y-116437527D01*
X168468813Y-116467456D01*
X168505744Y-116526768D01*
X168504746Y-116596631D01*
X168466136Y-116654863D01*
X168405678Y-116682473D01*
X168245589Y-116707829D01*
X168073363Y-116763787D01*
X168073360Y-116763788D01*
X167912002Y-116846006D01*
X167765505Y-116952441D01*
X167765500Y-116952445D01*
X167637445Y-117080500D01*
X167637441Y-117080505D01*
X167531006Y-117227002D01*
X167448788Y-117388360D01*
X167448787Y-117388363D01*
X167392829Y-117560589D01*
X167364500Y-117739448D01*
X167364500Y-117920551D01*
X167392829Y-118099410D01*
X167448787Y-118271636D01*
X167448788Y-118271639D01*
X167531006Y-118432997D01*
X167637441Y-118579494D01*
X167637445Y-118579499D01*
X167765500Y-118707554D01*
X167765505Y-118707558D01*
X167780171Y-118718213D01*
X167912006Y-118813996D01*
X168017484Y-118867740D01*
X168073360Y-118896211D01*
X168073363Y-118896212D01*
X168159476Y-118924191D01*
X168245591Y-118952171D01*
X168318639Y-118963740D01*
X168405678Y-118977527D01*
X168468813Y-119007456D01*
X168505744Y-119066768D01*
X168504746Y-119136631D01*
X168466136Y-119194863D01*
X168405678Y-119222473D01*
X168245589Y-119247829D01*
X168073363Y-119303787D01*
X168073360Y-119303788D01*
X167912002Y-119386006D01*
X167765505Y-119492441D01*
X167765500Y-119492445D01*
X167637445Y-119620500D01*
X167637441Y-119620505D01*
X167531006Y-119767002D01*
X167448788Y-119928360D01*
X167448787Y-119928363D01*
X167392829Y-120100589D01*
X167364500Y-120279448D01*
X167364500Y-120460551D01*
X167392829Y-120639410D01*
X167448787Y-120811636D01*
X167448788Y-120811639D01*
X167498772Y-120909735D01*
X167514447Y-120940500D01*
X167531006Y-120972997D01*
X167637441Y-121119494D01*
X167637445Y-121119499D01*
X167765500Y-121247554D01*
X167765505Y-121247558D01*
X167893287Y-121340396D01*
X167912006Y-121353996D01*
X168017484Y-121407740D01*
X168073360Y-121436211D01*
X168073363Y-121436212D01*
X168159476Y-121464191D01*
X168245591Y-121492171D01*
X168328429Y-121505291D01*
X168424449Y-121520500D01*
X168424454Y-121520500D01*
X168605551Y-121520500D01*
X168692259Y-121506765D01*
X168784409Y-121492171D01*
X168956639Y-121436211D01*
X169117994Y-121353996D01*
X169264501Y-121247553D01*
X169392553Y-121119501D01*
X169498996Y-120972994D01*
X169581211Y-120811639D01*
X169637171Y-120639409D01*
X169656213Y-120519185D01*
X169665500Y-120460551D01*
X169665500Y-120279448D01*
X169649019Y-120175397D01*
X169637171Y-120100591D01*
X169581211Y-119928361D01*
X169581211Y-119928360D01*
X169552740Y-119872484D01*
X169498996Y-119767006D01*
X169485396Y-119748287D01*
X169392558Y-119620505D01*
X169392554Y-119620500D01*
X169264499Y-119492445D01*
X169264494Y-119492441D01*
X169117997Y-119386006D01*
X169117996Y-119386005D01*
X169117994Y-119386004D01*
X169066300Y-119359664D01*
X168956639Y-119303788D01*
X168956636Y-119303787D01*
X168784410Y-119247829D01*
X168624321Y-119222473D01*
X168561186Y-119192544D01*
X168524255Y-119133232D01*
X168525253Y-119063370D01*
X168563863Y-119005137D01*
X168624321Y-118977527D01*
X168694425Y-118966422D01*
X168784409Y-118952171D01*
X168956639Y-118896211D01*
X169117994Y-118813996D01*
X169264501Y-118707553D01*
X169392553Y-118579501D01*
X169498996Y-118432994D01*
X169581211Y-118271639D01*
X169637171Y-118099409D01*
X169651765Y-118007259D01*
X169665500Y-117920551D01*
X169665500Y-117739448D01*
X169638181Y-117566970D01*
X169637171Y-117560591D01*
X169581211Y-117388361D01*
X169581211Y-117388360D01*
X169507711Y-117244111D01*
X169498996Y-117227006D01*
X169458264Y-117170943D01*
X169392558Y-117080505D01*
X169392554Y-117080500D01*
X169264499Y-116952445D01*
X169264494Y-116952441D01*
X169117997Y-116846006D01*
X169117996Y-116846005D01*
X169117994Y-116846004D01*
X169065761Y-116819390D01*
X168956639Y-116763788D01*
X168956636Y-116763787D01*
X168784410Y-116707829D01*
X168624321Y-116682473D01*
X168561186Y-116652544D01*
X168524255Y-116593232D01*
X168525253Y-116523370D01*
X168563863Y-116465137D01*
X168624321Y-116437527D01*
X168694425Y-116426422D01*
X168784409Y-116412171D01*
X168956639Y-116356211D01*
X169117994Y-116273996D01*
X169264501Y-116167553D01*
X169392553Y-116039501D01*
X169498996Y-115892994D01*
X169581211Y-115731639D01*
X169637171Y-115559409D01*
X169651765Y-115467259D01*
X169665500Y-115380551D01*
X169665500Y-115199448D01*
X169649019Y-115095397D01*
X169637171Y-115020591D01*
X169581211Y-114848361D01*
X169581211Y-114848360D01*
X169552740Y-114792484D01*
X169498996Y-114687006D01*
X169458180Y-114630827D01*
X169392558Y-114540505D01*
X169392554Y-114540500D01*
X169264499Y-114412445D01*
X169264494Y-114412441D01*
X169117997Y-114306006D01*
X169117996Y-114306005D01*
X169117994Y-114306004D01*
X169026502Y-114259386D01*
X168956639Y-114223788D01*
X168956636Y-114223787D01*
X168784410Y-114167829D01*
X168624321Y-114142473D01*
X168561186Y-114112544D01*
X168524255Y-114053232D01*
X168525253Y-113983370D01*
X168563863Y-113925137D01*
X168624321Y-113897527D01*
X168694425Y-113886422D01*
X168784409Y-113872171D01*
X168956639Y-113816211D01*
X169117994Y-113733996D01*
X169264501Y-113627553D01*
X169392553Y-113499501D01*
X169498996Y-113352994D01*
X169581211Y-113191639D01*
X169637171Y-113019409D01*
X169651765Y-112927259D01*
X169665500Y-112840551D01*
X169665500Y-112659448D01*
X169649019Y-112555397D01*
X169637171Y-112480591D01*
X169600223Y-112366875D01*
X169581212Y-112308363D01*
X169581211Y-112308360D01*
X169510571Y-112169724D01*
X169498996Y-112147006D01*
X169463780Y-112098535D01*
X169392558Y-112000505D01*
X169392554Y-112000500D01*
X169264499Y-111872445D01*
X169264494Y-111872441D01*
X169117997Y-111766006D01*
X169117996Y-111766005D01*
X169117994Y-111766004D01*
X169066300Y-111739664D01*
X168956639Y-111683788D01*
X168956636Y-111683787D01*
X168784410Y-111627829D01*
X168624321Y-111602473D01*
X168561186Y-111572544D01*
X168524255Y-111513232D01*
X168525253Y-111443370D01*
X168563863Y-111385137D01*
X168624321Y-111357527D01*
X168694425Y-111346422D01*
X168784409Y-111332171D01*
X168956639Y-111276211D01*
X169117994Y-111193996D01*
X169264501Y-111087553D01*
X169392553Y-110959501D01*
X169498996Y-110812994D01*
X169581211Y-110651639D01*
X169637171Y-110479409D01*
X169651765Y-110387259D01*
X169665500Y-110300551D01*
X169665500Y-110119448D01*
X169649019Y-110015397D01*
X169637171Y-109940591D01*
X169581211Y-109768361D01*
X169581211Y-109768360D01*
X169552740Y-109712484D01*
X169498996Y-109607006D01*
X169470814Y-109568216D01*
X169392558Y-109460505D01*
X169392554Y-109460500D01*
X169264499Y-109332445D01*
X169264494Y-109332441D01*
X169117997Y-109226006D01*
X169117996Y-109226005D01*
X169117994Y-109226004D01*
X169065977Y-109199500D01*
X168956639Y-109143788D01*
X168956636Y-109143787D01*
X168784410Y-109087829D01*
X168624321Y-109062473D01*
X168561186Y-109032544D01*
X168524255Y-108973232D01*
X168525253Y-108903370D01*
X168563863Y-108845137D01*
X168624321Y-108817527D01*
X168694425Y-108806422D01*
X168784409Y-108792171D01*
X168956639Y-108736211D01*
X169117994Y-108653996D01*
X169264501Y-108547553D01*
X169392553Y-108419501D01*
X169498996Y-108272994D01*
X169581211Y-108111639D01*
X169637171Y-107939409D01*
X169651765Y-107847259D01*
X169665500Y-107760551D01*
X169665500Y-107579448D01*
X169644354Y-107445943D01*
X169637171Y-107400591D01*
X169581211Y-107228361D01*
X169581211Y-107228360D01*
X169544485Y-107156282D01*
X169498996Y-107067006D01*
X169482626Y-107044475D01*
X169392558Y-106920505D01*
X169392554Y-106920500D01*
X169264499Y-106792445D01*
X169264494Y-106792441D01*
X169117997Y-106686006D01*
X169117996Y-106686005D01*
X169117994Y-106686004D01*
X169066300Y-106659664D01*
X168956639Y-106603788D01*
X168956636Y-106603787D01*
X168784410Y-106547829D01*
X168624321Y-106522473D01*
X168561186Y-106492544D01*
X168524255Y-106433232D01*
X168525253Y-106363370D01*
X168563863Y-106305137D01*
X168624321Y-106277527D01*
X168694425Y-106266422D01*
X168784409Y-106252171D01*
X168956639Y-106196211D01*
X169117994Y-106113996D01*
X169264501Y-106007553D01*
X169392553Y-105879501D01*
X169498996Y-105732994D01*
X169581211Y-105571639D01*
X169637171Y-105399409D01*
X169651765Y-105307259D01*
X169665500Y-105220551D01*
X169665500Y-105039448D01*
X169646730Y-104920943D01*
X169637171Y-104860591D01*
X169581211Y-104688361D01*
X169581211Y-104688360D01*
X169552128Y-104631282D01*
X169498996Y-104527006D01*
X169485396Y-104508287D01*
X169392558Y-104380505D01*
X169392554Y-104380500D01*
X169264499Y-104252445D01*
X169264494Y-104252441D01*
X169117997Y-104146006D01*
X169117996Y-104146005D01*
X169117994Y-104146004D01*
X169066300Y-104119664D01*
X168956639Y-104063788D01*
X168956636Y-104063787D01*
X168784410Y-104007829D01*
X168624321Y-103982473D01*
X168561186Y-103952544D01*
X168524255Y-103893232D01*
X168525253Y-103823370D01*
X168563863Y-103765137D01*
X168624321Y-103737527D01*
X168694425Y-103726422D01*
X168784409Y-103712171D01*
X168956639Y-103656211D01*
X169117994Y-103573996D01*
X169264501Y-103467553D01*
X169392553Y-103339501D01*
X169498996Y-103192994D01*
X169581211Y-103031639D01*
X169637171Y-102859409D01*
X169651765Y-102767259D01*
X169665500Y-102680551D01*
X169665500Y-102499448D01*
X169649019Y-102395397D01*
X169637171Y-102320591D01*
X169581211Y-102148361D01*
X169581211Y-102148360D01*
X169552740Y-102092484D01*
X169498996Y-101987006D01*
X169485396Y-101968287D01*
X169392558Y-101840505D01*
X169392554Y-101840500D01*
X169264499Y-101712445D01*
X169264494Y-101712441D01*
X169117995Y-101606004D01*
X168986314Y-101538908D01*
X168935519Y-101490934D01*
X168918724Y-101423113D01*
X168941262Y-101356978D01*
X168995977Y-101313527D01*
X169004295Y-101310492D01*
X169033217Y-101301095D01*
X169222557Y-101204620D01*
X169394459Y-101079727D01*
X169394464Y-101079723D01*
X169544723Y-100929464D01*
X169544727Y-100929459D01*
X169669620Y-100757557D01*
X169766095Y-100568217D01*
X169831757Y-100366129D01*
X169831757Y-100366126D01*
X169842231Y-100300000D01*
X168948012Y-100300000D01*
X168980925Y-100242993D01*
X169015000Y-100115826D01*
X169015000Y-99984174D01*
X168980925Y-99857007D01*
X168948012Y-99800000D01*
X169842231Y-99800000D01*
X169831757Y-99733873D01*
X169831757Y-99733870D01*
X169766095Y-99531782D01*
X169669620Y-99342442D01*
X169544727Y-99170540D01*
X169544723Y-99170535D01*
X169394464Y-99020276D01*
X169394459Y-99020272D01*
X169222557Y-98895379D01*
X169033217Y-98798904D01*
X169004292Y-98789506D01*
X168946616Y-98750068D01*
X168919418Y-98685710D01*
X168931333Y-98616863D01*
X168978577Y-98565388D01*
X168986315Y-98561090D01*
X169117994Y-98493996D01*
X169264501Y-98387553D01*
X169392553Y-98259501D01*
X169498996Y-98112994D01*
X169581211Y-97951639D01*
X169637171Y-97779409D01*
X169651765Y-97687259D01*
X169665500Y-97600551D01*
X169665500Y-97419448D01*
X169649019Y-97315397D01*
X169637171Y-97240591D01*
X169590407Y-97096664D01*
X169581212Y-97068363D01*
X169581211Y-97068360D01*
X169538662Y-96984855D01*
X169498996Y-96907006D01*
X169470814Y-96868216D01*
X169392558Y-96760505D01*
X169392554Y-96760500D01*
X169264499Y-96632445D01*
X169264494Y-96632441D01*
X169117997Y-96526006D01*
X169117996Y-96526005D01*
X169117994Y-96526004D01*
X169065977Y-96499500D01*
X168956639Y-96443788D01*
X168956636Y-96443787D01*
X168784410Y-96387829D01*
X168624321Y-96362473D01*
X168561186Y-96332544D01*
X168524255Y-96273232D01*
X168525253Y-96203370D01*
X168563863Y-96145137D01*
X168624321Y-96117527D01*
X168694425Y-96106422D01*
X168784409Y-96092171D01*
X168956639Y-96036211D01*
X169117994Y-95953996D01*
X169264501Y-95847553D01*
X169392553Y-95719501D01*
X169498996Y-95572994D01*
X169581211Y-95411639D01*
X169637171Y-95239409D01*
X169655340Y-95124693D01*
X169665500Y-95060551D01*
X169665500Y-94879448D01*
X169637171Y-94700593D01*
X169637171Y-94700591D01*
X169594123Y-94568100D01*
X169581212Y-94528363D01*
X169581211Y-94528360D01*
X169543565Y-94454477D01*
X169498996Y-94367006D01*
X169409977Y-94244481D01*
X169392558Y-94220505D01*
X169392554Y-94220500D01*
X169264499Y-94092445D01*
X169264494Y-94092441D01*
X169117997Y-93986006D01*
X169117996Y-93986005D01*
X169117994Y-93986004D01*
X169066300Y-93959664D01*
X168956639Y-93903788D01*
X168956636Y-93903787D01*
X168784410Y-93847829D01*
X168624321Y-93822473D01*
X168561186Y-93792544D01*
X168524255Y-93733232D01*
X168525253Y-93663370D01*
X168563863Y-93605137D01*
X168624321Y-93577527D01*
X168694425Y-93566422D01*
X168784409Y-93552171D01*
X168956639Y-93496211D01*
X169117994Y-93413996D01*
X169264501Y-93307553D01*
X169392553Y-93179501D01*
X169498996Y-93032994D01*
X169581211Y-92871639D01*
X169637171Y-92699409D01*
X169656643Y-92576466D01*
X169665500Y-92520551D01*
X169665500Y-92339448D01*
X169641788Y-92189744D01*
X169637171Y-92160591D01*
X169581211Y-91988361D01*
X169581211Y-91988360D01*
X169552740Y-91932484D01*
X169498996Y-91827006D01*
X169485396Y-91808287D01*
X169392558Y-91680505D01*
X169392554Y-91680500D01*
X169264499Y-91552445D01*
X169264494Y-91552441D01*
X169117995Y-91446004D01*
X168986314Y-91378908D01*
X168935519Y-91330934D01*
X168918724Y-91263113D01*
X168941262Y-91196978D01*
X168995977Y-91153527D01*
X169004295Y-91150492D01*
X169033217Y-91141095D01*
X169222557Y-91044620D01*
X169394459Y-90919727D01*
X169394464Y-90919723D01*
X169544723Y-90769464D01*
X169544727Y-90769459D01*
X169669620Y-90597557D01*
X169766095Y-90408217D01*
X169831757Y-90206129D01*
X169831757Y-90206126D01*
X169842231Y-90140000D01*
X168948012Y-90140000D01*
X168980925Y-90082993D01*
X169015000Y-89955826D01*
X169015000Y-89824174D01*
X168980925Y-89697007D01*
X168948012Y-89640000D01*
X169842231Y-89640000D01*
X169831757Y-89573873D01*
X169831757Y-89573870D01*
X169766095Y-89371782D01*
X169669620Y-89182442D01*
X169544727Y-89010540D01*
X169544723Y-89010535D01*
X169394464Y-88860276D01*
X169394459Y-88860272D01*
X169222558Y-88735379D01*
X169212954Y-88730486D01*
X169162157Y-88682512D01*
X169145361Y-88614692D01*
X169167897Y-88548556D01*
X169212954Y-88509514D01*
X169222558Y-88504620D01*
X169394459Y-88379727D01*
X169394464Y-88379723D01*
X169544723Y-88229464D01*
X169544727Y-88229459D01*
X169669620Y-88057557D01*
X169766095Y-87868217D01*
X169831757Y-87666129D01*
X169831757Y-87666126D01*
X169842231Y-87600000D01*
X168948012Y-87600000D01*
X168980925Y-87542993D01*
X169015000Y-87415826D01*
X169015000Y-87284174D01*
X168980925Y-87157007D01*
X168948012Y-87100000D01*
X169842231Y-87100000D01*
X169831757Y-87033873D01*
X169831757Y-87033870D01*
X169766095Y-86831782D01*
X169669620Y-86642442D01*
X169544727Y-86470540D01*
X169544723Y-86470535D01*
X169394464Y-86320276D01*
X169394459Y-86320272D01*
X169222557Y-86195379D01*
X169033217Y-86098904D01*
X169004292Y-86089506D01*
X168946616Y-86050068D01*
X168919418Y-85985710D01*
X168931333Y-85916863D01*
X168978577Y-85865388D01*
X168986315Y-85861090D01*
X169117994Y-85793996D01*
X169264501Y-85687553D01*
X169392553Y-85559501D01*
X169498996Y-85412994D01*
X169581211Y-85251639D01*
X169637171Y-85079409D01*
X169652834Y-84980518D01*
X169665500Y-84900551D01*
X169665500Y-84719448D01*
X169643263Y-84579055D01*
X169637171Y-84540591D01*
X169581211Y-84368361D01*
X169581211Y-84368360D01*
X169530184Y-84268216D01*
X169498996Y-84207006D01*
X169485396Y-84188287D01*
X169392558Y-84060505D01*
X169392554Y-84060500D01*
X169264499Y-83932445D01*
X169264494Y-83932441D01*
X169117997Y-83826006D01*
X169117996Y-83826005D01*
X169117994Y-83826004D01*
X169066300Y-83799664D01*
X168956639Y-83743788D01*
X168956636Y-83743787D01*
X168784410Y-83687829D01*
X168624321Y-83662473D01*
X168561186Y-83632544D01*
X168524255Y-83573232D01*
X168525253Y-83503370D01*
X168563863Y-83445137D01*
X168624321Y-83417527D01*
X168694425Y-83406422D01*
X168784409Y-83392171D01*
X168956639Y-83336211D01*
X169117994Y-83253996D01*
X169264501Y-83147553D01*
X169392553Y-83019501D01*
X169498996Y-82872994D01*
X169581211Y-82711639D01*
X169637171Y-82539409D01*
X169651765Y-82447259D01*
X169665500Y-82360551D01*
X169665500Y-82179448D01*
X169649019Y-82075397D01*
X169637171Y-82000591D01*
X169609191Y-81914476D01*
X169581212Y-81828363D01*
X169581211Y-81828360D01*
X169551207Y-81769475D01*
X169498996Y-81667006D01*
X169485396Y-81648287D01*
X169392558Y-81520505D01*
X169392554Y-81520500D01*
X169264499Y-81392445D01*
X169264494Y-81392441D01*
X169117997Y-81286006D01*
X169117996Y-81286005D01*
X169117994Y-81286004D01*
X169066300Y-81259664D01*
X168956639Y-81203788D01*
X168956636Y-81203787D01*
X168784410Y-81147829D01*
X168624321Y-81122473D01*
X168561186Y-81092544D01*
X168524255Y-81033232D01*
X168525253Y-80963370D01*
X168563863Y-80905137D01*
X168624321Y-80877527D01*
X168694425Y-80866422D01*
X168784409Y-80852171D01*
X168956639Y-80796211D01*
X169117994Y-80713996D01*
X169264501Y-80607553D01*
X169392553Y-80479501D01*
X169498996Y-80332994D01*
X169581211Y-80171639D01*
X169637171Y-79999409D01*
X169653958Y-79893418D01*
X169665500Y-79820551D01*
X169665500Y-79639448D01*
X169646497Y-79519475D01*
X169637171Y-79460591D01*
X169581211Y-79288361D01*
X169581211Y-79288360D01*
X169552740Y-79232484D01*
X169498996Y-79127006D01*
X169485396Y-79108287D01*
X169392558Y-78980505D01*
X169392554Y-78980500D01*
X169264499Y-78852445D01*
X169264494Y-78852441D01*
X169117997Y-78746006D01*
X169117996Y-78746005D01*
X169117994Y-78746004D01*
X169066300Y-78719664D01*
X168956639Y-78663788D01*
X168956636Y-78663787D01*
X168784410Y-78607829D01*
X168624321Y-78582473D01*
X168561186Y-78552544D01*
X168524255Y-78493232D01*
X168525253Y-78423370D01*
X168563863Y-78365137D01*
X168624321Y-78337527D01*
X168694425Y-78326422D01*
X168784409Y-78312171D01*
X168956639Y-78256211D01*
X169117994Y-78173996D01*
X169264501Y-78067553D01*
X169392553Y-77939501D01*
X169498996Y-77792994D01*
X169581211Y-77631639D01*
X169637171Y-77459409D01*
X169653626Y-77355518D01*
X169665500Y-77280551D01*
X169665500Y-77099448D01*
X169642471Y-76954055D01*
X169637171Y-76920591D01*
X169581211Y-76748361D01*
X169581211Y-76748360D01*
X169541016Y-76669475D01*
X169498996Y-76587006D01*
X169485396Y-76568287D01*
X169392558Y-76440505D01*
X169392554Y-76440500D01*
X169264499Y-76312445D01*
X169264494Y-76312441D01*
X169117997Y-76206006D01*
X169117996Y-76206005D01*
X169117994Y-76206004D01*
X169066300Y-76179664D01*
X168956639Y-76123788D01*
X168956636Y-76123787D01*
X168784410Y-76067829D01*
X168652728Y-76046972D01*
X168589594Y-76017042D01*
X168552663Y-75957731D01*
X168553661Y-75887868D01*
X168592271Y-75829636D01*
X168656235Y-75801522D01*
X168672120Y-75800499D01*
X169409864Y-75800499D01*
X169409879Y-75800497D01*
X169409882Y-75800497D01*
X169434987Y-75797586D01*
X169434988Y-75797585D01*
X169434991Y-75797585D01*
X169537765Y-75752206D01*
X169617206Y-75672765D01*
X169662585Y-75569991D01*
X169665500Y-75544865D01*
X169665499Y-73755136D01*
X169665497Y-73755117D01*
X169662586Y-73730012D01*
X169662585Y-73730010D01*
X169662585Y-73730009D01*
X169617206Y-73627235D01*
X169537765Y-73547794D01*
X169485009Y-73524500D01*
X169434992Y-73502415D01*
X169409865Y-73499500D01*
X167620143Y-73499500D01*
X167620117Y-73499502D01*
X167595012Y-73502413D01*
X167595008Y-73502415D01*
X167492235Y-73547793D01*
X167412794Y-73627234D01*
X167367415Y-73730006D01*
X167367415Y-73730008D01*
X167364500Y-73755131D01*
X167364500Y-74014384D01*
X167344815Y-74081423D01*
X167292011Y-74127178D01*
X167222853Y-74137122D01*
X167208407Y-74134159D01*
X167121143Y-74110777D01*
X167079057Y-74099500D01*
X166920943Y-74099500D01*
X166768216Y-74140423D01*
X166768209Y-74140426D01*
X166631290Y-74219475D01*
X166631282Y-74219481D01*
X166519481Y-74331282D01*
X166519475Y-74331290D01*
X166440426Y-74468209D01*
X166440423Y-74468216D01*
X166399500Y-74620943D01*
X166399500Y-74779057D01*
X166438606Y-74925000D01*
X166440423Y-74931783D01*
X166440426Y-74931790D01*
X166519475Y-75068709D01*
X166519479Y-75068714D01*
X166519480Y-75068716D01*
X166631284Y-75180520D01*
X166631286Y-75180521D01*
X166631290Y-75180524D01*
X166757429Y-75253349D01*
X166768216Y-75259577D01*
X166920943Y-75300500D01*
X166920945Y-75300500D01*
X167079054Y-75300500D01*
X167079057Y-75300500D01*
X167208409Y-75265840D01*
X167278256Y-75267503D01*
X167336119Y-75306665D01*
X167363623Y-75370894D01*
X167364500Y-75385614D01*
X167364500Y-75544855D01*
X167364502Y-75544882D01*
X167367413Y-75569987D01*
X167367415Y-75569991D01*
X167412793Y-75672764D01*
X167412794Y-75672765D01*
X167492235Y-75752206D01*
X167595009Y-75797585D01*
X167620135Y-75800500D01*
X168357873Y-75800499D01*
X168424910Y-75820183D01*
X168470665Y-75872987D01*
X168480609Y-75942146D01*
X168451584Y-76005702D01*
X168392806Y-76043476D01*
X168377270Y-76046972D01*
X168245589Y-76067829D01*
X168073363Y-76123787D01*
X168073360Y-76123788D01*
X167912002Y-76206006D01*
X167765505Y-76312441D01*
X167765500Y-76312445D01*
X167637445Y-76440500D01*
X167637441Y-76440505D01*
X167531006Y-76587002D01*
X167448788Y-76748360D01*
X167448787Y-76748363D01*
X167392829Y-76920589D01*
X167364500Y-77099448D01*
X167364500Y-77280551D01*
X167392829Y-77459410D01*
X167448787Y-77631636D01*
X167448788Y-77631639D01*
X167531006Y-77792997D01*
X167637441Y-77939494D01*
X167637445Y-77939499D01*
X167765500Y-78067554D01*
X167765505Y-78067558D01*
X167893287Y-78160396D01*
X167912006Y-78173996D01*
X168017484Y-78227740D01*
X168073360Y-78256211D01*
X168073363Y-78256212D01*
X168159476Y-78284191D01*
X168245591Y-78312171D01*
X168318639Y-78323740D01*
X168405678Y-78337527D01*
X168468813Y-78367456D01*
X168505744Y-78426768D01*
X168504746Y-78496631D01*
X168466136Y-78554863D01*
X168405678Y-78582473D01*
X168245589Y-78607829D01*
X168073363Y-78663787D01*
X168073360Y-78663788D01*
X167912002Y-78746006D01*
X167765505Y-78852441D01*
X167765500Y-78852445D01*
X167637445Y-78980500D01*
X167637441Y-78980505D01*
X167531006Y-79127002D01*
X167448788Y-79288360D01*
X167448787Y-79288363D01*
X167392829Y-79460589D01*
X167364500Y-79639448D01*
X167364500Y-79820551D01*
X167392829Y-79999410D01*
X167448787Y-80171636D01*
X167448788Y-80171639D01*
X167531006Y-80332997D01*
X167637441Y-80479494D01*
X167637445Y-80479499D01*
X167765500Y-80607554D01*
X167765505Y-80607558D01*
X167893287Y-80700396D01*
X167912006Y-80713996D01*
X168017484Y-80767740D01*
X168073360Y-80796211D01*
X168073363Y-80796212D01*
X168159476Y-80824191D01*
X168245591Y-80852171D01*
X168318639Y-80863740D01*
X168405678Y-80877527D01*
X168468813Y-80907456D01*
X168505744Y-80966768D01*
X168504746Y-81036631D01*
X168466136Y-81094863D01*
X168405678Y-81122473D01*
X168245589Y-81147829D01*
X168073363Y-81203787D01*
X168073360Y-81203788D01*
X167912002Y-81286006D01*
X167765505Y-81392441D01*
X167765500Y-81392445D01*
X167637445Y-81520500D01*
X167637441Y-81520505D01*
X167531006Y-81667002D01*
X167448788Y-81828360D01*
X167448787Y-81828363D01*
X167392829Y-82000589D01*
X167364500Y-82179448D01*
X167364500Y-82360551D01*
X167392829Y-82539410D01*
X167448787Y-82711636D01*
X167448788Y-82711639D01*
X167498689Y-82809573D01*
X167531003Y-82872993D01*
X167531006Y-82872997D01*
X167637441Y-83019494D01*
X167637445Y-83019499D01*
X167765500Y-83147554D01*
X167765505Y-83147558D01*
X167893287Y-83240396D01*
X167912006Y-83253996D01*
X168017484Y-83307740D01*
X168073360Y-83336211D01*
X168073363Y-83336212D01*
X168159476Y-83364191D01*
X168245591Y-83392171D01*
X168318639Y-83403740D01*
X168405678Y-83417527D01*
X168468813Y-83447456D01*
X168505744Y-83506768D01*
X168504746Y-83576631D01*
X168466136Y-83634863D01*
X168405678Y-83662473D01*
X168245589Y-83687829D01*
X168073363Y-83743787D01*
X168073360Y-83743788D01*
X167912002Y-83826006D01*
X167765505Y-83932441D01*
X167765500Y-83932445D01*
X167637445Y-84060500D01*
X167637441Y-84060505D01*
X167531006Y-84207002D01*
X167448788Y-84368360D01*
X167448787Y-84368363D01*
X167392829Y-84540589D01*
X167364500Y-84719448D01*
X167364500Y-84900551D01*
X167392829Y-85079410D01*
X167448787Y-85251636D01*
X167448788Y-85251639D01*
X167531006Y-85412997D01*
X167637441Y-85559494D01*
X167637445Y-85559499D01*
X167765500Y-85687554D01*
X167765505Y-85687558D01*
X167893287Y-85780396D01*
X167912006Y-85793996D01*
X168013780Y-85845853D01*
X168043684Y-85861090D01*
X168094480Y-85909065D01*
X168111275Y-85976886D01*
X168088737Y-86043021D01*
X168034022Y-86086472D01*
X168025708Y-86089506D01*
X167996781Y-86098905D01*
X167807442Y-86195379D01*
X167635540Y-86320272D01*
X167635535Y-86320276D01*
X167485276Y-86470535D01*
X167485272Y-86470540D01*
X167360379Y-86642442D01*
X167263904Y-86831782D01*
X167198242Y-87033870D01*
X167198242Y-87033873D01*
X167187769Y-87100000D01*
X168081988Y-87100000D01*
X168049075Y-87157007D01*
X168015000Y-87284174D01*
X168015000Y-87415826D01*
X168049075Y-87542993D01*
X168081988Y-87600000D01*
X167187769Y-87600000D01*
X167198242Y-87666126D01*
X167198242Y-87666129D01*
X167263904Y-87868217D01*
X167360379Y-88057557D01*
X167485272Y-88229459D01*
X167485276Y-88229464D01*
X167635535Y-88379723D01*
X167635540Y-88379727D01*
X167807444Y-88504622D01*
X167817048Y-88509516D01*
X167867844Y-88557491D01*
X167884638Y-88625312D01*
X167862100Y-88691447D01*
X167817048Y-88730484D01*
X167807444Y-88735377D01*
X167635540Y-88860272D01*
X167635535Y-88860276D01*
X167485276Y-89010535D01*
X167485272Y-89010540D01*
X167360379Y-89182442D01*
X167263904Y-89371782D01*
X167198242Y-89573870D01*
X167198242Y-89573873D01*
X167187769Y-89640000D01*
X168081988Y-89640000D01*
X168049075Y-89697007D01*
X168015000Y-89824174D01*
X168015000Y-89955826D01*
X168049075Y-90082993D01*
X168081988Y-90140000D01*
X167187769Y-90140000D01*
X167198242Y-90206126D01*
X167198242Y-90206129D01*
X167263904Y-90408217D01*
X167360379Y-90597557D01*
X167485272Y-90769459D01*
X167485276Y-90769464D01*
X167635535Y-90919723D01*
X167635540Y-90919727D01*
X167807442Y-91044620D01*
X167996780Y-91141094D01*
X168025705Y-91150492D01*
X168083381Y-91189929D01*
X168110580Y-91254287D01*
X168098667Y-91323134D01*
X168051424Y-91374610D01*
X168043685Y-91378908D01*
X167912004Y-91446004D01*
X167765505Y-91552441D01*
X167765500Y-91552445D01*
X167637445Y-91680500D01*
X167637441Y-91680505D01*
X167531006Y-91827002D01*
X167448788Y-91988360D01*
X167448787Y-91988363D01*
X167392829Y-92160589D01*
X167364500Y-92339448D01*
X167364500Y-92520551D01*
X167392829Y-92699410D01*
X167448787Y-92871636D01*
X167448788Y-92871639D01*
X167531006Y-93032997D01*
X167637441Y-93179494D01*
X167637445Y-93179499D01*
X167765500Y-93307554D01*
X167765505Y-93307558D01*
X167854202Y-93371999D01*
X167912006Y-93413996D01*
X167980599Y-93448946D01*
X168073360Y-93496211D01*
X168073363Y-93496212D01*
X168154610Y-93522610D01*
X168245591Y-93552171D01*
X168313123Y-93562867D01*
X168405678Y-93577527D01*
X168468813Y-93607456D01*
X168505744Y-93666768D01*
X168504746Y-93736631D01*
X168466136Y-93794863D01*
X168405678Y-93822473D01*
X168245589Y-93847829D01*
X168073363Y-93903787D01*
X168073360Y-93903788D01*
X167912002Y-93986006D01*
X167765506Y-94092440D01*
X167682531Y-94175415D01*
X167621207Y-94208899D01*
X167551516Y-94203915D01*
X167495582Y-94162043D01*
X167471166Y-94096578D01*
X167474457Y-94062115D01*
X167474439Y-94062113D01*
X167474508Y-94061584D01*
X167475077Y-94055634D01*
X167475500Y-94054057D01*
X167475500Y-93895943D01*
X167434577Y-93743216D01*
X167390440Y-93666768D01*
X167355524Y-93606290D01*
X167355518Y-93606282D01*
X167243717Y-93494481D01*
X167243709Y-93494475D01*
X167106790Y-93415426D01*
X167106786Y-93415424D01*
X167106784Y-93415423D01*
X166954057Y-93374500D01*
X166795943Y-93374500D01*
X166643216Y-93415423D01*
X166643209Y-93415426D01*
X166506290Y-93494475D01*
X166499839Y-93499426D01*
X166498978Y-93498304D01*
X166482205Y-93507461D01*
X166459526Y-93523612D01*
X166451962Y-93523972D01*
X166445316Y-93527601D01*
X166417544Y-93525612D01*
X166389736Y-93526937D01*
X166379647Y-93522898D01*
X166375625Y-93522610D01*
X166356970Y-93513819D01*
X166270815Y-93464078D01*
X166222599Y-93413512D01*
X166209375Y-93344905D01*
X166225427Y-93294691D01*
X166259847Y-93235074D01*
X166300770Y-93082347D01*
X166300770Y-92924233D01*
X166259847Y-92771506D01*
X166189985Y-92650500D01*
X166180794Y-92634580D01*
X166180788Y-92634572D01*
X166068987Y-92522771D01*
X166068979Y-92522765D01*
X165932060Y-92443716D01*
X165932056Y-92443714D01*
X165932054Y-92443713D01*
X165779327Y-92402790D01*
X165679797Y-92402790D01*
X165612758Y-92383105D01*
X165567003Y-92330301D01*
X165557059Y-92261143D01*
X165565235Y-92231338D01*
X165582464Y-92189744D01*
X165607463Y-92064069D01*
X165607463Y-91935931D01*
X165607463Y-91935928D01*
X165582465Y-91810261D01*
X165582464Y-91810260D01*
X165582464Y-91810256D01*
X165533428Y-91691873D01*
X165533427Y-91691872D01*
X165533424Y-91691866D01*
X165462239Y-91585331D01*
X165462236Y-91585327D01*
X165371635Y-91494726D01*
X165371631Y-91494723D01*
X165265096Y-91423538D01*
X165265087Y-91423533D01*
X165146707Y-91374499D01*
X165146701Y-91374497D01*
X165021034Y-91349500D01*
X165021032Y-91349500D01*
X164892894Y-91349500D01*
X164892892Y-91349500D01*
X164767224Y-91374497D01*
X164767218Y-91374499D01*
X164648838Y-91423533D01*
X164648829Y-91423538D01*
X164542294Y-91494723D01*
X164542290Y-91494726D01*
X164451689Y-91585327D01*
X164451686Y-91585331D01*
X164380501Y-91691866D01*
X164380496Y-91691875D01*
X164331462Y-91810255D01*
X164331460Y-91810261D01*
X164306463Y-91935928D01*
X164306463Y-91935931D01*
X164306463Y-92064069D01*
X164306463Y-92064071D01*
X164306462Y-92064071D01*
X154365810Y-92064071D01*
X154341211Y-91988361D01*
X154340078Y-91986138D01*
X154340078Y-91986136D01*
X154340076Y-91986134D01*
X154314496Y-91935931D01*
X154258996Y-91827006D01*
X154245396Y-91808287D01*
X154152558Y-91680505D01*
X154152554Y-91680500D01*
X154024499Y-91552445D01*
X154024494Y-91552441D01*
X153877997Y-91446006D01*
X153877996Y-91446005D01*
X153877994Y-91446004D01*
X153826300Y-91419664D01*
X153716639Y-91363788D01*
X153716636Y-91363787D01*
X153544410Y-91307829D01*
X153384321Y-91282473D01*
X153321186Y-91252544D01*
X153284255Y-91193232D01*
X153285253Y-91123370D01*
X153323863Y-91065137D01*
X153384321Y-91037527D01*
X153454425Y-91026422D01*
X153544409Y-91012171D01*
X153716639Y-90956211D01*
X153877994Y-90873996D01*
X154024501Y-90767553D01*
X154152553Y-90639501D01*
X154258996Y-90492994D01*
X154341211Y-90331639D01*
X154397171Y-90159409D01*
X154411765Y-90067259D01*
X154425500Y-89980551D01*
X154425500Y-89799448D01*
X154400245Y-89640000D01*
X154397171Y-89620591D01*
X154341211Y-89448361D01*
X154341211Y-89448360D01*
X154302192Y-89371782D01*
X154258996Y-89287006D01*
X154245396Y-89268287D01*
X154152558Y-89140505D01*
X154152554Y-89140500D01*
X154024499Y-89012445D01*
X154024494Y-89012441D01*
X153877997Y-88906006D01*
X153877996Y-88906005D01*
X153877994Y-88906004D01*
X153826300Y-88879664D01*
X153716639Y-88823788D01*
X153716636Y-88823787D01*
X153544410Y-88767829D01*
X153384321Y-88742473D01*
X153321186Y-88712544D01*
X153284255Y-88653232D01*
X153285253Y-88583370D01*
X153323863Y-88525137D01*
X153384321Y-88497527D01*
X153454425Y-88486422D01*
X153544409Y-88472171D01*
X153716639Y-88416211D01*
X153877994Y-88333996D01*
X154024501Y-88227553D01*
X154152553Y-88099501D01*
X154258996Y-87952994D01*
X154277346Y-87916981D01*
X159139499Y-87916981D01*
X159164497Y-88042648D01*
X159164499Y-88042654D01*
X159213533Y-88161034D01*
X159213538Y-88161043D01*
X159284723Y-88267578D01*
X159284726Y-88267582D01*
X159375327Y-88358183D01*
X159375331Y-88358186D01*
X159481866Y-88429371D01*
X159481872Y-88429374D01*
X159481873Y-88429375D01*
X159600256Y-88478411D01*
X159600260Y-88478411D01*
X159600261Y-88478412D01*
X159725928Y-88503410D01*
X159725931Y-88503410D01*
X159854071Y-88503410D01*
X159938615Y-88486592D01*
X159979744Y-88478411D01*
X160098127Y-88429375D01*
X160148162Y-88395943D01*
X165624500Y-88395943D01*
X165624500Y-88554057D01*
X165661314Y-88691447D01*
X165665423Y-88706783D01*
X165665426Y-88706790D01*
X165744475Y-88843709D01*
X165744479Y-88843714D01*
X165744480Y-88843716D01*
X165856284Y-88955520D01*
X165856286Y-88955521D01*
X165856290Y-88955524D01*
X165951582Y-89010540D01*
X165993216Y-89034577D01*
X166145943Y-89075500D01*
X166145945Y-89075500D01*
X166304055Y-89075500D01*
X166304057Y-89075500D01*
X166456784Y-89034577D01*
X166593716Y-88955520D01*
X166705520Y-88843716D01*
X166784577Y-88706784D01*
X166825500Y-88554057D01*
X166825500Y-88395943D01*
X166784577Y-88243216D01*
X166776637Y-88229464D01*
X166705524Y-88106290D01*
X166705518Y-88106282D01*
X166593717Y-87994481D01*
X166593709Y-87994475D01*
X166456790Y-87915426D01*
X166456786Y-87915424D01*
X166456784Y-87915423D01*
X166304057Y-87874500D01*
X166145943Y-87874500D01*
X165993216Y-87915423D01*
X165993209Y-87915426D01*
X165856290Y-87994475D01*
X165856282Y-87994481D01*
X165744481Y-88106282D01*
X165744475Y-88106290D01*
X165665426Y-88243209D01*
X165665423Y-88243216D01*
X165624500Y-88395943D01*
X160148162Y-88395943D01*
X160204669Y-88358186D01*
X160228862Y-88333993D01*
X160262721Y-88300135D01*
X160295273Y-88267582D01*
X160295276Y-88267579D01*
X160366465Y-88161037D01*
X160415501Y-88042654D01*
X160423682Y-88001525D01*
X160440500Y-87916981D01*
X160440500Y-87788838D01*
X160415502Y-87663171D01*
X160415501Y-87663170D01*
X160415501Y-87663166D01*
X160366465Y-87544783D01*
X160366464Y-87544782D01*
X160366461Y-87544776D01*
X160295276Y-87438241D01*
X160295273Y-87438237D01*
X160204672Y-87347636D01*
X160204668Y-87347633D01*
X160098133Y-87276448D01*
X160098124Y-87276443D01*
X159979744Y-87227409D01*
X159979738Y-87227407D01*
X159854071Y-87202410D01*
X159854069Y-87202410D01*
X159725931Y-87202410D01*
X159725929Y-87202410D01*
X159600261Y-87227407D01*
X159600255Y-87227409D01*
X159481875Y-87276443D01*
X159481866Y-87276448D01*
X159375331Y-87347633D01*
X159375327Y-87347636D01*
X159284726Y-87438237D01*
X159284723Y-87438241D01*
X159213538Y-87544776D01*
X159213533Y-87544785D01*
X159164499Y-87663165D01*
X159164497Y-87663171D01*
X159139500Y-87788838D01*
X159139500Y-87788841D01*
X159139500Y-87916979D01*
X159139500Y-87916981D01*
X159139499Y-87916981D01*
X154277346Y-87916981D01*
X154341211Y-87791639D01*
X154397171Y-87619409D01*
X154416934Y-87494631D01*
X154425500Y-87440551D01*
X154425500Y-87259448D01*
X154409019Y-87155397D01*
X154397171Y-87080591D01*
X154341211Y-86908361D01*
X154341206Y-86908350D01*
X154318224Y-86863245D01*
X154318222Y-86863243D01*
X154311474Y-86850000D01*
X154293679Y-86815075D01*
X164306463Y-86815075D01*
X164306463Y-86973189D01*
X164322723Y-87033870D01*
X164347386Y-87125915D01*
X164347389Y-87125922D01*
X164426438Y-87262841D01*
X164426442Y-87262846D01*
X164426443Y-87262848D01*
X164538247Y-87374652D01*
X164538249Y-87374653D01*
X164538253Y-87374656D01*
X164609563Y-87415826D01*
X164675179Y-87453709D01*
X164827906Y-87494632D01*
X164827908Y-87494632D01*
X164986018Y-87494632D01*
X164986020Y-87494632D01*
X165138747Y-87453709D01*
X165275679Y-87374652D01*
X165387483Y-87262848D01*
X165466540Y-87125916D01*
X165507463Y-86973189D01*
X165507463Y-86815075D01*
X165466540Y-86662348D01*
X165455047Y-86642442D01*
X165387487Y-86525422D01*
X165387481Y-86525414D01*
X165275680Y-86413613D01*
X165275672Y-86413607D01*
X165138753Y-86334558D01*
X165138749Y-86334556D01*
X165138747Y-86334555D01*
X164986020Y-86293632D01*
X164827906Y-86293632D01*
X164675179Y-86334555D01*
X164675172Y-86334558D01*
X164538253Y-86413607D01*
X164538245Y-86413613D01*
X164426444Y-86525414D01*
X164426438Y-86525422D01*
X164347389Y-86662341D01*
X164347386Y-86662348D01*
X164306463Y-86815075D01*
X154293679Y-86815075D01*
X154258996Y-86747006D01*
X154197484Y-86662341D01*
X154152558Y-86600505D01*
X154152554Y-86600500D01*
X154024499Y-86472445D01*
X154024494Y-86472441D01*
X153877997Y-86366006D01*
X153877996Y-86366005D01*
X153877994Y-86366004D01*
X153816272Y-86334555D01*
X153716639Y-86283788D01*
X153716636Y-86283787D01*
X153544410Y-86227829D01*
X153384321Y-86202473D01*
X153321186Y-86172544D01*
X153284255Y-86113232D01*
X153285253Y-86043370D01*
X153323863Y-85985137D01*
X153384321Y-85957527D01*
X153454425Y-85946422D01*
X153544409Y-85932171D01*
X153716639Y-85876211D01*
X153877994Y-85793996D01*
X154024501Y-85687553D01*
X154152553Y-85559501D01*
X154258996Y-85412994D01*
X154341211Y-85251639D01*
X154397171Y-85079409D01*
X154412834Y-84980518D01*
X154425500Y-84900551D01*
X154425500Y-84719448D01*
X154397171Y-84540590D01*
X154368105Y-84451134D01*
X154368104Y-84451132D01*
X154358295Y-84420943D01*
X163399500Y-84420943D01*
X163399500Y-84579056D01*
X163440423Y-84731783D01*
X163440426Y-84731790D01*
X163519475Y-84868709D01*
X163519479Y-84868714D01*
X163519480Y-84868716D01*
X163631284Y-84980520D01*
X163631286Y-84980521D01*
X163631290Y-84980524D01*
X163768209Y-85059573D01*
X163768216Y-85059577D01*
X163920943Y-85100500D01*
X163920945Y-85100500D01*
X164079055Y-85100500D01*
X164079057Y-85100500D01*
X164231784Y-85059577D01*
X164368716Y-84980520D01*
X164480520Y-84868716D01*
X164559577Y-84731784D01*
X164600500Y-84579057D01*
X164600500Y-84420943D01*
X164559577Y-84268216D01*
X164524238Y-84207006D01*
X164480524Y-84131290D01*
X164480518Y-84131282D01*
X164368717Y-84019481D01*
X164368709Y-84019475D01*
X164231790Y-83940426D01*
X164231786Y-83940424D01*
X164231784Y-83940423D01*
X164079057Y-83899500D01*
X163920943Y-83899500D01*
X163768216Y-83940423D01*
X163768209Y-83940426D01*
X163631290Y-84019475D01*
X163631282Y-84019481D01*
X163519481Y-84131282D01*
X163519475Y-84131290D01*
X163440426Y-84268209D01*
X163440423Y-84268216D01*
X163399500Y-84420943D01*
X154358295Y-84420943D01*
X154341211Y-84368361D01*
X154341211Y-84368360D01*
X154290184Y-84268216D01*
X154258996Y-84207006D01*
X154245396Y-84188287D01*
X154152558Y-84060505D01*
X154152554Y-84060500D01*
X154024499Y-83932445D01*
X154024494Y-83932441D01*
X153877997Y-83826006D01*
X153877996Y-83826005D01*
X153877994Y-83826004D01*
X153826300Y-83799664D01*
X153716639Y-83743788D01*
X153716636Y-83743787D01*
X153544410Y-83687829D01*
X153384321Y-83662473D01*
X153321186Y-83632544D01*
X153284255Y-83573232D01*
X153285253Y-83503370D01*
X153323863Y-83445137D01*
X153384321Y-83417527D01*
X153454425Y-83406422D01*
X153544409Y-83392171D01*
X153716639Y-83336211D01*
X153877994Y-83253996D01*
X154001766Y-83164071D01*
X157949499Y-83164071D01*
X157974497Y-83289738D01*
X157974499Y-83289744D01*
X158023533Y-83408124D01*
X158023538Y-83408133D01*
X158094723Y-83514668D01*
X158094726Y-83514672D01*
X158185327Y-83605273D01*
X158185331Y-83605276D01*
X158291866Y-83676461D01*
X158291872Y-83676464D01*
X158291873Y-83676465D01*
X158410256Y-83725501D01*
X158410260Y-83725501D01*
X158410261Y-83725502D01*
X158535928Y-83750500D01*
X158535931Y-83750500D01*
X158664071Y-83750500D01*
X158748615Y-83733682D01*
X158789744Y-83725501D01*
X158908127Y-83676465D01*
X159014669Y-83605276D01*
X159105276Y-83514669D01*
X159176465Y-83408127D01*
X159225501Y-83289744D01*
X159250500Y-83164069D01*
X159250500Y-83035931D01*
X159250500Y-83035928D01*
X159225502Y-82910261D01*
X159225501Y-82910260D01*
X159225501Y-82910256D01*
X159176465Y-82791873D01*
X159176464Y-82791872D01*
X159176461Y-82791866D01*
X159105276Y-82685331D01*
X159105273Y-82685327D01*
X159014672Y-82594726D01*
X159014668Y-82594723D01*
X158908133Y-82523538D01*
X158908124Y-82523533D01*
X158789744Y-82474499D01*
X158789738Y-82474497D01*
X158664071Y-82449500D01*
X158664069Y-82449500D01*
X158535931Y-82449500D01*
X158535929Y-82449500D01*
X158410261Y-82474497D01*
X158410255Y-82474499D01*
X158291875Y-82523533D01*
X158291866Y-82523538D01*
X158185331Y-82594723D01*
X158185327Y-82594726D01*
X158094726Y-82685327D01*
X158094723Y-82685331D01*
X158023538Y-82791866D01*
X158023533Y-82791875D01*
X157974499Y-82910255D01*
X157974497Y-82910261D01*
X157949500Y-83035928D01*
X157949500Y-83035931D01*
X157949500Y-83164069D01*
X157949500Y-83164071D01*
X157949499Y-83164071D01*
X154001766Y-83164071D01*
X154024501Y-83147553D01*
X154152553Y-83019501D01*
X154258996Y-82872994D01*
X154341211Y-82711639D01*
X154397171Y-82539409D01*
X154411765Y-82447259D01*
X154425500Y-82360551D01*
X154425500Y-82179448D01*
X154424153Y-82170943D01*
X162524500Y-82170943D01*
X162524500Y-82329057D01*
X162563471Y-82474497D01*
X162565423Y-82481783D01*
X162565426Y-82481790D01*
X162644475Y-82618709D01*
X162644479Y-82618714D01*
X162644480Y-82618716D01*
X162756284Y-82730520D01*
X162756286Y-82730521D01*
X162756290Y-82730524D01*
X162862539Y-82791866D01*
X162893216Y-82809577D01*
X163045943Y-82850500D01*
X163045945Y-82850500D01*
X163204055Y-82850500D01*
X163204057Y-82850500D01*
X163356784Y-82809577D01*
X163493716Y-82730520D01*
X163605520Y-82618716D01*
X163684577Y-82481784D01*
X163725500Y-82329057D01*
X163725500Y-82170943D01*
X163684577Y-82018216D01*
X163674400Y-82000589D01*
X163605524Y-81881290D01*
X163605518Y-81881282D01*
X163493717Y-81769481D01*
X163493709Y-81769475D01*
X163356790Y-81690426D01*
X163356786Y-81690424D01*
X163356784Y-81690423D01*
X163204057Y-81649500D01*
X163045943Y-81649500D01*
X162893216Y-81690423D01*
X162893209Y-81690426D01*
X162756290Y-81769475D01*
X162756282Y-81769481D01*
X162644481Y-81881282D01*
X162644475Y-81881290D01*
X162565426Y-82018209D01*
X162565423Y-82018216D01*
X162524500Y-82170943D01*
X154424153Y-82170943D01*
X154409019Y-82075397D01*
X154397171Y-82000591D01*
X154369191Y-81914476D01*
X154341212Y-81828363D01*
X154341211Y-81828360D01*
X154311207Y-81769475D01*
X154258996Y-81667006D01*
X154245396Y-81648287D01*
X154152558Y-81520505D01*
X154152554Y-81520500D01*
X154024499Y-81392445D01*
X154024494Y-81392441D01*
X153877997Y-81286006D01*
X153877996Y-81286005D01*
X153877994Y-81286004D01*
X153826300Y-81259664D01*
X153716639Y-81203788D01*
X153716636Y-81203787D01*
X153544410Y-81147829D01*
X153384321Y-81122473D01*
X153321186Y-81092544D01*
X153284255Y-81033232D01*
X153285253Y-80963370D01*
X153323863Y-80905137D01*
X153384321Y-80877527D01*
X153454425Y-80866422D01*
X153544409Y-80852171D01*
X153716639Y-80796211D01*
X153877994Y-80713996D01*
X154024501Y-80607553D01*
X154152553Y-80479501D01*
X154258996Y-80332994D01*
X154341211Y-80171639D01*
X154397171Y-79999409D01*
X154409599Y-79920943D01*
X161749500Y-79920943D01*
X161749500Y-80079057D01*
X161774307Y-80171636D01*
X161790423Y-80231783D01*
X161790426Y-80231790D01*
X161869475Y-80368709D01*
X161869479Y-80368714D01*
X161869480Y-80368716D01*
X161981284Y-80480520D01*
X161981286Y-80480521D01*
X161981290Y-80480524D01*
X162118209Y-80559573D01*
X162118216Y-80559577D01*
X162270943Y-80600500D01*
X162270945Y-80600500D01*
X162429055Y-80600500D01*
X162429057Y-80600500D01*
X162581784Y-80559577D01*
X162718716Y-80480520D01*
X162830520Y-80368716D01*
X162909577Y-80231784D01*
X162950500Y-80079057D01*
X162950500Y-79920943D01*
X162909577Y-79768216D01*
X162835237Y-79639454D01*
X162830524Y-79631290D01*
X162830518Y-79631282D01*
X162718717Y-79519481D01*
X162718709Y-79519475D01*
X162581790Y-79440426D01*
X162581786Y-79440424D01*
X162581784Y-79440423D01*
X162429057Y-79399500D01*
X162270943Y-79399500D01*
X162118216Y-79440423D01*
X162118209Y-79440426D01*
X161981290Y-79519475D01*
X161981282Y-79519481D01*
X161869481Y-79631282D01*
X161869475Y-79631290D01*
X161790426Y-79768209D01*
X161790423Y-79768216D01*
X161749500Y-79920943D01*
X154409599Y-79920943D01*
X154413959Y-79893418D01*
X154425500Y-79820551D01*
X154425500Y-79639448D01*
X154406497Y-79519475D01*
X154397171Y-79460591D01*
X154341211Y-79288361D01*
X154341211Y-79288360D01*
X154312740Y-79232484D01*
X154258996Y-79127006D01*
X154245396Y-79108287D01*
X154152558Y-78980505D01*
X154152554Y-78980500D01*
X154024499Y-78852445D01*
X154024494Y-78852441D01*
X153877997Y-78746006D01*
X153877996Y-78746005D01*
X153877994Y-78746004D01*
X153826300Y-78719664D01*
X153716639Y-78663788D01*
X153716636Y-78663787D01*
X153544410Y-78607829D01*
X153384321Y-78582473D01*
X153321186Y-78552544D01*
X153284255Y-78493232D01*
X153285253Y-78423370D01*
X153323863Y-78365137D01*
X153384321Y-78337527D01*
X153454425Y-78326422D01*
X153544409Y-78312171D01*
X153716639Y-78256211D01*
X153877994Y-78173996D01*
X154024501Y-78067553D01*
X154152553Y-77939501D01*
X154258996Y-77792994D01*
X154341211Y-77631639D01*
X154397171Y-77459409D01*
X154413626Y-77355518D01*
X154425500Y-77280551D01*
X154425500Y-77099451D01*
X154422770Y-77082216D01*
X154422770Y-77082214D01*
X154420985Y-77070943D01*
X157599500Y-77070943D01*
X157599500Y-77229057D01*
X157613297Y-77280546D01*
X157640423Y-77381783D01*
X157640426Y-77381790D01*
X157719475Y-77518709D01*
X157719479Y-77518714D01*
X157719480Y-77518716D01*
X157831284Y-77630520D01*
X157831286Y-77630521D01*
X157831290Y-77630524D01*
X157968209Y-77709573D01*
X157968216Y-77709577D01*
X158120943Y-77750500D01*
X158120945Y-77750500D01*
X158279055Y-77750500D01*
X158279057Y-77750500D01*
X158431784Y-77709577D01*
X158568716Y-77630520D01*
X158680520Y-77518716D01*
X158759577Y-77381784D01*
X158800500Y-77229057D01*
X158800500Y-77070943D01*
X158759577Y-76918216D01*
X158720085Y-76849813D01*
X158688984Y-76795943D01*
X161124500Y-76795943D01*
X161124500Y-76954057D01*
X161163458Y-77099448D01*
X161165423Y-77106783D01*
X161165426Y-77106790D01*
X161244475Y-77243709D01*
X161244479Y-77243714D01*
X161244480Y-77243716D01*
X161356284Y-77355520D01*
X161356286Y-77355521D01*
X161356290Y-77355524D01*
X161401785Y-77381790D01*
X161493216Y-77434577D01*
X161645943Y-77475500D01*
X161645945Y-77475500D01*
X161804055Y-77475500D01*
X161804057Y-77475500D01*
X161956784Y-77434577D01*
X162093716Y-77355520D01*
X162205520Y-77243716D01*
X162284577Y-77106784D01*
X162325500Y-76954057D01*
X162325500Y-76795943D01*
X162284577Y-76643216D01*
X162254097Y-76590423D01*
X162205524Y-76506290D01*
X162205518Y-76506282D01*
X162093717Y-76394481D01*
X162093709Y-76394475D01*
X161956790Y-76315426D01*
X161956786Y-76315424D01*
X161956784Y-76315423D01*
X161804057Y-76274500D01*
X161645943Y-76274500D01*
X161493216Y-76315423D01*
X161493209Y-76315426D01*
X161356290Y-76394475D01*
X161356282Y-76394481D01*
X161244481Y-76506282D01*
X161244475Y-76506290D01*
X161165426Y-76643209D01*
X161165423Y-76643216D01*
X161124500Y-76795943D01*
X158688984Y-76795943D01*
X158680522Y-76781287D01*
X158680518Y-76781282D01*
X158568717Y-76669481D01*
X158568709Y-76669475D01*
X158431790Y-76590426D01*
X158431786Y-76590424D01*
X158431784Y-76590423D01*
X158279057Y-76549500D01*
X158120943Y-76549500D01*
X157968216Y-76590423D01*
X157968209Y-76590426D01*
X157831290Y-76669475D01*
X157831282Y-76669481D01*
X157719481Y-76781282D01*
X157719475Y-76781290D01*
X157640426Y-76918209D01*
X157640423Y-76918216D01*
X157599500Y-77070943D01*
X154420985Y-77070943D01*
X154402471Y-76954055D01*
X154397171Y-76920591D01*
X154341211Y-76748361D01*
X154341211Y-76748360D01*
X154301016Y-76669475D01*
X154258996Y-76587006D01*
X154245396Y-76568287D01*
X154152558Y-76440505D01*
X154152554Y-76440500D01*
X154024499Y-76312445D01*
X154024494Y-76312441D01*
X153877997Y-76206006D01*
X153877996Y-76206005D01*
X153877994Y-76206004D01*
X153826300Y-76179664D01*
X153716639Y-76123788D01*
X153716636Y-76123787D01*
X153544410Y-76067829D01*
X153412728Y-76046972D01*
X153349594Y-76017042D01*
X153312663Y-75957731D01*
X153313661Y-75887868D01*
X153352271Y-75829636D01*
X153416235Y-75801522D01*
X153432120Y-75800499D01*
X154169864Y-75800499D01*
X154169879Y-75800497D01*
X154169882Y-75800497D01*
X154194987Y-75797586D01*
X154194988Y-75797585D01*
X154194991Y-75797585D01*
X154297765Y-75752206D01*
X154377206Y-75672765D01*
X154422585Y-75569991D01*
X154425500Y-75544865D01*
X154425499Y-75382934D01*
X154445183Y-75315896D01*
X154497987Y-75270141D01*
X154567145Y-75260197D01*
X154581571Y-75263155D01*
X154720943Y-75300500D01*
X154720946Y-75300500D01*
X154879055Y-75300500D01*
X154879057Y-75300500D01*
X155031784Y-75259577D01*
X155168716Y-75180520D01*
X155280520Y-75068716D01*
X155359577Y-74931784D01*
X155400500Y-74779057D01*
X155400500Y-74620943D01*
X155359577Y-74468216D01*
X155359573Y-74468209D01*
X155280524Y-74331290D01*
X155280518Y-74331282D01*
X155168717Y-74219481D01*
X155168709Y-74219475D01*
X155031790Y-74140426D01*
X155031786Y-74140424D01*
X155031784Y-74140423D01*
X154879057Y-74099500D01*
X154720943Y-74099500D01*
X154640096Y-74121163D01*
X154581592Y-74136839D01*
X154556597Y-74136243D01*
X154531852Y-74139802D01*
X154522271Y-74135426D01*
X154511742Y-74135176D01*
X154491038Y-74121163D01*
X154468296Y-74110777D01*
X154462601Y-74101915D01*
X154453880Y-74096013D01*
X154444038Y-74073032D01*
X154430522Y-74051999D01*
X154428242Y-74036143D01*
X154426376Y-74031785D01*
X154425499Y-74017064D01*
X154425499Y-73777155D01*
X155675000Y-73777155D01*
X155675000Y-74425000D01*
X156591988Y-74425000D01*
X156559075Y-74482007D01*
X156525000Y-74609174D01*
X156525000Y-74740826D01*
X156559075Y-74867993D01*
X156591988Y-74925000D01*
X155675000Y-74925000D01*
X155675000Y-75572844D01*
X155681401Y-75632372D01*
X155681403Y-75632379D01*
X155731645Y-75767086D01*
X155731649Y-75767093D01*
X155817809Y-75882187D01*
X155817812Y-75882190D01*
X155932906Y-75968350D01*
X155932913Y-75968354D01*
X156067620Y-76018596D01*
X156067627Y-76018598D01*
X156127155Y-76024999D01*
X156127172Y-76025000D01*
X156775000Y-76025000D01*
X156775000Y-75108012D01*
X156832007Y-75140925D01*
X156959174Y-75175000D01*
X157090826Y-75175000D01*
X157217993Y-75140925D01*
X157275000Y-75108012D01*
X157275000Y-76025000D01*
X157922828Y-76025000D01*
X157922844Y-76024999D01*
X157982372Y-76018598D01*
X157982379Y-76018596D01*
X158117086Y-75968354D01*
X158117093Y-75968350D01*
X158232187Y-75882190D01*
X158232190Y-75882187D01*
X158318350Y-75767093D01*
X158318354Y-75767086D01*
X158368596Y-75632379D01*
X158368598Y-75632372D01*
X158374999Y-75572844D01*
X158375000Y-75572827D01*
X158375000Y-75376087D01*
X158394685Y-75309048D01*
X158447489Y-75263293D01*
X158516647Y-75253349D01*
X158580203Y-75282374D01*
X158599318Y-75303202D01*
X158687441Y-75424495D01*
X158815500Y-75552554D01*
X158815505Y-75552558D01*
X158843427Y-75572844D01*
X158962006Y-75658996D01*
X159067484Y-75712740D01*
X159123360Y-75741211D01*
X159123363Y-75741212D01*
X159202997Y-75767086D01*
X159295591Y-75797171D01*
X159378429Y-75810291D01*
X159474449Y-75825500D01*
X159474454Y-75825500D01*
X159655551Y-75825500D01*
X159742259Y-75811765D01*
X159834409Y-75797171D01*
X160006639Y-75741211D01*
X160167994Y-75658996D01*
X160314501Y-75552553D01*
X160442553Y-75424501D01*
X160548996Y-75277994D01*
X160631211Y-75116639D01*
X160687171Y-74944409D01*
X160703463Y-74841544D01*
X160712527Y-74784321D01*
X160742456Y-74721186D01*
X160801768Y-74684255D01*
X160871630Y-74685253D01*
X160929863Y-74723863D01*
X160957473Y-74784321D01*
X160982829Y-74944410D01*
X161038787Y-75116636D01*
X161038788Y-75116639D01*
X161094664Y-75226300D01*
X161114811Y-75265840D01*
X161121006Y-75277997D01*
X161227441Y-75424494D01*
X161227445Y-75424499D01*
X161355500Y-75552554D01*
X161355505Y-75552558D01*
X161383427Y-75572844D01*
X161502006Y-75658996D01*
X161607484Y-75712740D01*
X161663360Y-75741211D01*
X161663363Y-75741212D01*
X161742997Y-75767086D01*
X161835591Y-75797171D01*
X161918429Y-75810291D01*
X162014449Y-75825500D01*
X162014454Y-75825500D01*
X162195551Y-75825500D01*
X162282259Y-75811765D01*
X162374409Y-75797171D01*
X162546639Y-75741211D01*
X162707994Y-75658996D01*
X162854501Y-75552553D01*
X162982553Y-75424501D01*
X163088996Y-75277994D01*
X163171211Y-75116639D01*
X163227171Y-74944409D01*
X163243463Y-74841544D01*
X163252527Y-74784321D01*
X163282456Y-74721186D01*
X163341768Y-74684255D01*
X163411630Y-74685253D01*
X163469863Y-74723863D01*
X163497473Y-74784321D01*
X163522829Y-74944410D01*
X163578787Y-75116636D01*
X163578788Y-75116639D01*
X163634664Y-75226300D01*
X163654811Y-75265840D01*
X163661006Y-75277997D01*
X163767441Y-75424494D01*
X163767445Y-75424499D01*
X163895500Y-75552554D01*
X163895505Y-75552558D01*
X163923427Y-75572844D01*
X164042006Y-75658996D01*
X164147484Y-75712740D01*
X164203360Y-75741211D01*
X164203363Y-75741212D01*
X164282997Y-75767086D01*
X164375591Y-75797171D01*
X164458429Y-75810291D01*
X164554449Y-75825500D01*
X164554454Y-75825500D01*
X164735551Y-75825500D01*
X164822259Y-75811765D01*
X164914409Y-75797171D01*
X165086639Y-75741211D01*
X165247994Y-75658996D01*
X165394501Y-75552553D01*
X165522553Y-75424501D01*
X165628996Y-75277994D01*
X165711211Y-75116639D01*
X165767171Y-74944409D01*
X165783463Y-74841544D01*
X165795500Y-74765551D01*
X165795500Y-74584448D01*
X165770245Y-74425000D01*
X165767171Y-74405591D01*
X165711211Y-74233361D01*
X165711211Y-74233360D01*
X165662030Y-74136839D01*
X165628996Y-74072006D01*
X165589079Y-74017064D01*
X165522558Y-73925505D01*
X165522554Y-73925500D01*
X165394499Y-73797445D01*
X165394494Y-73797441D01*
X165247997Y-73691006D01*
X165247996Y-73691005D01*
X165247994Y-73691004D01*
X165196300Y-73664664D01*
X165086639Y-73608788D01*
X165086636Y-73608787D01*
X164914410Y-73552829D01*
X164735551Y-73524500D01*
X164735546Y-73524500D01*
X164554454Y-73524500D01*
X164554449Y-73524500D01*
X164375589Y-73552829D01*
X164203363Y-73608787D01*
X164203360Y-73608788D01*
X164042002Y-73691006D01*
X163895505Y-73797441D01*
X163895500Y-73797445D01*
X163767445Y-73925500D01*
X163767441Y-73925505D01*
X163661006Y-74072002D01*
X163578788Y-74233360D01*
X163578787Y-74233363D01*
X163522829Y-74405589D01*
X163497473Y-74565678D01*
X163467544Y-74628813D01*
X163408232Y-74665744D01*
X163338369Y-74664746D01*
X163280137Y-74626136D01*
X163252527Y-74565678D01*
X163230245Y-74425000D01*
X163227171Y-74405591D01*
X163171211Y-74233361D01*
X163171211Y-74233360D01*
X163122030Y-74136839D01*
X163088996Y-74072006D01*
X163049079Y-74017064D01*
X162982558Y-73925505D01*
X162982554Y-73925500D01*
X162854499Y-73797445D01*
X162854494Y-73797441D01*
X162707997Y-73691006D01*
X162707996Y-73691005D01*
X162707994Y-73691004D01*
X162656300Y-73664664D01*
X162546639Y-73608788D01*
X162546636Y-73608787D01*
X162374410Y-73552829D01*
X162195551Y-73524500D01*
X162195546Y-73524500D01*
X162014454Y-73524500D01*
X162014449Y-73524500D01*
X161835589Y-73552829D01*
X161663363Y-73608787D01*
X161663360Y-73608788D01*
X161502002Y-73691006D01*
X161355505Y-73797441D01*
X161355500Y-73797445D01*
X161227445Y-73925500D01*
X161227441Y-73925505D01*
X161121006Y-74072002D01*
X161038788Y-74233360D01*
X161038787Y-74233363D01*
X160982829Y-74405589D01*
X160957473Y-74565678D01*
X160927544Y-74628813D01*
X160868232Y-74665744D01*
X160798369Y-74664746D01*
X160740137Y-74626136D01*
X160712527Y-74565678D01*
X160690245Y-74425000D01*
X160687171Y-74405591D01*
X160631211Y-74233361D01*
X160631211Y-74233360D01*
X160582030Y-74136839D01*
X160548996Y-74072006D01*
X160509079Y-74017064D01*
X160442558Y-73925505D01*
X160442554Y-73925500D01*
X160314499Y-73797445D01*
X160314494Y-73797441D01*
X160167997Y-73691006D01*
X160167996Y-73691005D01*
X160167994Y-73691004D01*
X160116300Y-73664664D01*
X160006639Y-73608788D01*
X160006636Y-73608787D01*
X159834410Y-73552829D01*
X159655551Y-73524500D01*
X159655546Y-73524500D01*
X159474454Y-73524500D01*
X159474449Y-73524500D01*
X159295589Y-73552829D01*
X159123363Y-73608787D01*
X159123360Y-73608788D01*
X158962002Y-73691006D01*
X158815505Y-73797441D01*
X158815500Y-73797445D01*
X158687445Y-73925500D01*
X158687441Y-73925505D01*
X158599318Y-74046797D01*
X158543988Y-74089463D01*
X158474375Y-74095442D01*
X158412580Y-74062836D01*
X158378223Y-74001998D01*
X158375000Y-73973912D01*
X158375000Y-73777172D01*
X158374999Y-73777155D01*
X158368598Y-73717627D01*
X158368596Y-73717620D01*
X158318354Y-73582913D01*
X158318350Y-73582906D01*
X158232190Y-73467812D01*
X158232187Y-73467809D01*
X158117093Y-73381649D01*
X158117086Y-73381645D01*
X157982379Y-73331403D01*
X157982372Y-73331401D01*
X157922844Y-73325000D01*
X157275000Y-73325000D01*
X157275000Y-74241988D01*
X157217993Y-74209075D01*
X157090826Y-74175000D01*
X156959174Y-74175000D01*
X156832007Y-74209075D01*
X156775000Y-74241988D01*
X156775000Y-73325000D01*
X156127155Y-73325000D01*
X156067627Y-73331401D01*
X156067620Y-73331403D01*
X155932913Y-73381645D01*
X155932906Y-73381649D01*
X155817812Y-73467809D01*
X155817809Y-73467812D01*
X155731649Y-73582906D01*
X155731645Y-73582913D01*
X155681403Y-73717620D01*
X155681401Y-73717627D01*
X155675000Y-73777155D01*
X154425499Y-73777155D01*
X154425499Y-73755143D01*
X154425499Y-73755136D01*
X154425497Y-73755117D01*
X154422586Y-73730012D01*
X154422585Y-73730010D01*
X154422585Y-73730009D01*
X154377206Y-73627235D01*
X154297765Y-73547794D01*
X154245009Y-73524500D01*
X154194992Y-73502415D01*
X154169865Y-73499500D01*
X152380143Y-73499500D01*
X152380117Y-73499502D01*
X152355012Y-73502413D01*
X152355008Y-73502415D01*
X152252235Y-73547793D01*
X152172794Y-73627234D01*
X152127415Y-73730006D01*
X152127415Y-73730008D01*
X152124500Y-73755131D01*
X151275500Y-73755131D01*
X151275500Y-72774500D01*
X151295185Y-72707461D01*
X151347989Y-72661706D01*
X151399500Y-72650500D01*
X170390500Y-72650500D01*
X170457539Y-72670185D01*
G37*
%TD.AperFunction*%
%TD*%
M02*
