%TF.GenerationSoftware,KiCad,Pcbnew,9.0.0*%
%TF.CreationDate,2025-08-25T15:59:45-02:30*%
%TF.ProjectId,STM32_PCB_Test_Project,53544d33-325f-4504-9342-5f546573745f,rev?*%
%TF.SameCoordinates,Original*%
%TF.FileFunction,Copper,L4,Bot*%
%TF.FilePolarity,Positive*%
%FSLAX46Y46*%
G04 Gerber Fmt 4.6, Leading zero omitted, Abs format (unit mm)*
G04 Created by KiCad (PCBNEW 9.0.0) date 2025-08-25 15:59:45*
%MOMM*%
%LPD*%
G01*
G04 APERTURE LIST*
G04 Aperture macros list*
%AMRoundRect*
0 Rectangle with rounded corners*
0 $1 Rounding radius*
0 $2 $3 $4 $5 $6 $7 $8 $9 X,Y pos of 4 corners*
0 Add a 4 corners polygon primitive as box body*
4,1,4,$2,$3,$4,$5,$6,$7,$8,$9,$2,$3,0*
0 Add four circle primitives for the rounded corners*
1,1,$1+$1,$2,$3*
1,1,$1+$1,$4,$5*
1,1,$1+$1,$6,$7*
1,1,$1+$1,$8,$9*
0 Add four rect primitives between the rounded corners*
20,1,$1+$1,$2,$3,$4,$5,0*
20,1,$1+$1,$4,$5,$6,$7,0*
20,1,$1+$1,$6,$7,$8,$9,0*
20,1,$1+$1,$8,$9,$2,$3,0*%
G04 Aperture macros list end*
%TA.AperFunction,ComponentPad*%
%ADD10R,1.700000X1.700000*%
%TD*%
%TA.AperFunction,ComponentPad*%
%ADD11O,1.700000X1.700000*%
%TD*%
%TA.AperFunction,HeatsinkPad*%
%ADD12O,1.000000X2.100000*%
%TD*%
%TA.AperFunction,HeatsinkPad*%
%ADD13O,1.000000X1.800000*%
%TD*%
%TA.AperFunction,SMDPad,CuDef*%
%ADD14RoundRect,0.140000X0.140000X0.170000X-0.140000X0.170000X-0.140000X-0.170000X0.140000X-0.170000X0*%
%TD*%
%TA.AperFunction,SMDPad,CuDef*%
%ADD15RoundRect,0.140000X-0.170000X0.140000X-0.170000X-0.140000X0.170000X-0.140000X0.170000X0.140000X0*%
%TD*%
%TA.AperFunction,SMDPad,CuDef*%
%ADD16R,1.400000X1.200000*%
%TD*%
%TA.AperFunction,SMDPad,CuDef*%
%ADD17RoundRect,0.140000X0.170000X-0.140000X0.170000X0.140000X-0.170000X0.140000X-0.170000X-0.140000X0*%
%TD*%
%TA.AperFunction,SMDPad,CuDef*%
%ADD18RoundRect,0.135000X-0.185000X0.135000X-0.185000X-0.135000X0.185000X-0.135000X0.185000X0.135000X0*%
%TD*%
%TA.AperFunction,SMDPad,CuDef*%
%ADD19R,0.600000X1.100000*%
%TD*%
%TA.AperFunction,SMDPad,CuDef*%
%ADD20RoundRect,0.375000X0.375000X-0.625000X0.375000X0.625000X-0.375000X0.625000X-0.375000X-0.625000X0*%
%TD*%
%TA.AperFunction,SMDPad,CuDef*%
%ADD21RoundRect,0.500000X1.400000X-0.500000X1.400000X0.500000X-1.400000X0.500000X-1.400000X-0.500000X0*%
%TD*%
%TA.AperFunction,SMDPad,CuDef*%
%ADD22RoundRect,0.250000X-0.475000X0.250000X-0.475000X-0.250000X0.475000X-0.250000X0.475000X0.250000X0*%
%TD*%
%TA.AperFunction,SMDPad,CuDef*%
%ADD23RoundRect,0.140000X-0.140000X-0.170000X0.140000X-0.170000X0.140000X0.170000X-0.140000X0.170000X0*%
%TD*%
%TA.AperFunction,ViaPad*%
%ADD24C,0.600000*%
%TD*%
%TA.AperFunction,ViaPad*%
%ADD25C,0.700000*%
%TD*%
%TA.AperFunction,Conductor*%
%ADD26C,0.500000*%
%TD*%
%TA.AperFunction,Conductor*%
%ADD27C,0.300000*%
%TD*%
%TA.AperFunction,Conductor*%
%ADD28C,0.200000*%
%TD*%
G04 APERTURE END LIST*
D10*
%TO.P,J2,1,Pin_1*%
%TO.N,+3.3V*%
X157025000Y-74675000D03*
D11*
%TO.P,J2,2,Pin_2*%
%TO.N,/SWDIO*%
X159565000Y-74675000D03*
%TO.P,J2,3,Pin_3*%
%TO.N,/SWCLK*%
X162105000Y-74675000D03*
%TO.P,J2,4,Pin_4*%
%TO.N,GND*%
X164645000Y-74675000D03*
%TD*%
D10*
%TO.P,J4,1,Pin_1*%
%TO.N,GND*%
X168515000Y-74650000D03*
D11*
%TO.P,J4,2,Pin_2*%
%TO.N,VBUS*%
X168515000Y-77190000D03*
%TO.P,J4,3,Pin_3*%
%TO.N,/PA2*%
X168515000Y-79730000D03*
%TO.P,J4,4,Pin_4*%
%TO.N,/PA1*%
X168515000Y-82270000D03*
%TO.P,J4,5,Pin_5*%
%TO.N,/PA0*%
X168515000Y-84810000D03*
%TO.P,J4,6,Pin_6*%
%TO.N,+3.3V*%
X168515000Y-87350000D03*
%TO.P,J4,7,Pin_7*%
X168515000Y-89890000D03*
%TO.P,J4,8,Pin_8*%
%TO.N,GND*%
X168515000Y-92430000D03*
%TO.P,J4,9,Pin_9*%
X168515000Y-94970000D03*
%TO.P,J4,10,Pin_10*%
%TO.N,/PC13*%
X168515000Y-97510000D03*
%TO.P,J4,11,Pin_11*%
%TO.N,+3.3V*%
X168515000Y-100050000D03*
%TO.P,J4,12,Pin_12*%
%TO.N,/PB9*%
X168515000Y-102590000D03*
%TO.P,J4,13,Pin_13*%
%TO.N,/PB8*%
X168515000Y-105130000D03*
%TO.P,J4,14,Pin_14*%
%TO.N,/PB7*%
X168515000Y-107670000D03*
%TO.P,J4,15,Pin_15*%
%TO.N,/PB6*%
X168515000Y-110210000D03*
%TO.P,J4,16,Pin_16*%
%TO.N,/PB5*%
X168515000Y-112750000D03*
%TO.P,J4,17,Pin_17*%
%TO.N,/PB4*%
X168515000Y-115290000D03*
%TO.P,J4,18,Pin_18*%
%TO.N,/PB3*%
X168515000Y-117830000D03*
%TO.P,J4,19,Pin_19*%
%TO.N,/PA15*%
X168515000Y-120370000D03*
%TD*%
D10*
%TO.P,J3,1,Pin_1*%
%TO.N,GND*%
X153275000Y-74650000D03*
D11*
%TO.P,J3,2,Pin_2*%
%TO.N,VBUS*%
X153275000Y-77190000D03*
%TO.P,J3,3,Pin_3*%
%TO.N,/PA3*%
X153275000Y-79730000D03*
%TO.P,J3,4,Pin_4*%
%TO.N,/PA4*%
X153275000Y-82270000D03*
%TO.P,J3,5,Pin_5*%
%TO.N,/PA5*%
X153275000Y-84810000D03*
%TO.P,J3,6,Pin_6*%
%TO.N,/PA6*%
X153275000Y-87350000D03*
%TO.P,J3,7,Pin_7*%
%TO.N,/PA7*%
X153275000Y-89890000D03*
%TO.P,J3,8,Pin_8*%
%TO.N,/PB0*%
X153275000Y-92430000D03*
%TO.P,J3,9,Pin_9*%
%TO.N,/PB1*%
X153275000Y-94970000D03*
%TO.P,J3,10,Pin_10*%
%TO.N,/PB2*%
X153275000Y-97510000D03*
%TO.P,J3,11,Pin_11*%
%TO.N,/PB10*%
X153275000Y-100050000D03*
%TO.P,J3,12,Pin_12*%
%TO.N,/PB11*%
X153275000Y-102590000D03*
%TO.P,J3,13,Pin_13*%
%TO.N,/PB12*%
X153275000Y-105130000D03*
%TO.P,J3,14,Pin_14*%
%TO.N,/PB13*%
X153275000Y-107670000D03*
%TO.P,J3,15,Pin_15*%
%TO.N,/PB14*%
X153275000Y-110210000D03*
%TO.P,J3,16,Pin_16*%
%TO.N,/PB15*%
X153275000Y-112750000D03*
%TO.P,J3,17,Pin_17*%
%TO.N,/PA8*%
X153275000Y-115290000D03*
%TO.P,J3,18,Pin_18*%
%TO.N,/PA9*%
X153275000Y-117830000D03*
%TO.P,J3,19,Pin_19*%
%TO.N,/PA10*%
X153275000Y-120370000D03*
%TD*%
D12*
%TO.P,J1,S1,SHIELD*%
%TO.N,GND*%
X156605000Y-115560000D03*
D13*
X156605000Y-119740000D03*
D12*
X165245000Y-115560000D03*
D13*
X165245000Y-119740000D03*
%TD*%
D14*
%TO.P,C12,1*%
%TO.N,GND*%
X164230000Y-87675000D03*
%TO.P,C12,2*%
%TO.N,/OSC32_OUT*%
X163270000Y-87675000D03*
%TD*%
D15*
%TO.P,C6,1*%
%TO.N,+3.3VA*%
X160200000Y-95595000D03*
%TO.P,C6,2*%
%TO.N,GND*%
X160200000Y-96555000D03*
%TD*%
D16*
%TO.P,Y1,1,1*%
%TO.N,Net-(C10-Pad2)*%
X160900000Y-86250000D03*
%TO.P,Y1,2,2*%
%TO.N,GND*%
X158700000Y-86250000D03*
%TO.P,Y1,3,3*%
%TO.N,/OSC_IN*%
X158700000Y-84550000D03*
%TO.P,Y1,4,4*%
%TO.N,GND*%
X160900000Y-84550000D03*
%TD*%
D17*
%TO.P,C2,1*%
%TO.N,+3.3V*%
X161025000Y-98930000D03*
%TO.P,C2,2*%
%TO.N,GND*%
X161025000Y-97970000D03*
%TD*%
D18*
%TO.P,R1,1*%
%TO.N,Net-(C10-Pad2)*%
X160600000Y-89680000D03*
%TO.P,R1,2*%
%TO.N,/OSC_OUT*%
X160600000Y-90700000D03*
%TD*%
D19*
%TO.P,Y2,1,1*%
%TO.N,/OSC32_OUT*%
X164500000Y-85825000D03*
%TO.P,Y2,2,2*%
%TO.N,/OSC32_IN*%
X165900000Y-85825000D03*
%TD*%
D20*
%TO.P,U3,1,GND*%
%TO.N,GND*%
X163187500Y-111125000D03*
%TO.P,U3,2,VO*%
%TO.N,+3.3V*%
X160887500Y-111125000D03*
D21*
X160887500Y-104825000D03*
D20*
%TO.P,U3,3,VI*%
%TO.N,VBUS*%
X158587500Y-111125000D03*
%TD*%
D15*
%TO.P,C7,1*%
%TO.N,+3.3VA*%
X161400000Y-95595000D03*
%TO.P,C7,2*%
%TO.N,GND*%
X161400000Y-96555000D03*
%TD*%
D17*
%TO.P,C3,1*%
%TO.N,+3.3V*%
X162175000Y-98955000D03*
%TO.P,C3,2*%
%TO.N,GND*%
X162175000Y-97995000D03*
%TD*%
%TO.P,C4,1*%
%TO.N,+3.3V*%
X159700000Y-98980000D03*
%TO.P,C4,2*%
%TO.N,GND*%
X159700000Y-98020000D03*
%TD*%
D14*
%TO.P,C11,1*%
%TO.N,GND*%
X166205000Y-87675000D03*
%TO.P,C11,2*%
%TO.N,/OSC32_IN*%
X165245000Y-87675000D03*
%TD*%
D22*
%TO.P,C13,1*%
%TO.N,VBUS*%
X156225000Y-109500000D03*
%TO.P,C13,2*%
%TO.N,GND*%
X156225000Y-111400000D03*
%TD*%
D15*
%TO.P,C14,1*%
%TO.N,+3.3V*%
X165575000Y-109945000D03*
%TO.P,C14,2*%
%TO.N,GND*%
X165575000Y-110905000D03*
%TD*%
D14*
%TO.P,C9,1*%
%TO.N,GND*%
X158880000Y-87900000D03*
%TO.P,C9,2*%
%TO.N,/OSC_IN*%
X157920000Y-87900000D03*
%TD*%
D17*
%TO.P,C5,1*%
%TO.N,+3.3V*%
X158575000Y-98955000D03*
%TO.P,C5,2*%
%TO.N,GND*%
X158575000Y-97995000D03*
%TD*%
%TO.P,C1,1*%
%TO.N,+3.3V*%
X163450000Y-98955000D03*
%TO.P,C1,2*%
%TO.N,GND*%
X163450000Y-97995000D03*
%TD*%
D14*
%TO.P,C10,1*%
%TO.N,GND*%
X161580000Y-87900000D03*
%TO.P,C10,2*%
%TO.N,Net-(C10-Pad2)*%
X160620000Y-87900000D03*
%TD*%
D23*
%TO.P,C8,1*%
%TO.N,GND*%
X161220000Y-82800000D03*
%TO.P,C8,2*%
%TO.N,Net-(U1-NRST)*%
X162180000Y-82800000D03*
%TD*%
D24*
%TO.N,VBUS*%
X160950000Y-107525000D03*
D25*
%TO.N,GND*%
X158600000Y-83100000D03*
D24*
X166225000Y-88475000D03*
X163125000Y-97100000D03*
X157050000Y-113225000D03*
X158300000Y-96300000D03*
D25*
X159790000Y-87852910D03*
D24*
X167000000Y-74700000D03*
X162350000Y-80000000D03*
X165075000Y-105000000D03*
X164125000Y-113200000D03*
X163550000Y-109800000D03*
X162316154Y-95356484D03*
X166800000Y-99900000D03*
X162875000Y-109800000D03*
X164906963Y-86894132D03*
X154800000Y-74700000D03*
D25*
X160910245Y-112675000D03*
D24*
%TO.N,+3.3V*%
X163000000Y-106000000D03*
X164425000Y-98025000D03*
X160500000Y-102900000D03*
X156825000Y-97350000D03*
D25*
X163002000Y-108100000D03*
D24*
X165387500Y-109062500D03*
X157025000Y-76025000D03*
X159750000Y-80100000D03*
%TO.N,+3.3VA*%
X161825000Y-94725000D03*
%TO.N,Net-(U1-NRST)*%
X163125000Y-82250000D03*
X164000000Y-84500000D03*
%TO.N,/OSC_IN*%
X165700270Y-93003290D03*
%TO.N,/OSC32_IN*%
X166875000Y-93975000D03*
%TO.N,/OSC32_OUT*%
X166012821Y-94008523D03*
%TO.N,VBUS*%
X158605331Y-114180331D03*
X163325000Y-114100000D03*
%TO.N,/SWCLK*%
X161725000Y-76875000D03*
X157859620Y-97465380D03*
%TO.N,/SWDIO*%
X158200000Y-77150000D03*
X159980122Y-100889752D03*
D25*
%TO.N,/OSC_OUT*%
X164956963Y-92000000D03*
D24*
%TO.N,/USB_D+*%
X161976000Y-116459620D03*
X160675000Y-116425000D03*
%TO.N,/USB_D-*%
X160075000Y-117275000D03*
X161325000Y-117250000D03*
%TD*%
D26*
%TO.N,GND*%
X156225000Y-112350000D02*
X156225000Y-111400000D01*
D27*
X159450000Y-83100000D02*
X158600000Y-83100000D01*
D26*
X157050000Y-113225000D02*
X157050000Y-113175000D01*
X163450000Y-97995000D02*
X163450000Y-97425000D01*
X163550000Y-110762500D02*
X163550000Y-109800000D01*
D28*
X161102000Y-84550000D02*
X160900000Y-84550000D01*
D26*
X159700000Y-98020000D02*
X158600000Y-98020000D01*
X163450000Y-97425000D02*
X163125000Y-97100000D01*
X163407500Y-110905000D02*
X163187500Y-111125000D01*
D27*
X158800000Y-86250000D02*
X160500000Y-84550000D01*
D26*
X164230000Y-87675000D02*
X164230000Y-87540318D01*
D27*
X161709999Y-96555000D02*
X162316154Y-95948845D01*
D28*
X161901000Y-85349000D02*
X161102000Y-84550000D01*
D27*
X158900000Y-82800000D02*
X158600000Y-83100000D01*
X160900000Y-84550000D02*
X159450000Y-83100000D01*
D26*
X166225000Y-89439892D02*
X166225000Y-88475000D01*
D27*
X158700000Y-86250000D02*
X158800000Y-86250000D01*
D26*
X167050000Y-74650000D02*
X167000000Y-74700000D01*
D27*
X161400000Y-96555000D02*
X160200000Y-96555000D01*
D26*
X163450000Y-97995000D02*
X162175000Y-97995000D01*
D27*
X161400000Y-96555000D02*
X161709999Y-96555000D01*
D26*
X154750000Y-74650000D02*
X154800000Y-74700000D01*
X160950000Y-97995000D02*
X160975000Y-97970000D01*
X157050000Y-113175000D02*
X156225000Y-112350000D01*
D28*
X161580000Y-87900000D02*
X161901000Y-87579000D01*
D26*
X168515000Y-91729892D02*
X166225000Y-89439892D01*
D27*
X160500000Y-84550000D02*
X160900000Y-84550000D01*
D26*
X164876186Y-86894132D02*
X164906963Y-86894132D01*
X164230000Y-87540318D02*
X164876186Y-86894132D01*
D27*
X158927090Y-87852910D02*
X158880000Y-87900000D01*
D26*
X164375000Y-112900000D02*
X165575000Y-111700000D01*
X168515000Y-94970000D02*
X168515000Y-91729892D01*
D28*
X161901000Y-87579000D02*
X161901000Y-85349000D01*
D26*
X165575000Y-111700000D02*
X165575000Y-110905000D01*
X158600000Y-98020000D02*
X158575000Y-97995000D01*
X153275000Y-74650000D02*
X154750000Y-74650000D01*
X159800000Y-97995000D02*
X160950000Y-97995000D01*
X162050000Y-97970000D02*
X162075000Y-97995000D01*
X166205000Y-88455000D02*
X166225000Y-88475000D01*
X161225000Y-82800000D02*
X161220000Y-82800000D01*
X166205000Y-87675000D02*
X166205000Y-88455000D01*
D27*
X161220000Y-82800000D02*
X158900000Y-82800000D01*
D26*
X163187500Y-111125000D02*
X163550000Y-110762500D01*
X168515000Y-74650000D02*
X167050000Y-74650000D01*
X164375000Y-112950000D02*
X164375000Y-112900000D01*
X160975000Y-97970000D02*
X162050000Y-97970000D01*
X164125000Y-113200000D02*
X164375000Y-112950000D01*
D27*
X159790000Y-87852910D02*
X158927090Y-87852910D01*
X162316154Y-95948845D02*
X162316154Y-95356484D01*
D26*
%TO.N,+3.3V*%
X163740000Y-104825000D02*
X163275000Y-104825000D01*
D27*
X159675000Y-98955000D02*
X159700000Y-98980000D01*
D26*
X160887500Y-110214500D02*
X163002000Y-108100000D01*
X163725000Y-106000000D02*
X163925000Y-105800000D01*
D27*
X161000000Y-98955000D02*
X163945000Y-98955000D01*
X158430000Y-98955000D02*
X156825000Y-97350000D01*
D26*
X168515000Y-100050000D02*
X163740000Y-104825000D01*
D27*
X158575000Y-98955000D02*
X159675000Y-98955000D01*
X158600000Y-98980000D02*
X158575000Y-98955000D01*
X159800000Y-99000000D02*
X159800000Y-98955000D01*
D26*
X163925000Y-105800000D02*
X163925000Y-105475000D01*
D27*
X160900000Y-102500000D02*
X160900000Y-102162888D01*
D26*
X168515000Y-86940000D02*
X163876000Y-82301000D01*
X165575000Y-109300000D02*
X165575000Y-109945000D01*
X168515000Y-89890000D02*
X168515000Y-87350000D01*
D27*
X160630122Y-101893010D02*
X160630122Y-99830122D01*
D26*
X163925000Y-105475000D02*
X163275000Y-104825000D01*
X160401000Y-80751000D02*
X159750000Y-80100000D01*
D27*
X159800000Y-98955000D02*
X159825000Y-98930000D01*
X160630122Y-99830122D02*
X159800000Y-99000000D01*
D26*
X165387500Y-109112500D02*
X165575000Y-109300000D01*
D27*
X160500000Y-102900000D02*
X160900000Y-102500000D01*
X160900000Y-102162888D02*
X160630122Y-101893010D01*
D26*
X162688075Y-80751000D02*
X160401000Y-80751000D01*
X163275000Y-104825000D02*
X160887500Y-104825000D01*
D27*
X158575000Y-98955000D02*
X158430000Y-98955000D01*
D26*
X160887500Y-111125000D02*
X160887500Y-110214500D01*
X163876000Y-82301000D02*
X163876000Y-81938925D01*
X163000000Y-106000000D02*
X163725000Y-106000000D01*
D27*
X164425000Y-98475000D02*
X164425000Y-98025000D01*
X160975000Y-98930000D02*
X161000000Y-98955000D01*
D26*
X163876000Y-81938925D02*
X162688075Y-80751000D01*
X168515000Y-87350000D02*
X168515000Y-86940000D01*
D27*
X163945000Y-98955000D02*
X164425000Y-98475000D01*
X159825000Y-98930000D02*
X160975000Y-98930000D01*
D26*
X165387500Y-109062500D02*
X165387500Y-109112500D01*
D27*
%TO.N,+3.3VA*%
X161400000Y-95150000D02*
X161400000Y-95595000D01*
X161825000Y-94725000D02*
X161400000Y-95150000D01*
X161400000Y-95595000D02*
X160200000Y-95595000D01*
%TO.N,Net-(U1-NRST)*%
X162575000Y-82800000D02*
X163125000Y-82250000D01*
X162180000Y-82800000D02*
X162575000Y-82800000D01*
X164000000Y-84500000D02*
X164000000Y-84375000D01*
X164000000Y-84375000D02*
X162425000Y-82800000D01*
X162425000Y-82800000D02*
X162180000Y-82800000D01*
D28*
%TO.N,/OSC_IN*%
X158902000Y-84550000D02*
X158700000Y-84550000D01*
D27*
X161892240Y-93003290D02*
X157920000Y-89031050D01*
X157920000Y-87600000D02*
X157649000Y-87329000D01*
X165700270Y-93003290D02*
X161892240Y-93003290D01*
X158600000Y-84550000D02*
X158700000Y-84550000D01*
X157920000Y-87900000D02*
X157920000Y-87600000D01*
X157649000Y-85501000D02*
X158600000Y-84550000D01*
X157920000Y-89031050D02*
X157920000Y-87900000D01*
X157649000Y-87329000D02*
X157649000Y-85501000D01*
D28*
%TO.N,Net-(C10-Pad2)*%
X160620000Y-89690000D02*
X160620000Y-87900000D01*
D27*
X160620000Y-86530000D02*
X160900000Y-86250000D01*
X160620000Y-87900000D02*
X160620000Y-86530000D01*
D28*
X160620000Y-88965000D02*
X160600000Y-88985000D01*
%TO.N,/OSC32_IN*%
X165900000Y-85825000D02*
X165900000Y-87020000D01*
X166875000Y-93975000D02*
X166875000Y-91525000D01*
X165245000Y-89895000D02*
X165245000Y-87675000D01*
X166875000Y-91525000D02*
X165245000Y-89895000D01*
X165900000Y-87020000D02*
X165245000Y-87675000D01*
%TO.N,/OSC32_OUT*%
X166012821Y-94008523D02*
X166012821Y-93969236D01*
X163270000Y-87055000D02*
X163270000Y-87675000D01*
X166474000Y-91699000D02*
X163270000Y-88495000D01*
X166474000Y-93508057D02*
X166474000Y-91699000D01*
X163270000Y-88495000D02*
X163270000Y-87675000D01*
X166012821Y-93969236D02*
X166474000Y-93508057D01*
X164500000Y-85825000D02*
X163270000Y-87055000D01*
D26*
%TO.N,VBUS*%
X158605331Y-114180331D02*
X158605331Y-111142831D01*
X159560588Y-109765203D02*
X159560588Y-108839412D01*
X156225000Y-109500000D02*
X156962500Y-109500000D01*
X159560588Y-108839412D02*
X159812500Y-108587500D01*
X158605331Y-111142831D02*
X158587500Y-111125000D01*
X157097925Y-77190000D02*
X158163925Y-76124000D01*
X160300000Y-114100000D02*
X158587500Y-112387500D01*
X154576000Y-78491000D02*
X153275000Y-77190000D01*
X159812500Y-108587500D02*
X160950000Y-108587500D01*
X158163925Y-76124000D02*
X167449000Y-76124000D01*
X156225000Y-109500000D02*
X154576000Y-107851000D01*
X158587500Y-111125000D02*
X158587500Y-110738291D01*
X158587500Y-112387500D02*
X158587500Y-111125000D01*
X163325000Y-114100000D02*
X160300000Y-114100000D01*
X153275000Y-77190000D02*
X157097925Y-77190000D01*
X158587500Y-110738291D02*
X159560588Y-109765203D01*
X154576000Y-107851000D02*
X154576000Y-78491000D01*
X167449000Y-76124000D02*
X168515000Y-77190000D01*
X156962500Y-109500000D02*
X158587500Y-111125000D01*
D27*
%TO.N,/SWCLK*%
X157056346Y-96662106D02*
X157859620Y-97465380D01*
X155976000Y-95406788D02*
X157056346Y-96487134D01*
X157056346Y-96487134D02*
X157056346Y-96662106D01*
X157582521Y-81017480D02*
X155976000Y-82624000D01*
X161725000Y-76875000D02*
X157876000Y-80724000D01*
X155976000Y-82624000D02*
X155976000Y-95406788D01*
X157876000Y-80724000D02*
X157582521Y-81017480D01*
%TO.N,/SWDIO*%
X158952260Y-99586000D02*
X159036000Y-99586000D01*
X155475000Y-82416480D02*
X155475000Y-95614308D01*
X157914000Y-99302260D02*
X158197740Y-99586000D01*
X156174000Y-97080346D02*
X156174000Y-97619654D01*
X159980122Y-100530122D02*
X159980122Y-100889752D01*
X156555346Y-96694654D02*
X156555346Y-96699000D01*
X156174000Y-97619654D02*
X156555346Y-98001000D01*
X157375000Y-80516480D02*
X155475000Y-82416480D01*
X155475000Y-95614308D02*
X156555346Y-96694654D01*
X156555346Y-98001000D02*
X156767480Y-98001000D01*
X158200000Y-77150000D02*
X157375000Y-77975000D01*
X156555346Y-96699000D02*
X156174000Y-97080346D01*
X158197740Y-99586000D02*
X158686000Y-99586000D01*
X159036000Y-99586000D02*
X159980122Y-100530122D01*
X158686000Y-99586000D02*
X158952260Y-99586000D01*
X156767480Y-98001000D02*
X157914000Y-99147520D01*
X157375000Y-77975000D02*
X157375000Y-80516480D01*
X157914000Y-99147520D02*
X157914000Y-99302260D01*
%TO.N,/OSC_OUT*%
X163656963Y-90700000D02*
X160600000Y-90700000D01*
X164956963Y-92000000D02*
X163656963Y-90700000D01*
%TO.N,/USB_D+*%
X160675000Y-116425000D02*
X161941380Y-116425000D01*
X161941380Y-116425000D02*
X161976000Y-116459620D01*
%TO.N,/USB_D-*%
X161325000Y-117250000D02*
X161300000Y-117275000D01*
X161300000Y-117275000D02*
X160075000Y-117275000D01*
%TD*%
M02*
