%TF.GenerationSoftware,KiCad,Pcbnew,9.0.0*%
%TF.CreationDate,2025-08-25T15:59:45-02:30*%
%TF.ProjectId,STM32_PCB_Test_Project,53544d33-325f-4504-9342-5f546573745f,rev?*%
%TF.SameCoordinates,Original*%
%TF.FileFunction,Copper,L1,Top*%
%TF.FilePolarity,Positive*%
%FSLAX46Y46*%
G04 Gerber Fmt 4.6, Leading zero omitted, Abs format (unit mm)*
G04 Created by KiCad (PCBNEW 9.0.0) date 2025-08-25 15:59:45*
%MOMM*%
%LPD*%
G01*
G04 APERTURE LIST*
G04 Aperture macros list*
%AMRoundRect*
0 Rectangle with rounded corners*
0 $1 Rounding radius*
0 $2 $3 $4 $5 $6 $7 $8 $9 X,Y pos of 4 corners*
0 Add a 4 corners polygon primitive as box body*
4,1,4,$2,$3,$4,$5,$6,$7,$8,$9,$2,$3,0*
0 Add four circle primitives for the rounded corners*
1,1,$1+$1,$2,$3*
1,1,$1+$1,$4,$5*
1,1,$1+$1,$6,$7*
1,1,$1+$1,$8,$9*
0 Add four rect primitives between the rounded corners*
20,1,$1+$1,$2,$3,$4,$5,0*
20,1,$1+$1,$4,$5,$6,$7,0*
20,1,$1+$1,$6,$7,$8,$9,0*
20,1,$1+$1,$8,$9,$2,$3,0*%
G04 Aperture macros list end*
%TA.AperFunction,ComponentPad*%
%ADD10R,1.700000X1.700000*%
%TD*%
%TA.AperFunction,ComponentPad*%
%ADD11O,1.700000X1.700000*%
%TD*%
%TA.AperFunction,SMDPad,CuDef*%
%ADD12RoundRect,0.135000X-0.185000X0.135000X-0.185000X-0.135000X0.185000X-0.135000X0.185000X0.135000X0*%
%TD*%
%TA.AperFunction,SMDPad,CuDef*%
%ADD13R,1.050000X0.650000*%
%TD*%
%TA.AperFunction,SMDPad,CuDef*%
%ADD14RoundRect,0.075000X0.415425X0.521491X-0.521491X-0.415425X-0.415425X-0.521491X0.521491X0.415425X0*%
%TD*%
%TA.AperFunction,SMDPad,CuDef*%
%ADD15RoundRect,0.075000X-0.415425X0.521491X-0.521491X0.415425X0.415425X-0.521491X0.521491X-0.415425X0*%
%TD*%
%TA.AperFunction,SMDPad,CuDef*%
%ADD16RoundRect,0.135000X0.135000X0.185000X-0.135000X0.185000X-0.135000X-0.185000X0.135000X-0.185000X0*%
%TD*%
%TA.AperFunction,SMDPad,CuDef*%
%ADD17RoundRect,0.150000X0.150000X-0.512500X0.150000X0.512500X-0.150000X0.512500X-0.150000X-0.512500X0*%
%TD*%
%TA.AperFunction,SMDPad,CuDef*%
%ADD18RoundRect,0.100000X-0.100000X0.130000X-0.100000X-0.130000X0.100000X-0.130000X0.100000X0.130000X0*%
%TD*%
%TA.AperFunction,SMDPad,CuDef*%
%ADD19RoundRect,0.135000X0.185000X-0.135000X0.185000X0.135000X-0.185000X0.135000X-0.185000X-0.135000X0*%
%TD*%
%TA.AperFunction,SMDPad,CuDef*%
%ADD20RoundRect,0.150000X-0.150000X-0.425000X0.150000X-0.425000X0.150000X0.425000X-0.150000X0.425000X0*%
%TD*%
%TA.AperFunction,SMDPad,CuDef*%
%ADD21RoundRect,0.075000X-0.075000X-0.500000X0.075000X-0.500000X0.075000X0.500000X-0.075000X0.500000X0*%
%TD*%
%TA.AperFunction,HeatsinkPad*%
%ADD22O,1.000000X2.100000*%
%TD*%
%TA.AperFunction,HeatsinkPad*%
%ADD23O,1.000000X1.800000*%
%TD*%
%TA.AperFunction,ViaPad*%
%ADD24C,0.600000*%
%TD*%
%TA.AperFunction,ViaPad*%
%ADD25C,0.700000*%
%TD*%
%TA.AperFunction,Conductor*%
%ADD26C,0.500000*%
%TD*%
%TA.AperFunction,Conductor*%
%ADD27C,0.200000*%
%TD*%
%TA.AperFunction,Conductor*%
%ADD28C,0.300000*%
%TD*%
G04 APERTURE END LIST*
D10*
%TO.P,J2,1,Pin_1*%
%TO.N,+3.3V*%
X157025000Y-74675000D03*
D11*
%TO.P,J2,2,Pin_2*%
%TO.N,/SWDIO*%
X159565000Y-74675000D03*
%TO.P,J2,3,Pin_3*%
%TO.N,/SWCLK*%
X162105000Y-74675000D03*
%TO.P,J2,4,Pin_4*%
%TO.N,GND*%
X164645000Y-74675000D03*
%TD*%
D12*
%TO.P,R3,1*%
%TO.N,GND*%
X162800000Y-112390000D03*
%TO.P,R3,2*%
%TO.N,Net-(J1-CC2)*%
X162800000Y-113410000D03*
%TD*%
D13*
%TO.P,SW1,1,1*%
%TO.N,GND*%
X159000000Y-79100000D03*
X163150000Y-79100000D03*
%TO.P,SW1,2,2*%
%TO.N,Net-(U1-NRST)*%
X159000000Y-81250000D03*
X163150000Y-81250000D03*
%TD*%
D10*
%TO.P,J4,1,Pin_1*%
%TO.N,GND*%
X168515000Y-74650000D03*
D11*
%TO.P,J4,2,Pin_2*%
%TO.N,VBUS*%
X168515000Y-77190000D03*
%TO.P,J4,3,Pin_3*%
%TO.N,/PA2*%
X168515000Y-79730000D03*
%TO.P,J4,4,Pin_4*%
%TO.N,/PA1*%
X168515000Y-82270000D03*
%TO.P,J4,5,Pin_5*%
%TO.N,/PA0*%
X168515000Y-84810000D03*
%TO.P,J4,6,Pin_6*%
%TO.N,+3.3V*%
X168515000Y-87350000D03*
%TO.P,J4,7,Pin_7*%
X168515000Y-89890000D03*
%TO.P,J4,8,Pin_8*%
%TO.N,GND*%
X168515000Y-92430000D03*
%TO.P,J4,9,Pin_9*%
X168515000Y-94970000D03*
%TO.P,J4,10,Pin_10*%
%TO.N,/PC13*%
X168515000Y-97510000D03*
%TO.P,J4,11,Pin_11*%
%TO.N,+3.3V*%
X168515000Y-100050000D03*
%TO.P,J4,12,Pin_12*%
%TO.N,/PB9*%
X168515000Y-102590000D03*
%TO.P,J4,13,Pin_13*%
%TO.N,/PB8*%
X168515000Y-105130000D03*
%TO.P,J4,14,Pin_14*%
%TO.N,/PB7*%
X168515000Y-107670000D03*
%TO.P,J4,15,Pin_15*%
%TO.N,/PB6*%
X168515000Y-110210000D03*
%TO.P,J4,16,Pin_16*%
%TO.N,/PB5*%
X168515000Y-112750000D03*
%TO.P,J4,17,Pin_17*%
%TO.N,/PB4*%
X168515000Y-115290000D03*
%TO.P,J4,18,Pin_18*%
%TO.N,/PB3*%
X168515000Y-117830000D03*
%TO.P,J4,19,Pin_19*%
%TO.N,/PA15*%
X168515000Y-120370000D03*
%TD*%
D10*
%TO.P,J3,1,Pin_1*%
%TO.N,GND*%
X153275000Y-74650000D03*
D11*
%TO.P,J3,2,Pin_2*%
%TO.N,VBUS*%
X153275000Y-77190000D03*
%TO.P,J3,3,Pin_3*%
%TO.N,/PA3*%
X153275000Y-79730000D03*
%TO.P,J3,4,Pin_4*%
%TO.N,/PA4*%
X153275000Y-82270000D03*
%TO.P,J3,5,Pin_5*%
%TO.N,/PA5*%
X153275000Y-84810000D03*
%TO.P,J3,6,Pin_6*%
%TO.N,/PA6*%
X153275000Y-87350000D03*
%TO.P,J3,7,Pin_7*%
%TO.N,/PA7*%
X153275000Y-89890000D03*
%TO.P,J3,8,Pin_8*%
%TO.N,/PB0*%
X153275000Y-92430000D03*
%TO.P,J3,9,Pin_9*%
%TO.N,/PB1*%
X153275000Y-94970000D03*
%TO.P,J3,10,Pin_10*%
%TO.N,/PB2*%
X153275000Y-97510000D03*
%TO.P,J3,11,Pin_11*%
%TO.N,/PB10*%
X153275000Y-100050000D03*
%TO.P,J3,12,Pin_12*%
%TO.N,/PB11*%
X153275000Y-102590000D03*
%TO.P,J3,13,Pin_13*%
%TO.N,/PB12*%
X153275000Y-105130000D03*
%TO.P,J3,14,Pin_14*%
%TO.N,/PB13*%
X153275000Y-107670000D03*
%TO.P,J3,15,Pin_15*%
%TO.N,/PB14*%
X153275000Y-110210000D03*
%TO.P,J3,16,Pin_16*%
%TO.N,/PB15*%
X153275000Y-112750000D03*
%TO.P,J3,17,Pin_17*%
%TO.N,/PA8*%
X153275000Y-115290000D03*
%TO.P,J3,18,Pin_18*%
%TO.N,/PA9*%
X153275000Y-117830000D03*
%TO.P,J3,19,Pin_19*%
%TO.N,/PA10*%
X153275000Y-120370000D03*
%TD*%
D14*
%TO.P,U1,1,VBAT*%
%TO.N,+3.3V*%
X165782876Y-96501212D03*
%TO.P,U1,2,PC13*%
%TO.N,/PC13*%
X165429322Y-96147658D03*
%TO.P,U1,3,PC14*%
%TO.N,/OSC32_IN*%
X165075769Y-95794105D03*
%TO.P,U1,4,PC15*%
%TO.N,/OSC32_OUT*%
X164722215Y-95440551D03*
%TO.P,U1,5,PD0*%
%TO.N,/OSC_IN*%
X164368662Y-95086998D03*
%TO.P,U1,6,PD1*%
%TO.N,/OSC_OUT*%
X164015109Y-94733445D03*
%TO.P,U1,7,NRST*%
%TO.N,Net-(U1-NRST)*%
X163661555Y-94379891D03*
%TO.P,U1,8,VSSA*%
%TO.N,GND*%
X163308002Y-94026338D03*
%TO.P,U1,9,VDDA*%
%TO.N,+3.3VA*%
X162954449Y-93672785D03*
%TO.P,U1,10,PA0*%
%TO.N,/PA0*%
X162600895Y-93319231D03*
%TO.P,U1,11,PA1*%
%TO.N,/PA1*%
X162247342Y-92965678D03*
%TO.P,U1,12,PA2*%
%TO.N,/PA2*%
X161893788Y-92612124D03*
D15*
%TO.P,U1,13,PA3*%
%TO.N,/PA3*%
X159896212Y-92612124D03*
%TO.P,U1,14,PA4*%
%TO.N,/PA4*%
X159542658Y-92965678D03*
%TO.P,U1,15,PA5*%
%TO.N,/PA5*%
X159189105Y-93319231D03*
%TO.P,U1,16,PA6*%
%TO.N,/PA6*%
X158835551Y-93672785D03*
%TO.P,U1,17,PA7*%
%TO.N,/PA7*%
X158481998Y-94026338D03*
%TO.P,U1,18,PB0*%
%TO.N,/PB0*%
X158128445Y-94379891D03*
%TO.P,U1,19,PB1*%
%TO.N,/PB1*%
X157774891Y-94733445D03*
%TO.P,U1,20,PB2*%
%TO.N,/PB2*%
X157421338Y-95086998D03*
%TO.P,U1,21,PB10*%
%TO.N,/PB10*%
X157067785Y-95440551D03*
%TO.P,U1,22,PB11*%
%TO.N,/PB11*%
X156714231Y-95794105D03*
%TO.P,U1,23,VSS*%
%TO.N,GND*%
X156360678Y-96147658D03*
%TO.P,U1,24,VDD*%
%TO.N,+3.3V*%
X156007124Y-96501212D03*
D14*
%TO.P,U1,25,PB12*%
%TO.N,/PB12*%
X156007124Y-98498788D03*
%TO.P,U1,26,PB13*%
%TO.N,/PB13*%
X156360678Y-98852342D03*
%TO.P,U1,27,PB14*%
%TO.N,/PB14*%
X156714231Y-99205895D03*
%TO.P,U1,28,PB15*%
%TO.N,/PB15*%
X157067785Y-99559449D03*
%TO.P,U1,29,PA8*%
%TO.N,/PA8*%
X157421338Y-99913002D03*
%TO.P,U1,30,PA9*%
%TO.N,/PA9*%
X157774891Y-100266555D03*
%TO.P,U1,31,PA10*%
%TO.N,/PA10*%
X158128445Y-100620109D03*
%TO.P,U1,32,PA11*%
%TO.N,/USB_D-*%
X158481998Y-100973662D03*
%TO.P,U1,33,PA12*%
%TO.N,/USB_D+*%
X158835551Y-101327215D03*
%TO.P,U1,34,PA13*%
%TO.N,/SWDIO*%
X159189105Y-101680769D03*
%TO.P,U1,35,VSS*%
%TO.N,GND*%
X159542658Y-102034322D03*
%TO.P,U1,36,VDD*%
%TO.N,+3.3V*%
X159896212Y-102387876D03*
D15*
%TO.P,U1,37,PA14*%
%TO.N,/SWCLK*%
X161893788Y-102387876D03*
%TO.P,U1,38,PA15*%
%TO.N,/PA15*%
X162247342Y-102034322D03*
%TO.P,U1,39,PB3*%
%TO.N,/PB3*%
X162600895Y-101680769D03*
%TO.P,U1,40,PB4*%
%TO.N,/PB4*%
X162954449Y-101327215D03*
%TO.P,U1,41,PB5*%
%TO.N,/PB5*%
X163308002Y-100973662D03*
%TO.P,U1,42,PB6*%
%TO.N,/PB6*%
X163661555Y-100620109D03*
%TO.P,U1,43,PB7*%
%TO.N,/PB7*%
X164015109Y-100266555D03*
%TO.P,U1,44,BOOT0*%
%TO.N,GND*%
X164368662Y-99913002D03*
%TO.P,U1,45,PB8*%
%TO.N,/PB8*%
X164722215Y-99559449D03*
%TO.P,U1,46,PB9*%
%TO.N,/PB9*%
X165075769Y-99205895D03*
%TO.P,U1,47,VSS*%
%TO.N,GND*%
X165429322Y-98852342D03*
%TO.P,U1,48,VDD*%
%TO.N,+3.3V*%
X165782876Y-98498788D03*
%TD*%
D16*
%TO.P,R4,1*%
%TO.N,+3.3V*%
X162220000Y-106000000D03*
%TO.P,R4,2*%
%TO.N,/USB_D+*%
X161200000Y-106000000D03*
%TD*%
D12*
%TO.P,R2,1*%
%TO.N,GND*%
X159500000Y-112440000D03*
%TO.P,R2,2*%
%TO.N,Net-(J1-CC1)*%
X159500000Y-113460000D03*
%TD*%
D17*
%TO.P,U2,1,I/O1*%
%TO.N,/USB_D-*%
X160000000Y-110862500D03*
%TO.P,U2,2,GND*%
%TO.N,GND*%
X160950000Y-110862500D03*
%TO.P,U2,3,I/O2*%
%TO.N,/USB_D+*%
X161900000Y-110862500D03*
%TO.P,U2,4,I/O2*%
X161900000Y-108587500D03*
%TO.P,U2,5,VBUS*%
%TO.N,VBUS*%
X160950000Y-108587500D03*
%TO.P,U2,6,I/O1*%
%TO.N,/USB_D-*%
X160000000Y-108587500D03*
%TD*%
D18*
%TO.P,D1,1,K*%
%TO.N,Net-(D1-K)*%
X165075000Y-107930000D03*
%TO.P,D1,2,A*%
%TO.N,+3.3V*%
X165075000Y-108570000D03*
%TD*%
D19*
%TO.P,R5,1*%
%TO.N,Net-(D1-K)*%
X165075000Y-106785000D03*
%TO.P,R5,2*%
%TO.N,GND*%
X165075000Y-105765000D03*
%TD*%
D20*
%TO.P,J1,A1,GND*%
%TO.N,GND*%
X157725000Y-114985000D03*
%TO.P,J1,A4,VBUS*%
%TO.N,VBUS*%
X158525000Y-114985000D03*
D21*
%TO.P,J1,A5,CC1*%
%TO.N,Net-(J1-CC1)*%
X159675000Y-114985000D03*
%TO.P,J1,A6,D+*%
%TO.N,/USB_D+*%
X160675000Y-114985000D03*
%TO.P,J1,A7,D-*%
%TO.N,/USB_D-*%
X161175000Y-114985000D03*
%TO.P,J1,A8,SBU1*%
%TO.N,unconnected-(J1-SBU1-PadA8)*%
X162175000Y-114985000D03*
D20*
%TO.P,J1,A9,VBUS*%
%TO.N,VBUS*%
X163325000Y-114985000D03*
%TO.P,J1,A12,GND*%
%TO.N,GND*%
X164125000Y-114985000D03*
%TO.P,J1,B1,GND*%
X164125000Y-114985000D03*
%TO.P,J1,B4,VBUS*%
%TO.N,VBUS*%
X163325000Y-114985000D03*
D21*
%TO.P,J1,B5,CC2*%
%TO.N,Net-(J1-CC2)*%
X162675000Y-114985000D03*
%TO.P,J1,B6,D+*%
%TO.N,/USB_D+*%
X161675000Y-114985000D03*
%TO.P,J1,B7,D-*%
%TO.N,/USB_D-*%
X160175000Y-114985000D03*
%TO.P,J1,B8,SBU2*%
%TO.N,unconnected-(J1-SBU2-PadB8)*%
X159175000Y-114985000D03*
D20*
%TO.P,J1,B9,VBUS*%
%TO.N,VBUS*%
X158525000Y-114985000D03*
%TO.P,J1,B12,GND*%
%TO.N,GND*%
X157725000Y-114985000D03*
D22*
%TO.P,J1,S1,SHIELD*%
X156605000Y-115560000D03*
D23*
X156605000Y-119740000D03*
D22*
X165245000Y-115560000D03*
D23*
X165245000Y-119740000D03*
%TD*%
D24*
%TO.N,VBUS*%
X160950000Y-107525000D03*
D25*
%TO.N,GND*%
X158600000Y-83100000D03*
D24*
X166225000Y-88475000D03*
X163125000Y-97100000D03*
X157050000Y-113225000D03*
X158300000Y-96300000D03*
D25*
X159790000Y-87852910D03*
D24*
X167000000Y-74700000D03*
X162350000Y-80000000D03*
X165075000Y-105000000D03*
X164125000Y-113200000D03*
X163550000Y-109800000D03*
X162316154Y-95356484D03*
X166800000Y-99900000D03*
X162875000Y-109800000D03*
X164906963Y-86894132D03*
X154800000Y-74700000D03*
D25*
X160910245Y-112675000D03*
D24*
%TO.N,+3.3V*%
X163000000Y-106000000D03*
X164425000Y-98025000D03*
X160500000Y-102900000D03*
X156825000Y-97350000D03*
D25*
X163002000Y-108100000D03*
D24*
X165387500Y-109062500D03*
X157025000Y-76025000D03*
X159750000Y-80100000D03*
%TO.N,+3.3VA*%
X161825000Y-94725000D03*
%TO.N,Net-(U1-NRST)*%
X163125000Y-82250000D03*
X164000000Y-84500000D03*
%TO.N,/OSC_IN*%
X165700270Y-93003290D03*
%TO.N,/OSC32_IN*%
X166875000Y-93975000D03*
%TO.N,/OSC32_OUT*%
X166012821Y-94008523D03*
%TO.N,VBUS*%
X158605331Y-114180331D03*
X163325000Y-114100000D03*
%TO.N,/SWCLK*%
X161725000Y-76875000D03*
X157859620Y-97465380D03*
%TO.N,/SWDIO*%
X158200000Y-77150000D03*
X159980122Y-100889752D03*
D25*
%TO.N,/OSC_OUT*%
X164956963Y-92000000D03*
D24*
%TO.N,/USB_D+*%
X161976000Y-116459620D03*
X160675000Y-116425000D03*
%TO.N,/USB_D-*%
X160075000Y-117275000D03*
X161325000Y-117250000D03*
%TD*%
D26*
%TO.N,VBUS*%
X160950000Y-108587500D02*
X160950000Y-107525000D01*
%TO.N,GND*%
X163150000Y-79100000D02*
X163150000Y-79200000D01*
X164645000Y-76195000D02*
X163150000Y-77690000D01*
X164125000Y-113582528D02*
X162932472Y-112390000D01*
D27*
X156360678Y-96147658D02*
X156906086Y-96693066D01*
X160465911Y-101488915D02*
X160795173Y-101818177D01*
D26*
X163150000Y-77690000D02*
X163150000Y-79100000D01*
D27*
X160795173Y-101818177D02*
X160795173Y-102345230D01*
X160950000Y-112600000D02*
X160950000Y-110862500D01*
X166476980Y-99900000D02*
X166800000Y-99900000D01*
X160994827Y-96539167D02*
X164368662Y-99913002D01*
D26*
X157725000Y-114985000D02*
X157725000Y-113900000D01*
D28*
X162712594Y-94960044D02*
X162712594Y-94621746D01*
D27*
X160910245Y-112675000D02*
X160910245Y-112639755D01*
X159790000Y-87852910D02*
X159790000Y-89911100D01*
D26*
X165075000Y-105765000D02*
X165075000Y-105000000D01*
D27*
X160795173Y-102345230D02*
X163652000Y-105202057D01*
D26*
X159185000Y-112440000D02*
X159500000Y-112440000D01*
D27*
X159542658Y-102034322D02*
X160088065Y-101488915D01*
X157906934Y-96693066D02*
X158300000Y-96300000D01*
D26*
X157725000Y-113900000D02*
X157050000Y-113225000D01*
X164645000Y-74675000D02*
X164645000Y-76195000D01*
X157725000Y-113900000D02*
X159185000Y-112440000D01*
X159000000Y-79100000D02*
X163150000Y-79100000D01*
D28*
X162316154Y-95356484D02*
X162712594Y-94960044D01*
X162712594Y-94621746D02*
X163308002Y-94026338D01*
D27*
X163652000Y-105202057D02*
X163652000Y-109023000D01*
D26*
X157725000Y-114985000D02*
X157725000Y-114000000D01*
X164125000Y-114985000D02*
X164125000Y-113582528D01*
X164645000Y-76195000D02*
X164650000Y-76200000D01*
D27*
X160994827Y-91115927D02*
X160994827Y-96539167D01*
X156906086Y-96693066D02*
X157906934Y-96693066D01*
X165429322Y-98852342D02*
X166476980Y-99900000D01*
D26*
X163150000Y-79200000D02*
X162350000Y-80000000D01*
D27*
X160088065Y-101488915D02*
X160465911Y-101488915D01*
D26*
X164125000Y-113200000D02*
X164125000Y-114985000D01*
D27*
X163652000Y-109023000D02*
X162875000Y-109800000D01*
X160910245Y-112639755D02*
X160950000Y-112600000D01*
D26*
X162932472Y-112390000D02*
X162800000Y-112390000D01*
D27*
X159790000Y-89911100D02*
X160994827Y-91115927D01*
D26*
%TO.N,+3.3V*%
X157025000Y-78877000D02*
X157025000Y-76025000D01*
X163000000Y-106000000D02*
X162220000Y-106000000D01*
X157025000Y-74675000D02*
X157025000Y-76025000D01*
D27*
X165237469Y-97953381D02*
X165782876Y-98498788D01*
D26*
X159750000Y-80100000D02*
X158248000Y-80100000D01*
D27*
X164425000Y-98025000D02*
X164425000Y-97975000D01*
D28*
X159987876Y-102387876D02*
X159896212Y-102387876D01*
D26*
X165387500Y-108882500D02*
X165116000Y-108611000D01*
D28*
X164425000Y-97975000D02*
X165782876Y-96617124D01*
D27*
X164425000Y-97975000D02*
X164446619Y-97953381D01*
D26*
X165116000Y-108611000D02*
X165075000Y-108611000D01*
X165387500Y-109062500D02*
X165387500Y-108882500D01*
D28*
X156825000Y-97350000D02*
X156825000Y-97319088D01*
X160500000Y-102900000D02*
X159987876Y-102387876D01*
D26*
X158248000Y-80100000D02*
X157025000Y-78877000D01*
D28*
X165782876Y-96617124D02*
X165782876Y-96501212D01*
X156825000Y-97319088D02*
X156007124Y-96501212D01*
D27*
X164446619Y-97953381D02*
X165237469Y-97953381D01*
D28*
%TO.N,+3.3VA*%
X161825000Y-94725000D02*
X161902234Y-94725000D01*
X161902234Y-94725000D02*
X162954449Y-93672785D01*
%TO.N,Net-(U1-NRST)*%
X164256963Y-84756963D02*
X164000000Y-84500000D01*
X163150000Y-81250000D02*
X159000000Y-81250000D01*
X163661555Y-94379891D02*
X164256963Y-93784483D01*
X164256963Y-93784483D02*
X164256963Y-84756963D01*
X163125000Y-81275000D02*
X163150000Y-81250000D01*
X163125000Y-82250000D02*
X163125000Y-81275000D01*
D27*
%TO.N,/OSC_IN*%
X165675000Y-93496401D02*
X165411821Y-93759580D01*
X165675000Y-93028560D02*
X165675000Y-93496401D01*
X165201003Y-94254657D02*
X164368662Y-95086998D01*
X165411821Y-93759580D02*
X165411821Y-94042423D01*
X165201003Y-94253241D02*
X165201003Y-94254657D01*
X165411821Y-94042423D02*
X165201003Y-94253241D01*
X165700270Y-93003290D02*
X165675000Y-93028560D01*
%TO.N,/OSC32_IN*%
X166875000Y-93994874D02*
X166875000Y-93975000D01*
X165075769Y-95794105D02*
X166875000Y-93994874D01*
%TO.N,/OSC32_OUT*%
X165602003Y-94419341D02*
X165602003Y-94560763D01*
X166012821Y-94008523D02*
X165602003Y-94419341D01*
X165602003Y-94560763D02*
X164722215Y-95440551D01*
D26*
%TO.N,VBUS*%
X158525000Y-114260662D02*
X158605331Y-114180331D01*
X158525000Y-114985000D02*
X158525000Y-114260662D01*
X163325000Y-114985000D02*
X163325000Y-114100000D01*
D28*
%TO.N,Net-(D1-K)*%
X165075000Y-107930000D02*
X165075000Y-106785000D01*
%TO.N,Net-(J1-CC2)*%
X162675000Y-113535000D02*
X162800000Y-113410000D01*
X162675000Y-114985000D02*
X162675000Y-113535000D01*
%TO.N,Net-(J1-CC1)*%
X159675000Y-114985000D02*
X159675000Y-113610000D01*
%TO.N,/SWCLK*%
X162105000Y-74675000D02*
X162105000Y-76495000D01*
X162105000Y-76495000D02*
X161725000Y-76875000D01*
X161281122Y-101775210D02*
X161281122Y-100886882D01*
X161893788Y-102387876D02*
X161281122Y-101775210D01*
X161281122Y-100886882D02*
X157859620Y-97465380D01*
%TO.N,/SWDIO*%
X159189105Y-101680769D02*
X159980122Y-100889752D01*
X158225000Y-77150000D02*
X159565000Y-75810000D01*
X159565000Y-75810000D02*
X159565000Y-74675000D01*
X158200000Y-77150000D02*
X158225000Y-77150000D01*
D27*
%TO.N,/PA7*%
X158481998Y-94026338D02*
X154345660Y-89890000D01*
X154345660Y-89890000D02*
X153275000Y-89890000D01*
%TO.N,/PB0*%
X156178554Y-92430000D02*
X158128445Y-94379891D01*
X153275000Y-92430000D02*
X156178554Y-92430000D01*
%TO.N,/PB2*%
X157421338Y-95086998D02*
X156484340Y-94150000D01*
X154425000Y-94625000D02*
X154425000Y-95447760D01*
X153297760Y-96575000D02*
X153275000Y-96575000D01*
X154900000Y-94150000D02*
X154425000Y-94625000D01*
X156484340Y-94150000D02*
X154900000Y-94150000D01*
X153275000Y-96575000D02*
X153275000Y-97510000D01*
X154425000Y-95447760D02*
X153297760Y-96575000D01*
%TO.N,/PA3*%
X153275000Y-79730000D02*
X158900000Y-85355000D01*
X158900000Y-91615912D02*
X159896212Y-92612124D01*
X158900000Y-85355000D02*
X158900000Y-91615912D01*
%TO.N,/PB11*%
X156714231Y-95794105D02*
X156168823Y-95248697D01*
X154450000Y-101415000D02*
X153275000Y-102590000D01*
X154827000Y-97820660D02*
X154827000Y-98152860D01*
X154827000Y-97199340D02*
X154827000Y-97820660D01*
X154450000Y-99442100D02*
X154450000Y-101415000D01*
X154827000Y-96867140D02*
X154827000Y-97199340D01*
X154827000Y-99065100D02*
X154592100Y-99300000D01*
X154827000Y-96200000D02*
X154827000Y-96867140D01*
X154827000Y-98732900D02*
X154827000Y-99065100D01*
X154827000Y-98152860D02*
X154827000Y-98732900D01*
X154592100Y-99300000D02*
X154450000Y-99442100D01*
X155778303Y-95248697D02*
X154827000Y-96200000D01*
X156168823Y-95248697D02*
X155778303Y-95248697D01*
%TO.N,/PB1*%
X153275000Y-94970000D02*
X155195000Y-93050000D01*
X155195000Y-93050000D02*
X156091446Y-93050000D01*
D28*
X153275000Y-94970000D02*
X153275000Y-94375000D01*
D27*
X156091446Y-93050000D02*
X157774891Y-94733445D01*
%TO.N,/PB10*%
X153275000Y-100050000D02*
X154426000Y-98899000D01*
X154426000Y-96013860D02*
X154591100Y-95848760D01*
X154826000Y-95099000D02*
X155374000Y-94551000D01*
X154426000Y-97986760D02*
X154426000Y-97033240D01*
X154426000Y-98899000D02*
X154426000Y-97986760D01*
X154826000Y-95613860D02*
X154826000Y-95281660D01*
X155374000Y-94551000D02*
X156178234Y-94551000D01*
X154591100Y-95848760D02*
X154826000Y-95613860D01*
X154426000Y-97033240D02*
X154426000Y-96013860D01*
X154826000Y-95281660D02*
X154826000Y-95099000D01*
X156178234Y-94551000D02*
X157067785Y-95440551D01*
%TO.N,/PA10*%
X158128445Y-100620109D02*
X157304000Y-101444554D01*
X157304000Y-101444554D02*
X157304000Y-108449400D01*
X155677000Y-110076400D02*
X155677000Y-117968000D01*
X155677000Y-117968000D02*
X153275000Y-120370000D01*
X157304000Y-108449400D02*
X155677000Y-110076400D01*
%TO.N,/PB15*%
X156101000Y-100526234D02*
X157067785Y-99559449D01*
X153275000Y-112750000D02*
X154425000Y-111600000D01*
X154425000Y-111600000D02*
X154425000Y-109627100D01*
X154425000Y-109627100D02*
X156101000Y-107951100D01*
X156101000Y-107951100D02*
X156101000Y-100526234D01*
%TO.N,/PA6*%
X158835551Y-93672785D02*
X156550000Y-91387234D01*
X156550000Y-90625000D02*
X153275000Y-87350000D01*
X156550000Y-91387234D02*
X156550000Y-90625000D01*
%TO.N,/PA9*%
X156903000Y-101138446D02*
X157774891Y-100266555D01*
X155276000Y-113856100D02*
X155276000Y-113523900D01*
X155276000Y-109910300D02*
X156668100Y-108518200D01*
X156903000Y-108283300D02*
X156903000Y-107951100D01*
X155276000Y-113523900D02*
X155276000Y-109910300D01*
X156668100Y-108518200D02*
X156850000Y-108336300D01*
X155276000Y-115829000D02*
X155276000Y-113856100D01*
X156903000Y-107951100D02*
X156903000Y-101138446D01*
X156850000Y-108336300D02*
X156903000Y-108283300D01*
X153275000Y-117830000D02*
X155276000Y-115829000D01*
%TO.N,/PA4*%
X158499000Y-91922020D02*
X159542658Y-92965678D01*
X158499000Y-87494000D02*
X158499000Y-91922020D01*
X153275000Y-82270000D02*
X158499000Y-87494000D01*
%TO.N,/PB14*%
X155700000Y-100220126D02*
X156714231Y-99205895D01*
X155700000Y-107785000D02*
X155700000Y-100220126D01*
X153275000Y-110210000D02*
X155700000Y-107785000D01*
%TO.N,/PB13*%
X156360678Y-98852342D02*
X155275000Y-99938020D01*
X155275000Y-105670000D02*
X153275000Y-107670000D01*
X155275000Y-99938020D02*
X155275000Y-105670000D01*
%TO.N,/PB12*%
X156007124Y-98498788D02*
X154851000Y-99654912D01*
X154851000Y-99654912D02*
X154851000Y-103554000D01*
X154851000Y-103554000D02*
X153275000Y-105130000D01*
%TO.N,/PA5*%
X158098000Y-89633000D02*
X153275000Y-84810000D01*
X159189105Y-93319231D02*
X158098000Y-92228126D01*
X158098000Y-92228126D02*
X158098000Y-89633000D01*
%TO.N,/PA8*%
X156502000Y-100832340D02*
X157421338Y-99913002D01*
X156502000Y-108117200D02*
X156502000Y-100832340D01*
X154875000Y-109744200D02*
X156502000Y-108117200D01*
X153275000Y-115290000D02*
X154875000Y-113690000D01*
X154875000Y-113690000D02*
X154875000Y-109744200D01*
%TO.N,/PA2*%
X161799000Y-92517336D02*
X161799000Y-83151000D01*
X163375000Y-82850000D02*
X166495000Y-79730000D01*
X161799000Y-83151000D02*
X162100000Y-82850000D01*
X166495000Y-79730000D02*
X168515000Y-79730000D01*
X161893788Y-92612124D02*
X161799000Y-92517336D01*
X162100000Y-82850000D02*
X163375000Y-82850000D01*
%TO.N,/PB6*%
X166963000Y-103921554D02*
X163661555Y-100620109D01*
X166963000Y-108658000D02*
X166963000Y-103921554D01*
X168515000Y-110210000D02*
X166963000Y-108658000D01*
%TO.N,/PB9*%
X168515000Y-102590000D02*
X165130895Y-99205895D01*
X165130895Y-99205895D02*
X165075769Y-99205895D01*
%TO.N,/PC13*%
X166180980Y-95396000D02*
X166401000Y-95396000D01*
X165429322Y-96147658D02*
X166180980Y-95396000D01*
X166401000Y-95396000D02*
X168515000Y-97510000D01*
%TO.N,/PB8*%
X165336918Y-100174152D02*
X164722215Y-99559449D01*
X167300000Y-101942100D02*
X165532052Y-100174152D01*
X167300000Y-103050000D02*
X167300000Y-101942100D01*
X168515000Y-104265000D02*
X167300000Y-103050000D01*
X168515000Y-105130000D02*
X168515000Y-104265000D01*
X165532052Y-100174152D02*
X165336918Y-100174152D01*
%TO.N,/PA15*%
X166963000Y-116845100D02*
X166963000Y-116512900D01*
X164850000Y-112427000D02*
X164850000Y-109942043D01*
X164850000Y-109942043D02*
X164287900Y-109379943D01*
X164875000Y-112784200D02*
X164850000Y-112759200D01*
X166963000Y-114872200D02*
X165084900Y-112994100D01*
X168515000Y-120370000D02*
X166963000Y-118818000D01*
X164287900Y-109379943D02*
X164053000Y-109145043D01*
X164053000Y-109145043D02*
X164053000Y-108812843D01*
X164053000Y-103839980D02*
X162247342Y-102034322D01*
X164850000Y-112759200D02*
X164850000Y-112427000D01*
X164053000Y-108812843D02*
X164053000Y-103839980D01*
X165084900Y-112994100D02*
X164875000Y-112784200D01*
X166963000Y-118818000D02*
X166963000Y-116845100D01*
X166963000Y-116512900D02*
X166963000Y-114872200D01*
%TO.N,/PB3*%
X167364000Y-116679000D02*
X167364000Y-114706100D01*
X167364000Y-114706100D02*
X165251000Y-112593100D01*
X164454000Y-108978943D02*
X164454000Y-103533874D01*
X168515000Y-117830000D02*
X167364000Y-116679000D01*
X165251000Y-112593100D02*
X165251000Y-109775943D01*
X164454000Y-103533874D02*
X162600895Y-101680769D01*
X165251000Y-109775943D02*
X164454000Y-108978943D01*
%TO.N,/PA0*%
X163526057Y-83849000D02*
X163174000Y-84201057D01*
X163174000Y-84698943D02*
X163402000Y-84926943D01*
X163402000Y-84926943D02*
X163402000Y-92518126D01*
X163402000Y-92518126D02*
X162600895Y-93319231D01*
X168515000Y-84810000D02*
X167554000Y-83849000D01*
X163174000Y-84201057D02*
X163174000Y-84698943D01*
X167554000Y-83849000D02*
X163526057Y-83849000D01*
%TO.N,/PB5*%
X166562000Y-104227660D02*
X163308002Y-100973662D01*
X168515000Y-112750000D02*
X166562000Y-110797000D01*
X166562000Y-110797000D02*
X166562000Y-104227660D01*
%TO.N,/PA1*%
X168515000Y-82270000D02*
X167642500Y-83142500D01*
X163001000Y-92212020D02*
X162247342Y-92965678D01*
X162773000Y-86448057D02*
X163001000Y-86676057D01*
X162773000Y-84034957D02*
X162773000Y-86448057D01*
X167642500Y-83142500D02*
X167535000Y-83250000D01*
X167642500Y-83142500D02*
X163665457Y-83142500D01*
X163665457Y-83142500D02*
X162773000Y-84034957D01*
X163001000Y-86676057D02*
X163001000Y-92212020D01*
%TO.N,/PB7*%
X164015109Y-100332209D02*
X164015109Y-100266555D01*
X167364000Y-103681100D02*
X164015109Y-100332209D01*
X168515000Y-107670000D02*
X167364000Y-106519000D01*
X167364000Y-106519000D02*
X167364000Y-103681100D01*
%TO.N,/PB4*%
X166161000Y-104533766D02*
X162954449Y-101327215D01*
X168515000Y-115290000D02*
X166161000Y-112936000D01*
X166161000Y-112936000D02*
X166161000Y-104533766D01*
D28*
%TO.N,/OSC_OUT*%
X164906963Y-92050000D02*
X164956963Y-92000000D01*
X164906963Y-93841591D02*
X164015109Y-94733445D01*
X164906963Y-93841591D02*
X164906963Y-92050000D01*
D27*
%TO.N,/USB_D+*%
X161900000Y-107593749D02*
X161200000Y-106893749D01*
X161900000Y-110862500D02*
X161900000Y-108587500D01*
X158290144Y-101941918D02*
X158870199Y-101361863D01*
X161900000Y-111400000D02*
X161800000Y-111500000D01*
X161900000Y-108587500D02*
X161900000Y-107593749D01*
X161200000Y-105160324D02*
X158290144Y-102250468D01*
X161800000Y-113975000D02*
X161675000Y-114100000D01*
X161200000Y-106893749D02*
X161200000Y-105160324D01*
D28*
X161976000Y-115965534D02*
X161675000Y-115664534D01*
D27*
X161800000Y-111500000D02*
X161800000Y-113975000D01*
D28*
X161976000Y-116459620D02*
X161976000Y-115965534D01*
X160675000Y-114985000D02*
X160675000Y-116425000D01*
D27*
X158290144Y-102250468D02*
X158290144Y-101941918D01*
X161900000Y-110862500D02*
X161900000Y-111400000D01*
X161675000Y-114100000D02*
X161675000Y-114985000D01*
X158870199Y-101361863D02*
X158835551Y-101327215D01*
D28*
X161675000Y-115664534D02*
X161675000Y-114985000D01*
D27*
%TO.N,/USB_D-*%
X160175000Y-111575000D02*
X160175000Y-114985000D01*
D28*
X160075000Y-117275000D02*
X160024000Y-117224000D01*
X161326000Y-116151000D02*
X161326000Y-117249000D01*
X160024000Y-117224000D02*
X160024000Y-116076000D01*
X161326000Y-117249000D02*
X161325000Y-117250000D01*
X161175000Y-116000000D02*
X161326000Y-116151000D01*
D27*
X160000000Y-110862500D02*
X160000000Y-108587500D01*
X160000000Y-107593749D02*
X160600000Y-106993749D01*
X160000000Y-111400000D02*
X160175000Y-111575000D01*
X157840164Y-102436856D02*
X157840164Y-101684790D01*
X160000000Y-108587500D02*
X160000000Y-107593749D01*
X160000000Y-110862500D02*
X160000000Y-111400000D01*
X158481998Y-101042956D02*
X158481998Y-100973662D01*
X157840164Y-101684790D02*
X158481998Y-101042956D01*
X160600000Y-105196692D02*
X157840164Y-102436856D01*
D28*
X161175000Y-114985000D02*
X161175000Y-116000000D01*
X160024000Y-116076000D02*
X160175000Y-115925000D01*
D27*
X160600000Y-106993749D02*
X160600000Y-105196692D01*
D28*
X160175000Y-115925000D02*
X160175000Y-114985000D01*
%TD*%
M02*
