M48
; DRILL file {KiCad 9.0.0} date 2025-08-25T15:59:27-0230
; FORMAT={-:-/ absolute / metric / decimal}
; #@! TF.CreationDate,2025-08-25T15:59:27-02:30
; #@! TF.GenerationSoftware,Kicad,Pcbnew,9.0.0
; #@! TF.FileFunction,MixedPlating,1,4
FMAT,2
METRIC
; #@! TA.AperFunction,Plated,PTH,ViaDrill
T1C0.300
; #@! TA.AperFunction,Plated,PTH,ComponentDrill
T2C0.600
; #@! TA.AperFunction,Plated,PTH,ComponentDrill
T3C1.000
; #@! TA.AperFunction,NonPlated,NPTH,ComponentDrill
T4C0.650
%
G90
G05
T1
X154.8Y-74.7
X156.825Y-97.35
X157.025Y-76.025
X157.05Y-113.225
X157.86Y-97.465
X158.2Y-77.15
X158.3Y-96.3
X158.6Y-83.1
X158.605Y-114.18
X159.75Y-80.1
X159.79Y-87.853
X159.98Y-100.89
X160.075Y-117.275
X160.5Y-102.9
X160.675Y-116.425
X160.91Y-112.675
X160.95Y-107.525
X161.325Y-117.25
X161.725Y-76.875
X161.825Y-94.725
X161.976Y-116.46
X162.316Y-95.356
X162.35Y-80.0
X162.875Y-109.8
X163.0Y-106.0
X163.002Y-108.1
X163.125Y-82.25
X163.125Y-97.1
X163.325Y-114.1
X163.55Y-109.8
X164.0Y-84.5
X164.125Y-113.2
X164.425Y-98.025
X164.907Y-86.894
X164.957Y-92.0
X165.075Y-105.0
X165.387Y-109.062
X165.7Y-93.003
X166.013Y-94.009
X166.225Y-88.475
X166.8Y-99.9
X166.875Y-93.975
X167.0Y-74.7
T3
X153.275Y-74.65
X153.275Y-77.19
X153.275Y-79.73
X153.275Y-82.27
X153.275Y-84.81
X153.275Y-87.35
X153.275Y-89.89
X153.275Y-92.43
X153.275Y-94.97
X153.275Y-97.51
X153.275Y-100.05
X153.275Y-102.59
X153.275Y-105.13
X153.275Y-107.67
X153.275Y-110.21
X153.275Y-112.75
X153.275Y-115.29
X153.275Y-117.83
X153.275Y-120.37
X157.025Y-74.675
X159.565Y-74.675
X162.105Y-74.675
X164.645Y-74.675
X168.515Y-74.65
X168.515Y-77.19
X168.515Y-79.73
X168.515Y-82.27
X168.515Y-84.81
X168.515Y-87.35
X168.515Y-89.89
X168.515Y-92.43
X168.515Y-94.97
X168.515Y-97.51
X168.515Y-100.05
X168.515Y-102.59
X168.515Y-105.13
X168.515Y-107.67
X168.515Y-110.21
X168.515Y-112.75
X168.515Y-115.29
X168.515Y-117.83
X168.515Y-120.37
T4
X158.035Y-116.06
X163.815Y-116.06
T2
G00X156.605Y-115.01
M15
G01X156.605Y-116.11
M16
G05
G00X156.605Y-119.34
M15
G01X156.605Y-120.14
M16
G05
G00X165.245Y-115.01
M15
G01X165.245Y-116.11
M16
G05
G00X165.245Y-119.34
M15
G01X165.245Y-120.14
M16
G05
M30
