%TF.GenerationSoftware,KiCad,Pcbnew,9.0.0*%
%TF.CreationDate,2025-08-25T15:59:45-02:30*%
%TF.ProjectId,STM32_PCB_Test_Project,53544d33-325f-4504-9342-5f546573745f,rev?*%
%TF.SameCoordinates,Original*%
%TF.FileFunction,Copper,L3,Inr*%
%TF.FilePolarity,Positive*%
%FSLAX46Y46*%
G04 Gerber Fmt 4.6, Leading zero omitted, Abs format (unit mm)*
G04 Created by KiCad (PCBNEW 9.0.0) date 2025-08-25 15:59:45*
%MOMM*%
%LPD*%
G01*
G04 APERTURE LIST*
%TA.AperFunction,ComponentPad*%
%ADD10R,1.700000X1.700000*%
%TD*%
%TA.AperFunction,ComponentPad*%
%ADD11O,1.700000X1.700000*%
%TD*%
%TA.AperFunction,HeatsinkPad*%
%ADD12O,1.000000X2.100000*%
%TD*%
%TA.AperFunction,HeatsinkPad*%
%ADD13O,1.000000X1.800000*%
%TD*%
%TA.AperFunction,ViaPad*%
%ADD14C,0.600000*%
%TD*%
%TA.AperFunction,ViaPad*%
%ADD15C,0.700000*%
%TD*%
G04 APERTURE END LIST*
D10*
%TO.N,+3.3V*%
%TO.C,J2*%
X157025000Y-74675000D03*
D11*
%TO.N,/SWDIO*%
X159565000Y-74675000D03*
%TO.N,/SWCLK*%
X162105000Y-74675000D03*
%TO.N,GND*%
X164645000Y-74675000D03*
%TD*%
D10*
%TO.N,GND*%
%TO.C,J4*%
X168515000Y-74650000D03*
D11*
%TO.N,VBUS*%
X168515000Y-77190000D03*
%TO.N,/PA2*%
X168515000Y-79730000D03*
%TO.N,/PA1*%
X168515000Y-82270000D03*
%TO.N,/PA0*%
X168515000Y-84810000D03*
%TO.N,+3.3V*%
X168515000Y-87350000D03*
X168515000Y-89890000D03*
%TO.N,GND*%
X168515000Y-92430000D03*
X168515000Y-94970000D03*
%TO.N,/PC13*%
X168515000Y-97510000D03*
%TO.N,+3.3V*%
X168515000Y-100050000D03*
%TO.N,/PB9*%
X168515000Y-102590000D03*
%TO.N,/PB8*%
X168515000Y-105130000D03*
%TO.N,/PB7*%
X168515000Y-107670000D03*
%TO.N,/PB6*%
X168515000Y-110210000D03*
%TO.N,/PB5*%
X168515000Y-112750000D03*
%TO.N,/PB4*%
X168515000Y-115290000D03*
%TO.N,/PB3*%
X168515000Y-117830000D03*
%TO.N,/PA15*%
X168515000Y-120370000D03*
%TD*%
D10*
%TO.N,GND*%
%TO.C,J3*%
X153275000Y-74650000D03*
D11*
%TO.N,VBUS*%
X153275000Y-77190000D03*
%TO.N,/PA3*%
X153275000Y-79730000D03*
%TO.N,/PA4*%
X153275000Y-82270000D03*
%TO.N,/PA5*%
X153275000Y-84810000D03*
%TO.N,/PA6*%
X153275000Y-87350000D03*
%TO.N,/PA7*%
X153275000Y-89890000D03*
%TO.N,/PB0*%
X153275000Y-92430000D03*
%TO.N,/PB1*%
X153275000Y-94970000D03*
%TO.N,/PB2*%
X153275000Y-97510000D03*
%TO.N,/PB10*%
X153275000Y-100050000D03*
%TO.N,/PB11*%
X153275000Y-102590000D03*
%TO.N,/PB12*%
X153275000Y-105130000D03*
%TO.N,/PB13*%
X153275000Y-107670000D03*
%TO.N,/PB14*%
X153275000Y-110210000D03*
%TO.N,/PB15*%
X153275000Y-112750000D03*
%TO.N,/PA8*%
X153275000Y-115290000D03*
%TO.N,/PA9*%
X153275000Y-117830000D03*
%TO.N,/PA10*%
X153275000Y-120370000D03*
%TD*%
D12*
%TO.N,GND*%
%TO.C,J1*%
X156605000Y-115560000D03*
D13*
X156605000Y-119740000D03*
D12*
X165245000Y-115560000D03*
D13*
X165245000Y-119740000D03*
%TD*%
D14*
%TO.N,VBUS*%
X160950000Y-107525000D03*
D15*
%TO.N,GND*%
X158600000Y-83100000D03*
D14*
X166225000Y-88475000D03*
X163125000Y-97100000D03*
X157050000Y-113225000D03*
X158300000Y-96300000D03*
D15*
X159790000Y-87852910D03*
D14*
X167000000Y-74700000D03*
X162350000Y-80000000D03*
X165075000Y-105000000D03*
X164125000Y-113200000D03*
X163550000Y-109800000D03*
X162316154Y-95356484D03*
X166800000Y-99900000D03*
X162875000Y-109800000D03*
X164906963Y-86894132D03*
X154800000Y-74700000D03*
D15*
X160910245Y-112675000D03*
D14*
%TO.N,+3.3V*%
X163000000Y-106000000D03*
X164425000Y-98025000D03*
X160500000Y-102900000D03*
X156825000Y-97350000D03*
D15*
X163002000Y-108100000D03*
D14*
X165387500Y-109062500D03*
X157025000Y-76025000D03*
X159750000Y-80100000D03*
%TO.N,+3.3VA*%
X161825000Y-94725000D03*
%TO.N,Net-(U1-NRST)*%
X163125000Y-82250000D03*
X164000000Y-84500000D03*
%TO.N,/OSC_IN*%
X165700270Y-93003290D03*
%TO.N,/OSC32_IN*%
X166875000Y-93975000D03*
%TO.N,/OSC32_OUT*%
X166012821Y-94008523D03*
%TO.N,VBUS*%
X158605331Y-114180331D03*
X163325000Y-114100000D03*
%TO.N,/SWCLK*%
X161725000Y-76875000D03*
X157859620Y-97465380D03*
%TO.N,/SWDIO*%
X158200000Y-77150000D03*
X159980122Y-100889752D03*
D15*
%TO.N,/OSC_OUT*%
X164956963Y-92000000D03*
D14*
%TO.N,/USB_D+*%
X161976000Y-116459620D03*
X160675000Y-116425000D03*
%TO.N,/USB_D-*%
X160075000Y-117275000D03*
X161325000Y-117250000D03*
%TD*%
%TA.AperFunction,Conductor*%
%TO.N,GND*%
G36*
X168765000Y-94536988D02*
G01*
X168707993Y-94504075D01*
X168580826Y-94470000D01*
X168449174Y-94470000D01*
X168322007Y-94504075D01*
X168265000Y-94536988D01*
X168265000Y-92863012D01*
X168322007Y-92895925D01*
X168449174Y-92930000D01*
X168580826Y-92930000D01*
X168707993Y-92895925D01*
X168765000Y-92863012D01*
X168765000Y-94536988D01*
G37*
%TD.AperFunction*%
%TA.AperFunction,Conductor*%
G36*
X170457539Y-72670185D02*
G01*
X170503294Y-72722989D01*
X170514500Y-72774500D01*
X170514500Y-122225500D01*
X170494815Y-122292539D01*
X170442011Y-122338294D01*
X170390500Y-122349500D01*
X151399500Y-122349500D01*
X151332461Y-122329815D01*
X151286706Y-122277011D01*
X151275500Y-122225500D01*
X151275500Y-73752155D01*
X151925000Y-73752155D01*
X151925000Y-74400000D01*
X152841988Y-74400000D01*
X152809075Y-74457007D01*
X152775000Y-74584174D01*
X152775000Y-74715826D01*
X152809075Y-74842993D01*
X152841988Y-74900000D01*
X151925000Y-74900000D01*
X151925000Y-75547844D01*
X151931401Y-75607372D01*
X151931403Y-75607379D01*
X151981645Y-75742086D01*
X151981649Y-75742093D01*
X152067809Y-75857187D01*
X152067812Y-75857190D01*
X152182906Y-75943350D01*
X152182913Y-75943354D01*
X152317620Y-75993596D01*
X152317627Y-75993598D01*
X152377155Y-75999999D01*
X152377172Y-76000000D01*
X152573913Y-76000000D01*
X152640952Y-76019685D01*
X152686707Y-76072489D01*
X152696651Y-76141647D01*
X152667626Y-76205203D01*
X152646798Y-76224318D01*
X152525504Y-76312441D01*
X152397445Y-76440500D01*
X152397441Y-76440505D01*
X152291006Y-76587002D01*
X152208788Y-76748360D01*
X152208787Y-76748363D01*
X152152829Y-76920589D01*
X152124500Y-77099448D01*
X152124500Y-77280551D01*
X152152829Y-77459410D01*
X152208787Y-77631636D01*
X152208788Y-77631639D01*
X152291006Y-77792997D01*
X152397441Y-77939494D01*
X152397445Y-77939499D01*
X152525500Y-78067554D01*
X152525505Y-78067558D01*
X152653287Y-78160396D01*
X152672006Y-78173996D01*
X152777484Y-78227740D01*
X152833360Y-78256211D01*
X152833363Y-78256212D01*
X152919476Y-78284191D01*
X153005591Y-78312171D01*
X153078639Y-78323740D01*
X153165678Y-78337527D01*
X153228813Y-78367456D01*
X153265744Y-78426768D01*
X153264746Y-78496631D01*
X153226136Y-78554863D01*
X153165678Y-78582473D01*
X153005589Y-78607829D01*
X152833363Y-78663787D01*
X152833360Y-78663788D01*
X152672002Y-78746006D01*
X152525505Y-78852441D01*
X152525500Y-78852445D01*
X152397445Y-78980500D01*
X152397441Y-78980505D01*
X152291006Y-79127002D01*
X152208788Y-79288360D01*
X152208787Y-79288363D01*
X152152829Y-79460589D01*
X152124500Y-79639448D01*
X152124500Y-79820551D01*
X152152829Y-79999410D01*
X152208787Y-80171636D01*
X152208788Y-80171639D01*
X152264664Y-80281300D01*
X152290387Y-80331784D01*
X152291006Y-80332997D01*
X152397441Y-80479494D01*
X152397445Y-80479499D01*
X152525500Y-80607554D01*
X152525505Y-80607558D01*
X152597103Y-80659576D01*
X152672006Y-80713996D01*
X152777484Y-80767740D01*
X152833360Y-80796211D01*
X152833363Y-80796212D01*
X152919476Y-80824191D01*
X153005591Y-80852171D01*
X153078639Y-80863740D01*
X153165678Y-80877527D01*
X153228813Y-80907456D01*
X153265744Y-80966768D01*
X153264746Y-81036631D01*
X153226136Y-81094863D01*
X153165678Y-81122473D01*
X153005589Y-81147829D01*
X152833363Y-81203787D01*
X152833360Y-81203788D01*
X152672002Y-81286006D01*
X152525505Y-81392441D01*
X152525500Y-81392445D01*
X152397445Y-81520500D01*
X152397441Y-81520505D01*
X152291006Y-81667002D01*
X152208788Y-81828360D01*
X152208787Y-81828363D01*
X152152829Y-82000589D01*
X152124500Y-82179448D01*
X152124500Y-82360551D01*
X152152829Y-82539410D01*
X152208787Y-82711636D01*
X152208788Y-82711639D01*
X152291006Y-82872997D01*
X152397441Y-83019494D01*
X152397445Y-83019499D01*
X152525500Y-83147554D01*
X152525505Y-83147558D01*
X152653287Y-83240396D01*
X152672006Y-83253996D01*
X152777484Y-83307740D01*
X152833360Y-83336211D01*
X152833363Y-83336212D01*
X152919476Y-83364191D01*
X153005591Y-83392171D01*
X153078639Y-83403740D01*
X153165678Y-83417527D01*
X153228813Y-83447456D01*
X153265744Y-83506768D01*
X153264746Y-83576631D01*
X153226136Y-83634863D01*
X153165678Y-83662473D01*
X153005589Y-83687829D01*
X152833363Y-83743787D01*
X152833360Y-83743788D01*
X152672002Y-83826006D01*
X152525505Y-83932441D01*
X152525500Y-83932445D01*
X152397445Y-84060500D01*
X152397441Y-84060505D01*
X152291006Y-84207002D01*
X152208788Y-84368360D01*
X152208787Y-84368363D01*
X152152829Y-84540589D01*
X152124500Y-84719448D01*
X152124500Y-84900551D01*
X152152829Y-85079410D01*
X152208787Y-85251636D01*
X152208788Y-85251639D01*
X152291006Y-85412997D01*
X152397441Y-85559494D01*
X152397445Y-85559499D01*
X152525500Y-85687554D01*
X152525505Y-85687558D01*
X152653287Y-85780396D01*
X152672006Y-85793996D01*
X152777484Y-85847740D01*
X152833360Y-85876211D01*
X152833363Y-85876212D01*
X152919476Y-85904191D01*
X153005591Y-85932171D01*
X153078639Y-85943740D01*
X153165678Y-85957527D01*
X153228813Y-85987456D01*
X153265744Y-86046768D01*
X153264746Y-86116631D01*
X153226136Y-86174863D01*
X153165678Y-86202473D01*
X153005589Y-86227829D01*
X152833363Y-86283787D01*
X152833360Y-86283788D01*
X152672002Y-86366006D01*
X152525505Y-86472441D01*
X152525500Y-86472445D01*
X152397445Y-86600500D01*
X152397441Y-86600505D01*
X152291006Y-86747002D01*
X152208788Y-86908360D01*
X152208787Y-86908363D01*
X152152829Y-87080589D01*
X152124500Y-87259448D01*
X152124500Y-87440551D01*
X152152829Y-87619410D01*
X152208787Y-87791636D01*
X152208788Y-87791639D01*
X152291006Y-87952997D01*
X152397441Y-88099494D01*
X152397445Y-88099499D01*
X152525500Y-88227554D01*
X152525505Y-88227558D01*
X152653287Y-88320396D01*
X152672006Y-88333996D01*
X152777484Y-88387740D01*
X152833360Y-88416211D01*
X152833363Y-88416212D01*
X152919476Y-88444191D01*
X153005591Y-88472171D01*
X153078639Y-88483740D01*
X153165678Y-88497527D01*
X153228813Y-88527456D01*
X153265744Y-88586768D01*
X153264746Y-88656631D01*
X153226136Y-88714863D01*
X153165678Y-88742473D01*
X153005589Y-88767829D01*
X152833363Y-88823787D01*
X152833360Y-88823788D01*
X152672002Y-88906006D01*
X152525505Y-89012441D01*
X152525500Y-89012445D01*
X152397445Y-89140500D01*
X152397441Y-89140505D01*
X152291006Y-89287002D01*
X152208788Y-89448360D01*
X152208787Y-89448363D01*
X152152829Y-89620589D01*
X152124500Y-89799448D01*
X152124500Y-89980551D01*
X152152829Y-90159410D01*
X152208787Y-90331636D01*
X152208788Y-90331639D01*
X152291006Y-90492997D01*
X152397441Y-90639494D01*
X152397445Y-90639499D01*
X152525500Y-90767554D01*
X152525505Y-90767558D01*
X152653287Y-90860396D01*
X152672006Y-90873996D01*
X152777484Y-90927740D01*
X152833360Y-90956211D01*
X152833363Y-90956212D01*
X152919476Y-90984191D01*
X153005591Y-91012171D01*
X153078639Y-91023740D01*
X153165678Y-91037527D01*
X153228813Y-91067456D01*
X153265744Y-91126768D01*
X153264746Y-91196631D01*
X153226136Y-91254863D01*
X153165678Y-91282473D01*
X153005589Y-91307829D01*
X152833363Y-91363787D01*
X152833360Y-91363788D01*
X152672002Y-91446006D01*
X152525505Y-91552441D01*
X152525500Y-91552445D01*
X152397445Y-91680500D01*
X152397441Y-91680505D01*
X152291006Y-91827002D01*
X152208788Y-91988360D01*
X152208787Y-91988363D01*
X152152829Y-92160589D01*
X152124500Y-92339448D01*
X152124500Y-92520551D01*
X152152829Y-92699410D01*
X152208787Y-92871636D01*
X152208788Y-92871639D01*
X152291006Y-93032997D01*
X152397441Y-93179494D01*
X152397445Y-93179499D01*
X152525500Y-93307554D01*
X152525505Y-93307558D01*
X152614202Y-93371999D01*
X152672006Y-93413996D01*
X152740599Y-93448946D01*
X152833360Y-93496211D01*
X152833363Y-93496212D01*
X152914610Y-93522610D01*
X153005591Y-93552171D01*
X153073123Y-93562867D01*
X153165678Y-93577527D01*
X153228813Y-93607456D01*
X153265744Y-93666768D01*
X153264746Y-93736631D01*
X153226136Y-93794863D01*
X153165678Y-93822473D01*
X153005589Y-93847829D01*
X152833363Y-93903787D01*
X152833360Y-93903788D01*
X152672002Y-93986006D01*
X152525505Y-94092441D01*
X152525500Y-94092445D01*
X152397445Y-94220500D01*
X152397441Y-94220505D01*
X152291006Y-94367002D01*
X152208788Y-94528360D01*
X152208787Y-94528363D01*
X152152829Y-94700589D01*
X152124500Y-94879448D01*
X152124500Y-95060551D01*
X152152829Y-95239410D01*
X152208787Y-95411636D01*
X152208788Y-95411639D01*
X152291006Y-95572997D01*
X152397441Y-95719494D01*
X152397445Y-95719499D01*
X152525500Y-95847554D01*
X152525505Y-95847558D01*
X152653287Y-95940396D01*
X152672006Y-95953996D01*
X152761750Y-95999723D01*
X152833360Y-96036211D01*
X152833363Y-96036212D01*
X152919476Y-96064191D01*
X153005591Y-96092171D01*
X153078639Y-96103740D01*
X153165678Y-96117527D01*
X153228813Y-96147456D01*
X153265744Y-96206768D01*
X153264746Y-96276631D01*
X153226136Y-96334863D01*
X153165678Y-96362473D01*
X153005589Y-96387829D01*
X152833363Y-96443787D01*
X152833360Y-96443788D01*
X152672002Y-96526006D01*
X152525505Y-96632441D01*
X152525500Y-96632445D01*
X152397445Y-96760500D01*
X152397441Y-96760505D01*
X152291006Y-96907002D01*
X152208788Y-97068360D01*
X152208787Y-97068363D01*
X152152829Y-97240589D01*
X152124500Y-97419448D01*
X152124500Y-97600551D01*
X152152829Y-97779410D01*
X152208787Y-97951636D01*
X152208788Y-97951639D01*
X152264664Y-98061300D01*
X152286450Y-98104057D01*
X152291006Y-98112997D01*
X152397441Y-98259494D01*
X152397445Y-98259499D01*
X152525500Y-98387554D01*
X152525505Y-98387558D01*
X152653287Y-98480396D01*
X152672006Y-98493996D01*
X152777484Y-98547740D01*
X152833360Y-98576211D01*
X152833363Y-98576212D01*
X152859109Y-98584577D01*
X153005591Y-98632171D01*
X153078639Y-98643740D01*
X153165678Y-98657527D01*
X153228813Y-98687456D01*
X153265744Y-98746768D01*
X153264746Y-98816631D01*
X153226136Y-98874863D01*
X153165678Y-98902473D01*
X153005589Y-98927829D01*
X152833363Y-98983787D01*
X152833360Y-98983788D01*
X152672002Y-99066006D01*
X152525505Y-99172441D01*
X152525500Y-99172445D01*
X152397445Y-99300500D01*
X152397441Y-99300505D01*
X152291006Y-99447002D01*
X152208788Y-99608360D01*
X152208787Y-99608363D01*
X152152829Y-99780589D01*
X152124500Y-99959448D01*
X152124500Y-100140551D01*
X152152829Y-100319410D01*
X152208787Y-100491636D01*
X152208788Y-100491639D01*
X152291006Y-100652997D01*
X152397441Y-100799494D01*
X152397445Y-100799499D01*
X152525500Y-100927554D01*
X152525505Y-100927558D01*
X152582283Y-100968809D01*
X152672006Y-101033996D01*
X152777484Y-101087740D01*
X152833360Y-101116211D01*
X152833363Y-101116212D01*
X152849768Y-101121542D01*
X153005591Y-101172171D01*
X153078639Y-101183740D01*
X153165678Y-101197527D01*
X153228813Y-101227456D01*
X153265744Y-101286768D01*
X153264746Y-101356631D01*
X153226136Y-101414863D01*
X153165678Y-101442473D01*
X153005589Y-101467829D01*
X152833363Y-101523787D01*
X152833360Y-101523788D01*
X152672002Y-101606006D01*
X152525505Y-101712441D01*
X152525500Y-101712445D01*
X152397445Y-101840500D01*
X152397441Y-101840505D01*
X152291006Y-101987002D01*
X152208788Y-102148360D01*
X152208787Y-102148363D01*
X152152829Y-102320589D01*
X152124500Y-102499448D01*
X152124500Y-102680551D01*
X152152829Y-102859410D01*
X152208787Y-103031636D01*
X152208788Y-103031639D01*
X152291006Y-103192997D01*
X152397441Y-103339494D01*
X152397445Y-103339499D01*
X152525500Y-103467554D01*
X152525505Y-103467558D01*
X152653287Y-103560396D01*
X152672006Y-103573996D01*
X152777484Y-103627740D01*
X152833360Y-103656211D01*
X152833363Y-103656212D01*
X152919476Y-103684191D01*
X153005591Y-103712171D01*
X153078639Y-103723740D01*
X153165678Y-103737527D01*
X153228813Y-103767456D01*
X153265744Y-103826768D01*
X153264746Y-103896631D01*
X153226136Y-103954863D01*
X153165678Y-103982473D01*
X153005589Y-104007829D01*
X152833363Y-104063787D01*
X152833360Y-104063788D01*
X152672002Y-104146006D01*
X152525505Y-104252441D01*
X152525500Y-104252445D01*
X152397445Y-104380500D01*
X152397441Y-104380505D01*
X152291006Y-104527002D01*
X152208788Y-104688360D01*
X152208787Y-104688363D01*
X152152829Y-104860589D01*
X152124500Y-105039448D01*
X152124500Y-105220551D01*
X152152829Y-105399410D01*
X152208787Y-105571636D01*
X152208788Y-105571639D01*
X152291006Y-105732997D01*
X152397441Y-105879494D01*
X152397445Y-105879499D01*
X152525500Y-106007554D01*
X152525505Y-106007558D01*
X152623915Y-106079056D01*
X152672006Y-106113996D01*
X152777484Y-106167740D01*
X152833360Y-106196211D01*
X152833363Y-106196212D01*
X152919476Y-106224191D01*
X153005591Y-106252171D01*
X153078639Y-106263740D01*
X153165678Y-106277527D01*
X153228813Y-106307456D01*
X153265744Y-106366768D01*
X153264746Y-106436631D01*
X153226136Y-106494863D01*
X153165678Y-106522473D01*
X153005589Y-106547829D01*
X152833363Y-106603787D01*
X152833360Y-106603788D01*
X152672002Y-106686006D01*
X152525505Y-106792441D01*
X152525500Y-106792445D01*
X152397445Y-106920500D01*
X152397441Y-106920505D01*
X152291006Y-107067002D01*
X152208788Y-107228360D01*
X152208787Y-107228363D01*
X152152829Y-107400589D01*
X152124500Y-107579448D01*
X152124500Y-107760551D01*
X152152829Y-107939410D01*
X152208787Y-108111636D01*
X152208788Y-108111639D01*
X152291006Y-108272997D01*
X152397441Y-108419494D01*
X152397445Y-108419499D01*
X152525500Y-108547554D01*
X152525505Y-108547558D01*
X152572885Y-108581981D01*
X152672006Y-108653996D01*
X152750090Y-108693782D01*
X152833360Y-108736211D01*
X152833363Y-108736212D01*
X152919476Y-108764191D01*
X153005591Y-108792171D01*
X153078639Y-108803740D01*
X153165678Y-108817527D01*
X153228813Y-108847456D01*
X153265744Y-108906768D01*
X153264746Y-108976631D01*
X153226136Y-109034863D01*
X153165678Y-109062473D01*
X153005589Y-109087829D01*
X152833363Y-109143787D01*
X152833360Y-109143788D01*
X152672002Y-109226006D01*
X152525505Y-109332441D01*
X152525500Y-109332445D01*
X152397445Y-109460500D01*
X152397441Y-109460505D01*
X152291006Y-109607002D01*
X152208788Y-109768360D01*
X152208787Y-109768363D01*
X152152829Y-109940589D01*
X152124500Y-110119448D01*
X152124500Y-110300551D01*
X152152829Y-110479410D01*
X152208787Y-110651636D01*
X152208788Y-110651639D01*
X152291006Y-110812997D01*
X152397441Y-110959494D01*
X152397445Y-110959499D01*
X152525500Y-111087554D01*
X152525505Y-111087558D01*
X152653287Y-111180396D01*
X152672006Y-111193996D01*
X152777484Y-111247740D01*
X152833360Y-111276211D01*
X152833363Y-111276212D01*
X152919476Y-111304191D01*
X153005591Y-111332171D01*
X153078639Y-111343740D01*
X153165678Y-111357527D01*
X153228813Y-111387456D01*
X153265744Y-111446768D01*
X153264746Y-111516631D01*
X153226136Y-111574863D01*
X153165678Y-111602473D01*
X153005589Y-111627829D01*
X152833363Y-111683787D01*
X152833360Y-111683788D01*
X152672002Y-111766006D01*
X152525505Y-111872441D01*
X152525500Y-111872445D01*
X152397445Y-112000500D01*
X152397441Y-112000505D01*
X152291006Y-112147002D01*
X152208788Y-112308360D01*
X152208787Y-112308363D01*
X152152829Y-112480589D01*
X152124500Y-112659448D01*
X152124500Y-112840551D01*
X152152829Y-113019410D01*
X152208787Y-113191636D01*
X152208788Y-113191639D01*
X152291006Y-113352997D01*
X152397441Y-113499494D01*
X152397445Y-113499499D01*
X152525500Y-113627554D01*
X152525505Y-113627558D01*
X152653287Y-113720396D01*
X152672006Y-113733996D01*
X152777484Y-113787740D01*
X152833360Y-113816211D01*
X152833363Y-113816212D01*
X152919476Y-113844191D01*
X153005591Y-113872171D01*
X153078639Y-113883740D01*
X153165678Y-113897527D01*
X153228813Y-113927456D01*
X153265744Y-113986768D01*
X153264746Y-114056631D01*
X153226136Y-114114863D01*
X153165678Y-114142473D01*
X153005589Y-114167829D01*
X152833363Y-114223787D01*
X152833360Y-114223788D01*
X152672002Y-114306006D01*
X152525505Y-114412441D01*
X152525500Y-114412445D01*
X152397445Y-114540500D01*
X152397441Y-114540505D01*
X152291006Y-114687002D01*
X152208788Y-114848360D01*
X152208787Y-114848363D01*
X152152829Y-115020589D01*
X152124500Y-115199448D01*
X152124500Y-115380551D01*
X152152829Y-115559410D01*
X152208787Y-115731636D01*
X152208788Y-115731639D01*
X152238686Y-115790315D01*
X152282581Y-115876464D01*
X152291006Y-115892997D01*
X152397441Y-116039494D01*
X152397445Y-116039499D01*
X152525500Y-116167554D01*
X152525505Y-116167558D01*
X152560821Y-116193216D01*
X152672006Y-116273996D01*
X152777484Y-116327740D01*
X152833360Y-116356211D01*
X152833363Y-116356212D01*
X152908310Y-116380563D01*
X153005591Y-116412171D01*
X153063855Y-116421399D01*
X153165678Y-116437527D01*
X153228813Y-116467456D01*
X153265744Y-116526768D01*
X153264746Y-116596631D01*
X153226136Y-116654863D01*
X153165678Y-116682473D01*
X153005589Y-116707829D01*
X152833363Y-116763787D01*
X152833360Y-116763788D01*
X152672002Y-116846006D01*
X152525505Y-116952441D01*
X152525500Y-116952445D01*
X152397445Y-117080500D01*
X152397441Y-117080505D01*
X152291006Y-117227002D01*
X152208788Y-117388360D01*
X152208787Y-117388363D01*
X152152829Y-117560589D01*
X152124500Y-117739448D01*
X152124500Y-117920551D01*
X152152829Y-118099410D01*
X152208787Y-118271636D01*
X152208788Y-118271639D01*
X152291006Y-118432997D01*
X152397441Y-118579494D01*
X152397445Y-118579499D01*
X152525500Y-118707554D01*
X152525505Y-118707558D01*
X152653287Y-118800396D01*
X152672006Y-118813996D01*
X152774687Y-118866315D01*
X152833360Y-118896211D01*
X152833363Y-118896212D01*
X152919476Y-118924191D01*
X153005591Y-118952171D01*
X153078639Y-118963740D01*
X153165678Y-118977527D01*
X153228813Y-119007456D01*
X153265744Y-119066768D01*
X153264746Y-119136631D01*
X153226136Y-119194863D01*
X153165678Y-119222473D01*
X153005589Y-119247829D01*
X152833363Y-119303787D01*
X152833360Y-119303788D01*
X152672002Y-119386006D01*
X152525505Y-119492441D01*
X152525500Y-119492445D01*
X152397445Y-119620500D01*
X152397441Y-119620505D01*
X152291006Y-119767002D01*
X152208788Y-119928360D01*
X152208787Y-119928363D01*
X152152829Y-120100589D01*
X152124500Y-120279448D01*
X152124500Y-120460551D01*
X152152829Y-120639410D01*
X152208787Y-120811636D01*
X152208788Y-120811639D01*
X152291006Y-120972997D01*
X152397441Y-121119494D01*
X152397445Y-121119499D01*
X152525500Y-121247554D01*
X152525505Y-121247558D01*
X152653287Y-121340396D01*
X152672006Y-121353996D01*
X152777484Y-121407740D01*
X152833360Y-121436211D01*
X152833363Y-121436212D01*
X152919476Y-121464191D01*
X153005591Y-121492171D01*
X153088429Y-121505291D01*
X153184449Y-121520500D01*
X153184454Y-121520500D01*
X153365551Y-121520500D01*
X153452259Y-121506765D01*
X153544409Y-121492171D01*
X153716639Y-121436211D01*
X153877994Y-121353996D01*
X154024501Y-121247553D01*
X154152553Y-121119501D01*
X154258996Y-120972994D01*
X154341211Y-120811639D01*
X154397171Y-120639409D01*
X154411765Y-120547259D01*
X154425500Y-120460551D01*
X154425500Y-120279448D01*
X154397170Y-120100587D01*
X154357001Y-119976955D01*
X154341212Y-119928363D01*
X154341211Y-119928360D01*
X154312740Y-119872484D01*
X154258996Y-119767006D01*
X154245396Y-119748287D01*
X154152558Y-119620505D01*
X154152554Y-119620500D01*
X154024499Y-119492445D01*
X154024494Y-119492441D01*
X153877997Y-119386006D01*
X153877996Y-119386005D01*
X153877994Y-119386004D01*
X153799290Y-119345902D01*
X153716639Y-119303788D01*
X153716636Y-119303787D01*
X153544410Y-119247829D01*
X153504476Y-119241504D01*
X155605000Y-119241504D01*
X155605000Y-119490000D01*
X156305000Y-119490000D01*
X156305000Y-119990000D01*
X155605000Y-119990000D01*
X155605000Y-120238495D01*
X155643427Y-120431681D01*
X155643430Y-120431693D01*
X155718807Y-120613671D01*
X155718814Y-120613684D01*
X155828248Y-120777462D01*
X155828251Y-120777466D01*
X155967533Y-120916748D01*
X155967537Y-120916751D01*
X156131315Y-121026185D01*
X156131328Y-121026192D01*
X156313308Y-121101569D01*
X156355000Y-121109862D01*
X156355000Y-120306988D01*
X156364940Y-120324205D01*
X156420795Y-120380060D01*
X156489204Y-120419556D01*
X156565504Y-120440000D01*
X156644496Y-120440000D01*
X156720796Y-120419556D01*
X156789205Y-120380060D01*
X156845060Y-120324205D01*
X156855000Y-120306988D01*
X156855000Y-121109862D01*
X156896690Y-121101569D01*
X156896692Y-121101569D01*
X157078671Y-121026192D01*
X157078684Y-121026185D01*
X157242462Y-120916751D01*
X157242466Y-120916748D01*
X157381748Y-120777466D01*
X157381751Y-120777462D01*
X157491185Y-120613684D01*
X157491192Y-120613671D01*
X157566569Y-120431693D01*
X157566572Y-120431681D01*
X157604999Y-120238495D01*
X157605000Y-120238492D01*
X157605000Y-119990000D01*
X156905000Y-119990000D01*
X156905000Y-119490000D01*
X157605000Y-119490000D01*
X157605000Y-119241508D01*
X157604999Y-119241504D01*
X164245000Y-119241504D01*
X164245000Y-119490000D01*
X164945000Y-119490000D01*
X164945000Y-119990000D01*
X164245000Y-119990000D01*
X164245000Y-120238495D01*
X164283427Y-120431681D01*
X164283430Y-120431693D01*
X164358807Y-120613671D01*
X164358814Y-120613684D01*
X164468248Y-120777462D01*
X164468251Y-120777466D01*
X164607533Y-120916748D01*
X164607537Y-120916751D01*
X164771315Y-121026185D01*
X164771328Y-121026192D01*
X164953308Y-121101569D01*
X164995000Y-121109862D01*
X164995000Y-120306988D01*
X165004940Y-120324205D01*
X165060795Y-120380060D01*
X165129204Y-120419556D01*
X165205504Y-120440000D01*
X165284496Y-120440000D01*
X165360796Y-120419556D01*
X165429205Y-120380060D01*
X165485060Y-120324205D01*
X165495000Y-120306988D01*
X165495000Y-121109862D01*
X165536690Y-121101569D01*
X165536692Y-121101569D01*
X165718671Y-121026192D01*
X165718684Y-121026185D01*
X165882462Y-120916751D01*
X165882466Y-120916748D01*
X166021748Y-120777466D01*
X166021751Y-120777462D01*
X166131185Y-120613684D01*
X166131192Y-120613671D01*
X166206569Y-120431693D01*
X166206572Y-120431681D01*
X166244999Y-120238495D01*
X166245000Y-120238492D01*
X166245000Y-119990000D01*
X165545000Y-119990000D01*
X165545000Y-119490000D01*
X166245000Y-119490000D01*
X166245000Y-119241508D01*
X166244999Y-119241504D01*
X166206572Y-119048318D01*
X166206569Y-119048306D01*
X166131192Y-118866328D01*
X166131185Y-118866315D01*
X166021751Y-118702537D01*
X166021748Y-118702533D01*
X165882466Y-118563251D01*
X165882462Y-118563248D01*
X165718684Y-118453814D01*
X165718671Y-118453807D01*
X165536691Y-118378429D01*
X165536683Y-118378427D01*
X165495000Y-118370135D01*
X165495000Y-119173011D01*
X165485060Y-119155795D01*
X165429205Y-119099940D01*
X165360796Y-119060444D01*
X165284496Y-119040000D01*
X165205504Y-119040000D01*
X165129204Y-119060444D01*
X165060795Y-119099940D01*
X165004940Y-119155795D01*
X164995000Y-119173011D01*
X164995000Y-118370136D01*
X164994999Y-118370135D01*
X164953316Y-118378427D01*
X164953308Y-118378429D01*
X164771328Y-118453807D01*
X164771315Y-118453814D01*
X164607537Y-118563248D01*
X164607533Y-118563251D01*
X164468251Y-118702533D01*
X164468248Y-118702537D01*
X164358814Y-118866315D01*
X164358807Y-118866328D01*
X164283430Y-119048306D01*
X164283427Y-119048318D01*
X164245000Y-119241504D01*
X157604999Y-119241504D01*
X157566572Y-119048318D01*
X157566569Y-119048306D01*
X157491192Y-118866328D01*
X157491185Y-118866315D01*
X157381751Y-118702537D01*
X157381748Y-118702533D01*
X157242466Y-118563251D01*
X157242462Y-118563248D01*
X157078684Y-118453814D01*
X157078671Y-118453807D01*
X156896691Y-118378429D01*
X156896683Y-118378427D01*
X156855000Y-118370135D01*
X156855000Y-119173011D01*
X156845060Y-119155795D01*
X156789205Y-119099940D01*
X156720796Y-119060444D01*
X156644496Y-119040000D01*
X156565504Y-119040000D01*
X156489204Y-119060444D01*
X156420795Y-119099940D01*
X156364940Y-119155795D01*
X156355000Y-119173011D01*
X156355000Y-118370136D01*
X156354999Y-118370135D01*
X156313316Y-118378427D01*
X156313308Y-118378429D01*
X156131328Y-118453807D01*
X156131315Y-118453814D01*
X155967537Y-118563248D01*
X155967533Y-118563251D01*
X155828251Y-118702533D01*
X155828248Y-118702537D01*
X155718814Y-118866315D01*
X155718807Y-118866328D01*
X155643430Y-119048306D01*
X155643427Y-119048318D01*
X155605000Y-119241504D01*
X153504476Y-119241504D01*
X153384321Y-119222473D01*
X153321186Y-119192544D01*
X153284255Y-119133232D01*
X153285253Y-119063370D01*
X153323863Y-119005137D01*
X153384321Y-118977527D01*
X153454425Y-118966422D01*
X153544409Y-118952171D01*
X153716639Y-118896211D01*
X153877994Y-118813996D01*
X154024501Y-118707553D01*
X154152553Y-118579501D01*
X154258996Y-118432994D01*
X154341211Y-118271639D01*
X154397171Y-118099409D01*
X154411765Y-118007259D01*
X154425500Y-117920551D01*
X154425500Y-117739448D01*
X154398181Y-117566970D01*
X154397171Y-117560591D01*
X154341211Y-117388361D01*
X154341211Y-117388360D01*
X154310993Y-117329055D01*
X154258996Y-117227006D01*
X154236427Y-117195943D01*
X159474500Y-117195943D01*
X159474500Y-117354057D01*
X159508725Y-117481784D01*
X159515423Y-117506783D01*
X159515426Y-117506790D01*
X159594475Y-117643709D01*
X159594479Y-117643714D01*
X159594480Y-117643716D01*
X159706284Y-117755520D01*
X159706286Y-117755521D01*
X159706290Y-117755524D01*
X159799914Y-117809577D01*
X159843216Y-117834577D01*
X159995943Y-117875500D01*
X159995945Y-117875500D01*
X160154055Y-117875500D01*
X160154057Y-117875500D01*
X160306784Y-117834577D01*
X160443716Y-117755520D01*
X160555520Y-117643716D01*
X160599830Y-117566968D01*
X160650394Y-117518753D01*
X160719001Y-117505529D01*
X160783866Y-117531496D01*
X160814603Y-117566968D01*
X160844477Y-117618712D01*
X160844479Y-117618715D01*
X160844480Y-117618716D01*
X160956284Y-117730520D01*
X160956286Y-117730521D01*
X160956290Y-117730524D01*
X161093209Y-117809573D01*
X161093216Y-117809577D01*
X161245943Y-117850500D01*
X161245945Y-117850500D01*
X161404055Y-117850500D01*
X161404057Y-117850500D01*
X161556784Y-117809577D01*
X161693716Y-117730520D01*
X161805520Y-117618716D01*
X161884577Y-117481784D01*
X161925500Y-117329057D01*
X161925500Y-117184120D01*
X161945185Y-117117081D01*
X161997989Y-117071326D01*
X162049500Y-117060120D01*
X162055055Y-117060120D01*
X162055057Y-117060120D01*
X162207784Y-117019197D01*
X162344716Y-116940140D01*
X162456520Y-116828336D01*
X162535577Y-116691404D01*
X162576500Y-116538677D01*
X162576500Y-116380563D01*
X162535577Y-116227836D01*
X162509119Y-116182009D01*
X162456524Y-116090910D01*
X162456518Y-116090902D01*
X162363015Y-115997399D01*
X163339500Y-115997399D01*
X163339500Y-116122601D01*
X163371905Y-116243536D01*
X163434505Y-116351964D01*
X163523036Y-116440495D01*
X163631464Y-116503095D01*
X163752399Y-116535500D01*
X163752401Y-116535500D01*
X163877599Y-116535500D01*
X163877601Y-116535500D01*
X163998536Y-116503095D01*
X164106964Y-116440495D01*
X164111883Y-116435575D01*
X164173202Y-116402089D01*
X164242894Y-116407070D01*
X164298830Y-116448939D01*
X164314127Y-116475802D01*
X164358807Y-116583671D01*
X164358814Y-116583684D01*
X164468248Y-116747462D01*
X164468251Y-116747466D01*
X164607533Y-116886748D01*
X164607537Y-116886751D01*
X164771315Y-116996185D01*
X164771328Y-116996192D01*
X164953308Y-117071569D01*
X164995000Y-117079862D01*
X164995000Y-116276988D01*
X165004940Y-116294205D01*
X165060795Y-116350060D01*
X165129204Y-116389556D01*
X165205504Y-116410000D01*
X165284496Y-116410000D01*
X165360796Y-116389556D01*
X165429205Y-116350060D01*
X165485060Y-116294205D01*
X165495000Y-116276988D01*
X165495000Y-117079862D01*
X165536690Y-117071569D01*
X165536692Y-117071569D01*
X165718671Y-116996192D01*
X165718684Y-116996185D01*
X165882462Y-116886751D01*
X165882466Y-116886748D01*
X166021748Y-116747466D01*
X166021751Y-116747462D01*
X166131185Y-116583684D01*
X166131192Y-116583671D01*
X166206569Y-116401693D01*
X166206572Y-116401681D01*
X166244999Y-116208495D01*
X166245000Y-116208492D01*
X166245000Y-115810000D01*
X165545000Y-115810000D01*
X165545000Y-115310000D01*
X166245000Y-115310000D01*
X166245000Y-114911508D01*
X166244999Y-114911504D01*
X166206572Y-114718318D01*
X166206569Y-114718306D01*
X166131192Y-114536328D01*
X166131185Y-114536315D01*
X166021751Y-114372537D01*
X166021748Y-114372533D01*
X165882466Y-114233251D01*
X165882462Y-114233248D01*
X165718684Y-114123814D01*
X165718671Y-114123807D01*
X165536691Y-114048429D01*
X165536683Y-114048427D01*
X165495000Y-114040135D01*
X165495000Y-114843011D01*
X165485060Y-114825795D01*
X165429205Y-114769940D01*
X165360796Y-114730444D01*
X165284496Y-114710000D01*
X165205504Y-114710000D01*
X165129204Y-114730444D01*
X165060795Y-114769940D01*
X165004940Y-114825795D01*
X164995000Y-114843011D01*
X164995000Y-114040136D01*
X164994999Y-114040135D01*
X164953316Y-114048427D01*
X164953308Y-114048429D01*
X164771328Y-114123807D01*
X164771315Y-114123814D01*
X164607537Y-114233248D01*
X164607533Y-114233251D01*
X164468251Y-114372533D01*
X164468248Y-114372537D01*
X164358814Y-114536315D01*
X164358807Y-114536328D01*
X164283430Y-114718306D01*
X164283427Y-114718318D01*
X164245000Y-114911504D01*
X164245000Y-115310000D01*
X164945000Y-115310000D01*
X164945000Y-115810000D01*
X164288821Y-115810000D01*
X164221782Y-115790315D01*
X164201140Y-115773681D01*
X164106965Y-115679506D01*
X164106964Y-115679505D01*
X163998536Y-115616905D01*
X163998537Y-115616905D01*
X163958224Y-115606103D01*
X163877601Y-115584500D01*
X163752399Y-115584500D01*
X163671775Y-115606103D01*
X163631463Y-115616905D01*
X163523037Y-115679504D01*
X163523034Y-115679506D01*
X163434506Y-115768034D01*
X163434504Y-115768037D01*
X163371905Y-115876463D01*
X163371905Y-115876464D01*
X163339500Y-115997399D01*
X162363015Y-115997399D01*
X162344717Y-115979101D01*
X162344709Y-115979095D01*
X162207790Y-115900046D01*
X162207786Y-115900044D01*
X162207784Y-115900043D01*
X162055057Y-115859120D01*
X161896943Y-115859120D01*
X161744216Y-115900043D01*
X161744209Y-115900046D01*
X161607290Y-115979095D01*
X161607282Y-115979101D01*
X161495481Y-116090902D01*
X161495477Y-116090907D01*
X161442880Y-116182009D01*
X161392313Y-116230225D01*
X161323706Y-116243448D01*
X161258841Y-116217480D01*
X161228108Y-116182011D01*
X161155520Y-116056284D01*
X161043716Y-115944480D01*
X161043714Y-115944479D01*
X161043709Y-115944475D01*
X160906790Y-115865426D01*
X160906786Y-115865424D01*
X160906784Y-115865423D01*
X160754057Y-115824500D01*
X160595943Y-115824500D01*
X160443216Y-115865423D01*
X160443209Y-115865426D01*
X160306290Y-115944475D01*
X160306282Y-115944481D01*
X160194481Y-116056282D01*
X160194475Y-116056290D01*
X160115426Y-116193209D01*
X160115423Y-116193216D01*
X160074500Y-116345943D01*
X160074500Y-116504058D01*
X160079755Y-116523670D01*
X160078092Y-116593520D01*
X160038928Y-116651382D01*
X159992075Y-116675536D01*
X159937911Y-116690049D01*
X159843214Y-116715423D01*
X159843209Y-116715426D01*
X159706290Y-116794475D01*
X159706282Y-116794481D01*
X159594481Y-116906282D01*
X159594475Y-116906290D01*
X159515426Y-117043209D01*
X159515423Y-117043216D01*
X159474500Y-117195943D01*
X154236427Y-117195943D01*
X154218264Y-117170943D01*
X154152558Y-117080505D01*
X154152554Y-117080500D01*
X154024499Y-116952445D01*
X154024494Y-116952441D01*
X153877997Y-116846006D01*
X153877996Y-116846005D01*
X153877994Y-116846004D01*
X153826300Y-116819664D01*
X153716639Y-116763788D01*
X153716636Y-116763787D01*
X153544410Y-116707829D01*
X153384321Y-116682473D01*
X153321186Y-116652544D01*
X153284255Y-116593232D01*
X153285253Y-116523370D01*
X153323863Y-116465137D01*
X153384321Y-116437527D01*
X153454425Y-116426422D01*
X153544409Y-116412171D01*
X153716639Y-116356211D01*
X153877994Y-116273996D01*
X154024501Y-116167553D01*
X154152553Y-116039501D01*
X154258996Y-115892994D01*
X154341211Y-115731639D01*
X154341213Y-115731633D01*
X154344889Y-115720321D01*
X154344889Y-115720320D01*
X154360763Y-115671460D01*
X154397171Y-115559409D01*
X154411765Y-115467259D01*
X154425500Y-115380551D01*
X154425500Y-115199448D01*
X154397170Y-115020587D01*
X154372200Y-114943734D01*
X154361728Y-114911504D01*
X155605000Y-114911504D01*
X155605000Y-115310000D01*
X156305000Y-115310000D01*
X156305000Y-115810000D01*
X155605000Y-115810000D01*
X155605000Y-116208495D01*
X155643427Y-116401681D01*
X155643430Y-116401693D01*
X155718807Y-116583671D01*
X155718814Y-116583684D01*
X155828248Y-116747462D01*
X155828251Y-116747466D01*
X155967533Y-116886748D01*
X155967537Y-116886751D01*
X156131315Y-116996185D01*
X156131328Y-116996192D01*
X156313308Y-117071569D01*
X156355000Y-117079862D01*
X156355000Y-116276988D01*
X156364940Y-116294205D01*
X156420795Y-116350060D01*
X156489204Y-116389556D01*
X156565504Y-116410000D01*
X156644496Y-116410000D01*
X156720796Y-116389556D01*
X156789205Y-116350060D01*
X156845060Y-116294205D01*
X156855000Y-116276988D01*
X156855000Y-117079862D01*
X156896690Y-117071569D01*
X156896692Y-117071569D01*
X157078671Y-116996192D01*
X157078684Y-116996185D01*
X157242462Y-116886751D01*
X157242466Y-116886748D01*
X157381748Y-116747466D01*
X157381751Y-116747462D01*
X157491185Y-116583684D01*
X157491187Y-116583680D01*
X157535871Y-116475802D01*
X157579712Y-116421399D01*
X157646006Y-116399333D01*
X157713705Y-116416612D01*
X157738114Y-116435573D01*
X157743036Y-116440495D01*
X157851464Y-116503095D01*
X157972399Y-116535500D01*
X157972401Y-116535500D01*
X158097599Y-116535500D01*
X158097601Y-116535500D01*
X158218536Y-116503095D01*
X158326964Y-116440495D01*
X158415495Y-116351964D01*
X158478095Y-116243536D01*
X158510500Y-116122601D01*
X158510500Y-115997399D01*
X158478095Y-115876464D01*
X158415495Y-115768036D01*
X158326964Y-115679505D01*
X158218536Y-115616905D01*
X158218537Y-115616905D01*
X158178224Y-115606103D01*
X158097601Y-115584500D01*
X157972399Y-115584500D01*
X157891775Y-115606103D01*
X157851463Y-115616905D01*
X157743037Y-115679504D01*
X157743034Y-115679506D01*
X157648860Y-115773681D01*
X157587537Y-115807166D01*
X157561179Y-115810000D01*
X156905000Y-115810000D01*
X156905000Y-115310000D01*
X157605000Y-115310000D01*
X157605000Y-114911508D01*
X157604999Y-114911504D01*
X157566572Y-114718318D01*
X157566569Y-114718306D01*
X157491192Y-114536328D01*
X157491185Y-114536315D01*
X157381751Y-114372537D01*
X157381748Y-114372533D01*
X157242466Y-114233251D01*
X157242462Y-114233248D01*
X157187089Y-114196249D01*
X157078684Y-114123814D01*
X157078671Y-114123807D01*
X157024271Y-114101274D01*
X158004831Y-114101274D01*
X158004831Y-114259388D01*
X158024230Y-114331784D01*
X158045754Y-114412114D01*
X158045757Y-114412121D01*
X158124806Y-114549040D01*
X158124810Y-114549045D01*
X158124811Y-114549047D01*
X158236615Y-114660851D01*
X158236617Y-114660852D01*
X158236621Y-114660855D01*
X158357155Y-114730444D01*
X158373547Y-114739908D01*
X158526274Y-114780831D01*
X158526276Y-114780831D01*
X158684386Y-114780831D01*
X158684388Y-114780831D01*
X158837115Y-114739908D01*
X158974047Y-114660851D01*
X159085851Y-114549047D01*
X159164908Y-114412115D01*
X159205831Y-114259388D01*
X159205831Y-114101274D01*
X159184306Y-114020943D01*
X162724500Y-114020943D01*
X162724500Y-114179057D01*
X162758516Y-114306004D01*
X162765423Y-114331783D01*
X162765426Y-114331790D01*
X162844475Y-114468709D01*
X162844479Y-114468714D01*
X162844480Y-114468716D01*
X162956284Y-114580520D01*
X162956286Y-114580521D01*
X162956290Y-114580524D01*
X163093209Y-114659573D01*
X163093216Y-114659577D01*
X163245943Y-114700500D01*
X163245945Y-114700500D01*
X163404055Y-114700500D01*
X163404057Y-114700500D01*
X163556784Y-114659577D01*
X163693716Y-114580520D01*
X163805520Y-114468716D01*
X163884577Y-114331784D01*
X163925500Y-114179057D01*
X163925500Y-114020943D01*
X163884577Y-113868216D01*
X163807086Y-113733996D01*
X163805524Y-113731290D01*
X163805518Y-113731282D01*
X163693717Y-113619481D01*
X163693709Y-113619475D01*
X163556790Y-113540426D01*
X163556786Y-113540424D01*
X163556784Y-113540423D01*
X163404057Y-113499500D01*
X163245943Y-113499500D01*
X163093216Y-113540423D01*
X163093209Y-113540426D01*
X162956290Y-113619475D01*
X162956282Y-113619481D01*
X162844481Y-113731282D01*
X162844475Y-113731290D01*
X162765426Y-113868209D01*
X162765423Y-113868216D01*
X162724500Y-114020943D01*
X159184306Y-114020943D01*
X159164908Y-113948547D01*
X159151392Y-113925137D01*
X159085855Y-113811621D01*
X159085849Y-113811613D01*
X158974048Y-113699812D01*
X158974040Y-113699806D01*
X158837121Y-113620757D01*
X158837117Y-113620755D01*
X158837115Y-113620754D01*
X158684388Y-113579831D01*
X158526274Y-113579831D01*
X158373547Y-113620754D01*
X158373540Y-113620757D01*
X158236621Y-113699806D01*
X158236613Y-113699812D01*
X158124812Y-113811613D01*
X158124806Y-113811621D01*
X158045757Y-113948540D01*
X158045755Y-113948545D01*
X158045754Y-113948547D01*
X158004831Y-114101274D01*
X157024271Y-114101274D01*
X156896691Y-114048429D01*
X156896683Y-114048427D01*
X156855000Y-114040135D01*
X156855000Y-114843011D01*
X156845060Y-114825795D01*
X156789205Y-114769940D01*
X156720796Y-114730444D01*
X156644496Y-114710000D01*
X156565504Y-114710000D01*
X156489204Y-114730444D01*
X156420795Y-114769940D01*
X156364940Y-114825795D01*
X156355000Y-114843011D01*
X156355000Y-114040136D01*
X156354999Y-114040135D01*
X156313316Y-114048427D01*
X156313308Y-114048429D01*
X156131328Y-114123807D01*
X156131315Y-114123814D01*
X155967537Y-114233248D01*
X155967533Y-114233251D01*
X155828251Y-114372533D01*
X155828248Y-114372537D01*
X155718814Y-114536315D01*
X155718807Y-114536328D01*
X155643430Y-114718306D01*
X155643427Y-114718318D01*
X155605000Y-114911504D01*
X154361728Y-114911504D01*
X154341212Y-114848363D01*
X154341211Y-114848360D01*
X154312740Y-114792484D01*
X154258996Y-114687006D01*
X154181630Y-114580520D01*
X154152558Y-114540505D01*
X154152554Y-114540500D01*
X154024499Y-114412445D01*
X154024494Y-114412441D01*
X153877997Y-114306006D01*
X153877996Y-114306005D01*
X153877994Y-114306004D01*
X153786502Y-114259386D01*
X153716639Y-114223788D01*
X153716636Y-114223787D01*
X153544410Y-114167829D01*
X153384321Y-114142473D01*
X153321186Y-114112544D01*
X153284255Y-114053232D01*
X153285253Y-113983370D01*
X153323863Y-113925137D01*
X153384321Y-113897527D01*
X153454425Y-113886422D01*
X153544409Y-113872171D01*
X153716639Y-113816211D01*
X153877994Y-113733996D01*
X154024501Y-113627553D01*
X154152553Y-113499501D01*
X154258996Y-113352994D01*
X154341211Y-113191639D01*
X154397171Y-113019409D01*
X154411765Y-112927259D01*
X154425500Y-112840551D01*
X154425500Y-112659448D01*
X154409019Y-112555397D01*
X154397171Y-112480591D01*
X154341211Y-112308361D01*
X154341211Y-112308360D01*
X154312740Y-112252484D01*
X154258996Y-112147006D01*
X154245396Y-112128287D01*
X154152558Y-112000505D01*
X154152554Y-112000500D01*
X154024499Y-111872445D01*
X154024494Y-111872441D01*
X153877997Y-111766006D01*
X153877996Y-111766005D01*
X153877994Y-111766004D01*
X153826300Y-111739664D01*
X153716639Y-111683788D01*
X153716636Y-111683787D01*
X153544410Y-111627829D01*
X153384321Y-111602473D01*
X153321186Y-111572544D01*
X153284255Y-111513232D01*
X153285253Y-111443370D01*
X153323863Y-111385137D01*
X153384321Y-111357527D01*
X153454425Y-111346422D01*
X153544409Y-111332171D01*
X153716639Y-111276211D01*
X153877994Y-111193996D01*
X154024501Y-111087553D01*
X154152553Y-110959501D01*
X154258996Y-110812994D01*
X154341211Y-110651639D01*
X154397171Y-110479409D01*
X154411765Y-110387259D01*
X154425500Y-110300551D01*
X154425500Y-110119448D01*
X154409019Y-110015397D01*
X154397171Y-109940591D01*
X154341211Y-109768361D01*
X154341211Y-109768360D01*
X154312740Y-109712484D01*
X154258996Y-109607006D01*
X154212506Y-109543018D01*
X154152558Y-109460505D01*
X154152554Y-109460500D01*
X154024499Y-109332445D01*
X154024494Y-109332441D01*
X153877997Y-109226006D01*
X153877996Y-109226005D01*
X153877994Y-109226004D01*
X153826300Y-109199664D01*
X153716639Y-109143788D01*
X153716636Y-109143787D01*
X153569096Y-109095850D01*
X153569094Y-109095849D01*
X153544409Y-109087829D01*
X153383004Y-109062265D01*
X153381696Y-109062029D01*
X153351598Y-109046960D01*
X153321186Y-109032544D01*
X153320454Y-109031368D01*
X153319218Y-109030750D01*
X153302044Y-109001802D01*
X153290613Y-108983443D01*
X164787000Y-108983443D01*
X164787000Y-109141557D01*
X164809628Y-109226004D01*
X164827923Y-109294283D01*
X164827926Y-109294290D01*
X164906975Y-109431209D01*
X164906979Y-109431214D01*
X164906980Y-109431216D01*
X165018784Y-109543020D01*
X165018786Y-109543021D01*
X165018790Y-109543024D01*
X165129605Y-109607002D01*
X165155716Y-109622077D01*
X165308443Y-109663000D01*
X165308445Y-109663000D01*
X165466555Y-109663000D01*
X165466557Y-109663000D01*
X165619284Y-109622077D01*
X165756216Y-109543020D01*
X165868020Y-109431216D01*
X165947077Y-109294284D01*
X165988000Y-109141557D01*
X165988000Y-108983443D01*
X165947077Y-108830716D01*
X165892515Y-108736211D01*
X165868024Y-108693790D01*
X165868018Y-108693782D01*
X165756217Y-108581981D01*
X165756209Y-108581975D01*
X165619290Y-108502926D01*
X165619286Y-108502924D01*
X165619284Y-108502923D01*
X165466557Y-108462000D01*
X165308443Y-108462000D01*
X165155716Y-108502923D01*
X165155709Y-108502926D01*
X165018790Y-108581975D01*
X165018782Y-108581981D01*
X164906981Y-108693782D01*
X164906975Y-108693790D01*
X164827926Y-108830709D01*
X164827923Y-108830716D01*
X164787000Y-108983443D01*
X153290613Y-108983443D01*
X153284255Y-108973232D01*
X153284274Y-108971849D01*
X153283569Y-108970660D01*
X153284772Y-108937028D01*
X153285253Y-108903370D01*
X153286017Y-108902216D01*
X153286067Y-108900835D01*
X153305264Y-108873187D01*
X153323863Y-108845137D01*
X153325150Y-108844548D01*
X153325918Y-108843444D01*
X153343654Y-108836098D01*
X153384321Y-108817527D01*
X153454425Y-108806422D01*
X153544409Y-108792171D01*
X153716639Y-108736211D01*
X153877994Y-108653996D01*
X154024501Y-108547553D01*
X154152553Y-108419501D01*
X154258996Y-108272994D01*
X154314495Y-108164071D01*
X162351499Y-108164071D01*
X162376497Y-108289738D01*
X162376499Y-108289744D01*
X162425533Y-108408124D01*
X162425538Y-108408133D01*
X162496723Y-108514668D01*
X162496726Y-108514672D01*
X162587327Y-108605273D01*
X162587331Y-108605276D01*
X162693866Y-108676461D01*
X162693872Y-108676464D01*
X162693873Y-108676465D01*
X162812256Y-108725501D01*
X162812260Y-108725501D01*
X162812261Y-108725502D01*
X162937928Y-108750500D01*
X162937931Y-108750500D01*
X163066071Y-108750500D01*
X163150615Y-108733682D01*
X163191744Y-108725501D01*
X163310127Y-108676465D01*
X163416669Y-108605276D01*
X163507276Y-108514669D01*
X163578465Y-108408127D01*
X163627501Y-108289744D01*
X163652500Y-108164069D01*
X163652500Y-108035931D01*
X163652500Y-108035928D01*
X163627502Y-107910261D01*
X163627501Y-107910260D01*
X163627501Y-107910256D01*
X163578465Y-107791873D01*
X163578464Y-107791872D01*
X163578461Y-107791866D01*
X163507276Y-107685331D01*
X163507273Y-107685327D01*
X163416672Y-107594726D01*
X163416668Y-107594723D01*
X163310133Y-107523538D01*
X163310124Y-107523533D01*
X163191744Y-107474499D01*
X163191738Y-107474497D01*
X163066071Y-107449500D01*
X163066069Y-107449500D01*
X162937931Y-107449500D01*
X162937929Y-107449500D01*
X162812261Y-107474497D01*
X162812255Y-107474499D01*
X162693875Y-107523533D01*
X162693866Y-107523538D01*
X162587331Y-107594723D01*
X162587327Y-107594726D01*
X162496726Y-107685327D01*
X162496723Y-107685331D01*
X162425538Y-107791866D01*
X162425533Y-107791875D01*
X162376499Y-107910255D01*
X162376497Y-107910261D01*
X162351500Y-108035928D01*
X162351500Y-108035931D01*
X162351500Y-108164069D01*
X162351500Y-108164071D01*
X162351499Y-108164071D01*
X154314495Y-108164071D01*
X154341211Y-108111639D01*
X154397171Y-107939409D01*
X154411765Y-107847259D01*
X154425500Y-107760551D01*
X154425500Y-107579448D01*
X154406140Y-107457214D01*
X154404354Y-107445943D01*
X160349500Y-107445943D01*
X160349500Y-107604057D01*
X160371278Y-107685331D01*
X160390423Y-107756783D01*
X160390426Y-107756790D01*
X160469475Y-107893709D01*
X160469479Y-107893714D01*
X160469480Y-107893716D01*
X160581284Y-108005520D01*
X160581286Y-108005521D01*
X160581290Y-108005524D01*
X160718209Y-108084573D01*
X160718216Y-108084577D01*
X160870943Y-108125500D01*
X160870945Y-108125500D01*
X161029055Y-108125500D01*
X161029057Y-108125500D01*
X161181784Y-108084577D01*
X161318716Y-108005520D01*
X161430520Y-107893716D01*
X161509577Y-107756784D01*
X161550500Y-107604057D01*
X161550500Y-107445943D01*
X161509577Y-107293216D01*
X161509573Y-107293209D01*
X161430524Y-107156290D01*
X161430518Y-107156282D01*
X161318717Y-107044481D01*
X161318709Y-107044475D01*
X161181790Y-106965426D01*
X161181786Y-106965424D01*
X161181784Y-106965423D01*
X161029057Y-106924500D01*
X160870943Y-106924500D01*
X160718216Y-106965423D01*
X160718209Y-106965426D01*
X160581290Y-107044475D01*
X160581282Y-107044481D01*
X160469481Y-107156282D01*
X160469475Y-107156290D01*
X160390426Y-107293209D01*
X160390423Y-107293216D01*
X160349500Y-107445943D01*
X154404354Y-107445943D01*
X154401207Y-107426077D01*
X154397171Y-107400591D01*
X154341211Y-107228361D01*
X154341211Y-107228360D01*
X154304485Y-107156282D01*
X154258996Y-107067006D01*
X154242626Y-107044475D01*
X154152558Y-106920505D01*
X154152554Y-106920500D01*
X154024499Y-106792445D01*
X154024494Y-106792441D01*
X153877997Y-106686006D01*
X153877996Y-106686005D01*
X153877994Y-106686004D01*
X153826300Y-106659664D01*
X153716639Y-106603788D01*
X153716636Y-106603787D01*
X153544410Y-106547829D01*
X153384321Y-106522473D01*
X153321186Y-106492544D01*
X153284255Y-106433232D01*
X153285253Y-106363370D01*
X153323863Y-106305137D01*
X153384321Y-106277527D01*
X153454425Y-106266422D01*
X153544409Y-106252171D01*
X153716639Y-106196211D01*
X153877994Y-106113996D01*
X154024501Y-106007553D01*
X154111111Y-105920943D01*
X162399500Y-105920943D01*
X162399500Y-106079057D01*
X162430892Y-106196211D01*
X162440423Y-106231783D01*
X162440426Y-106231790D01*
X162519475Y-106368709D01*
X162519479Y-106368714D01*
X162519480Y-106368716D01*
X162631284Y-106480520D01*
X162631286Y-106480521D01*
X162631290Y-106480524D01*
X162768209Y-106559573D01*
X162768216Y-106559577D01*
X162920943Y-106600500D01*
X162920945Y-106600500D01*
X163079055Y-106600500D01*
X163079057Y-106600500D01*
X163231784Y-106559577D01*
X163368716Y-106480520D01*
X163480520Y-106368716D01*
X163559577Y-106231784D01*
X163600500Y-106079057D01*
X163600500Y-105920943D01*
X163559577Y-105768216D01*
X163559573Y-105768209D01*
X163480524Y-105631290D01*
X163480518Y-105631282D01*
X163368717Y-105519481D01*
X163368709Y-105519475D01*
X163231790Y-105440426D01*
X163231786Y-105440424D01*
X163231784Y-105440423D01*
X163079057Y-105399500D01*
X162920943Y-105399500D01*
X162768216Y-105440423D01*
X162768209Y-105440426D01*
X162631290Y-105519475D01*
X162631282Y-105519481D01*
X162519481Y-105631282D01*
X162519475Y-105631290D01*
X162440426Y-105768209D01*
X162440423Y-105768216D01*
X162399500Y-105920943D01*
X154111111Y-105920943D01*
X154152553Y-105879501D01*
X154152555Y-105879497D01*
X154152558Y-105879495D01*
X154181303Y-105839931D01*
X154233411Y-105768209D01*
X154258996Y-105732994D01*
X154341211Y-105571639D01*
X154397171Y-105399409D01*
X154411765Y-105307259D01*
X154425500Y-105220551D01*
X154425500Y-105039448D01*
X154409019Y-104935397D01*
X154397171Y-104860591D01*
X154341211Y-104688361D01*
X154341211Y-104688360D01*
X154312740Y-104632484D01*
X154258996Y-104527006D01*
X154245396Y-104508287D01*
X154152558Y-104380505D01*
X154152554Y-104380500D01*
X154024499Y-104252445D01*
X154024494Y-104252441D01*
X153877997Y-104146006D01*
X153877996Y-104146005D01*
X153877994Y-104146004D01*
X153826300Y-104119664D01*
X153716639Y-104063788D01*
X153716636Y-104063787D01*
X153544410Y-104007829D01*
X153384321Y-103982473D01*
X153321186Y-103952544D01*
X153284255Y-103893232D01*
X153285253Y-103823370D01*
X153323863Y-103765137D01*
X153384321Y-103737527D01*
X153454425Y-103726422D01*
X153544409Y-103712171D01*
X153716639Y-103656211D01*
X153877994Y-103573996D01*
X154024501Y-103467553D01*
X154152553Y-103339501D01*
X154258996Y-103192994D01*
X154341211Y-103031639D01*
X154397171Y-102859409D01*
X154403263Y-102820943D01*
X159899500Y-102820943D01*
X159899500Y-102979057D01*
X159913590Y-103031639D01*
X159940423Y-103131783D01*
X159940426Y-103131790D01*
X160019475Y-103268709D01*
X160019479Y-103268714D01*
X160019480Y-103268716D01*
X160131284Y-103380520D01*
X160131286Y-103380521D01*
X160131290Y-103380524D01*
X160268209Y-103459573D01*
X160268216Y-103459577D01*
X160420943Y-103500500D01*
X160420945Y-103500500D01*
X160579055Y-103500500D01*
X160579057Y-103500500D01*
X160731784Y-103459577D01*
X160868716Y-103380520D01*
X160980520Y-103268716D01*
X161059577Y-103131784D01*
X161100500Y-102979057D01*
X161100500Y-102820943D01*
X161059577Y-102668216D01*
X161059573Y-102668209D01*
X160980524Y-102531290D01*
X160980518Y-102531282D01*
X160868717Y-102419481D01*
X160868709Y-102419475D01*
X160731790Y-102340426D01*
X160731786Y-102340424D01*
X160731784Y-102340423D01*
X160579057Y-102299500D01*
X160420943Y-102299500D01*
X160268216Y-102340423D01*
X160268209Y-102340426D01*
X160131290Y-102419475D01*
X160131282Y-102419481D01*
X160019481Y-102531282D01*
X160019475Y-102531290D01*
X159940426Y-102668209D01*
X159940423Y-102668216D01*
X159899500Y-102820943D01*
X154403263Y-102820943D01*
X154409243Y-102783188D01*
X154425500Y-102680550D01*
X154425500Y-102499448D01*
X154409019Y-102395397D01*
X154397171Y-102320591D01*
X154341211Y-102148361D01*
X154341211Y-102148360D01*
X154312740Y-102092484D01*
X154258996Y-101987006D01*
X154245396Y-101968287D01*
X154152558Y-101840505D01*
X154152554Y-101840500D01*
X154024499Y-101712445D01*
X154024494Y-101712441D01*
X153877997Y-101606006D01*
X153877996Y-101606005D01*
X153877994Y-101606004D01*
X153826300Y-101579664D01*
X153716639Y-101523788D01*
X153716636Y-101523787D01*
X153544410Y-101467829D01*
X153384321Y-101442473D01*
X153321186Y-101412544D01*
X153284255Y-101353232D01*
X153285253Y-101283370D01*
X153323863Y-101225137D01*
X153384321Y-101197527D01*
X153454425Y-101186422D01*
X153544409Y-101172171D01*
X153716639Y-101116211D01*
X153877994Y-101033996D01*
X154024501Y-100927553D01*
X154141359Y-100810695D01*
X159379622Y-100810695D01*
X159379622Y-100968809D01*
X159419119Y-101116212D01*
X159420545Y-101121535D01*
X159420548Y-101121542D01*
X159499597Y-101258461D01*
X159499601Y-101258466D01*
X159499602Y-101258468D01*
X159611406Y-101370272D01*
X159611408Y-101370273D01*
X159611412Y-101370276D01*
X159736463Y-101442473D01*
X159748338Y-101449329D01*
X159901065Y-101490252D01*
X159901067Y-101490252D01*
X160059177Y-101490252D01*
X160059179Y-101490252D01*
X160211906Y-101449329D01*
X160348838Y-101370272D01*
X160460642Y-101258468D01*
X160539699Y-101121536D01*
X160580622Y-100968809D01*
X160580622Y-100810695D01*
X160539699Y-100657968D01*
X160536827Y-100652994D01*
X160460646Y-100521042D01*
X160460640Y-100521034D01*
X160348839Y-100409233D01*
X160348831Y-100409227D01*
X160211912Y-100330178D01*
X160211908Y-100330176D01*
X160211906Y-100330175D01*
X160059179Y-100289252D01*
X159901065Y-100289252D01*
X159748338Y-100330175D01*
X159748331Y-100330178D01*
X159611412Y-100409227D01*
X159611404Y-100409233D01*
X159499603Y-100521034D01*
X159499597Y-100521042D01*
X159420548Y-100657961D01*
X159420545Y-100657968D01*
X159379622Y-100810695D01*
X154141359Y-100810695D01*
X154152553Y-100799501D01*
X154258996Y-100652994D01*
X154341211Y-100491639D01*
X154397171Y-100319409D01*
X154411765Y-100227259D01*
X154425500Y-100140551D01*
X154425500Y-99959448D01*
X154409019Y-99855397D01*
X154397171Y-99780591D01*
X154341211Y-99608361D01*
X154341211Y-99608360D01*
X154312740Y-99552484D01*
X154258996Y-99447006D01*
X154245396Y-99428287D01*
X154152558Y-99300505D01*
X154152554Y-99300500D01*
X154024499Y-99172445D01*
X154024494Y-99172441D01*
X153877997Y-99066006D01*
X153877996Y-99066005D01*
X153877994Y-99066004D01*
X153826300Y-99039664D01*
X153716639Y-98983788D01*
X153716636Y-98983787D01*
X153544410Y-98927829D01*
X153384321Y-98902473D01*
X153321186Y-98872544D01*
X153284255Y-98813232D01*
X153285253Y-98743370D01*
X153323863Y-98685137D01*
X153384321Y-98657527D01*
X153454425Y-98646422D01*
X153544409Y-98632171D01*
X153716639Y-98576211D01*
X153877994Y-98493996D01*
X154024501Y-98387553D01*
X154152553Y-98259501D01*
X154258996Y-98112994D01*
X154341211Y-97951639D01*
X154397171Y-97779409D01*
X154416672Y-97656284D01*
X154425500Y-97600551D01*
X154425500Y-97419448D01*
X154403764Y-97282214D01*
X154401978Y-97270943D01*
X156224500Y-97270943D01*
X156224500Y-97429057D01*
X156255428Y-97544480D01*
X156265423Y-97581783D01*
X156265426Y-97581790D01*
X156344475Y-97718709D01*
X156344479Y-97718714D01*
X156344480Y-97718716D01*
X156456284Y-97830520D01*
X156456286Y-97830521D01*
X156456290Y-97830524D01*
X156490258Y-97850135D01*
X156593216Y-97909577D01*
X156745943Y-97950500D01*
X156745945Y-97950500D01*
X156904055Y-97950500D01*
X156904057Y-97950500D01*
X157056784Y-97909577D01*
X157193716Y-97830520D01*
X157197074Y-97827161D01*
X157258393Y-97793674D01*
X157328085Y-97798655D01*
X157371184Y-97830517D01*
X157373353Y-97828349D01*
X157379100Y-97834096D01*
X157490904Y-97945900D01*
X157490906Y-97945901D01*
X157490910Y-97945904D01*
X157627829Y-98024953D01*
X157627836Y-98024957D01*
X157780563Y-98065880D01*
X157780565Y-98065880D01*
X157938675Y-98065880D01*
X157938677Y-98065880D01*
X158091404Y-98024957D01*
X158228262Y-97945943D01*
X163824500Y-97945943D01*
X163824500Y-98104057D01*
X163826896Y-98112997D01*
X163865423Y-98256783D01*
X163865426Y-98256790D01*
X163944475Y-98393709D01*
X163944479Y-98393714D01*
X163944480Y-98393716D01*
X164056284Y-98505520D01*
X164056286Y-98505521D01*
X164056290Y-98505524D01*
X164178727Y-98576212D01*
X164193216Y-98584577D01*
X164345943Y-98625500D01*
X164345945Y-98625500D01*
X164504055Y-98625500D01*
X164504057Y-98625500D01*
X164656784Y-98584577D01*
X164793716Y-98505520D01*
X164905520Y-98393716D01*
X164984577Y-98256784D01*
X165025500Y-98104057D01*
X165025500Y-97945943D01*
X164984577Y-97793216D01*
X164976606Y-97779409D01*
X164905524Y-97656290D01*
X164905518Y-97656282D01*
X164793717Y-97544481D01*
X164793709Y-97544475D01*
X164656790Y-97465426D01*
X164656786Y-97465424D01*
X164656784Y-97465423D01*
X164504057Y-97424500D01*
X164345943Y-97424500D01*
X164193216Y-97465423D01*
X164193209Y-97465426D01*
X164056290Y-97544475D01*
X164056282Y-97544481D01*
X163944481Y-97656282D01*
X163944475Y-97656290D01*
X163865426Y-97793209D01*
X163865423Y-97793216D01*
X163824500Y-97945943D01*
X158228262Y-97945943D01*
X158228336Y-97945900D01*
X158340140Y-97834096D01*
X158419197Y-97697164D01*
X158460120Y-97544437D01*
X158460120Y-97386323D01*
X158419197Y-97233596D01*
X158343623Y-97102696D01*
X158340144Y-97096670D01*
X158340138Y-97096662D01*
X158228337Y-96984861D01*
X158228329Y-96984855D01*
X158091410Y-96905806D01*
X158091406Y-96905804D01*
X158091404Y-96905803D01*
X157938677Y-96864880D01*
X157780563Y-96864880D01*
X157627836Y-96905803D01*
X157627829Y-96905806D01*
X157490910Y-96984855D01*
X157490899Y-96984863D01*
X157487537Y-96988226D01*
X157426212Y-97021708D01*
X157356521Y-97016719D01*
X157313436Y-96984861D01*
X157311267Y-96987031D01*
X157193717Y-96869481D01*
X157193709Y-96869475D01*
X157056790Y-96790426D01*
X157056786Y-96790424D01*
X157056784Y-96790423D01*
X156904057Y-96749500D01*
X156745943Y-96749500D01*
X156593216Y-96790423D01*
X156593209Y-96790426D01*
X156456290Y-96869475D01*
X156456282Y-96869481D01*
X156344481Y-96981282D01*
X156344475Y-96981290D01*
X156265426Y-97118209D01*
X156265423Y-97118216D01*
X156224500Y-97270943D01*
X154401978Y-97270943D01*
X154400704Y-97262899D01*
X154397171Y-97240591D01*
X154350407Y-97096664D01*
X154341212Y-97068363D01*
X154341211Y-97068360D01*
X154296846Y-96981290D01*
X154258996Y-96907006D01*
X154228390Y-96864880D01*
X154152558Y-96760505D01*
X154152554Y-96760500D01*
X154024499Y-96632445D01*
X154024494Y-96632441D01*
X153877997Y-96526006D01*
X153877996Y-96526005D01*
X153877994Y-96526004D01*
X153826300Y-96499664D01*
X153716639Y-96443788D01*
X153716636Y-96443787D01*
X153544410Y-96387829D01*
X153384321Y-96362473D01*
X153321186Y-96332544D01*
X153284255Y-96273232D01*
X153285253Y-96203370D01*
X153323863Y-96145137D01*
X153384321Y-96117527D01*
X153454425Y-96106422D01*
X153544409Y-96092171D01*
X153716639Y-96036211D01*
X153877994Y-95953996D01*
X154024501Y-95847553D01*
X154152553Y-95719501D01*
X154258996Y-95572994D01*
X154341211Y-95411639D01*
X154397171Y-95239409D01*
X154420003Y-95095255D01*
X154425500Y-95060551D01*
X154425500Y-94879448D01*
X154397170Y-94700587D01*
X154389225Y-94676133D01*
X154379416Y-94645943D01*
X161224500Y-94645943D01*
X161224500Y-94804056D01*
X161265423Y-94956783D01*
X161265426Y-94956790D01*
X161344475Y-95093709D01*
X161344479Y-95093714D01*
X161344480Y-95093716D01*
X161456284Y-95205520D01*
X161456286Y-95205521D01*
X161456290Y-95205524D01*
X161580104Y-95277007D01*
X161593216Y-95284577D01*
X161745943Y-95325500D01*
X161745945Y-95325500D01*
X161904055Y-95325500D01*
X161904057Y-95325500D01*
X162056784Y-95284577D01*
X162193716Y-95205520D01*
X162305520Y-95093716D01*
X162384577Y-94956784D01*
X162425500Y-94804057D01*
X162425500Y-94645943D01*
X162384577Y-94493216D01*
X162363048Y-94455926D01*
X162305524Y-94356290D01*
X162305518Y-94356282D01*
X162193717Y-94244481D01*
X162193709Y-94244475D01*
X162056790Y-94165426D01*
X162056786Y-94165424D01*
X162056784Y-94165423D01*
X161904057Y-94124500D01*
X161745943Y-94124500D01*
X161593216Y-94165423D01*
X161593209Y-94165426D01*
X161456290Y-94244475D01*
X161456282Y-94244481D01*
X161344481Y-94356282D01*
X161344475Y-94356290D01*
X161265426Y-94493209D01*
X161265423Y-94493216D01*
X161224500Y-94645943D01*
X154379416Y-94645943D01*
X154341212Y-94528363D01*
X154341211Y-94528360D01*
X154302192Y-94451782D01*
X154258996Y-94367006D01*
X154242075Y-94343716D01*
X154152558Y-94220505D01*
X154152554Y-94220500D01*
X154024499Y-94092445D01*
X154024494Y-94092441D01*
X153877997Y-93986006D01*
X153877996Y-93986005D01*
X153877994Y-93986004D01*
X153826300Y-93959664D01*
X153716639Y-93903788D01*
X153716636Y-93903787D01*
X153544410Y-93847829D01*
X153384321Y-93822473D01*
X153321186Y-93792544D01*
X153284255Y-93733232D01*
X153285253Y-93663370D01*
X153323863Y-93605137D01*
X153384321Y-93577527D01*
X153454425Y-93566422D01*
X153544409Y-93552171D01*
X153716639Y-93496211D01*
X153877994Y-93413996D01*
X154024501Y-93307553D01*
X154152553Y-93179501D01*
X154258996Y-93032994D01*
X154341211Y-92871639D01*
X154397171Y-92699409D01*
X154416643Y-92576466D01*
X154425500Y-92520551D01*
X154425500Y-92339448D01*
X154401788Y-92189744D01*
X154397171Y-92160591D01*
X154365810Y-92064071D01*
X164306462Y-92064071D01*
X164331460Y-92189738D01*
X164331462Y-92189744D01*
X164380496Y-92308124D01*
X164380501Y-92308133D01*
X164451686Y-92414668D01*
X164451689Y-92414672D01*
X164542290Y-92505273D01*
X164542294Y-92505276D01*
X164648829Y-92576461D01*
X164648835Y-92576464D01*
X164648836Y-92576465D01*
X164767219Y-92625501D01*
X164767223Y-92625501D01*
X164767224Y-92625502D01*
X164892891Y-92650500D01*
X165011517Y-92650500D01*
X165078556Y-92670185D01*
X165124311Y-92722989D01*
X165134255Y-92792147D01*
X165131294Y-92806581D01*
X165099770Y-92924233D01*
X165099770Y-93082347D01*
X165125803Y-93179501D01*
X165140693Y-93235073D01*
X165140696Y-93235080D01*
X165219745Y-93371999D01*
X165219749Y-93372004D01*
X165219750Y-93372006D01*
X165331554Y-93483810D01*
X165331556Y-93483811D01*
X165331560Y-93483814D01*
X165442275Y-93547735D01*
X165490491Y-93598301D01*
X165503715Y-93666908D01*
X165487664Y-93717121D01*
X165453244Y-93776738D01*
X165453244Y-93776739D01*
X165412321Y-93929466D01*
X165412321Y-94087580D01*
X165447937Y-94220499D01*
X165453244Y-94240306D01*
X165453247Y-94240313D01*
X165532296Y-94377232D01*
X165532300Y-94377237D01*
X165532301Y-94377239D01*
X165644105Y-94489043D01*
X165644107Y-94489044D01*
X165644111Y-94489047D01*
X165757964Y-94554779D01*
X165781037Y-94568100D01*
X165933764Y-94609023D01*
X165933766Y-94609023D01*
X166091876Y-94609023D01*
X166091878Y-94609023D01*
X166244605Y-94568100D01*
X166381537Y-94489043D01*
X166381542Y-94489037D01*
X166387982Y-94484097D01*
X166388844Y-94485221D01*
X166442482Y-94455926D01*
X166512174Y-94460904D01*
X166530845Y-94469700D01*
X166643216Y-94534577D01*
X166795943Y-94575500D01*
X166795945Y-94575500D01*
X166954054Y-94575500D01*
X166954057Y-94575500D01*
X167037594Y-94553116D01*
X167107439Y-94554779D01*
X167165302Y-94593941D01*
X167192807Y-94658169D01*
X167192158Y-94692288D01*
X167187769Y-94720000D01*
X168081988Y-94720000D01*
X168049075Y-94777007D01*
X168015000Y-94904174D01*
X168015000Y-95035826D01*
X168049075Y-95162993D01*
X168081988Y-95220000D01*
X167187769Y-95220000D01*
X167198242Y-95286126D01*
X167198242Y-95286129D01*
X167263904Y-95488217D01*
X167360379Y-95677557D01*
X167485272Y-95849459D01*
X167485276Y-95849464D01*
X167635535Y-95999723D01*
X167635540Y-95999727D01*
X167807442Y-96124620D01*
X167996780Y-96221094D01*
X168025705Y-96230492D01*
X168083381Y-96269929D01*
X168110580Y-96334287D01*
X168098667Y-96403134D01*
X168051424Y-96454610D01*
X168043685Y-96458908D01*
X167912004Y-96526004D01*
X167765505Y-96632441D01*
X167765500Y-96632445D01*
X167637445Y-96760500D01*
X167637441Y-96760505D01*
X167531006Y-96907002D01*
X167448788Y-97068360D01*
X167448787Y-97068363D01*
X167392829Y-97240589D01*
X167364500Y-97419448D01*
X167364500Y-97600551D01*
X167392829Y-97779410D01*
X167448787Y-97951636D01*
X167448788Y-97951639D01*
X167504664Y-98061300D01*
X167526450Y-98104057D01*
X167531006Y-98112997D01*
X167637441Y-98259494D01*
X167637445Y-98259499D01*
X167765500Y-98387554D01*
X167765505Y-98387558D01*
X167893287Y-98480396D01*
X167912006Y-98493996D01*
X168017484Y-98547740D01*
X168073360Y-98576211D01*
X168073363Y-98576212D01*
X168099109Y-98584577D01*
X168245591Y-98632171D01*
X168318639Y-98643740D01*
X168405678Y-98657527D01*
X168468813Y-98687456D01*
X168505744Y-98746768D01*
X168504746Y-98816631D01*
X168466136Y-98874863D01*
X168405678Y-98902473D01*
X168245589Y-98927829D01*
X168073363Y-98983787D01*
X168073360Y-98983788D01*
X167912002Y-99066006D01*
X167765505Y-99172441D01*
X167765500Y-99172445D01*
X167637445Y-99300500D01*
X167637441Y-99300505D01*
X167531006Y-99447002D01*
X167448788Y-99608360D01*
X167448787Y-99608363D01*
X167392829Y-99780589D01*
X167364500Y-99959448D01*
X167364500Y-100140551D01*
X167392829Y-100319410D01*
X167448787Y-100491636D01*
X167448788Y-100491639D01*
X167531006Y-100652997D01*
X167637441Y-100799494D01*
X167637445Y-100799499D01*
X167765500Y-100927554D01*
X167765505Y-100927558D01*
X167822283Y-100968809D01*
X167912006Y-101033996D01*
X168017484Y-101087740D01*
X168073360Y-101116211D01*
X168073363Y-101116212D01*
X168089768Y-101121542D01*
X168245591Y-101172171D01*
X168318639Y-101183740D01*
X168405678Y-101197527D01*
X168468813Y-101227456D01*
X168505744Y-101286768D01*
X168504746Y-101356631D01*
X168466136Y-101414863D01*
X168405678Y-101442473D01*
X168245589Y-101467829D01*
X168073363Y-101523787D01*
X168073360Y-101523788D01*
X167912002Y-101606006D01*
X167765505Y-101712441D01*
X167765500Y-101712445D01*
X167637445Y-101840500D01*
X167637441Y-101840505D01*
X167531006Y-101987002D01*
X167448788Y-102148360D01*
X167448787Y-102148363D01*
X167392829Y-102320589D01*
X167364500Y-102499448D01*
X167364500Y-102680551D01*
X167392829Y-102859410D01*
X167448787Y-103031636D01*
X167448788Y-103031639D01*
X167531006Y-103192997D01*
X167637441Y-103339494D01*
X167637445Y-103339499D01*
X167765500Y-103467554D01*
X167765505Y-103467558D01*
X167893287Y-103560396D01*
X167912006Y-103573996D01*
X168017484Y-103627740D01*
X168073360Y-103656211D01*
X168073363Y-103656212D01*
X168159476Y-103684191D01*
X168245591Y-103712171D01*
X168318639Y-103723740D01*
X168405678Y-103737527D01*
X168468813Y-103767456D01*
X168505744Y-103826768D01*
X168504746Y-103896631D01*
X168466136Y-103954863D01*
X168405678Y-103982473D01*
X168245589Y-104007829D01*
X168073363Y-104063787D01*
X168073360Y-104063788D01*
X167912002Y-104146006D01*
X167765505Y-104252441D01*
X167765500Y-104252445D01*
X167637445Y-104380500D01*
X167637441Y-104380505D01*
X167531006Y-104527002D01*
X167448788Y-104688360D01*
X167448787Y-104688363D01*
X167392829Y-104860589D01*
X167364500Y-105039448D01*
X167364500Y-105220551D01*
X167392829Y-105399410D01*
X167448787Y-105571636D01*
X167448788Y-105571639D01*
X167531006Y-105732997D01*
X167637441Y-105879494D01*
X167637445Y-105879499D01*
X167765500Y-106007554D01*
X167765505Y-106007558D01*
X167863915Y-106079056D01*
X167912006Y-106113996D01*
X168017484Y-106167740D01*
X168073360Y-106196211D01*
X168073363Y-106196212D01*
X168159476Y-106224191D01*
X168245591Y-106252171D01*
X168318639Y-106263740D01*
X168405678Y-106277527D01*
X168468813Y-106307456D01*
X168505744Y-106366768D01*
X168504746Y-106436631D01*
X168466136Y-106494863D01*
X168405678Y-106522473D01*
X168245589Y-106547829D01*
X168073363Y-106603787D01*
X168073360Y-106603788D01*
X167912002Y-106686006D01*
X167765505Y-106792441D01*
X167765500Y-106792445D01*
X167637445Y-106920500D01*
X167637441Y-106920505D01*
X167531006Y-107067002D01*
X167448788Y-107228360D01*
X167448787Y-107228363D01*
X167392829Y-107400589D01*
X167364500Y-107579448D01*
X167364500Y-107760551D01*
X167392829Y-107939410D01*
X167448787Y-108111636D01*
X167448788Y-108111639D01*
X167531006Y-108272997D01*
X167637441Y-108419494D01*
X167637445Y-108419499D01*
X167765500Y-108547554D01*
X167765505Y-108547558D01*
X167812885Y-108581981D01*
X167912006Y-108653996D01*
X167990090Y-108693782D01*
X168073360Y-108736211D01*
X168073363Y-108736212D01*
X168159476Y-108764191D01*
X168245591Y-108792171D01*
X168318639Y-108803740D01*
X168405678Y-108817527D01*
X168468813Y-108847456D01*
X168505744Y-108906768D01*
X168504746Y-108976631D01*
X168466136Y-109034863D01*
X168405678Y-109062473D01*
X168245589Y-109087829D01*
X168073363Y-109143787D01*
X168073360Y-109143788D01*
X167912002Y-109226006D01*
X167765505Y-109332441D01*
X167765500Y-109332445D01*
X167637445Y-109460500D01*
X167637441Y-109460505D01*
X167531006Y-109607002D01*
X167448788Y-109768360D01*
X167448787Y-109768363D01*
X167392829Y-109940589D01*
X167364500Y-110119448D01*
X167364500Y-110300551D01*
X167392829Y-110479410D01*
X167448787Y-110651636D01*
X167448788Y-110651639D01*
X167531006Y-110812997D01*
X167637441Y-110959494D01*
X167637445Y-110959499D01*
X167765500Y-111087554D01*
X167765505Y-111087558D01*
X167893287Y-111180396D01*
X167912006Y-111193996D01*
X168017484Y-111247740D01*
X168073360Y-111276211D01*
X168073363Y-111276212D01*
X168159476Y-111304191D01*
X168245591Y-111332171D01*
X168318639Y-111343740D01*
X168405678Y-111357527D01*
X168468813Y-111387456D01*
X168505744Y-111446768D01*
X168504746Y-111516631D01*
X168466136Y-111574863D01*
X168405678Y-111602473D01*
X168245589Y-111627829D01*
X168073363Y-111683787D01*
X168073360Y-111683788D01*
X167912002Y-111766006D01*
X167765505Y-111872441D01*
X167765500Y-111872445D01*
X167637445Y-112000500D01*
X167637441Y-112000505D01*
X167531006Y-112147002D01*
X167448788Y-112308360D01*
X167448787Y-112308363D01*
X167392829Y-112480589D01*
X167364500Y-112659448D01*
X167364500Y-112840551D01*
X167392829Y-113019410D01*
X167448787Y-113191636D01*
X167448788Y-113191639D01*
X167531006Y-113352997D01*
X167637441Y-113499494D01*
X167637445Y-113499499D01*
X167765500Y-113627554D01*
X167765505Y-113627558D01*
X167893287Y-113720396D01*
X167912006Y-113733996D01*
X168017484Y-113787740D01*
X168073360Y-113816211D01*
X168073363Y-113816212D01*
X168159476Y-113844191D01*
X168245591Y-113872171D01*
X168318639Y-113883740D01*
X168405678Y-113897527D01*
X168468813Y-113927456D01*
X168505744Y-113986768D01*
X168504746Y-114056631D01*
X168466136Y-114114863D01*
X168405678Y-114142473D01*
X168245589Y-114167829D01*
X168073363Y-114223787D01*
X168073360Y-114223788D01*
X167912002Y-114306006D01*
X167765505Y-114412441D01*
X167765500Y-114412445D01*
X167637445Y-114540500D01*
X167637441Y-114540505D01*
X167531006Y-114687002D01*
X167448788Y-114848360D01*
X167448787Y-114848363D01*
X167392829Y-115020589D01*
X167364500Y-115199448D01*
X167364500Y-115380551D01*
X167392829Y-115559410D01*
X167448787Y-115731636D01*
X167448788Y-115731639D01*
X167478686Y-115790315D01*
X167522581Y-115876464D01*
X167531006Y-115892997D01*
X167637441Y-116039494D01*
X167637445Y-116039499D01*
X167765500Y-116167554D01*
X167765505Y-116167558D01*
X167800821Y-116193216D01*
X167912006Y-116273996D01*
X168017484Y-116327740D01*
X168073360Y-116356211D01*
X168073363Y-116356212D01*
X168148310Y-116380563D01*
X168245591Y-116412171D01*
X168303855Y-116421399D01*
X168405678Y-116437527D01*
X168468813Y-116467456D01*
X168505744Y-116526768D01*
X168504746Y-116596631D01*
X168466136Y-116654863D01*
X168405678Y-116682473D01*
X168245589Y-116707829D01*
X168073363Y-116763787D01*
X168073360Y-116763788D01*
X167912002Y-116846006D01*
X167765505Y-116952441D01*
X167765500Y-116952445D01*
X167637445Y-117080500D01*
X167637441Y-117080505D01*
X167531006Y-117227002D01*
X167448788Y-117388360D01*
X167448787Y-117388363D01*
X167392829Y-117560589D01*
X167364500Y-117739448D01*
X167364500Y-117920551D01*
X167392829Y-118099410D01*
X167448787Y-118271636D01*
X167448788Y-118271639D01*
X167531006Y-118432997D01*
X167637441Y-118579494D01*
X167637445Y-118579499D01*
X167765500Y-118707554D01*
X167765505Y-118707558D01*
X167893287Y-118800396D01*
X167912006Y-118813996D01*
X168014687Y-118866315D01*
X168073360Y-118896211D01*
X168073363Y-118896212D01*
X168159476Y-118924191D01*
X168245591Y-118952171D01*
X168318639Y-118963740D01*
X168405678Y-118977527D01*
X168468813Y-119007456D01*
X168505744Y-119066768D01*
X168504746Y-119136631D01*
X168466136Y-119194863D01*
X168405678Y-119222473D01*
X168245589Y-119247829D01*
X168073363Y-119303787D01*
X168073360Y-119303788D01*
X167912002Y-119386006D01*
X167765505Y-119492441D01*
X167765500Y-119492445D01*
X167637445Y-119620500D01*
X167637441Y-119620505D01*
X167531006Y-119767002D01*
X167448788Y-119928360D01*
X167448787Y-119928363D01*
X167392829Y-120100589D01*
X167364500Y-120279448D01*
X167364500Y-120460551D01*
X167392829Y-120639410D01*
X167448787Y-120811636D01*
X167448788Y-120811639D01*
X167531006Y-120972997D01*
X167637441Y-121119494D01*
X167637445Y-121119499D01*
X167765500Y-121247554D01*
X167765505Y-121247558D01*
X167893287Y-121340396D01*
X167912006Y-121353996D01*
X168017484Y-121407740D01*
X168073360Y-121436211D01*
X168073363Y-121436212D01*
X168159476Y-121464191D01*
X168245591Y-121492171D01*
X168328429Y-121505291D01*
X168424449Y-121520500D01*
X168424454Y-121520500D01*
X168605551Y-121520500D01*
X168692259Y-121506765D01*
X168784409Y-121492171D01*
X168956639Y-121436211D01*
X169117994Y-121353996D01*
X169264501Y-121247553D01*
X169392553Y-121119501D01*
X169498996Y-120972994D01*
X169581211Y-120811639D01*
X169637171Y-120639409D01*
X169651765Y-120547259D01*
X169665500Y-120460551D01*
X169665500Y-120279448D01*
X169649019Y-120175397D01*
X169637171Y-120100591D01*
X169581211Y-119928361D01*
X169581211Y-119928360D01*
X169552740Y-119872484D01*
X169498996Y-119767006D01*
X169485396Y-119748287D01*
X169392558Y-119620505D01*
X169392554Y-119620500D01*
X169264499Y-119492445D01*
X169264494Y-119492441D01*
X169117997Y-119386006D01*
X169117996Y-119386005D01*
X169117994Y-119386004D01*
X169039290Y-119345902D01*
X168956639Y-119303788D01*
X168956636Y-119303787D01*
X168784410Y-119247829D01*
X168624321Y-119222473D01*
X168561186Y-119192544D01*
X168524255Y-119133232D01*
X168525253Y-119063370D01*
X168563863Y-119005137D01*
X168624321Y-118977527D01*
X168694425Y-118966422D01*
X168784409Y-118952171D01*
X168956639Y-118896211D01*
X169117994Y-118813996D01*
X169264501Y-118707553D01*
X169392553Y-118579501D01*
X169498996Y-118432994D01*
X169581211Y-118271639D01*
X169637171Y-118099409D01*
X169651765Y-118007259D01*
X169665500Y-117920551D01*
X169665500Y-117739448D01*
X169638181Y-117566970D01*
X169637171Y-117560591D01*
X169581211Y-117388361D01*
X169581211Y-117388360D01*
X169550993Y-117329055D01*
X169498996Y-117227006D01*
X169458264Y-117170943D01*
X169392558Y-117080505D01*
X169392554Y-117080500D01*
X169264499Y-116952445D01*
X169264494Y-116952441D01*
X169117997Y-116846006D01*
X169117996Y-116846005D01*
X169117994Y-116846004D01*
X169066300Y-116819664D01*
X168956639Y-116763788D01*
X168956636Y-116763787D01*
X168784410Y-116707829D01*
X168624321Y-116682473D01*
X168561186Y-116652544D01*
X168524255Y-116593232D01*
X168525253Y-116523370D01*
X168563863Y-116465137D01*
X168624321Y-116437527D01*
X168694425Y-116426422D01*
X168784409Y-116412171D01*
X168956639Y-116356211D01*
X169117994Y-116273996D01*
X169264501Y-116167553D01*
X169392553Y-116039501D01*
X169498996Y-115892994D01*
X169581211Y-115731639D01*
X169637171Y-115559409D01*
X169651765Y-115467259D01*
X169665500Y-115380551D01*
X169665500Y-115199448D01*
X169649019Y-115095397D01*
X169637171Y-115020591D01*
X169581211Y-114848361D01*
X169581211Y-114848360D01*
X169552740Y-114792484D01*
X169498996Y-114687006D01*
X169421630Y-114580520D01*
X169392558Y-114540505D01*
X169392554Y-114540500D01*
X169264499Y-114412445D01*
X169264494Y-114412441D01*
X169117997Y-114306006D01*
X169117996Y-114306005D01*
X169117994Y-114306004D01*
X169026502Y-114259386D01*
X168956639Y-114223788D01*
X168956636Y-114223787D01*
X168784410Y-114167829D01*
X168624321Y-114142473D01*
X168561186Y-114112544D01*
X168524255Y-114053232D01*
X168525253Y-113983370D01*
X168563863Y-113925137D01*
X168624321Y-113897527D01*
X168694425Y-113886422D01*
X168784409Y-113872171D01*
X168956639Y-113816211D01*
X169117994Y-113733996D01*
X169264501Y-113627553D01*
X169392553Y-113499501D01*
X169498996Y-113352994D01*
X169581211Y-113191639D01*
X169637171Y-113019409D01*
X169651765Y-112927259D01*
X169665500Y-112840551D01*
X169665500Y-112659448D01*
X169649019Y-112555397D01*
X169637171Y-112480591D01*
X169581211Y-112308361D01*
X169581211Y-112308360D01*
X169552740Y-112252484D01*
X169498996Y-112147006D01*
X169485396Y-112128287D01*
X169392558Y-112000505D01*
X169392554Y-112000500D01*
X169264499Y-111872445D01*
X169264494Y-111872441D01*
X169117997Y-111766006D01*
X169117996Y-111766005D01*
X169117994Y-111766004D01*
X169066300Y-111739664D01*
X168956639Y-111683788D01*
X168956636Y-111683787D01*
X168784410Y-111627829D01*
X168624321Y-111602473D01*
X168561186Y-111572544D01*
X168524255Y-111513232D01*
X168525253Y-111443370D01*
X168563863Y-111385137D01*
X168624321Y-111357527D01*
X168694425Y-111346422D01*
X168784409Y-111332171D01*
X168956639Y-111276211D01*
X169117994Y-111193996D01*
X169264501Y-111087553D01*
X169392553Y-110959501D01*
X169498996Y-110812994D01*
X169581211Y-110651639D01*
X169637171Y-110479409D01*
X169651765Y-110387259D01*
X169665500Y-110300551D01*
X169665500Y-110119448D01*
X169649019Y-110015397D01*
X169637171Y-109940591D01*
X169581211Y-109768361D01*
X169581211Y-109768360D01*
X169552740Y-109712484D01*
X169498996Y-109607006D01*
X169452506Y-109543018D01*
X169392558Y-109460505D01*
X169392554Y-109460500D01*
X169264499Y-109332445D01*
X169264494Y-109332441D01*
X169117997Y-109226006D01*
X169117996Y-109226005D01*
X169117994Y-109226004D01*
X169066300Y-109199664D01*
X168956639Y-109143788D01*
X168956636Y-109143787D01*
X168784410Y-109087829D01*
X168624321Y-109062473D01*
X168561186Y-109032544D01*
X168524255Y-108973232D01*
X168525253Y-108903370D01*
X168563863Y-108845137D01*
X168624321Y-108817527D01*
X168694425Y-108806422D01*
X168784409Y-108792171D01*
X168956639Y-108736211D01*
X169117994Y-108653996D01*
X169264501Y-108547553D01*
X169392553Y-108419501D01*
X169498996Y-108272994D01*
X169581211Y-108111639D01*
X169637171Y-107939409D01*
X169651765Y-107847259D01*
X169665500Y-107760551D01*
X169665500Y-107579448D01*
X169644354Y-107445943D01*
X169637171Y-107400591D01*
X169581211Y-107228361D01*
X169581211Y-107228360D01*
X169544485Y-107156282D01*
X169498996Y-107067006D01*
X169482626Y-107044475D01*
X169392558Y-106920505D01*
X169392554Y-106920500D01*
X169264499Y-106792445D01*
X169264494Y-106792441D01*
X169117997Y-106686006D01*
X169117996Y-106686005D01*
X169117994Y-106686004D01*
X169066300Y-106659664D01*
X168956639Y-106603788D01*
X168956636Y-106603787D01*
X168784410Y-106547829D01*
X168624321Y-106522473D01*
X168561186Y-106492544D01*
X168524255Y-106433232D01*
X168525253Y-106363370D01*
X168563863Y-106305137D01*
X168624321Y-106277527D01*
X168694425Y-106266422D01*
X168784409Y-106252171D01*
X168956639Y-106196211D01*
X169117994Y-106113996D01*
X169264501Y-106007553D01*
X169392553Y-105879501D01*
X169498996Y-105732994D01*
X169581211Y-105571639D01*
X169637171Y-105399409D01*
X169651765Y-105307259D01*
X169665500Y-105220551D01*
X169665500Y-105039448D01*
X169649019Y-104935397D01*
X169637171Y-104860591D01*
X169581211Y-104688361D01*
X169581211Y-104688360D01*
X169552740Y-104632484D01*
X169498996Y-104527006D01*
X169485396Y-104508287D01*
X169392558Y-104380505D01*
X169392554Y-104380500D01*
X169264499Y-104252445D01*
X169264494Y-104252441D01*
X169117997Y-104146006D01*
X169117996Y-104146005D01*
X169117994Y-104146004D01*
X169066300Y-104119664D01*
X168956639Y-104063788D01*
X168956636Y-104063787D01*
X168784410Y-104007829D01*
X168624321Y-103982473D01*
X168561186Y-103952544D01*
X168524255Y-103893232D01*
X168525253Y-103823370D01*
X168563863Y-103765137D01*
X168624321Y-103737527D01*
X168694425Y-103726422D01*
X168784409Y-103712171D01*
X168956639Y-103656211D01*
X169117994Y-103573996D01*
X169264501Y-103467553D01*
X169392553Y-103339501D01*
X169498996Y-103192994D01*
X169581211Y-103031639D01*
X169637171Y-102859409D01*
X169651765Y-102767259D01*
X169665500Y-102680551D01*
X169665500Y-102499448D01*
X169649019Y-102395397D01*
X169637171Y-102320591D01*
X169581211Y-102148361D01*
X169581211Y-102148360D01*
X169552740Y-102092484D01*
X169498996Y-101987006D01*
X169485396Y-101968287D01*
X169392558Y-101840505D01*
X169392554Y-101840500D01*
X169264499Y-101712445D01*
X169264494Y-101712441D01*
X169117997Y-101606006D01*
X169117996Y-101606005D01*
X169117994Y-101606004D01*
X169066300Y-101579664D01*
X168956639Y-101523788D01*
X168956636Y-101523787D01*
X168784410Y-101467829D01*
X168624321Y-101442473D01*
X168561186Y-101412544D01*
X168524255Y-101353232D01*
X168525253Y-101283370D01*
X168563863Y-101225137D01*
X168624321Y-101197527D01*
X168694425Y-101186422D01*
X168784409Y-101172171D01*
X168956639Y-101116211D01*
X169117994Y-101033996D01*
X169264501Y-100927553D01*
X169392553Y-100799501D01*
X169498996Y-100652994D01*
X169581211Y-100491639D01*
X169637171Y-100319409D01*
X169651765Y-100227259D01*
X169665500Y-100140551D01*
X169665500Y-99959448D01*
X169649019Y-99855397D01*
X169637171Y-99780591D01*
X169581211Y-99608361D01*
X169581211Y-99608360D01*
X169552740Y-99552484D01*
X169498996Y-99447006D01*
X169485396Y-99428287D01*
X169392558Y-99300505D01*
X169392554Y-99300500D01*
X169264499Y-99172445D01*
X169264494Y-99172441D01*
X169117997Y-99066006D01*
X169117996Y-99066005D01*
X169117994Y-99066004D01*
X169066300Y-99039664D01*
X168956639Y-98983788D01*
X168956636Y-98983787D01*
X168784410Y-98927829D01*
X168624321Y-98902473D01*
X168561186Y-98872544D01*
X168524255Y-98813232D01*
X168525253Y-98743370D01*
X168563863Y-98685137D01*
X168624321Y-98657527D01*
X168694425Y-98646422D01*
X168784409Y-98632171D01*
X168956639Y-98576211D01*
X169117994Y-98493996D01*
X169264501Y-98387553D01*
X169392553Y-98259501D01*
X169498996Y-98112994D01*
X169581211Y-97951639D01*
X169637171Y-97779409D01*
X169656672Y-97656284D01*
X169665500Y-97600551D01*
X169665500Y-97419448D01*
X169641978Y-97270943D01*
X169637171Y-97240591D01*
X169590407Y-97096664D01*
X169581212Y-97068363D01*
X169581211Y-97068360D01*
X169536846Y-96981290D01*
X169498996Y-96907006D01*
X169468390Y-96864880D01*
X169392558Y-96760505D01*
X169392554Y-96760500D01*
X169264499Y-96632445D01*
X169264494Y-96632441D01*
X169117995Y-96526004D01*
X168986314Y-96458908D01*
X168935519Y-96410934D01*
X168918724Y-96343113D01*
X168941262Y-96276978D01*
X168995977Y-96233527D01*
X169004295Y-96230492D01*
X169033217Y-96221095D01*
X169222557Y-96124620D01*
X169394459Y-95999727D01*
X169394464Y-95999723D01*
X169544723Y-95849464D01*
X169544727Y-95849459D01*
X169669620Y-95677557D01*
X169766095Y-95488217D01*
X169831757Y-95286129D01*
X169831757Y-95286126D01*
X169842231Y-95220000D01*
X168948012Y-95220000D01*
X168980925Y-95162993D01*
X169015000Y-95035826D01*
X169015000Y-94904174D01*
X168980925Y-94777007D01*
X168948012Y-94720000D01*
X169842231Y-94720000D01*
X169831757Y-94653873D01*
X169831757Y-94653870D01*
X169766095Y-94451782D01*
X169669620Y-94262442D01*
X169544727Y-94090540D01*
X169544723Y-94090535D01*
X169394464Y-93940276D01*
X169394459Y-93940272D01*
X169222558Y-93815379D01*
X169212954Y-93810486D01*
X169162157Y-93762512D01*
X169145361Y-93694692D01*
X169167897Y-93628556D01*
X169212954Y-93589514D01*
X169222558Y-93584620D01*
X169394459Y-93459727D01*
X169394464Y-93459723D01*
X169544723Y-93309464D01*
X169544727Y-93309459D01*
X169669620Y-93137557D01*
X169766095Y-92948217D01*
X169831757Y-92746129D01*
X169831757Y-92746126D01*
X169842231Y-92680000D01*
X168948012Y-92680000D01*
X168980925Y-92622993D01*
X169015000Y-92495826D01*
X169015000Y-92364174D01*
X168980925Y-92237007D01*
X168948012Y-92180000D01*
X169842231Y-92180000D01*
X169831757Y-92113873D01*
X169831757Y-92113870D01*
X169766095Y-91911782D01*
X169669620Y-91722442D01*
X169544727Y-91550540D01*
X169544723Y-91550535D01*
X169394464Y-91400276D01*
X169394459Y-91400272D01*
X169222557Y-91275379D01*
X169033217Y-91178904D01*
X169004292Y-91169506D01*
X168946616Y-91130068D01*
X168919418Y-91065710D01*
X168931333Y-90996863D01*
X168978577Y-90945388D01*
X168986315Y-90941090D01*
X169117994Y-90873996D01*
X169264501Y-90767553D01*
X169392553Y-90639501D01*
X169498996Y-90492994D01*
X169581211Y-90331639D01*
X169637171Y-90159409D01*
X169651765Y-90067259D01*
X169665500Y-89980551D01*
X169665500Y-89799448D01*
X169649019Y-89695397D01*
X169637171Y-89620591D01*
X169581211Y-89448361D01*
X169581211Y-89448360D01*
X169552740Y-89392484D01*
X169498996Y-89287006D01*
X169485396Y-89268287D01*
X169392558Y-89140505D01*
X169392554Y-89140500D01*
X169264499Y-89012445D01*
X169264494Y-89012441D01*
X169117997Y-88906006D01*
X169117996Y-88906005D01*
X169117994Y-88906004D01*
X169066300Y-88879664D01*
X168956639Y-88823788D01*
X168956636Y-88823787D01*
X168784410Y-88767829D01*
X168624321Y-88742473D01*
X168561186Y-88712544D01*
X168524255Y-88653232D01*
X168525253Y-88583370D01*
X168563863Y-88525137D01*
X168624321Y-88497527D01*
X168694425Y-88486422D01*
X168784409Y-88472171D01*
X168956639Y-88416211D01*
X169117994Y-88333996D01*
X169264501Y-88227553D01*
X169392553Y-88099501D01*
X169498996Y-87952994D01*
X169581211Y-87791639D01*
X169637171Y-87619409D01*
X169651765Y-87527259D01*
X169665500Y-87440551D01*
X169665500Y-87259448D01*
X169649019Y-87155397D01*
X169637171Y-87080591D01*
X169581211Y-86908361D01*
X169581211Y-86908360D01*
X169552740Y-86852484D01*
X169498996Y-86747006D01*
X169485396Y-86728287D01*
X169392558Y-86600505D01*
X169392554Y-86600500D01*
X169264499Y-86472445D01*
X169264494Y-86472441D01*
X169117997Y-86366006D01*
X169117996Y-86366005D01*
X169117994Y-86366004D01*
X169066300Y-86339664D01*
X168956639Y-86283788D01*
X168956636Y-86283787D01*
X168784410Y-86227829D01*
X168624321Y-86202473D01*
X168561186Y-86172544D01*
X168524255Y-86113232D01*
X168525253Y-86043370D01*
X168563863Y-85985137D01*
X168624321Y-85957527D01*
X168694425Y-85946422D01*
X168784409Y-85932171D01*
X168956639Y-85876211D01*
X169117994Y-85793996D01*
X169264501Y-85687553D01*
X169392553Y-85559501D01*
X169498996Y-85412994D01*
X169581211Y-85251639D01*
X169637171Y-85079409D01*
X169652834Y-84980518D01*
X169665500Y-84900551D01*
X169665500Y-84719448D01*
X169643263Y-84579055D01*
X169637171Y-84540591D01*
X169581211Y-84368361D01*
X169581211Y-84368360D01*
X169530184Y-84268216D01*
X169498996Y-84207006D01*
X169485396Y-84188287D01*
X169392558Y-84060505D01*
X169392554Y-84060500D01*
X169264499Y-83932445D01*
X169264494Y-83932441D01*
X169117997Y-83826006D01*
X169117996Y-83826005D01*
X169117994Y-83826004D01*
X169066300Y-83799664D01*
X168956639Y-83743788D01*
X168956636Y-83743787D01*
X168784410Y-83687829D01*
X168624321Y-83662473D01*
X168561186Y-83632544D01*
X168524255Y-83573232D01*
X168525253Y-83503370D01*
X168563863Y-83445137D01*
X168624321Y-83417527D01*
X168694425Y-83406422D01*
X168784409Y-83392171D01*
X168956639Y-83336211D01*
X169117994Y-83253996D01*
X169264501Y-83147553D01*
X169392553Y-83019501D01*
X169498996Y-82872994D01*
X169581211Y-82711639D01*
X169637171Y-82539409D01*
X169651765Y-82447259D01*
X169665500Y-82360551D01*
X169665500Y-82179448D01*
X169649019Y-82075397D01*
X169637171Y-82000591D01*
X169609191Y-81914476D01*
X169581212Y-81828363D01*
X169581211Y-81828360D01*
X169551207Y-81769475D01*
X169498996Y-81667006D01*
X169485396Y-81648287D01*
X169392558Y-81520505D01*
X169392554Y-81520500D01*
X169264499Y-81392445D01*
X169264494Y-81392441D01*
X169117997Y-81286006D01*
X169117996Y-81286005D01*
X169117994Y-81286004D01*
X169066300Y-81259664D01*
X168956639Y-81203788D01*
X168956636Y-81203787D01*
X168784410Y-81147829D01*
X168624321Y-81122473D01*
X168561186Y-81092544D01*
X168524255Y-81033232D01*
X168525253Y-80963370D01*
X168563863Y-80905137D01*
X168624321Y-80877527D01*
X168694425Y-80866422D01*
X168784409Y-80852171D01*
X168956639Y-80796211D01*
X169117994Y-80713996D01*
X169264501Y-80607553D01*
X169392553Y-80479501D01*
X169498996Y-80332994D01*
X169581211Y-80171639D01*
X169637171Y-79999409D01*
X169657951Y-79868209D01*
X169665500Y-79820551D01*
X169665500Y-79639448D01*
X169649019Y-79535397D01*
X169637171Y-79460591D01*
X169581211Y-79288361D01*
X169581211Y-79288360D01*
X169552740Y-79232484D01*
X169498996Y-79127006D01*
X169485396Y-79108287D01*
X169392558Y-78980505D01*
X169392554Y-78980500D01*
X169264499Y-78852445D01*
X169264494Y-78852441D01*
X169117997Y-78746006D01*
X169117996Y-78746005D01*
X169117994Y-78746004D01*
X169066300Y-78719664D01*
X168956639Y-78663788D01*
X168956636Y-78663787D01*
X168784410Y-78607829D01*
X168624321Y-78582473D01*
X168561186Y-78552544D01*
X168524255Y-78493232D01*
X168525253Y-78423370D01*
X168563863Y-78365137D01*
X168624321Y-78337527D01*
X168694425Y-78326422D01*
X168784409Y-78312171D01*
X168956639Y-78256211D01*
X169117994Y-78173996D01*
X169264501Y-78067553D01*
X169392553Y-77939501D01*
X169498996Y-77792994D01*
X169581211Y-77631639D01*
X169637171Y-77459409D01*
X169653626Y-77355518D01*
X169665500Y-77280551D01*
X169665500Y-77099448D01*
X169642471Y-76954055D01*
X169637171Y-76920591D01*
X169581211Y-76748361D01*
X169581211Y-76748360D01*
X169541016Y-76669475D01*
X169498996Y-76587006D01*
X169485396Y-76568287D01*
X169392558Y-76440505D01*
X169392554Y-76440500D01*
X169264495Y-76312441D01*
X169143202Y-76224318D01*
X169100536Y-76168989D01*
X169094557Y-76099375D01*
X169127162Y-76037580D01*
X169188001Y-76003223D01*
X169216087Y-76000000D01*
X169412828Y-76000000D01*
X169412844Y-75999999D01*
X169472372Y-75993598D01*
X169472379Y-75993596D01*
X169607086Y-75943354D01*
X169607093Y-75943350D01*
X169722187Y-75857190D01*
X169722190Y-75857187D01*
X169808350Y-75742093D01*
X169808354Y-75742086D01*
X169858596Y-75607379D01*
X169858598Y-75607372D01*
X169864999Y-75547844D01*
X169865000Y-75547827D01*
X169865000Y-74900000D01*
X168948012Y-74900000D01*
X168980925Y-74842993D01*
X169015000Y-74715826D01*
X169015000Y-74584174D01*
X168980925Y-74457007D01*
X168948012Y-74400000D01*
X169865000Y-74400000D01*
X169865000Y-73752172D01*
X169864999Y-73752155D01*
X169858598Y-73692627D01*
X169858596Y-73692620D01*
X169808354Y-73557913D01*
X169808350Y-73557906D01*
X169722190Y-73442812D01*
X169722187Y-73442809D01*
X169607093Y-73356649D01*
X169607086Y-73356645D01*
X169472379Y-73306403D01*
X169472372Y-73306401D01*
X169412844Y-73300000D01*
X168765000Y-73300000D01*
X168765000Y-74216988D01*
X168707993Y-74184075D01*
X168580826Y-74150000D01*
X168449174Y-74150000D01*
X168322007Y-74184075D01*
X168265000Y-74216988D01*
X168265000Y-73300000D01*
X167617155Y-73300000D01*
X167557627Y-73306401D01*
X167557620Y-73306403D01*
X167422913Y-73356645D01*
X167422906Y-73356649D01*
X167307812Y-73442809D01*
X167307809Y-73442812D01*
X167221649Y-73557906D01*
X167221645Y-73557913D01*
X167171403Y-73692620D01*
X167171401Y-73692627D01*
X167165000Y-73752155D01*
X167165000Y-74400000D01*
X168081988Y-74400000D01*
X168049075Y-74457007D01*
X168015000Y-74584174D01*
X168015000Y-74715826D01*
X168049075Y-74842993D01*
X168081988Y-74900000D01*
X167165000Y-74900000D01*
X167165000Y-75547844D01*
X167171401Y-75607372D01*
X167171403Y-75607379D01*
X167221645Y-75742086D01*
X167221649Y-75742093D01*
X167307809Y-75857187D01*
X167307812Y-75857190D01*
X167422906Y-75943350D01*
X167422913Y-75943354D01*
X167557620Y-75993596D01*
X167557627Y-75993598D01*
X167617155Y-75999999D01*
X167617172Y-76000000D01*
X167813913Y-76000000D01*
X167880952Y-76019685D01*
X167926707Y-76072489D01*
X167936651Y-76141647D01*
X167907626Y-76205203D01*
X167886798Y-76224318D01*
X167765504Y-76312441D01*
X167637445Y-76440500D01*
X167637441Y-76440505D01*
X167531006Y-76587002D01*
X167448788Y-76748360D01*
X167448787Y-76748363D01*
X167392829Y-76920589D01*
X167364500Y-77099448D01*
X167364500Y-77280551D01*
X167392829Y-77459410D01*
X167448787Y-77631636D01*
X167448788Y-77631639D01*
X167531006Y-77792997D01*
X167637441Y-77939494D01*
X167637445Y-77939499D01*
X167765500Y-78067554D01*
X167765505Y-78067558D01*
X167893287Y-78160396D01*
X167912006Y-78173996D01*
X168017484Y-78227740D01*
X168073360Y-78256211D01*
X168073363Y-78256212D01*
X168159476Y-78284191D01*
X168245591Y-78312171D01*
X168318639Y-78323740D01*
X168405678Y-78337527D01*
X168468813Y-78367456D01*
X168505744Y-78426768D01*
X168504746Y-78496631D01*
X168466136Y-78554863D01*
X168405678Y-78582473D01*
X168245589Y-78607829D01*
X168073363Y-78663787D01*
X168073360Y-78663788D01*
X167912002Y-78746006D01*
X167765505Y-78852441D01*
X167765500Y-78852445D01*
X167637445Y-78980500D01*
X167637441Y-78980505D01*
X167531006Y-79127002D01*
X167448788Y-79288360D01*
X167448787Y-79288363D01*
X167392829Y-79460589D01*
X167364500Y-79639448D01*
X167364500Y-79820551D01*
X167392829Y-79999410D01*
X167448787Y-80171636D01*
X167448788Y-80171639D01*
X167504664Y-80281300D01*
X167530387Y-80331784D01*
X167531006Y-80332997D01*
X167637441Y-80479494D01*
X167637445Y-80479499D01*
X167765500Y-80607554D01*
X167765505Y-80607558D01*
X167837103Y-80659576D01*
X167912006Y-80713996D01*
X168017484Y-80767740D01*
X168073360Y-80796211D01*
X168073363Y-80796212D01*
X168159476Y-80824191D01*
X168245591Y-80852171D01*
X168318639Y-80863740D01*
X168405678Y-80877527D01*
X168468813Y-80907456D01*
X168505744Y-80966768D01*
X168504746Y-81036631D01*
X168466136Y-81094863D01*
X168405678Y-81122473D01*
X168245589Y-81147829D01*
X168073363Y-81203787D01*
X168073360Y-81203788D01*
X167912002Y-81286006D01*
X167765505Y-81392441D01*
X167765500Y-81392445D01*
X167637445Y-81520500D01*
X167637441Y-81520505D01*
X167531006Y-81667002D01*
X167448788Y-81828360D01*
X167448787Y-81828363D01*
X167392829Y-82000589D01*
X167364500Y-82179448D01*
X167364500Y-82360551D01*
X167392829Y-82539410D01*
X167448787Y-82711636D01*
X167448788Y-82711639D01*
X167531006Y-82872997D01*
X167637441Y-83019494D01*
X167637445Y-83019499D01*
X167765500Y-83147554D01*
X167765505Y-83147558D01*
X167893287Y-83240396D01*
X167912006Y-83253996D01*
X168017484Y-83307740D01*
X168073360Y-83336211D01*
X168073363Y-83336212D01*
X168159476Y-83364191D01*
X168245591Y-83392171D01*
X168318639Y-83403740D01*
X168405678Y-83417527D01*
X168468813Y-83447456D01*
X168505744Y-83506768D01*
X168504746Y-83576631D01*
X168466136Y-83634863D01*
X168405678Y-83662473D01*
X168245589Y-83687829D01*
X168073363Y-83743787D01*
X168073360Y-83743788D01*
X167912002Y-83826006D01*
X167765505Y-83932441D01*
X167765500Y-83932445D01*
X167637445Y-84060500D01*
X167637441Y-84060505D01*
X167531006Y-84207002D01*
X167448788Y-84368360D01*
X167448787Y-84368363D01*
X167392829Y-84540589D01*
X167364500Y-84719448D01*
X167364500Y-84900551D01*
X167392829Y-85079410D01*
X167448787Y-85251636D01*
X167448788Y-85251639D01*
X167531006Y-85412997D01*
X167637441Y-85559494D01*
X167637445Y-85559499D01*
X167765500Y-85687554D01*
X167765505Y-85687558D01*
X167893287Y-85780396D01*
X167912006Y-85793996D01*
X168017484Y-85847740D01*
X168073360Y-85876211D01*
X168073363Y-85876212D01*
X168159476Y-85904191D01*
X168245591Y-85932171D01*
X168318639Y-85943740D01*
X168405678Y-85957527D01*
X168468813Y-85987456D01*
X168505744Y-86046768D01*
X168504746Y-86116631D01*
X168466136Y-86174863D01*
X168405678Y-86202473D01*
X168245589Y-86227829D01*
X168073363Y-86283787D01*
X168073360Y-86283788D01*
X167912002Y-86366006D01*
X167765505Y-86472441D01*
X167765500Y-86472445D01*
X167637445Y-86600500D01*
X167637441Y-86600505D01*
X167531006Y-86747002D01*
X167448788Y-86908360D01*
X167448787Y-86908363D01*
X167392829Y-87080589D01*
X167364500Y-87259448D01*
X167364500Y-87440551D01*
X167392829Y-87619410D01*
X167448787Y-87791636D01*
X167448788Y-87791639D01*
X167531006Y-87952997D01*
X167637441Y-88099494D01*
X167637445Y-88099499D01*
X167765500Y-88227554D01*
X167765505Y-88227558D01*
X167893287Y-88320396D01*
X167912006Y-88333996D01*
X168017484Y-88387740D01*
X168073360Y-88416211D01*
X168073363Y-88416212D01*
X168159476Y-88444191D01*
X168245591Y-88472171D01*
X168318639Y-88483740D01*
X168405678Y-88497527D01*
X168468813Y-88527456D01*
X168505744Y-88586768D01*
X168504746Y-88656631D01*
X168466136Y-88714863D01*
X168405678Y-88742473D01*
X168245589Y-88767829D01*
X168073363Y-88823787D01*
X168073360Y-88823788D01*
X167912002Y-88906006D01*
X167765505Y-89012441D01*
X167765500Y-89012445D01*
X167637445Y-89140500D01*
X167637441Y-89140505D01*
X167531006Y-89287002D01*
X167448788Y-89448360D01*
X167448787Y-89448363D01*
X167392829Y-89620589D01*
X167364500Y-89799448D01*
X167364500Y-89980551D01*
X167392829Y-90159410D01*
X167448787Y-90331636D01*
X167448788Y-90331639D01*
X167531006Y-90492997D01*
X167637441Y-90639494D01*
X167637445Y-90639499D01*
X167765500Y-90767554D01*
X167765505Y-90767558D01*
X167893287Y-90860396D01*
X167912006Y-90873996D01*
X168013780Y-90925853D01*
X168043684Y-90941090D01*
X168094480Y-90989065D01*
X168111275Y-91056886D01*
X168088737Y-91123021D01*
X168034022Y-91166472D01*
X168025708Y-91169506D01*
X167996781Y-91178905D01*
X167807442Y-91275379D01*
X167635540Y-91400272D01*
X167635535Y-91400276D01*
X167485276Y-91550535D01*
X167485272Y-91550540D01*
X167360379Y-91722442D01*
X167263904Y-91911782D01*
X167198242Y-92113870D01*
X167198242Y-92113873D01*
X167187769Y-92180000D01*
X168081988Y-92180000D01*
X168049075Y-92237007D01*
X168015000Y-92364174D01*
X168015000Y-92495826D01*
X168049075Y-92622993D01*
X168081988Y-92680000D01*
X167187769Y-92680000D01*
X167198242Y-92746126D01*
X167198242Y-92746129D01*
X167263904Y-92948217D01*
X167360379Y-93137557D01*
X167485272Y-93309459D01*
X167485276Y-93309464D01*
X167635535Y-93459723D01*
X167635540Y-93459727D01*
X167807444Y-93584622D01*
X167817048Y-93589516D01*
X167867844Y-93637491D01*
X167884638Y-93705312D01*
X167862100Y-93771447D01*
X167832133Y-93801394D01*
X167655980Y-93925404D01*
X167623750Y-93936364D01*
X167591677Y-93947808D01*
X167590740Y-93947590D01*
X167589830Y-93947900D01*
X167556771Y-93939690D01*
X167523623Y-93931982D01*
X167522953Y-93931292D01*
X167522020Y-93931061D01*
X167498655Y-93906290D01*
X167474929Y-93881876D01*
X167474432Y-93880609D01*
X167474078Y-93880234D01*
X167473888Y-93879222D01*
X167464826Y-93856110D01*
X167434577Y-93743216D01*
X167390440Y-93666768D01*
X167355524Y-93606290D01*
X167355518Y-93606282D01*
X167243717Y-93494481D01*
X167243709Y-93494475D01*
X167106790Y-93415426D01*
X167106786Y-93415424D01*
X167106784Y-93415423D01*
X166954057Y-93374500D01*
X166795943Y-93374500D01*
X166643216Y-93415423D01*
X166643209Y-93415426D01*
X166506290Y-93494475D01*
X166499839Y-93499426D01*
X166498978Y-93498304D01*
X166482205Y-93507461D01*
X166459526Y-93523612D01*
X166451962Y-93523972D01*
X166445316Y-93527601D01*
X166417544Y-93525612D01*
X166389736Y-93526937D01*
X166379647Y-93522898D01*
X166375625Y-93522610D01*
X166356970Y-93513819D01*
X166270815Y-93464078D01*
X166222599Y-93413512D01*
X166209375Y-93344905D01*
X166225427Y-93294691D01*
X166259847Y-93235074D01*
X166300770Y-93082347D01*
X166300770Y-92924233D01*
X166259847Y-92771506D01*
X166218222Y-92699409D01*
X166180794Y-92634580D01*
X166180788Y-92634572D01*
X166068987Y-92522771D01*
X166068979Y-92522765D01*
X165932060Y-92443716D01*
X165932056Y-92443714D01*
X165932054Y-92443713D01*
X165779327Y-92402790D01*
X165679797Y-92402790D01*
X165612758Y-92383105D01*
X165567003Y-92330301D01*
X165557059Y-92261143D01*
X165565235Y-92231338D01*
X165582464Y-92189744D01*
X165607463Y-92064069D01*
X165607463Y-91935931D01*
X165607463Y-91935928D01*
X165582465Y-91810261D01*
X165582464Y-91810260D01*
X165582464Y-91810256D01*
X165533428Y-91691873D01*
X165533427Y-91691872D01*
X165533424Y-91691866D01*
X165462239Y-91585331D01*
X165462236Y-91585327D01*
X165371635Y-91494726D01*
X165371631Y-91494723D01*
X165265096Y-91423538D01*
X165265087Y-91423533D01*
X165146707Y-91374499D01*
X165146701Y-91374497D01*
X165021034Y-91349500D01*
X165021032Y-91349500D01*
X164892894Y-91349500D01*
X164892892Y-91349500D01*
X164767224Y-91374497D01*
X164767218Y-91374499D01*
X164648838Y-91423533D01*
X164648829Y-91423538D01*
X164542294Y-91494723D01*
X164542290Y-91494726D01*
X164451689Y-91585327D01*
X164451686Y-91585331D01*
X164380501Y-91691866D01*
X164380496Y-91691875D01*
X164331462Y-91810255D01*
X164331460Y-91810261D01*
X164306463Y-91935928D01*
X164306463Y-91935931D01*
X164306463Y-92064069D01*
X164306463Y-92064071D01*
X164306462Y-92064071D01*
X154365810Y-92064071D01*
X154341211Y-91988361D01*
X154340078Y-91986138D01*
X154340078Y-91986136D01*
X154340076Y-91986134D01*
X154258996Y-91827006D01*
X154245396Y-91808287D01*
X154152558Y-91680505D01*
X154152554Y-91680500D01*
X154024499Y-91552445D01*
X154024494Y-91552441D01*
X153877997Y-91446006D01*
X153877996Y-91446005D01*
X153877994Y-91446004D01*
X153826300Y-91419664D01*
X153716639Y-91363788D01*
X153716636Y-91363787D01*
X153544410Y-91307829D01*
X153384321Y-91282473D01*
X153321186Y-91252544D01*
X153284255Y-91193232D01*
X153285253Y-91123370D01*
X153323863Y-91065137D01*
X153384321Y-91037527D01*
X153454425Y-91026422D01*
X153544409Y-91012171D01*
X153716639Y-90956211D01*
X153877994Y-90873996D01*
X154024501Y-90767553D01*
X154152553Y-90639501D01*
X154258996Y-90492994D01*
X154341211Y-90331639D01*
X154397171Y-90159409D01*
X154411765Y-90067259D01*
X154425500Y-89980551D01*
X154425500Y-89799448D01*
X154409019Y-89695397D01*
X154397171Y-89620591D01*
X154341211Y-89448361D01*
X154341211Y-89448360D01*
X154312740Y-89392484D01*
X154258996Y-89287006D01*
X154245396Y-89268287D01*
X154152558Y-89140505D01*
X154152554Y-89140500D01*
X154024499Y-89012445D01*
X154024494Y-89012441D01*
X153877997Y-88906006D01*
X153877996Y-88906005D01*
X153877994Y-88906004D01*
X153826300Y-88879664D01*
X153716639Y-88823788D01*
X153716636Y-88823787D01*
X153544410Y-88767829D01*
X153384321Y-88742473D01*
X153321186Y-88712544D01*
X153284255Y-88653232D01*
X153285253Y-88583370D01*
X153323863Y-88525137D01*
X153384321Y-88497527D01*
X153454425Y-88486422D01*
X153544409Y-88472171D01*
X153716639Y-88416211D01*
X153877994Y-88333996D01*
X154024501Y-88227553D01*
X154152553Y-88099501D01*
X154258996Y-87952994D01*
X154341211Y-87791639D01*
X154397171Y-87619409D01*
X154411765Y-87527259D01*
X154425500Y-87440551D01*
X154425500Y-87259448D01*
X154409019Y-87155397D01*
X154397171Y-87080591D01*
X154341211Y-86908361D01*
X154341211Y-86908360D01*
X154312740Y-86852484D01*
X154258996Y-86747006D01*
X154245396Y-86728287D01*
X154152558Y-86600505D01*
X154152554Y-86600500D01*
X154024499Y-86472445D01*
X154024494Y-86472441D01*
X153877997Y-86366006D01*
X153877996Y-86366005D01*
X153877994Y-86366004D01*
X153826300Y-86339664D01*
X153716639Y-86283788D01*
X153716636Y-86283787D01*
X153544410Y-86227829D01*
X153384321Y-86202473D01*
X153321186Y-86172544D01*
X153284255Y-86113232D01*
X153285253Y-86043370D01*
X153323863Y-85985137D01*
X153384321Y-85957527D01*
X153454425Y-85946422D01*
X153544409Y-85932171D01*
X153716639Y-85876211D01*
X153877994Y-85793996D01*
X154024501Y-85687553D01*
X154152553Y-85559501D01*
X154258996Y-85412994D01*
X154341211Y-85251639D01*
X154397171Y-85079409D01*
X154412834Y-84980518D01*
X154425500Y-84900551D01*
X154425500Y-84719448D01*
X154397171Y-84540590D01*
X154368105Y-84451134D01*
X154368104Y-84451132D01*
X154358295Y-84420943D01*
X163399500Y-84420943D01*
X163399500Y-84579056D01*
X163440423Y-84731783D01*
X163440426Y-84731790D01*
X163519475Y-84868709D01*
X163519479Y-84868714D01*
X163519480Y-84868716D01*
X163631284Y-84980520D01*
X163631286Y-84980521D01*
X163631290Y-84980524D01*
X163768209Y-85059573D01*
X163768216Y-85059577D01*
X163920943Y-85100500D01*
X163920945Y-85100500D01*
X164079055Y-85100500D01*
X164079057Y-85100500D01*
X164231784Y-85059577D01*
X164368716Y-84980520D01*
X164480520Y-84868716D01*
X164559577Y-84731784D01*
X164600500Y-84579057D01*
X164600500Y-84420943D01*
X164559577Y-84268216D01*
X164524238Y-84207006D01*
X164480524Y-84131290D01*
X164480518Y-84131282D01*
X164368717Y-84019481D01*
X164368709Y-84019475D01*
X164231790Y-83940426D01*
X164231786Y-83940424D01*
X164231784Y-83940423D01*
X164079057Y-83899500D01*
X163920943Y-83899500D01*
X163768216Y-83940423D01*
X163768209Y-83940426D01*
X163631290Y-84019475D01*
X163631282Y-84019481D01*
X163519481Y-84131282D01*
X163519475Y-84131290D01*
X163440426Y-84268209D01*
X163440423Y-84268216D01*
X163399500Y-84420943D01*
X154358295Y-84420943D01*
X154341211Y-84368361D01*
X154341211Y-84368360D01*
X154290184Y-84268216D01*
X154258996Y-84207006D01*
X154245396Y-84188287D01*
X154152558Y-84060505D01*
X154152554Y-84060500D01*
X154024499Y-83932445D01*
X154024494Y-83932441D01*
X153877997Y-83826006D01*
X153877996Y-83826005D01*
X153877994Y-83826004D01*
X153826300Y-83799664D01*
X153716639Y-83743788D01*
X153716636Y-83743787D01*
X153544410Y-83687829D01*
X153384321Y-83662473D01*
X153321186Y-83632544D01*
X153284255Y-83573232D01*
X153285253Y-83503370D01*
X153323863Y-83445137D01*
X153384321Y-83417527D01*
X153454425Y-83406422D01*
X153544409Y-83392171D01*
X153716639Y-83336211D01*
X153877994Y-83253996D01*
X154024501Y-83147553D01*
X154152553Y-83019501D01*
X154258996Y-82872994D01*
X154341211Y-82711639D01*
X154397171Y-82539409D01*
X154411765Y-82447259D01*
X154425500Y-82360551D01*
X154425500Y-82179448D01*
X154424153Y-82170943D01*
X162524500Y-82170943D01*
X162524500Y-82329057D01*
X162532938Y-82360546D01*
X162565423Y-82481783D01*
X162565426Y-82481790D01*
X162644475Y-82618709D01*
X162644479Y-82618714D01*
X162644480Y-82618716D01*
X162756284Y-82730520D01*
X162756286Y-82730521D01*
X162756290Y-82730524D01*
X162893209Y-82809573D01*
X162893216Y-82809577D01*
X163045943Y-82850500D01*
X163045945Y-82850500D01*
X163204055Y-82850500D01*
X163204057Y-82850500D01*
X163356784Y-82809577D01*
X163493716Y-82730520D01*
X163605520Y-82618716D01*
X163684577Y-82481784D01*
X163725500Y-82329057D01*
X163725500Y-82170943D01*
X163684577Y-82018216D01*
X163674400Y-82000589D01*
X163605524Y-81881290D01*
X163605518Y-81881282D01*
X163493717Y-81769481D01*
X163493709Y-81769475D01*
X163356790Y-81690426D01*
X163356786Y-81690424D01*
X163356784Y-81690423D01*
X163204057Y-81649500D01*
X163045943Y-81649500D01*
X162893216Y-81690423D01*
X162893209Y-81690426D01*
X162756290Y-81769475D01*
X162756282Y-81769481D01*
X162644481Y-81881282D01*
X162644475Y-81881290D01*
X162565426Y-82018209D01*
X162565423Y-82018216D01*
X162524500Y-82170943D01*
X154424153Y-82170943D01*
X154409019Y-82075397D01*
X154397171Y-82000591D01*
X154369191Y-81914476D01*
X154341212Y-81828363D01*
X154341211Y-81828360D01*
X154311207Y-81769475D01*
X154258996Y-81667006D01*
X154245396Y-81648287D01*
X154152558Y-81520505D01*
X154152554Y-81520500D01*
X154024499Y-81392445D01*
X154024494Y-81392441D01*
X153877997Y-81286006D01*
X153877996Y-81286005D01*
X153877994Y-81286004D01*
X153826300Y-81259664D01*
X153716639Y-81203788D01*
X153716636Y-81203787D01*
X153544410Y-81147829D01*
X153384321Y-81122473D01*
X153321186Y-81092544D01*
X153284255Y-81033232D01*
X153285253Y-80963370D01*
X153323863Y-80905137D01*
X153384321Y-80877527D01*
X153454425Y-80866422D01*
X153544409Y-80852171D01*
X153716639Y-80796211D01*
X153877994Y-80713996D01*
X154024501Y-80607553D01*
X154152553Y-80479501D01*
X154258996Y-80332994D01*
X154341211Y-80171639D01*
X154390174Y-80020943D01*
X159149500Y-80020943D01*
X159149500Y-80179056D01*
X159190423Y-80331783D01*
X159190426Y-80331790D01*
X159269475Y-80468709D01*
X159269479Y-80468714D01*
X159269480Y-80468716D01*
X159381284Y-80580520D01*
X159381286Y-80580521D01*
X159381290Y-80580524D01*
X159518209Y-80659573D01*
X159518216Y-80659577D01*
X159670943Y-80700500D01*
X159670945Y-80700500D01*
X159829055Y-80700500D01*
X159829057Y-80700500D01*
X159981784Y-80659577D01*
X160118716Y-80580520D01*
X160230520Y-80468716D01*
X160309577Y-80331784D01*
X160350500Y-80179057D01*
X160350500Y-80020943D01*
X160309577Y-79868216D01*
X160282055Y-79820546D01*
X160230524Y-79731290D01*
X160230518Y-79731282D01*
X160118717Y-79619481D01*
X160118709Y-79619475D01*
X159981790Y-79540426D01*
X159981786Y-79540424D01*
X159981784Y-79540423D01*
X159829057Y-79499500D01*
X159670943Y-79499500D01*
X159518216Y-79540423D01*
X159518209Y-79540426D01*
X159381290Y-79619475D01*
X159381282Y-79619481D01*
X159269481Y-79731282D01*
X159269475Y-79731290D01*
X159190426Y-79868209D01*
X159190423Y-79868216D01*
X159149500Y-80020943D01*
X154390174Y-80020943D01*
X154397171Y-79999409D01*
X154417950Y-79868216D01*
X154425500Y-79820551D01*
X154425500Y-79639448D01*
X154409019Y-79535397D01*
X154397171Y-79460591D01*
X154341211Y-79288361D01*
X154341211Y-79288360D01*
X154312740Y-79232484D01*
X154258996Y-79127006D01*
X154245396Y-79108287D01*
X154152558Y-78980505D01*
X154152554Y-78980500D01*
X154024499Y-78852445D01*
X154024494Y-78852441D01*
X153877997Y-78746006D01*
X153877996Y-78746005D01*
X153877994Y-78746004D01*
X153826300Y-78719664D01*
X153716639Y-78663788D01*
X153716636Y-78663787D01*
X153544410Y-78607829D01*
X153384321Y-78582473D01*
X153321186Y-78552544D01*
X153284255Y-78493232D01*
X153285253Y-78423370D01*
X153323863Y-78365137D01*
X153384321Y-78337527D01*
X153454425Y-78326422D01*
X153544409Y-78312171D01*
X153716639Y-78256211D01*
X153877994Y-78173996D01*
X154024501Y-78067553D01*
X154152553Y-77939501D01*
X154258996Y-77792994D01*
X154341211Y-77631639D01*
X154397171Y-77459409D01*
X154413626Y-77355518D01*
X154425500Y-77280551D01*
X154425500Y-77099451D01*
X154422770Y-77082216D01*
X154422770Y-77082214D01*
X154420985Y-77070943D01*
X157599500Y-77070943D01*
X157599500Y-77229057D01*
X157613297Y-77280546D01*
X157640423Y-77381783D01*
X157640426Y-77381790D01*
X157719475Y-77518709D01*
X157719479Y-77518714D01*
X157719480Y-77518716D01*
X157831284Y-77630520D01*
X157831286Y-77630521D01*
X157831290Y-77630524D01*
X157968209Y-77709573D01*
X157968216Y-77709577D01*
X158120943Y-77750500D01*
X158120945Y-77750500D01*
X158279055Y-77750500D01*
X158279057Y-77750500D01*
X158431784Y-77709577D01*
X158568716Y-77630520D01*
X158680520Y-77518716D01*
X158759577Y-77381784D01*
X158800500Y-77229057D01*
X158800500Y-77070943D01*
X158759577Y-76918216D01*
X158720085Y-76849813D01*
X158688984Y-76795943D01*
X161124500Y-76795943D01*
X161124500Y-76954057D01*
X161163458Y-77099448D01*
X161165423Y-77106783D01*
X161165426Y-77106790D01*
X161244475Y-77243709D01*
X161244479Y-77243714D01*
X161244480Y-77243716D01*
X161356284Y-77355520D01*
X161356286Y-77355521D01*
X161356290Y-77355524D01*
X161401785Y-77381790D01*
X161493216Y-77434577D01*
X161645943Y-77475500D01*
X161645945Y-77475500D01*
X161804055Y-77475500D01*
X161804057Y-77475500D01*
X161956784Y-77434577D01*
X162093716Y-77355520D01*
X162205520Y-77243716D01*
X162284577Y-77106784D01*
X162325500Y-76954057D01*
X162325500Y-76795943D01*
X162284577Y-76643216D01*
X162254097Y-76590423D01*
X162205524Y-76506290D01*
X162205518Y-76506282D01*
X162093717Y-76394481D01*
X162093709Y-76394475D01*
X161956790Y-76315426D01*
X161956786Y-76315424D01*
X161956784Y-76315423D01*
X161804057Y-76274500D01*
X161645943Y-76274500D01*
X161493216Y-76315423D01*
X161493209Y-76315426D01*
X161356290Y-76394475D01*
X161356282Y-76394481D01*
X161244481Y-76506282D01*
X161244475Y-76506290D01*
X161165426Y-76643209D01*
X161165423Y-76643216D01*
X161124500Y-76795943D01*
X158688984Y-76795943D01*
X158680522Y-76781287D01*
X158680518Y-76781282D01*
X158568717Y-76669481D01*
X158568709Y-76669475D01*
X158431790Y-76590426D01*
X158431786Y-76590424D01*
X158431784Y-76590423D01*
X158279057Y-76549500D01*
X158120943Y-76549500D01*
X157968216Y-76590423D01*
X157968209Y-76590426D01*
X157831290Y-76669475D01*
X157831282Y-76669481D01*
X157719481Y-76781282D01*
X157719475Y-76781290D01*
X157640426Y-76918209D01*
X157640423Y-76918216D01*
X157599500Y-77070943D01*
X154420985Y-77070943D01*
X154402471Y-76954055D01*
X154397171Y-76920591D01*
X154341211Y-76748361D01*
X154341211Y-76748360D01*
X154301016Y-76669475D01*
X154258996Y-76587006D01*
X154245396Y-76568287D01*
X154152558Y-76440505D01*
X154152554Y-76440500D01*
X154024495Y-76312441D01*
X153903202Y-76224318D01*
X153860536Y-76168989D01*
X153854557Y-76099375D01*
X153887162Y-76037580D01*
X153948001Y-76003223D01*
X153976087Y-76000000D01*
X154172828Y-76000000D01*
X154172844Y-75999999D01*
X154232372Y-75993598D01*
X154232379Y-75993596D01*
X154367086Y-75943354D01*
X154367093Y-75943350D01*
X154482187Y-75857190D01*
X154482190Y-75857187D01*
X154568350Y-75742093D01*
X154568354Y-75742086D01*
X154618596Y-75607379D01*
X154618598Y-75607372D01*
X154624999Y-75547844D01*
X154625000Y-75547827D01*
X154625000Y-74900000D01*
X153708012Y-74900000D01*
X153740925Y-74842993D01*
X153775000Y-74715826D01*
X153775000Y-74584174D01*
X153740925Y-74457007D01*
X153708012Y-74400000D01*
X154625000Y-74400000D01*
X154625000Y-73780131D01*
X155874500Y-73780131D01*
X155874500Y-75569856D01*
X155874502Y-75569882D01*
X155877413Y-75594987D01*
X155877415Y-75594991D01*
X155922793Y-75697764D01*
X155922794Y-75697765D01*
X156002235Y-75777206D01*
X156105009Y-75822585D01*
X156130135Y-75825500D01*
X156300500Y-75825499D01*
X156367539Y-75845183D01*
X156413294Y-75897987D01*
X156424500Y-75949499D01*
X156424500Y-76104057D01*
X156441899Y-76168989D01*
X156465423Y-76256783D01*
X156465426Y-76256790D01*
X156544475Y-76393709D01*
X156544479Y-76393714D01*
X156544480Y-76393716D01*
X156656284Y-76505520D01*
X156656286Y-76505521D01*
X156656290Y-76505524D01*
X156732460Y-76549500D01*
X156793216Y-76584577D01*
X156945943Y-76625500D01*
X156945945Y-76625500D01*
X157104055Y-76625500D01*
X157104057Y-76625500D01*
X157256784Y-76584577D01*
X157393716Y-76505520D01*
X157505520Y-76393716D01*
X157584577Y-76256784D01*
X157625500Y-76104057D01*
X157625500Y-75949499D01*
X157645185Y-75882460D01*
X157697989Y-75836705D01*
X157749500Y-75825499D01*
X157919856Y-75825499D01*
X157919864Y-75825499D01*
X157919879Y-75825497D01*
X157919882Y-75825497D01*
X157944987Y-75822586D01*
X157944988Y-75822585D01*
X157944991Y-75822585D01*
X158047765Y-75777206D01*
X158127206Y-75697765D01*
X158172585Y-75594991D01*
X158175500Y-75569865D01*
X158175499Y-74832125D01*
X158195183Y-74765089D01*
X158247987Y-74719334D01*
X158317146Y-74709390D01*
X158380702Y-74738415D01*
X158418476Y-74797193D01*
X158421972Y-74812729D01*
X158442829Y-74944410D01*
X158498787Y-75116636D01*
X158498788Y-75116639D01*
X158581006Y-75277997D01*
X158687441Y-75424494D01*
X158687445Y-75424499D01*
X158815500Y-75552554D01*
X158815505Y-75552558D01*
X158890951Y-75607372D01*
X158962006Y-75658996D01*
X159038094Y-75697765D01*
X159123360Y-75741211D01*
X159123363Y-75741212D01*
X159209476Y-75769191D01*
X159295591Y-75797171D01*
X159378429Y-75810291D01*
X159474449Y-75825500D01*
X159474454Y-75825500D01*
X159655551Y-75825500D01*
X159742259Y-75811765D01*
X159834409Y-75797171D01*
X160006639Y-75741211D01*
X160167994Y-75658996D01*
X160314501Y-75552553D01*
X160442553Y-75424501D01*
X160548996Y-75277994D01*
X160631211Y-75116639D01*
X160687171Y-74944409D01*
X160703234Y-74842993D01*
X160712527Y-74784321D01*
X160742456Y-74721186D01*
X160801768Y-74684255D01*
X160871630Y-74685253D01*
X160929863Y-74723863D01*
X160957473Y-74784321D01*
X160982829Y-74944410D01*
X161038787Y-75116636D01*
X161038788Y-75116639D01*
X161121006Y-75277997D01*
X161227441Y-75424494D01*
X161227445Y-75424499D01*
X161355500Y-75552554D01*
X161355505Y-75552558D01*
X161430951Y-75607372D01*
X161502006Y-75658996D01*
X161578094Y-75697765D01*
X161663360Y-75741211D01*
X161663363Y-75741212D01*
X161749476Y-75769191D01*
X161835591Y-75797171D01*
X161918429Y-75810291D01*
X162014449Y-75825500D01*
X162014454Y-75825500D01*
X162195551Y-75825500D01*
X162282259Y-75811765D01*
X162374409Y-75797171D01*
X162546639Y-75741211D01*
X162707994Y-75658996D01*
X162854501Y-75552553D01*
X162982553Y-75424501D01*
X163088996Y-75277994D01*
X163156090Y-75146314D01*
X163204065Y-75095519D01*
X163271886Y-75078724D01*
X163338021Y-75101262D01*
X163381472Y-75155977D01*
X163384506Y-75164292D01*
X163393904Y-75193217D01*
X163490379Y-75382557D01*
X163615272Y-75554459D01*
X163615276Y-75554464D01*
X163765535Y-75704723D01*
X163765540Y-75704727D01*
X163937442Y-75829620D01*
X164126782Y-75926095D01*
X164328871Y-75991757D01*
X164395000Y-76002231D01*
X164395000Y-75108012D01*
X164452007Y-75140925D01*
X164579174Y-75175000D01*
X164710826Y-75175000D01*
X164837993Y-75140925D01*
X164895000Y-75108012D01*
X164895000Y-76002230D01*
X164961126Y-75991757D01*
X164961129Y-75991757D01*
X165163217Y-75926095D01*
X165352557Y-75829620D01*
X165524459Y-75704727D01*
X165524464Y-75704723D01*
X165674723Y-75554464D01*
X165674727Y-75554459D01*
X165799620Y-75382557D01*
X165896095Y-75193217D01*
X165961757Y-74991129D01*
X165961757Y-74991126D01*
X165972231Y-74925000D01*
X165078012Y-74925000D01*
X165110925Y-74867993D01*
X165145000Y-74740826D01*
X165145000Y-74609174D01*
X165110925Y-74482007D01*
X165078012Y-74425000D01*
X165972231Y-74425000D01*
X165961757Y-74358873D01*
X165961757Y-74358870D01*
X165896095Y-74156782D01*
X165799620Y-73967442D01*
X165693762Y-73821739D01*
X165693760Y-73821737D01*
X165674723Y-73795535D01*
X165524464Y-73645276D01*
X165524459Y-73645272D01*
X165352557Y-73520379D01*
X165163215Y-73423903D01*
X164961124Y-73358241D01*
X164895000Y-73347768D01*
X164895000Y-74241988D01*
X164837993Y-74209075D01*
X164710826Y-74175000D01*
X164579174Y-74175000D01*
X164452007Y-74209075D01*
X164395000Y-74241988D01*
X164395000Y-73347768D01*
X164394999Y-73347768D01*
X164328875Y-73358241D01*
X164126784Y-73423903D01*
X163937442Y-73520379D01*
X163765540Y-73645272D01*
X163765535Y-73645276D01*
X163615276Y-73795535D01*
X163615272Y-73795540D01*
X163490379Y-73967442D01*
X163393905Y-74156781D01*
X163384506Y-74185708D01*
X163345068Y-74243383D01*
X163280709Y-74270581D01*
X163211862Y-74258666D01*
X163160387Y-74211421D01*
X163156090Y-74203684D01*
X163128736Y-74150000D01*
X163088996Y-74072006D01*
X163075396Y-74053287D01*
X162982558Y-73925505D01*
X162982554Y-73925500D01*
X162854499Y-73797445D01*
X162854494Y-73797441D01*
X162707997Y-73691006D01*
X162707996Y-73691005D01*
X162707994Y-73691004D01*
X162631906Y-73652235D01*
X162546639Y-73608788D01*
X162546636Y-73608787D01*
X162374410Y-73552829D01*
X162195551Y-73524500D01*
X162195546Y-73524500D01*
X162014454Y-73524500D01*
X162014449Y-73524500D01*
X161835589Y-73552829D01*
X161663363Y-73608787D01*
X161663360Y-73608788D01*
X161502002Y-73691006D01*
X161355505Y-73797441D01*
X161355500Y-73797445D01*
X161227445Y-73925500D01*
X161227441Y-73925505D01*
X161121006Y-74072002D01*
X161038788Y-74233360D01*
X161038787Y-74233363D01*
X160982829Y-74405589D01*
X160957473Y-74565678D01*
X160927544Y-74628813D01*
X160868232Y-74665744D01*
X160798369Y-74664746D01*
X160740137Y-74626136D01*
X160712527Y-74565678D01*
X160690245Y-74425000D01*
X160687171Y-74405591D01*
X160644708Y-74274901D01*
X160631212Y-74233363D01*
X160631211Y-74233360D01*
X160588736Y-74150000D01*
X160548996Y-74072006D01*
X160535396Y-74053287D01*
X160442558Y-73925505D01*
X160442554Y-73925500D01*
X160314499Y-73797445D01*
X160314494Y-73797441D01*
X160167997Y-73691006D01*
X160167996Y-73691005D01*
X160167994Y-73691004D01*
X160091906Y-73652235D01*
X160006639Y-73608788D01*
X160006636Y-73608787D01*
X159834410Y-73552829D01*
X159655551Y-73524500D01*
X159655546Y-73524500D01*
X159474454Y-73524500D01*
X159474449Y-73524500D01*
X159295589Y-73552829D01*
X159123363Y-73608787D01*
X159123360Y-73608788D01*
X158962002Y-73691006D01*
X158815505Y-73797441D01*
X158815500Y-73797445D01*
X158687445Y-73925500D01*
X158687441Y-73925505D01*
X158581006Y-74072002D01*
X158498788Y-74233360D01*
X158498787Y-74233363D01*
X158442829Y-74405589D01*
X158421972Y-74537271D01*
X158392042Y-74600405D01*
X158332731Y-74637336D01*
X158262868Y-74636338D01*
X158204636Y-74597728D01*
X158176522Y-74533764D01*
X158175499Y-74517872D01*
X158175499Y-73780143D01*
X158175499Y-73780136D01*
X158175497Y-73780117D01*
X158172586Y-73755012D01*
X158172585Y-73755010D01*
X158172585Y-73755009D01*
X158127206Y-73652235D01*
X158047765Y-73572794D01*
X158014047Y-73557906D01*
X157944992Y-73527415D01*
X157919865Y-73524500D01*
X156130143Y-73524500D01*
X156130117Y-73524502D01*
X156105012Y-73527413D01*
X156105008Y-73527415D01*
X156002235Y-73572793D01*
X155922794Y-73652234D01*
X155877415Y-73755006D01*
X155877415Y-73755008D01*
X155874500Y-73780131D01*
X154625000Y-73780131D01*
X154625000Y-73752172D01*
X154624999Y-73752155D01*
X154618598Y-73692627D01*
X154618596Y-73692620D01*
X154568354Y-73557913D01*
X154568350Y-73557906D01*
X154482190Y-73442812D01*
X154482187Y-73442809D01*
X154367093Y-73356649D01*
X154367086Y-73356645D01*
X154232379Y-73306403D01*
X154232372Y-73306401D01*
X154172844Y-73300000D01*
X153525000Y-73300000D01*
X153525000Y-74216988D01*
X153467993Y-74184075D01*
X153340826Y-74150000D01*
X153209174Y-74150000D01*
X153082007Y-74184075D01*
X153025000Y-74216988D01*
X153025000Y-73300000D01*
X152377155Y-73300000D01*
X152317627Y-73306401D01*
X152317620Y-73306403D01*
X152182913Y-73356645D01*
X152182906Y-73356649D01*
X152067812Y-73442809D01*
X152067809Y-73442812D01*
X151981649Y-73557906D01*
X151981645Y-73557913D01*
X151931403Y-73692620D01*
X151931401Y-73692627D01*
X151925000Y-73752155D01*
X151275500Y-73752155D01*
X151275500Y-72774500D01*
X151295185Y-72707461D01*
X151347989Y-72661706D01*
X151399500Y-72650500D01*
X170390500Y-72650500D01*
X170457539Y-72670185D01*
G37*
%TD.AperFunction*%
%TD*%
M02*
