%TF.GenerationSoftware,KiCad,Pcbnew,9.0.0*%
%TF.CreationDate,2025-08-25T15:59:45-02:30*%
%TF.ProjectId,STM32_PCB_Test_Project,53544d33-325f-4504-9342-5f546573745f,rev?*%
%TF.SameCoordinates,Original*%
%TF.FileFunction,Legend,Bot*%
%TF.FilePolarity,Positive*%
%FSLAX46Y46*%
G04 Gerber Fmt 4.6, Leading zero omitted, Abs format (unit mm)*
G04 Created by KiCad (PCBNEW 9.0.0) date 2025-08-25 15:59:45*
%MOMM*%
%LPD*%
G01*
G04 APERTURE LIST*
%ADD10C,0.150000*%
%ADD11C,0.120000*%
G04 APERTURE END LIST*
D10*
X164134580Y-89332142D02*
X164182200Y-89284523D01*
X164182200Y-89284523D02*
X164229819Y-89141666D01*
X164229819Y-89141666D02*
X164229819Y-89046428D01*
X164229819Y-89046428D02*
X164182200Y-88903571D01*
X164182200Y-88903571D02*
X164086961Y-88808333D01*
X164086961Y-88808333D02*
X163991723Y-88760714D01*
X163991723Y-88760714D02*
X163801247Y-88713095D01*
X163801247Y-88713095D02*
X163658390Y-88713095D01*
X163658390Y-88713095D02*
X163467914Y-88760714D01*
X163467914Y-88760714D02*
X163372676Y-88808333D01*
X163372676Y-88808333D02*
X163277438Y-88903571D01*
X163277438Y-88903571D02*
X163229819Y-89046428D01*
X163229819Y-89046428D02*
X163229819Y-89141666D01*
X163229819Y-89141666D02*
X163277438Y-89284523D01*
X163277438Y-89284523D02*
X163325057Y-89332142D01*
X164229819Y-90284523D02*
X164229819Y-89713095D01*
X164229819Y-89998809D02*
X163229819Y-89998809D01*
X163229819Y-89998809D02*
X163372676Y-89903571D01*
X163372676Y-89903571D02*
X163467914Y-89808333D01*
X163467914Y-89808333D02*
X163515533Y-89713095D01*
X163325057Y-90665476D02*
X163277438Y-90713095D01*
X163277438Y-90713095D02*
X163229819Y-90808333D01*
X163229819Y-90808333D02*
X163229819Y-91046428D01*
X163229819Y-91046428D02*
X163277438Y-91141666D01*
X163277438Y-91141666D02*
X163325057Y-91189285D01*
X163325057Y-91189285D02*
X163420295Y-91236904D01*
X163420295Y-91236904D02*
X163515533Y-91236904D01*
X163515533Y-91236904D02*
X163658390Y-91189285D01*
X163658390Y-91189285D02*
X164229819Y-90617857D01*
X164229819Y-90617857D02*
X164229819Y-91236904D01*
X160459580Y-93658333D02*
X160507200Y-93610714D01*
X160507200Y-93610714D02*
X160554819Y-93467857D01*
X160554819Y-93467857D02*
X160554819Y-93372619D01*
X160554819Y-93372619D02*
X160507200Y-93229762D01*
X160507200Y-93229762D02*
X160411961Y-93134524D01*
X160411961Y-93134524D02*
X160316723Y-93086905D01*
X160316723Y-93086905D02*
X160126247Y-93039286D01*
X160126247Y-93039286D02*
X159983390Y-93039286D01*
X159983390Y-93039286D02*
X159792914Y-93086905D01*
X159792914Y-93086905D02*
X159697676Y-93134524D01*
X159697676Y-93134524D02*
X159602438Y-93229762D01*
X159602438Y-93229762D02*
X159554819Y-93372619D01*
X159554819Y-93372619D02*
X159554819Y-93467857D01*
X159554819Y-93467857D02*
X159602438Y-93610714D01*
X159602438Y-93610714D02*
X159650057Y-93658333D01*
X159554819Y-94515476D02*
X159554819Y-94325000D01*
X159554819Y-94325000D02*
X159602438Y-94229762D01*
X159602438Y-94229762D02*
X159650057Y-94182143D01*
X159650057Y-94182143D02*
X159792914Y-94086905D01*
X159792914Y-94086905D02*
X159983390Y-94039286D01*
X159983390Y-94039286D02*
X160364342Y-94039286D01*
X160364342Y-94039286D02*
X160459580Y-94086905D01*
X160459580Y-94086905D02*
X160507200Y-94134524D01*
X160507200Y-94134524D02*
X160554819Y-94229762D01*
X160554819Y-94229762D02*
X160554819Y-94420238D01*
X160554819Y-94420238D02*
X160507200Y-94515476D01*
X160507200Y-94515476D02*
X160459580Y-94563095D01*
X160459580Y-94563095D02*
X160364342Y-94610714D01*
X160364342Y-94610714D02*
X160126247Y-94610714D01*
X160126247Y-94610714D02*
X160031009Y-94563095D01*
X160031009Y-94563095D02*
X159983390Y-94515476D01*
X159983390Y-94515476D02*
X159935771Y-94420238D01*
X159935771Y-94420238D02*
X159935771Y-94229762D01*
X159935771Y-94229762D02*
X159983390Y-94134524D01*
X159983390Y-94134524D02*
X160031009Y-94086905D01*
X160031009Y-94086905D02*
X160126247Y-94039286D01*
X160276190Y-82928628D02*
X160276190Y-83404819D01*
X160609523Y-82404819D02*
X160276190Y-82928628D01*
X160276190Y-82928628D02*
X159942857Y-82404819D01*
X159085714Y-83404819D02*
X159657142Y-83404819D01*
X159371428Y-83404819D02*
X159371428Y-82404819D01*
X159371428Y-82404819D02*
X159466666Y-82547676D01*
X159466666Y-82547676D02*
X159561904Y-82642914D01*
X159561904Y-82642914D02*
X159657142Y-82690533D01*
X161324366Y-99983333D02*
X161357700Y-99950000D01*
X161357700Y-99950000D02*
X161391033Y-99850000D01*
X161391033Y-99850000D02*
X161391033Y-99783333D01*
X161391033Y-99783333D02*
X161357700Y-99683333D01*
X161357700Y-99683333D02*
X161291033Y-99616667D01*
X161291033Y-99616667D02*
X161224366Y-99583333D01*
X161224366Y-99583333D02*
X161091033Y-99550000D01*
X161091033Y-99550000D02*
X160991033Y-99550000D01*
X160991033Y-99550000D02*
X160857700Y-99583333D01*
X160857700Y-99583333D02*
X160791033Y-99616667D01*
X160791033Y-99616667D02*
X160724366Y-99683333D01*
X160724366Y-99683333D02*
X160691033Y-99783333D01*
X160691033Y-99783333D02*
X160691033Y-99850000D01*
X160691033Y-99850000D02*
X160724366Y-99950000D01*
X160724366Y-99950000D02*
X160757700Y-99983333D01*
X160757700Y-100250000D02*
X160724366Y-100283333D01*
X160724366Y-100283333D02*
X160691033Y-100350000D01*
X160691033Y-100350000D02*
X160691033Y-100516667D01*
X160691033Y-100516667D02*
X160724366Y-100583333D01*
X160724366Y-100583333D02*
X160757700Y-100616667D01*
X160757700Y-100616667D02*
X160824366Y-100650000D01*
X160824366Y-100650000D02*
X160891033Y-100650000D01*
X160891033Y-100650000D02*
X160991033Y-100616667D01*
X160991033Y-100616667D02*
X161391033Y-100216667D01*
X161391033Y-100216667D02*
X161391033Y-100650000D01*
X159341666Y-90844819D02*
X159674999Y-90368628D01*
X159913094Y-90844819D02*
X159913094Y-89844819D01*
X159913094Y-89844819D02*
X159532142Y-89844819D01*
X159532142Y-89844819D02*
X159436904Y-89892438D01*
X159436904Y-89892438D02*
X159389285Y-89940057D01*
X159389285Y-89940057D02*
X159341666Y-90035295D01*
X159341666Y-90035295D02*
X159341666Y-90178152D01*
X159341666Y-90178152D02*
X159389285Y-90273390D01*
X159389285Y-90273390D02*
X159436904Y-90321009D01*
X159436904Y-90321009D02*
X159532142Y-90368628D01*
X159532142Y-90368628D02*
X159913094Y-90368628D01*
X158389285Y-90844819D02*
X158960713Y-90844819D01*
X158674999Y-90844819D02*
X158674999Y-89844819D01*
X158674999Y-89844819D02*
X158770237Y-89987676D01*
X158770237Y-89987676D02*
X158865475Y-90082914D01*
X158865475Y-90082914D02*
X158960713Y-90130533D01*
X165701190Y-84278628D02*
X165701190Y-84754819D01*
X166034523Y-83754819D02*
X165701190Y-84278628D01*
X165701190Y-84278628D02*
X165367857Y-83754819D01*
X165082142Y-83850057D02*
X165034523Y-83802438D01*
X165034523Y-83802438D02*
X164939285Y-83754819D01*
X164939285Y-83754819D02*
X164701190Y-83754819D01*
X164701190Y-83754819D02*
X164605952Y-83802438D01*
X164605952Y-83802438D02*
X164558333Y-83850057D01*
X164558333Y-83850057D02*
X164510714Y-83945295D01*
X164510714Y-83945295D02*
X164510714Y-84040533D01*
X164510714Y-84040533D02*
X164558333Y-84183390D01*
X164558333Y-84183390D02*
X165129761Y-84754819D01*
X165129761Y-84754819D02*
X164510714Y-84754819D01*
X164842319Y-107213095D02*
X165651842Y-107213095D01*
X165651842Y-107213095D02*
X165747080Y-107260714D01*
X165747080Y-107260714D02*
X165794700Y-107308333D01*
X165794700Y-107308333D02*
X165842319Y-107403571D01*
X165842319Y-107403571D02*
X165842319Y-107594047D01*
X165842319Y-107594047D02*
X165794700Y-107689285D01*
X165794700Y-107689285D02*
X165747080Y-107736904D01*
X165747080Y-107736904D02*
X165651842Y-107784523D01*
X165651842Y-107784523D02*
X164842319Y-107784523D01*
X164842319Y-108165476D02*
X164842319Y-108784523D01*
X164842319Y-108784523D02*
X165223271Y-108451190D01*
X165223271Y-108451190D02*
X165223271Y-108594047D01*
X165223271Y-108594047D02*
X165270890Y-108689285D01*
X165270890Y-108689285D02*
X165318509Y-108736904D01*
X165318509Y-108736904D02*
X165413747Y-108784523D01*
X165413747Y-108784523D02*
X165651842Y-108784523D01*
X165651842Y-108784523D02*
X165747080Y-108736904D01*
X165747080Y-108736904D02*
X165794700Y-108689285D01*
X165794700Y-108689285D02*
X165842319Y-108594047D01*
X165842319Y-108594047D02*
X165842319Y-108308333D01*
X165842319Y-108308333D02*
X165794700Y-108213095D01*
X165794700Y-108213095D02*
X165747080Y-108165476D01*
X161859580Y-93758333D02*
X161907200Y-93710714D01*
X161907200Y-93710714D02*
X161954819Y-93567857D01*
X161954819Y-93567857D02*
X161954819Y-93472619D01*
X161954819Y-93472619D02*
X161907200Y-93329762D01*
X161907200Y-93329762D02*
X161811961Y-93234524D01*
X161811961Y-93234524D02*
X161716723Y-93186905D01*
X161716723Y-93186905D02*
X161526247Y-93139286D01*
X161526247Y-93139286D02*
X161383390Y-93139286D01*
X161383390Y-93139286D02*
X161192914Y-93186905D01*
X161192914Y-93186905D02*
X161097676Y-93234524D01*
X161097676Y-93234524D02*
X161002438Y-93329762D01*
X161002438Y-93329762D02*
X160954819Y-93472619D01*
X160954819Y-93472619D02*
X160954819Y-93567857D01*
X160954819Y-93567857D02*
X161002438Y-93710714D01*
X161002438Y-93710714D02*
X161050057Y-93758333D01*
X160954819Y-94091667D02*
X160954819Y-94758333D01*
X160954819Y-94758333D02*
X161954819Y-94329762D01*
X162449366Y-99983333D02*
X162482700Y-99950000D01*
X162482700Y-99950000D02*
X162516033Y-99850000D01*
X162516033Y-99850000D02*
X162516033Y-99783333D01*
X162516033Y-99783333D02*
X162482700Y-99683333D01*
X162482700Y-99683333D02*
X162416033Y-99616667D01*
X162416033Y-99616667D02*
X162349366Y-99583333D01*
X162349366Y-99583333D02*
X162216033Y-99550000D01*
X162216033Y-99550000D02*
X162116033Y-99550000D01*
X162116033Y-99550000D02*
X161982700Y-99583333D01*
X161982700Y-99583333D02*
X161916033Y-99616667D01*
X161916033Y-99616667D02*
X161849366Y-99683333D01*
X161849366Y-99683333D02*
X161816033Y-99783333D01*
X161816033Y-99783333D02*
X161816033Y-99850000D01*
X161816033Y-99850000D02*
X161849366Y-99950000D01*
X161849366Y-99950000D02*
X161882700Y-99983333D01*
X161816033Y-100216667D02*
X161816033Y-100650000D01*
X161816033Y-100650000D02*
X162082700Y-100416667D01*
X162082700Y-100416667D02*
X162082700Y-100516667D01*
X162082700Y-100516667D02*
X162116033Y-100583333D01*
X162116033Y-100583333D02*
X162149366Y-100616667D01*
X162149366Y-100616667D02*
X162216033Y-100650000D01*
X162216033Y-100650000D02*
X162382700Y-100650000D01*
X162382700Y-100650000D02*
X162449366Y-100616667D01*
X162449366Y-100616667D02*
X162482700Y-100583333D01*
X162482700Y-100583333D02*
X162516033Y-100516667D01*
X162516033Y-100516667D02*
X162516033Y-100316667D01*
X162516033Y-100316667D02*
X162482700Y-100250000D01*
X162482700Y-100250000D02*
X162449366Y-100216667D01*
X159949366Y-99983333D02*
X159982700Y-99950000D01*
X159982700Y-99950000D02*
X160016033Y-99850000D01*
X160016033Y-99850000D02*
X160016033Y-99783333D01*
X160016033Y-99783333D02*
X159982700Y-99683333D01*
X159982700Y-99683333D02*
X159916033Y-99616667D01*
X159916033Y-99616667D02*
X159849366Y-99583333D01*
X159849366Y-99583333D02*
X159716033Y-99550000D01*
X159716033Y-99550000D02*
X159616033Y-99550000D01*
X159616033Y-99550000D02*
X159482700Y-99583333D01*
X159482700Y-99583333D02*
X159416033Y-99616667D01*
X159416033Y-99616667D02*
X159349366Y-99683333D01*
X159349366Y-99683333D02*
X159316033Y-99783333D01*
X159316033Y-99783333D02*
X159316033Y-99850000D01*
X159316033Y-99850000D02*
X159349366Y-99950000D01*
X159349366Y-99950000D02*
X159382700Y-99983333D01*
X159549366Y-100583333D02*
X160016033Y-100583333D01*
X159282700Y-100416667D02*
X159782700Y-100250000D01*
X159782700Y-100250000D02*
X159782700Y-100683333D01*
X166109580Y-89457142D02*
X166157200Y-89409523D01*
X166157200Y-89409523D02*
X166204819Y-89266666D01*
X166204819Y-89266666D02*
X166204819Y-89171428D01*
X166204819Y-89171428D02*
X166157200Y-89028571D01*
X166157200Y-89028571D02*
X166061961Y-88933333D01*
X166061961Y-88933333D02*
X165966723Y-88885714D01*
X165966723Y-88885714D02*
X165776247Y-88838095D01*
X165776247Y-88838095D02*
X165633390Y-88838095D01*
X165633390Y-88838095D02*
X165442914Y-88885714D01*
X165442914Y-88885714D02*
X165347676Y-88933333D01*
X165347676Y-88933333D02*
X165252438Y-89028571D01*
X165252438Y-89028571D02*
X165204819Y-89171428D01*
X165204819Y-89171428D02*
X165204819Y-89266666D01*
X165204819Y-89266666D02*
X165252438Y-89409523D01*
X165252438Y-89409523D02*
X165300057Y-89457142D01*
X166204819Y-90409523D02*
X166204819Y-89838095D01*
X166204819Y-90123809D02*
X165204819Y-90123809D01*
X165204819Y-90123809D02*
X165347676Y-90028571D01*
X165347676Y-90028571D02*
X165442914Y-89933333D01*
X165442914Y-89933333D02*
X165490533Y-89838095D01*
X166204819Y-91361904D02*
X166204819Y-90790476D01*
X166204819Y-91076190D02*
X165204819Y-91076190D01*
X165204819Y-91076190D02*
X165347676Y-90980952D01*
X165347676Y-90980952D02*
X165442914Y-90885714D01*
X165442914Y-90885714D02*
X165490533Y-90790476D01*
X156609580Y-106432142D02*
X156657200Y-106384523D01*
X156657200Y-106384523D02*
X156704819Y-106241666D01*
X156704819Y-106241666D02*
X156704819Y-106146428D01*
X156704819Y-106146428D02*
X156657200Y-106003571D01*
X156657200Y-106003571D02*
X156561961Y-105908333D01*
X156561961Y-105908333D02*
X156466723Y-105860714D01*
X156466723Y-105860714D02*
X156276247Y-105813095D01*
X156276247Y-105813095D02*
X156133390Y-105813095D01*
X156133390Y-105813095D02*
X155942914Y-105860714D01*
X155942914Y-105860714D02*
X155847676Y-105908333D01*
X155847676Y-105908333D02*
X155752438Y-106003571D01*
X155752438Y-106003571D02*
X155704819Y-106146428D01*
X155704819Y-106146428D02*
X155704819Y-106241666D01*
X155704819Y-106241666D02*
X155752438Y-106384523D01*
X155752438Y-106384523D02*
X155800057Y-106432142D01*
X156704819Y-107384523D02*
X156704819Y-106813095D01*
X156704819Y-107098809D02*
X155704819Y-107098809D01*
X155704819Y-107098809D02*
X155847676Y-107003571D01*
X155847676Y-107003571D02*
X155942914Y-106908333D01*
X155942914Y-106908333D02*
X155990533Y-106813095D01*
X155704819Y-107717857D02*
X155704819Y-108336904D01*
X155704819Y-108336904D02*
X156085771Y-108003571D01*
X156085771Y-108003571D02*
X156085771Y-108146428D01*
X156085771Y-108146428D02*
X156133390Y-108241666D01*
X156133390Y-108241666D02*
X156181009Y-108289285D01*
X156181009Y-108289285D02*
X156276247Y-108336904D01*
X156276247Y-108336904D02*
X156514342Y-108336904D01*
X156514342Y-108336904D02*
X156609580Y-108289285D01*
X156609580Y-108289285D02*
X156657200Y-108241666D01*
X156657200Y-108241666D02*
X156704819Y-108146428D01*
X156704819Y-108146428D02*
X156704819Y-107860714D01*
X156704819Y-107860714D02*
X156657200Y-107765476D01*
X156657200Y-107765476D02*
X156609580Y-107717857D01*
X166009580Y-112082142D02*
X166057200Y-112034523D01*
X166057200Y-112034523D02*
X166104819Y-111891666D01*
X166104819Y-111891666D02*
X166104819Y-111796428D01*
X166104819Y-111796428D02*
X166057200Y-111653571D01*
X166057200Y-111653571D02*
X165961961Y-111558333D01*
X165961961Y-111558333D02*
X165866723Y-111510714D01*
X165866723Y-111510714D02*
X165676247Y-111463095D01*
X165676247Y-111463095D02*
X165533390Y-111463095D01*
X165533390Y-111463095D02*
X165342914Y-111510714D01*
X165342914Y-111510714D02*
X165247676Y-111558333D01*
X165247676Y-111558333D02*
X165152438Y-111653571D01*
X165152438Y-111653571D02*
X165104819Y-111796428D01*
X165104819Y-111796428D02*
X165104819Y-111891666D01*
X165104819Y-111891666D02*
X165152438Y-112034523D01*
X165152438Y-112034523D02*
X165200057Y-112082142D01*
X166104819Y-113034523D02*
X166104819Y-112463095D01*
X166104819Y-112748809D02*
X165104819Y-112748809D01*
X165104819Y-112748809D02*
X165247676Y-112653571D01*
X165247676Y-112653571D02*
X165342914Y-112558333D01*
X165342914Y-112558333D02*
X165390533Y-112463095D01*
X165438152Y-113891666D02*
X166104819Y-113891666D01*
X165057200Y-113653571D02*
X165771485Y-113415476D01*
X165771485Y-113415476D02*
X165771485Y-114034523D01*
X158759580Y-89608333D02*
X158807200Y-89560714D01*
X158807200Y-89560714D02*
X158854819Y-89417857D01*
X158854819Y-89417857D02*
X158854819Y-89322619D01*
X158854819Y-89322619D02*
X158807200Y-89179762D01*
X158807200Y-89179762D02*
X158711961Y-89084524D01*
X158711961Y-89084524D02*
X158616723Y-89036905D01*
X158616723Y-89036905D02*
X158426247Y-88989286D01*
X158426247Y-88989286D02*
X158283390Y-88989286D01*
X158283390Y-88989286D02*
X158092914Y-89036905D01*
X158092914Y-89036905D02*
X157997676Y-89084524D01*
X157997676Y-89084524D02*
X157902438Y-89179762D01*
X157902438Y-89179762D02*
X157854819Y-89322619D01*
X157854819Y-89322619D02*
X157854819Y-89417857D01*
X157854819Y-89417857D02*
X157902438Y-89560714D01*
X157902438Y-89560714D02*
X157950057Y-89608333D01*
X158854819Y-90084524D02*
X158854819Y-90275000D01*
X158854819Y-90275000D02*
X158807200Y-90370238D01*
X158807200Y-90370238D02*
X158759580Y-90417857D01*
X158759580Y-90417857D02*
X158616723Y-90513095D01*
X158616723Y-90513095D02*
X158426247Y-90560714D01*
X158426247Y-90560714D02*
X158045295Y-90560714D01*
X158045295Y-90560714D02*
X157950057Y-90513095D01*
X157950057Y-90513095D02*
X157902438Y-90465476D01*
X157902438Y-90465476D02*
X157854819Y-90370238D01*
X157854819Y-90370238D02*
X157854819Y-90179762D01*
X157854819Y-90179762D02*
X157902438Y-90084524D01*
X157902438Y-90084524D02*
X157950057Y-90036905D01*
X157950057Y-90036905D02*
X158045295Y-89989286D01*
X158045295Y-89989286D02*
X158283390Y-89989286D01*
X158283390Y-89989286D02*
X158378628Y-90036905D01*
X158378628Y-90036905D02*
X158426247Y-90084524D01*
X158426247Y-90084524D02*
X158473866Y-90179762D01*
X158473866Y-90179762D02*
X158473866Y-90370238D01*
X158473866Y-90370238D02*
X158426247Y-90465476D01*
X158426247Y-90465476D02*
X158378628Y-90513095D01*
X158378628Y-90513095D02*
X158283390Y-90560714D01*
X158849366Y-99983333D02*
X158882700Y-99950000D01*
X158882700Y-99950000D02*
X158916033Y-99850000D01*
X158916033Y-99850000D02*
X158916033Y-99783333D01*
X158916033Y-99783333D02*
X158882700Y-99683333D01*
X158882700Y-99683333D02*
X158816033Y-99616667D01*
X158816033Y-99616667D02*
X158749366Y-99583333D01*
X158749366Y-99583333D02*
X158616033Y-99550000D01*
X158616033Y-99550000D02*
X158516033Y-99550000D01*
X158516033Y-99550000D02*
X158382700Y-99583333D01*
X158382700Y-99583333D02*
X158316033Y-99616667D01*
X158316033Y-99616667D02*
X158249366Y-99683333D01*
X158249366Y-99683333D02*
X158216033Y-99783333D01*
X158216033Y-99783333D02*
X158216033Y-99850000D01*
X158216033Y-99850000D02*
X158249366Y-99950000D01*
X158249366Y-99950000D02*
X158282700Y-99983333D01*
X158216033Y-100616667D02*
X158216033Y-100283333D01*
X158216033Y-100283333D02*
X158549366Y-100250000D01*
X158549366Y-100250000D02*
X158516033Y-100283333D01*
X158516033Y-100283333D02*
X158482700Y-100350000D01*
X158482700Y-100350000D02*
X158482700Y-100516667D01*
X158482700Y-100516667D02*
X158516033Y-100583333D01*
X158516033Y-100583333D02*
X158549366Y-100616667D01*
X158549366Y-100616667D02*
X158616033Y-100650000D01*
X158616033Y-100650000D02*
X158782700Y-100650000D01*
X158782700Y-100650000D02*
X158849366Y-100616667D01*
X158849366Y-100616667D02*
X158882700Y-100583333D01*
X158882700Y-100583333D02*
X158916033Y-100516667D01*
X158916033Y-100516667D02*
X158916033Y-100350000D01*
X158916033Y-100350000D02*
X158882700Y-100283333D01*
X158882700Y-100283333D02*
X158849366Y-100250000D01*
X163749366Y-99983333D02*
X163782700Y-99950000D01*
X163782700Y-99950000D02*
X163816033Y-99850000D01*
X163816033Y-99850000D02*
X163816033Y-99783333D01*
X163816033Y-99783333D02*
X163782700Y-99683333D01*
X163782700Y-99683333D02*
X163716033Y-99616667D01*
X163716033Y-99616667D02*
X163649366Y-99583333D01*
X163649366Y-99583333D02*
X163516033Y-99550000D01*
X163516033Y-99550000D02*
X163416033Y-99550000D01*
X163416033Y-99550000D02*
X163282700Y-99583333D01*
X163282700Y-99583333D02*
X163216033Y-99616667D01*
X163216033Y-99616667D02*
X163149366Y-99683333D01*
X163149366Y-99683333D02*
X163116033Y-99783333D01*
X163116033Y-99783333D02*
X163116033Y-99850000D01*
X163116033Y-99850000D02*
X163149366Y-99950000D01*
X163149366Y-99950000D02*
X163182700Y-99983333D01*
X163816033Y-100650000D02*
X163816033Y-100250000D01*
X163816033Y-100450000D02*
X163116033Y-100450000D01*
X163116033Y-100450000D02*
X163216033Y-100383333D01*
X163216033Y-100383333D02*
X163282700Y-100316667D01*
X163282700Y-100316667D02*
X163316033Y-100250000D01*
X162434580Y-89252142D02*
X162482200Y-89204523D01*
X162482200Y-89204523D02*
X162529819Y-89061666D01*
X162529819Y-89061666D02*
X162529819Y-88966428D01*
X162529819Y-88966428D02*
X162482200Y-88823571D01*
X162482200Y-88823571D02*
X162386961Y-88728333D01*
X162386961Y-88728333D02*
X162291723Y-88680714D01*
X162291723Y-88680714D02*
X162101247Y-88633095D01*
X162101247Y-88633095D02*
X161958390Y-88633095D01*
X161958390Y-88633095D02*
X161767914Y-88680714D01*
X161767914Y-88680714D02*
X161672676Y-88728333D01*
X161672676Y-88728333D02*
X161577438Y-88823571D01*
X161577438Y-88823571D02*
X161529819Y-88966428D01*
X161529819Y-88966428D02*
X161529819Y-89061666D01*
X161529819Y-89061666D02*
X161577438Y-89204523D01*
X161577438Y-89204523D02*
X161625057Y-89252142D01*
X162529819Y-90204523D02*
X162529819Y-89633095D01*
X162529819Y-89918809D02*
X161529819Y-89918809D01*
X161529819Y-89918809D02*
X161672676Y-89823571D01*
X161672676Y-89823571D02*
X161767914Y-89728333D01*
X161767914Y-89728333D02*
X161815533Y-89633095D01*
X161529819Y-90823571D02*
X161529819Y-90918809D01*
X161529819Y-90918809D02*
X161577438Y-91014047D01*
X161577438Y-91014047D02*
X161625057Y-91061666D01*
X161625057Y-91061666D02*
X161720295Y-91109285D01*
X161720295Y-91109285D02*
X161910771Y-91156904D01*
X161910771Y-91156904D02*
X162148866Y-91156904D01*
X162148866Y-91156904D02*
X162339342Y-91109285D01*
X162339342Y-91109285D02*
X162434580Y-91061666D01*
X162434580Y-91061666D02*
X162482200Y-91014047D01*
X162482200Y-91014047D02*
X162529819Y-90918809D01*
X162529819Y-90918809D02*
X162529819Y-90823571D01*
X162529819Y-90823571D02*
X162482200Y-90728333D01*
X162482200Y-90728333D02*
X162434580Y-90680714D01*
X162434580Y-90680714D02*
X162339342Y-90633095D01*
X162339342Y-90633095D02*
X162148866Y-90585476D01*
X162148866Y-90585476D02*
X161910771Y-90585476D01*
X161910771Y-90585476D02*
X161720295Y-90633095D01*
X161720295Y-90633095D02*
X161625057Y-90680714D01*
X161625057Y-90680714D02*
X161577438Y-90728333D01*
X161577438Y-90728333D02*
X161529819Y-90823571D01*
X161941666Y-82084580D02*
X161989285Y-82132200D01*
X161989285Y-82132200D02*
X162132142Y-82179819D01*
X162132142Y-82179819D02*
X162227380Y-82179819D01*
X162227380Y-82179819D02*
X162370237Y-82132200D01*
X162370237Y-82132200D02*
X162465475Y-82036961D01*
X162465475Y-82036961D02*
X162513094Y-81941723D01*
X162513094Y-81941723D02*
X162560713Y-81751247D01*
X162560713Y-81751247D02*
X162560713Y-81608390D01*
X162560713Y-81608390D02*
X162513094Y-81417914D01*
X162513094Y-81417914D02*
X162465475Y-81322676D01*
X162465475Y-81322676D02*
X162370237Y-81227438D01*
X162370237Y-81227438D02*
X162227380Y-81179819D01*
X162227380Y-81179819D02*
X162132142Y-81179819D01*
X162132142Y-81179819D02*
X161989285Y-81227438D01*
X161989285Y-81227438D02*
X161941666Y-81275057D01*
X161370237Y-81608390D02*
X161465475Y-81560771D01*
X161465475Y-81560771D02*
X161513094Y-81513152D01*
X161513094Y-81513152D02*
X161560713Y-81417914D01*
X161560713Y-81417914D02*
X161560713Y-81370295D01*
X161560713Y-81370295D02*
X161513094Y-81275057D01*
X161513094Y-81275057D02*
X161465475Y-81227438D01*
X161465475Y-81227438D02*
X161370237Y-81179819D01*
X161370237Y-81179819D02*
X161179761Y-81179819D01*
X161179761Y-81179819D02*
X161084523Y-81227438D01*
X161084523Y-81227438D02*
X161036904Y-81275057D01*
X161036904Y-81275057D02*
X160989285Y-81370295D01*
X160989285Y-81370295D02*
X160989285Y-81417914D01*
X160989285Y-81417914D02*
X161036904Y-81513152D01*
X161036904Y-81513152D02*
X161084523Y-81560771D01*
X161084523Y-81560771D02*
X161179761Y-81608390D01*
X161179761Y-81608390D02*
X161370237Y-81608390D01*
X161370237Y-81608390D02*
X161465475Y-81656009D01*
X161465475Y-81656009D02*
X161513094Y-81703628D01*
X161513094Y-81703628D02*
X161560713Y-81798866D01*
X161560713Y-81798866D02*
X161560713Y-81989342D01*
X161560713Y-81989342D02*
X161513094Y-82084580D01*
X161513094Y-82084580D02*
X161465475Y-82132200D01*
X161465475Y-82132200D02*
X161370237Y-82179819D01*
X161370237Y-82179819D02*
X161179761Y-82179819D01*
X161179761Y-82179819D02*
X161084523Y-82132200D01*
X161084523Y-82132200D02*
X161036904Y-82084580D01*
X161036904Y-82084580D02*
X160989285Y-81989342D01*
X160989285Y-81989342D02*
X160989285Y-81798866D01*
X160989285Y-81798866D02*
X161036904Y-81703628D01*
X161036904Y-81703628D02*
X161084523Y-81656009D01*
X161084523Y-81656009D02*
X161179761Y-81608390D01*
D11*
%TO.C,C12*%
X163857836Y-87315000D02*
X163642164Y-87315000D01*
X163857836Y-88035000D02*
X163642164Y-88035000D01*
%TO.C,C6*%
X159840000Y-95967164D02*
X159840000Y-96182836D01*
X160560000Y-95967164D02*
X160560000Y-96182836D01*
%TO.C,Y1*%
X161800000Y-83750000D02*
X161800000Y-87050000D01*
X161800000Y-87050000D02*
X157800000Y-87050000D01*
%TO.C,C2*%
X160665000Y-98557836D02*
X160665000Y-98342164D01*
X161385000Y-98557836D02*
X161385000Y-98342164D01*
%TO.C,R1*%
X160220000Y-90036359D02*
X160220000Y-90343641D01*
X160980000Y-90036359D02*
X160980000Y-90343641D01*
%TO.C,Y2*%
X164000000Y-85025000D02*
X166400000Y-85025000D01*
X164000000Y-86625000D02*
X164000000Y-85025000D01*
X166400000Y-86625000D02*
X164000000Y-86625000D01*
%TO.C,U3*%
X157477500Y-106065000D02*
X158737500Y-106065000D01*
X157477500Y-109825000D02*
X157477500Y-106065000D01*
X164297500Y-106065000D02*
X163037500Y-106065000D01*
X164297500Y-109825000D02*
X164297500Y-106065000D01*
X164527500Y-111345000D02*
X164197500Y-111105000D01*
X164527500Y-110865000D01*
X164527500Y-111345000D01*
G36*
X164527500Y-111345000D02*
G01*
X164197500Y-111105000D01*
X164527500Y-110865000D01*
X164527500Y-111345000D01*
G37*
%TO.C,C7*%
X161040000Y-95967164D02*
X161040000Y-96182836D01*
X161760000Y-95967164D02*
X161760000Y-96182836D01*
%TO.C,C3*%
X161815000Y-98582836D02*
X161815000Y-98367164D01*
X162535000Y-98582836D02*
X162535000Y-98367164D01*
%TO.C,C4*%
X159340000Y-98607836D02*
X159340000Y-98392164D01*
X160060000Y-98607836D02*
X160060000Y-98392164D01*
%TO.C,C11*%
X165832836Y-87315000D02*
X165617164Y-87315000D01*
X165832836Y-88035000D02*
X165617164Y-88035000D01*
%TO.C,C13*%
X155490000Y-110188748D02*
X155490000Y-110711252D01*
X156960000Y-110188748D02*
X156960000Y-110711252D01*
%TO.C,C14*%
X165215000Y-110317164D02*
X165215000Y-110532836D01*
X165935000Y-110317164D02*
X165935000Y-110532836D01*
%TO.C,C9*%
X158507836Y-87540000D02*
X158292164Y-87540000D01*
X158507836Y-88260000D02*
X158292164Y-88260000D01*
%TO.C,C5*%
X158215000Y-98582836D02*
X158215000Y-98367164D01*
X158935000Y-98582836D02*
X158935000Y-98367164D01*
%TO.C,C1*%
X163090000Y-98582836D02*
X163090000Y-98367164D01*
X163810000Y-98582836D02*
X163810000Y-98367164D01*
%TO.C,C10*%
X161207836Y-87540000D02*
X160992164Y-87540000D01*
X161207836Y-88260000D02*
X160992164Y-88260000D01*
%TO.C,C8*%
X161592164Y-82440000D02*
X161807836Y-82440000D01*
X161592164Y-83160000D02*
X161807836Y-83160000D01*
%TD*%
M02*
